<svg width="572" height="350" fill="none" xmlns="http://www.w3.org/2000/svg"><path d="M.184 349.222h1.509c0-18.775 7.47-36.78 20.767-50.056a70.96 70.96 0 0150.137-20.734 70.96 70.96 0 0150.136 20.734 70.733 70.733 0 0120.768 50.056h1.508a72.237 72.237 0 00-21.209-51.121 72.472 72.472 0 00-51.203-21.175 72.472 72.472 0 00-51.204 21.175A72.237 72.237 0 00.184 349.222zm177.26-172.457h1.509c0-71.423 58.201-129.53 129.739-129.53 71.538 0 129.739 58.107 129.739 129.53h1.508c0-72.254-58.877-131.037-131.247-131.037-72.371 0-131.248 58.783-131.248 131.037z" fill="#C6BEB4"/><path d="M38.795 59.494C22.339 59.494 9 46.176 9 29.747 9 13.318 22.34 0 38.795 0 55.25 0 68.589 13.318 68.589 29.747c0 16.429-13.34 29.747-29.794 29.747z" fill="#FF6584"/><path d="M553.92 224.499l-51.187-60.862H402.096l-61.501 59.807 1.242.797h-.444V348.64H553.85V224.241l.07.258z" fill="#FFF3E5"/><path d="M523.124 198.039h-11.603v-40.101h11.603v40.101z" fill="#FFF3E5"/><path d="M503.531 162.839l-63.097 73.858V348.64H553.85V222.646l-50.319-59.807z" fill="#B5EBE1"/><path d="M455.015 251.354h23.162V275h-23.162v-23.646zm0 32.174h23.162v23.646h-23.162v-23.646z" fill="#3F3D56"/><path d="M455.015 251.354h23.162V275h-23.162v-23.646zm0 32.174h23.162v23.646h-23.162v-23.646z" fill="#fff"/><path d="M487.049 251.354h23.162V275h-23.162v-23.646zm0 32.174h23.162v23.646h-23.162v-23.646z" fill="#3F3D56"/><path d="M487.049 251.354h23.162V275h-23.162v-23.646zm0 32.174h23.162v23.646h-23.162v-23.646z" fill="#fff"/><path d="M519.083 251.354h23.162V275h-23.162v-23.646zm0 32.174h23.162v23.646h-23.162v-23.646z" fill="#3F3D56"/><path d="M519.083 251.354h23.162V275h-23.162v-23.646zm0 32.174h23.162v23.646h-23.162v-23.646z" fill="#fff"/><path d="M293.606 20.123h10.56v26.358h-10.56V20.123z" fill="#B5EBE1"/><path d="M294.36 44.222h89.761v305H294.36v-305z" fill="#B5EBE1"/><path d="M258.154 44.222h36.206v305h-36.206v-305z" fill="#FFF3E5"/><path d="M354.326 70.58h13.578v13.556h-13.578V70.58zm-21.874 0h13.577v13.556h-13.577V70.58zm-21.875 0h13.578v13.556h-13.578V70.58zm43.372 30.877h13.578v13.555h-13.578v-13.555zm-21.874 0h13.577v13.555h-13.577v-13.555zm-21.875 0h13.578v13.555H310.2v-13.555zm43.372 30.876h13.578v13.556h-13.578v-13.556zm-21.874 0h13.577v13.556h-13.577v-13.556zm-21.875 0H323.4v13.556h-13.577v-13.556zm43.372 30.877h13.577v13.555h-13.577V163.21zm-21.874 0h13.577v13.555h-13.577V163.21zm-21.875 0h13.577v13.555h-13.577V163.21zm43.372 30.876h13.578v13.556h-13.578v-13.556zm-21.875 0h13.578v13.556h-13.578v-13.556zm-21.874 0h13.577v13.556h-13.577v-13.556zm43.372 30.877h13.577v13.555h-13.577v-13.555zm-21.875 0h13.578v13.555h-13.578v-13.555zm-21.874 0h13.577v13.555h-13.577v-13.555zm43.372 30.876h13.577v13.556h-13.577v-13.556zm-21.875 0h13.578v13.556h-13.578v-13.556zm-21.875 0h13.578v13.556h-13.578v-13.556zm43.373 30.877h13.577v13.556h-13.577v-13.556zm-21.875 0h13.577v13.556h-13.577v-13.556zm0 36.148h13.577v25.605h-13.577v-25.605zm-21.875-36.148h13.578v13.556h-13.578v-13.556z" fill="#fff"/><path d="M288.325 20.123h6.035v25.605h-6.035V20.123z" fill="#FFF3E5"/><path d="M180.461 154.173h10.56v15.622h-10.56v-15.622z" fill="#B5EBE1"/><path d="M181.216 168.456h89.761v180.766h-89.761V168.456z" fill="#B5EBE1"/><path d="M145.009 168.456h36.206v180.766h-36.206V168.456z" fill="#FFF3E5"/><path d="M239.673 194.086h13.578v13.556h-13.578v-13.556zm-21.874 0h13.577v13.556h-13.577v-13.556zm-21.875 0h13.577v13.556h-13.577v-13.556zm43.372 30.877h13.578v13.555h-13.578v-13.555zm-21.874 0h13.577v13.555h-13.577v-13.555zm-21.875 0h13.578v13.555h-13.578v-13.555zm43.372 30.876h13.578v13.556h-13.578v-13.556zm-21.875 0h13.578v13.556h-13.578v-13.556zm-21.874 0h13.577v13.556H195.17v-13.556zm43.372 30.877h13.577v13.556h-13.577v-13.556zm-21.875 0h13.578v13.556h-13.578v-13.556zm0 36.148h13.578v25.605h-13.578v-25.605zm-21.874-36.148h13.577v13.556h-13.577v-13.556z" fill="#fff"/><path d="M175.181 154.173h6.034v15.175h-6.034v-15.175z" fill="#FFF3E5"/><path d="M0 348.294h554.071V350H0v-1.706z" fill="#C6BEB4"/><path d="M117.357 313.888c-10.848 0-19.643-8.78-19.643-19.611 0-10.83 8.795-19.61 19.643-19.61s19.642 8.78 19.642 19.61c0 10.831-8.794 19.611-19.642 19.611z" fill="#B5EBE1"/><path opacity=".2" d="M102.746 281.179a19.582 19.582 0 00-.702 13.514 19.62 19.62 0 008.232 10.75 19.675 19.675 0 0013.246 2.87 19.656 19.656 0 0011.954-6.379 19.61 19.61 0 01-4.91 6.858 19.656 19.656 0 01-15.752 4.874 19.654 19.654 0 01-13.921-8.828 19.59 19.59 0 01-2.278-16.307 19.597 19.597 0 014.131-7.352z" fill="#000"/><path d="M117.303 294.278h-.054l-.971 55.599h2.05l-1.025-55.599z" fill="#C6BEB4"/><path d="M113.726 324.562l.453-.858 3.247 1.707-.453.858-3.247-1.707z" fill="#C6BEB4"/><path d="M59.609 295.15c-16.497 0-29.87-13.352-29.87-29.822s13.373-29.822 29.87-29.822c16.496 0 29.87 13.352 29.87 29.822s-13.374 29.822-29.87 29.822z" fill="#B5EBE1"/><path opacity=".2" d="M37.39 245.409a29.78 29.78 0 00-1.066 20.551 29.83 29.83 0 0012.517 16.348 29.914 29.914 0 0020.143 4.363 29.893 29.893 0 0018.178-9.699 29.83 29.83 0 01-7.466 10.429 29.913 29.913 0 01-36.019 3.024 29.848 29.848 0 01-9.105-9.038 29.792 29.792 0 01-3.464-24.798 29.814 29.814 0 016.282-11.18z" fill="#000"/><path d="M59.527 265.328h-.082l-1.477 84.549h3.118l-1.56-84.549z" fill="#C6BEB4"/><path d="M54.088 311.381l.688-1.305 4.937 2.596-.688 1.305-4.937-2.596z" fill="#C6BEB4"/><path d="M152.944 15.623L146 10.078c5.394-.595 7.611 2.343 8.518 4.668 4.214-1.748 8.802.542 8.802.542l-13.893 5.036a10.5 10.5 0 013.517-4.702zm408.125 30.358l-6.944-5.545c5.395-.594 7.611 2.343 8.518 4.668 4.215-1.747 8.802.543 8.802.543l-13.893 5.036a10.5 10.5 0 013.517-4.702zM57.944 54.623L51 49.078c5.394-.595 7.61 2.343 8.518 4.668 4.214-1.748 8.802.542 8.802.542l-13.893 5.036c.7-1.87 1.92-3.5 3.517-4.701zM503.743 30.92l-6.944-5.545c5.394-.594 7.611 2.343 8.518 4.668 4.214-1.747 8.802.542 8.802.542l-13.893 5.036a10.5 10.5 0 013.517-4.701zM490.92 91.166l-6.944-5.544c5.394-.595 7.611 2.343 8.518 4.668 4.214-1.748 8.802.542 8.802.542l-13.893 5.036c.7-1.87 1.921-3.5 3.517-4.702zm-270.039 31.63l-6.944-5.545c5.395-.594 7.611 2.343 8.518 4.668 4.215-1.747 8.802.543 8.802.543l-13.893 5.035a10.497 10.497 0 013.517-4.701z" fill="#3F3D56"/><path d="M363.755 339.432c1.846 0 3.659.485 5.257 1.408a11.315 11.315 0 0117.06 2.227 11.274 11.274 0 011.821 6.155h-34.66a10.528 10.528 0 013.332-6.962 10.562 10.562 0 017.19-2.828zm-116.916 0c1.846 0 3.659.485 5.257 1.408a11.315 11.315 0 0117.06 2.227 11.274 11.274 0 011.821 6.155h-34.66a10.528 10.528 0 013.332-6.962 10.562 10.562 0 017.19-2.828zm-153.876 0c1.845 0 3.659.485 5.257 1.408a11.312 11.312 0 0117.059 2.227 11.266 11.266 0 011.821 6.155H82.44a10.53 10.53 0 013.332-6.962 10.564 10.564 0 017.19-2.828zm-73.921 0c1.846 0 3.659.485 5.257 1.408a11.313 11.313 0 0117.06 2.227 11.27 11.27 0 011.82 6.155H8.52a10.53 10.53 0 013.332-6.962 10.564 10.564 0 017.19-2.828z" fill="#C6BEB4"/></svg>