<svg width="563" height="367" fill="none" xmlns="http://www.w3.org/2000/svg"><path d="M282.137 350.706c154.773-8.57 279.818-23.171 279.295-32.613-.523-9.441-126.416-10.149-281.19-1.579C125.469 325.084.424 339.685.947 349.126c.523 9.442 126.416 10.149 281.19 1.58z" fill="#F8EDDF"/><g opacity=".1"><path opacity=".1" d="M330.374 219.84s16.757-39.684 48.046-54.406c13.136-6.179 23.994-16.083 30.65-28.593a107.026 107.026 0 007.665-18.548" stroke="#535461" stroke-width="2" stroke-miterlimit="10"/><path opacity=".1" d="M436.409 108.905c-3.257 3.943-20.143 9.693-20.143 9.693s2.036-17.104 5.282-21.041a9.756 9.756 0 0113.335-1.462 8.88 8.88 0 013.522 6.077 8.875 8.875 0 01-1.996 6.733zm-5.793 31.21c-4.966 1.602-22.392-2.388-22.392-2.388s11.381-13.29 16.346-14.898c4.966-1.608 10.348.968 12.015 5.739a9.03 9.03 0 01-.534 7.04 9.034 9.034 0 01-5.435 4.507zm-31.407 36.89c-5.13-1.021-18.078-12.909-18.078-12.909s16.822-5.967 21.94-4.923a9.14 9.14 0 015.946 3.843 9.125 9.125 0 011.408 6.936c-1.062 4.912-6.086 8.08-11.216 7.053zm-30.303 22.773c-5.236-.176-20.091-9.799-20.091-9.799s15.519-8.602 20.754-8.426c5.235.176 9.332 4.401 9.15 9.429-.182 5.029-4.578 8.972-9.813 8.796zm23.101-73.2c.669 4.994 12.015 18.313 12.015 18.313s7.471-15.649 6.802-20.642c-.669-4.994-5.423-8.52-10.623-7.881-5.2.64-8.863 5.217-8.194 10.21zm-35.092 27.062c2.195 4.571 17.167 14.018 17.167 14.018s2.26-17.081.065-21.652a9.658 9.658 0 00-12.584-4.436 8.974 8.974 0 00-5.486 8.583 8.977 8.977 0 00.838 3.487zm-30.351 30.8c1.356 4.864 14.456 16.605 14.456 16.605s5.23-16.465 3.868-21.329c-1.361-4.864-6.556-7.751-11.621-6.454a9.09 9.09 0 00-5.715 4.172 9.085 9.085 0 00-.988 7.006z" fill="#6167FF"/><path opacity=".25" d="M436.409 108.905c-3.257 3.943-20.143 9.693-20.143 9.693s2.036-17.104 5.282-21.041a9.756 9.756 0 0113.335-1.462 8.88 8.88 0 013.522 6.077 8.875 8.875 0 01-1.996 6.733zm-5.793 31.21c-4.966 1.602-22.392-2.388-22.392-2.388s11.381-13.29 16.346-14.898c4.966-1.608 10.348.968 12.015 5.739a9.03 9.03 0 01-.534 7.04 9.034 9.034 0 01-5.435 4.507zm-31.407 36.89c-5.13-1.021-18.078-12.909-18.078-12.909s16.822-5.967 21.94-4.923a9.14 9.14 0 015.946 3.843 9.125 9.125 0 011.408 6.936c-1.062 4.912-6.086 8.08-11.216 7.053zm-30.303 22.773c-5.236-.176-20.091-9.799-20.091-9.799s15.519-8.602 20.754-8.426c5.235.176 9.332 4.401 9.15 9.429-.182 5.029-4.578 8.972-9.813 8.796zm23.101-73.2c.669 4.994 12.015 18.313 12.015 18.313s7.471-15.649 6.802-20.642c-.669-4.994-5.423-8.52-10.623-7.881-5.2.64-8.863 5.217-8.194 10.21zm-35.092 27.062c2.195 4.571 17.167 14.018 17.167 14.018s2.26-17.081.065-21.652a9.658 9.658 0 00-12.584-4.436 8.974 8.974 0 00-5.486 8.583 8.977 8.977 0 00.838 3.487zm-30.351 30.8c1.356 4.864 14.456 16.605 14.456 16.605s5.23-16.465 3.868-21.329c-1.361-4.864-6.556-7.751-11.621-6.454a9.09 9.09 0 00-5.715 4.172 9.085 9.085 0 00-.988 7.006z" fill="#000"/></g><g opacity=".1"><path opacity=".1" d="M342.916 159.76s2.112-42.781 26.552-66.64c10.26-10.016 17.086-22.819 19.046-36.743a105.21 105.21 0 00.846-19.95" stroke="#535461" stroke-width="2" stroke-miterlimit="10"/><path opacity=".1" d="M404.673 21.282c-1.72 4.753-15.665 15.561-15.665 15.561s-3.968-16.734-2.266-21.517c1.702-4.782 7.126-7.276 12.073-5.62a9.04 9.04 0 016.332 8.014 9.037 9.037 0 01-.474 3.562zm5.3 31.31c-4.109 3.098-21.946 4.888-21.946 4.888s6.146-16.171 10.278-19.264a9.743 9.743 0 0113.317 1.585 8.88 8.88 0 01.763 10.14 8.873 8.873 0 01-2.412 2.651zM393.075 97.41c-5.194.669-21.517-6.455-21.517-6.455s13.805-10.978 18.993-11.641c5.189-.663 9.978 2.834 10.665 7.822.686 4.987-2.953 9.605-8.141 10.274zm-20.736 31.14c-5.001 1.502-22.333-2.846-22.333-2.846s11.674-13.056 16.675-14.558c5-1.502 10.318 1.174 11.885 5.979a9.049 9.049 0 01-.695 7.03 9.052 9.052 0 01-5.532 4.395zm-3.463-76.421c2.348 4.494 17.655 13.443 17.655 13.443s1.649-17.14-.704-21.64a9.668 9.668 0 00-12.737-4.043 8.944 8.944 0 00-5.19 8.782 8.943 8.943 0 00.976 3.458zm-23.748 36.714c3.645 3.614 21.03 7.751 21.03 7.751s-3.762-16.828-7.407-20.443a9.764 9.764 0 00-13.417-.2 8.859 8.859 0 00-2.883 6.402 8.874 8.874 0 002.677 6.49zm-18.025 38.727c2.935 4.154 19.369 11.061 19.369 11.061s-.757-17.199-3.692-21.359a9.739 9.739 0 00-13.188-2.347 8.902 8.902 0 00-2.489 12.645z" fill="#6167FF"/></g><path opacity=".1" d="M218.884 285.799c5.851 0 10.594-.652 10.594-1.456 0-.803-4.743-1.455-10.594-1.455-5.851 0-10.594.652-10.594 1.455 0 .804 4.743 1.456 10.594 1.456zm-40.58 4.113c5.851 0 10.594-.652 10.594-1.455 0-.804-4.743-1.456-10.594-1.456-5.851 0-10.594.652-10.594 1.456 0 .803 4.743 1.455 10.594 1.455zm-47.8-5.569c5.851 0 10.594-.651 10.594-1.455 0-.803-4.743-1.455-10.594-1.455-5.851 0-10.594.652-10.594 1.455 0 .804 4.743 1.455 10.594 1.455zm64.04 16.858c4.159 0 7.53-.462 7.53-1.032 0-.571-3.371-1.033-7.53-1.033-4.159 0-7.53.462-7.53 1.033 0 .57 3.371 1.032 7.53 1.032zm-42.118-1.032c4.159 0 7.53-.463 7.53-1.033 0-.57-3.371-1.033-7.53-1.033-4.159 0-7.53.463-7.53 1.033 0 .57 3.371 1.033 7.53 1.033z" fill="#A8A8A8"/><path d="M178.075 288.128s14.855-48.702-2.348-68.194c-12.854-14.587-27.445-12.845-33.977-11.038a12.053 12.053 0 00-7.795 6.455c-2.283 4.929-1.872 12.909 14.251 22.262 26.999 15.626 28.683 37.066 28.683 37.066l1.186 13.449z" fill="#B5EBE1"/><path d="M144.097 215.803s43.797 13.689 33.978 72.325m-8.399-67.42s-6.028 4.066-4.108 10.169m-17.063-6.572s3.686-3.749 8.17-1.678m9.127 20.554s6.456-3.285 8.147.828m7.87 6.02s-4.859-.387-4.947 1.936" stroke="#F8EDDF" stroke-miterlimit="10"/><path d="M178.674 288.515s-17.397-35.388-22.181-34.619c-2.265.37-3.316 2.599-3.785 4.847a14.243 14.243 0 00.945 8.613c2.482 5.651 9.103 16.424 25.021 21.159z" fill="#B5EBE1"/><path d="M156.622 260.62s18.295 26.47 21.817 27.643m-23.495-23.512h4.261m.845 9.688l6.685.287m-2.617-8.038l-.728 3.479m7.835 7.112l-.129 3.163" stroke="#F8EDDF" stroke-miterlimit="10"/><path d="M178.157 288.515s17.403-35.388 22.186-34.619c2.266.37 3.316 2.599 3.786 4.847.587 2.899.257 5.91-.945 8.613-2.442 5.651-9.103 16.424-25.027 21.159z" fill="#B5EBE1"/><path d="M200.208 260.62s-18.247 26.47-21.769 27.643m23.448-23.512h-4.261m-.846 9.688l-6.679.287m2.618-8.038l.722 3.479m-7.83 7.112l.129 3.163" stroke="#F8EDDF" stroke-miterlimit="10"/><path d="M148.282 296.783a3.044 3.044 0 01-.992-1.496 1.32 1.32 0 01.693-1.52c.634-.246 1.315.194 1.831.64.517.445 1.104.95 1.761.856a2.717 2.717 0 01-.839-2.535c.031-.188.112-.364.234-.51.353-.382.992-.217 1.415.082 1.344.945 1.72 2.77 1.725 4.407a8.082 8.082 0 000-1.813 1.858 1.858 0 01.687-1.608 2.025 2.025 0 011.039-.247 2.158 2.158 0 011.69.482 1.686 1.686 0 01-.064 2.071 6.587 6.587 0 01-1.761 1.402c-.5.292-.927.694-1.25 1.174a.867.867 0 00-.094.211h-3.786a10.738 10.738 0 01-2.289-1.596zm66.306-14.253a3.04 3.04 0 01-.992-1.496 1.317 1.317 0 01.693-1.52c.634-.246 1.315.194 1.831.64.517.446 1.103.95 1.761.856a2.709 2.709 0 01-.84-2.534 1.08 1.08 0 01.235-.511c.352-.381.992-.217 1.415.082 1.344.945 1.719 2.77 1.725 4.407a8.082 8.082 0 000-1.813 1.869 1.869 0 01.681-1.608c.32-.173.681-.259 1.045-.246a2.152 2.152 0 011.69.481 1.675 1.675 0 01-.07 2.071 6.43 6.43 0 01-1.761 1.402 3.775 3.775 0 00-1.244 1.174.83.83 0 00-.094.211h-3.786c-.83-.428-1.6-.965-2.289-1.596zm-22.098 14.253a3.037 3.037 0 01-.992-1.496 1.326 1.326 0 01.075-.884c.127-.277.345-.501.618-.636.634-.246 1.314.194 1.831.64.516.445 1.103.95 1.761.856a2.7 2.7 0 01-.84-2.535c.032-.188.113-.364.235-.51.352-.382.992-.217 1.415.082 1.344.945 1.719 2.77 1.725 4.407a8.082 8.082 0 000-1.813 1.865 1.865 0 01.681-1.608c.32-.174.681-.259 1.045-.247a2.169 2.169 0 011.69.482 1.674 1.674 0 01-.07 2.071 6.449 6.449 0 01-1.761 1.402 3.775 3.775 0 00-1.244 1.174.83.83 0 00-.094.211h-3.786c-.83-.429-1.6-.965-2.289-1.596zm-62.673-28.81s-1.42 1.854.658 4.653c2.077 2.799 3.785 5.169 3.093 6.912 0 0-3.128-5.199-5.682-5.281-2.553-.082-.868-3.157 1.931-6.284z" fill="#B5EBE1"/><path opacity=".1" d="M129.817 267.973c-.124.18-.221.378-.287.586-2.489 2.934-3.809 5.645-1.421 5.71 2.225.064 4.895 4.043 5.535 5.052 0 .076-.047.152-.076.223-.029.07-3.128-5.199-5.682-5.281-2.553-.082-.868-3.163 1.931-6.29z" fill="#B5EBE1"/><path d="M127.182 270.337c0 .652.07 1.174.158 1.174.089 0 .165-.528.165-1.174 0-.645-.088-.346-.182-.346s-.141-.311-.141.346z" fill="#FFD037"/><path d="M126.272 271.118c.587.311 1.074.498 1.121.416.047-.082-.387-.393-.962-.704-.575-.311-.346-.088-.393 0-.047.088-.335-.029.234.288z" fill="#FFD037"/><path d="M137.318 267.973s1.415 1.854-.657 4.653c-2.072 2.799-3.786 5.169-3.093 6.912 0 0 3.128-5.199 5.676-5.281 2.547-.082.874-3.157-1.926-6.284z" fill="#B5EBE1"/><path opacity=".1" d="M137.318 267.973c.122.181.219.379.288.586 2.482 2.934 3.809 5.645 1.42 5.71-2.224.064-4.895 4.043-5.535 5.052 0 .076.047.152.077.223.029.07 3.128-5.199 5.675-5.281 2.548-.082.875-3.163-1.925-6.29z" fill="#000"/><path d="M139.954 270.337c0 .652-.071 1.174-.165 1.174-.094 0-.164-.528-.164-1.174 0-.645.094-.346.182-.346s.147-.311.147.346z" fill="#FFD037"/><path d="M140.875 271.118c-.587.311-1.074.498-1.115.416-.041-.082.387-.393.962-.704.575-.311.347-.088.388 0 .041.088.352-.029-.235.288z" fill="#FFD037"/><path d="M139.502 279.297s-3.968-.123-5.165-.974c-1.198-.851-6.105-1.866-6.398-.499-.293 1.368-5.969 6.789-1.485 6.825 4.484.035 10.412-.699 11.604-1.426 1.191-.728 1.444-3.926 1.444-3.926z" fill="#A8A8A8"/><path opacity=".2" d="M126.372 284.156c4.484.035 10.412-.699 11.603-1.426.91-.552 1.274-2.541 1.397-3.456h.129s-.252 3.198-1.444 3.925c-1.191.728-7.125 1.461-11.603 1.426-1.297 0-1.761-.469-1.72-1.174.182.458.675.705 1.638.705z" fill="#000"/><path d="M102.839 211.565l-.002-.006a5.183 5.183 0 00-6.497-3.391l-12.224 3.837a5.18 5.18 0 00-3.393 6.495l.002.006a5.183 5.183 0 006.497 3.391l12.225-3.837a5.18 5.18 0 003.392-6.495z" fill="#B5EBE1"/><path d="M382.498 64.216c.88 2.934-3.034 21.318-3.034 21.318s-2.055 4.524-1.661 4.952c.393.428-1.468 4.436-5.576 4.043-4.109-.393-10.565-1.76-13.793-1.174-2.413.44-9.315-1.525-12.543-3.315-1.098-.587-1.761-1.203-1.702-1.672.252-1.855 6.415-10.269 6.415-10.269.924.246 1.866.415 2.817.505.259 0 .446-.03.511-.112.293-.393 7.143 2.054 8.217 2.74 1.074.687 4.009.558 4.009.558a24.756 24.756 0 014.014-6.525 9.89 9.89 0 002.26-4.964c.259-1.448.6-2.88 1.021-4.29.587-1.959 1.121-4.5.435-5.415-1.174-1.567-12.719-18.97-2.741-18.677 9.978.293 11.838 14.083 11.838 14.083s-1.367 5.28-.487 8.214zm-45 16.477l-8.217 3.52-9.538 2.934s-21.863-17.75-16.287-19.07a9.56 9.56 0 002.747-1.173 21.682 21.682 0 004.419-3.808 38.884 38.884 0 003.839-4.97s21.57-1.027 18.195 4.107c-1.315 2-.869 5.252.164 8.473.059.194.123.387.188.587a54.265 54.265 0 004.49 9.4z" fill="#FBBEBE"/><path d="M283.453 179.481s-3.786-3.52-5.165 1.902a55.659 55.659 0 00-1.632 8.889s-2.09 6.39-3.193 8.145c-1.103 1.754-5.347 18.072 2.759 16.429 0 0 2.981-.634 3.562-7.516.581-6.883 5.594-27.414 5.594-27.414l-1.925-.435z" fill="#3F3D56"/><path d="M344.981 192.326c-8.217 3.075-18.042 2.283-23.236 1.526-2.242-.323-3.616-.646-3.616-.646l-25.678-2.64-.517.54-3.298 3.432-3.815 9.23s-10.272 14.083-11.446 5.721a34.46 34.46 0 01-.217-5.516c.235-8.913 2.565-20.742 2.565-20.742l23.331-3.08 14.673-7.628.159-7.957.035-1.954.1-4.905 19.955 1.907 3.522 7.921.035.035c.517.481 7.09 6.648 9.062 8.62 1.973 1.971 10.125 11.735-1.614 16.136z" fill="#FBBEBE"/><path d="M288.366 195.195s-10.477.44-11.152-1.437l-3.246 7.739s9.538 3.668 10.858 2.271l3.54-8.573z" fill="#B5EBE1"/><path d="M270 171.349s-6.82-3.374-7.7 3.08a47.597 47.597 0 00-.441 10.492s-1.76 7.698-3.081 9.899c-1.321 2.2-4.108 21.663 8.288 18.336 0 0 4.548-1.244 3.815-9.241-.734-7.998 2.254-32.419 2.254-32.419l-3.135-.147z" fill="#3F3D56"/><path opacity=".1" d="M307.711 156.093l21.276 18.776s12.326 6.602-2.347 17.897c0 0-6.603 2.787-16.728 1.76a89.806 89.806 0 01-18.488-3.96s-7.631-1.174-10.272 2.933c-2.641 4.108-8.51 13.056-8.51 13.056s-7.19 14.229-11.886-3.374l6.016-17.163s.294-5.721 0-7.041c-.293-1.32 3.962-7.188 6.163-5.281s5.136 4.547 7.63 4.401c2.495-.147 8.804-.294 8.804-.294l-3.668-1.32s-10.565-2.934-9.831-5.134c.733-2.201 5.869-12.909 5.869-12.909l25.972-2.347z" fill="#000"/><path d="M325.466 192.766a23.155 23.155 0 01-3.722 1.085 41.172 41.172 0 01-13.006.675 91.595 91.595 0 01-16.804-3.421c-1.08-.328-1.684-.539-1.684-.539s-7.631-1.174-10.272 2.933c-1.761 2.705-4.877 7.505-6.82 10.474l-1.69 2.582s-7.19 14.229-11.886-3.374l6.016-17.163s.294-5.721 0-7.041c-.199-.898 1.697-3.885 3.622-5.111.91-.587 1.831-.786 2.541-.17a28.86 28.86 0 004.696 3.573 5.628 5.628 0 002.934.828c2.495-.147 8.804-.294 8.804-.294l-3.668-1.32a57.34 57.34 0 01-5.869-2.024c-2.283-.963-4.279-2.113-3.944-3.11.733-2.201 5.869-12.909 5.869-12.909l25.972-2.347 7.383 6.519 3.164 2.787 10.729 9.47s12.308 6.602-2.365 17.897z" fill="#FBBEBE"/><path opacity=".1" d="M306.978 183.231s-5.576-7.481-18.782-5.428" stroke="#000" stroke-miterlimit="10"/><path opacity=".1" d="M265.011 184.774l-4.255 9.752s4.696 10.785 13.793 9.172l5.594-10.134s-12.631-1.314-15.132-8.79z" fill="#000"/><path d="M264.425 185.361l-4.256 9.752s4.696 10.785 13.793 9.171l5.594-10.133s-12.631-1.314-15.131-8.79z" fill="#B5EBE1"/><path opacity=".1" d="M347.622 89.347c-.606.178-1.196.41-1.761.693-1.097-.587-1.76-1.203-1.702-1.672.253-1.855 6.415-10.269 6.415-10.269.924.246 1.866.415 2.818.505.992 6.495-3.968 10.327-5.77 10.743zm-10.124-8.067l-8.217 3.52-9.538 2.934s-21.863-17.75-16.287-19.07a9.56 9.56 0 002.747-1.174c3.286 4.32 11.046 8.802 11.046 8.802 6.491 2.347 12.39-1.936 15.571-5.023a53.05 53.05 0 004.678 10.01z" fill="#000"/><path d="M346.449 89.348c-1.908.44-10.565 5.427-10.565 5.427l-5.429 9.389s.147 5.281 0 8.801c-.147 3.521-4.256 3.081-4.256 3.081l-.199.082c-1.051.44-5.981 2.511-5.981 2.558 0 .047-10.107-1.027-10.107-1.027l-19.809-3.227s-6.31-.293-8.364-2.347l-.058-.059c-1.984-2.024-1.233-3.485 1.966-5.955 3.199-2.471.733-6.308.733-6.308s-1.76-6.308-1.76-10.122-1.908-3.667-1.908-3.667-1.321 0 4.549-3.814c5.869-3.814-.734-21.564 1.32-19.07 2.055 2.493 5.87 1.173 6.163-.294.294-1.467 6.31 1.907 6.31 1.907s2.641-1.613 3.521 0a1.913 1.913 0 002.348 1.027c1.467 4.841 12.326 11.149 12.326 11.149 9.684 3.52 18.048-7.775 18.048-7.775s3.228.88 3.668 2.212c.441 1.332 4.109 1.268 4.109 1.268s4.402.48 4.549 1.801c.146 1.32 4.402 3.08 4.402 3.08 1.76 7.188-3.669 11.443-5.576 11.883z" fill="#fff"/><path opacity=".1" d="M326.199 114.872l-.199 1.256c-1.051.44-5.981 2.511-5.981 2.558 0 .047-10.107-1.027-10.107-1.027l-19.809-3.227s-6.31-.293-8.364-2.347l-.059-.059.059-1.115 3.228-.586s31.694 1.76 36.096 3.814l5.136.733zm11.334 52.698c0 .728-.035 1.138-.035 1.138s-6.163-9.535-14.233-4.841a10.344 10.344 0 01-6.181 1.532 9.779 9.779 0 01-3.198-.833 12.636 12.636 0 01-4.414-3.339s-14.087 2.934-18.929 6.895c-4.842 3.96-8.804-1.174-8.804-1.174s-1.379 6.026-3.099 7.511c-2.283-.963-4.279-2.113-3.944-3.11.734-2.201 5.869-12.909 5.869-12.909l25.972-2.347 7.384 6.519.1-4.906 19.955 1.907 3.522 7.922.035.035z" fill="#000"/><path d="M284.967 111.498s31.694 1.761 36.096 3.814l5.136.734-.88 5.574s8.363 8.655 10.858 9.682c2.494 1.027 1.321 36.233 1.321 36.233s-6.163-9.535-14.234-4.841c-8.07 4.694-13.793-2.64-13.793-2.64s-14.086 2.933-18.928 6.894c-4.842 3.961-8.804-1.173-8.804-1.173s-1.614 7.041-3.522 7.774c-1.907.734-2.348 5.428-2.348 5.428s-5.282-1.027-5.282-2.64c0-1.614-.147-2.201-1.174-3.374-1.027-1.174-1.174-4.988-1.174-4.988s.587-4.401-1.32-6.161c-1.908-1.76-1.761-9.242-1.761-9.242s-.886-4.841 0-6.014c.886-1.174 1.467-9.095 1.467-9.095s2.935-8.215 4.549-11.295c1.614-3.081 9.391-8.362 9.391-8.362h.863l.293-5.721 3.246-.587z" fill="#B5EBE1"/><path d="M320.084 123.867a.927.927 0 100-1.854.927.927 0 000 1.854zm-4.942 21.03a.927.927 0 100-1.854.927.927 0 000 1.854zm6.509-7.141a.927.927 0 100-1.854.927.927 0 000 1.854z" fill="#3F3D56"/><path opacity=".1" d="M283.107 118.686h1.174s-7.043 16.136-7.431 11.636c-.387-4.501 6.257-11.636 6.257-11.636zm8.416 1.174s-8.023 12.322-4.108 14.082c3.915 1.76 7.43-13.496 7.43-13.496l-3.322-.586zm10.659 7.111s3.034 18.707 6.456 22.327c3.422 3.62-.587 6.161-.587 6.161s12.032 1.074 15.848 1.854c3.815.781 9.684-.88 7.336-2.441-2.348-1.56-.387-18.19-.194-18.976.194-.786-7.53 14.423-28.859-8.925zm-13.007-21.974c.681-.294 11.639-15.679 14.28-14.44 2.642 1.237-14.28 14.44-14.28 14.44zm1.368-13.596s-4.402 6.748-3.128 7.922c1.274 1.173 3.128-7.922 3.128-7.922zm5.91-25.524s4.461 8.901 3.188 10.562c-1.274 1.66-3.188-10.562-3.188-10.562zM346.496 78.1s-.88 5.186-2.054 5.38c-1.174.193 2.054-5.38 2.054-5.38zm-21.13 1.666s12.425 3.04 13.405 3.72c.981.68-10.764.68-13.405-3.72zm45.781 8.801s-1.561-6.067-3.615-5.967c-2.055.1 3.615 5.967 3.615 5.967z" fill="#000"/><path d="M365.729 49.078c-.763 1.578-2.424 2.84-2.4 4.594 0 .833.417 1.602.587 2.423a4.894 4.894 0 01-1.174 3.943 8.412 8.412 0 01-3.481 2.348c-.769.299-1.62.586-2.089 1.25-.769 1.108-.1 2.587.217 3.901.505 2.119-.329 4.765-2.401 5.422-1.109.352-2.435.112-3.351.822-.916.71-1.009 2.13-1.579 3.186a3.65 3.65 0 01-4.777 1.431 3.69 3.69 0 01.205-1.596 3.007 3.007 0 01-3.351-1.367 4.002 4.002 0 01.029-3.52 13.183 13.183 0 012.101-3.005 44.243 44.243 0 006.374-9.799 25.5 25.5 0 002.46-11.36 8.693 8.693 0 00-.664-3.391 8.412 8.412 0 00-2.312-2.805c-.487-.422-1.004-.821-1.509-1.226-.352-.282-.704-.587-1.039-.857-.457-.405-2.277-1.89-2.13-2.605.082-.41 1.315-.352 2.389-.364.393.008.786-.023 1.174-.094a1.18 1.18 0 00.24-.07 9.192 9.192 0 011.11-.546c1.091-.34 2.218.346 3.128 1.039a38.922 38.922 0 004.108 2.975 8.033 8.033 0 004.843 1.173 4.383 4.383 0 011.631-.07c1.039.276 1.497 1.467 1.761 2.511.429 1.866.734 3.92-.1 5.657zm-57.577-14.945a6.038 6.038 0 00-.669.117c-.622.174-1.227.404-1.808.686a26.453 26.453 0 00-2.935 1.76l-7.231 4.73a5.967 5.967 0 00-1.761 1.514c-1.226 1.801-.076 4.377 1.703 5.645.821.586 1.76.997 2.564 1.596a3.512 3.512 0 011.573 2.464c.088 1.532-1.32 2.734-2.735 3.315-1.414.581-2.999.81-4.237 1.708a2.442 2.442 0 01-.846.481 1.86 1.86 0 01-1.068-.205 44.363 44.363 0 01-6.386-3.292.857.857 0 01.265.921 12.742 12.742 0 01-7.284-18.571c.757-1.297 1.76-2.465 2.347-3.832s.81-3.063 0-4.313c-.587-.874-1.614-1.46-1.919-2.464-.305-1.003.329-2.206 1.098-3.022 1.696-1.76 4.038-2.816 5.91-4.424 1.872-1.608 3.287-4.272 2.225-6.496-.846-1.76-3.117-3.069-2.736-4.987a3.402 3.402 0 011.626-2.025 9.67 9.67 0 019.391-.586 2.165 2.165 0 01.922-2.347 2.107 2.107 0 012.5.287c.259.33.538.646.834.945a.803.803 0 001.121-.047c.094-.18.137-.384.123-.587a7.368 7.368 0 01.81-3.104 23.603 23.603 0 013.955 10.319 23.6 23.6 0 01-1.179 10.987 8.401 8.401 0 00-.781 3.08c.065 2.212 2.137 3.855 4.215 4.606l.111.036c.652.21 1.761.393 2.841.692 1.42.393 2.788.992 2.934 2.112.317 1.825-3.638 2.048-5.493 2.3z" fill="#3F3D56"/><path d="M277.924 42.306c-1.074 1.174-6.65 14.376-6.65 14.376.464 3.233 10.318 7.076 14.491 8.561 1.127.405 1.843.634 1.843.634l4.009 3.52s-4.108 22.69-4.437 17.116c-.329-5.574-7.595-8.414-7.595-8.414s-1.902-.774-4.179-1.825c-3.193-1.46-7.137-3.444-7.63-4.53-.88-1.86-2.054-2.447-8.123-7.921-6.069-5.475-2.054-9.975-1.855-10.562.974-2.934 10.759-15.884 10.759-15.884l14.162-17.269s3.909-16.036 13.735-9.781c9.825 6.255-11.193 21.224-11.193 21.224s-6.263 9.582-7.337 10.755z" fill="#FBBEBE"/><path opacity=".1" d="M291.617 69.397s-4.108 22.69-4.437 17.117c-.329-5.575-7.595-8.415-7.595-8.415s-1.902-.774-4.179-1.825c.734-5.198 6.145-8.9 10.359-11.03 1.127.404 1.843.633 1.843.633l4.009 3.52z" fill="#000"/><path d="M296.354 67.01l-4.303-3.92s-27.832 8.801-9.05 25.477h7.918l7.254-9.635-1.819-11.923z" fill="#fff"/><path opacity=".1" d="M332.802 70.683c.059.193.123.387.188.586a21.167 21.167 0 01-22.386-8.185 38.884 38.884 0 003.839-4.97s21.57-1.027 18.195 4.107c-1.297 1.99-.851 5.24.164 8.462z" fill="#000"/><path d="M348.937 50.192a21.118 21.118 0 01-13.044 19.516 21.134 21.134 0 01-23.026-4.579 21.12 21.12 0 013.202-32.5 21.129 21.129 0 0111.738-3.56 21.053 21.053 0 0119.544 13.027 21.034 21.034 0 011.586 8.096z" fill="#FBBEBE"/><path opacity=".1" d="M348.937 50.192a21.048 21.048 0 01-1.643 8.174 9.517 9.517 0 01-3.598.059 2.13 2.13 0 01-1.274-.587 2.347 2.347 0 01-.428-1.174 931.573 931.573 0 01-.658-3.896c-1.901.745-4.108.194-5.869-.804-1.761-.997-3.31-2.388-5.024-3.52-1.714-1.133-3.762-1.937-5.776-1.573a9.77 9.77 0 00-3.087 1.297 21.577 21.577 0 00-5.282 3.949c-1.068 1.173-2.002 2.582-3.481 3.116a3.686 3.686 0 01-4.595-2.347c-.312-1.086-.1-2.248-.229-3.369a2.624 2.624 0 00-1.121-1.948 21.132 21.132 0 0136.371-11.88 21.115 21.115 0 015.729 14.48l-.035.023z" fill="#000"/><path d="M307.957 48.954c.129 1.121-.082 2.283.229 3.368a3.684 3.684 0 004.596 2.347c1.479-.533 2.412-1.953 3.48-3.115a21.593 21.593 0 015.282-3.95 9.773 9.773 0 013.088-1.296c2.013-.364 4.055.464 5.775 1.572 1.72 1.11 3.24 2.506 5.024 3.521 1.785 1.015 3.974 1.55 5.87.804l.657 3.896c.034.423.182.828.429 1.174.346.333.795.54 1.273.587a9.505 9.505 0 004.373-.253 2.513 2.513 0 001.714-1.22c.112-.297.171-.61.176-.927a50.871 50.871 0 00-3.393-21.993c-1.003-2.546-2.283-5.099-4.443-6.77a17.922 17.922 0 00-4.108-2.172c-4.391-1.86-9.227-3.755-13.811-2.423-2.019.587-3.809 1.76-5.57 2.934l-8.217 5.45a5.136 5.136 0 00-1.174.969 5.594 5.594 0 00-.886 1.936 37.543 37.543 0 01-3.369 7.558 3.743 3.743 0 00-.634 1.566 3.57 3.57 0 00.34 1.508c.423 1.098.587 1.913 1.55 2.559.962.645 1.596 1.103 1.749 2.37z" fill="#3F3D56"/><path opacity=".1" d="M296.858 54.182c-1.414.587-2.999.81-4.237 1.708a2.442 2.442 0 01-.846.481 1.86 1.86 0 01-1.068-.205 43.915 43.915 0 01-6.456-3.35.852.852 0 01.352.98 12.95 12.95 0 01-8.147-7.529c-.469-1.203.089 1.285 0 0-.129 1.872-.68 0 0 1.76a12.945 12.945 0 008.124 7.529.85.85 0 00-.352-.98 43.875 43.875 0 006.456 3.35c.327.174.699.245 1.068.206.311-.103.599-.266.845-.482 1.239-.897 2.823-1.132 4.238-1.707 1.414-.575 2.823-1.76 2.735-3.315a2.48 2.48 0 00-.17-.746 4.562 4.562 0 01-2.542 2.3zm6.697-31.55c.009.251.044.501.106.745.175-.704.401-1.394.675-2.065a22.89 22.89 0 001.356-8.685 22.722 22.722 0 01-1.356 6.924 8.402 8.402 0 00-.781 3.08zm48.886 19.944c-.787-1.684-2.278-2.805-3.716-3.943.165.698.311 1.402.446 2.112 1.292 1.021 2.565 2.084 3.27 3.592.426 1.02.65 2.114.657 3.22v-1.59a8.707 8.707 0 00-.657-3.39zm-65.754-30.6c.176-.863.645-.487.258-1.303-.64-1.326-2.084-2.394-2.594-3.661-.062.14-.11.285-.141.434-.382 1.919 1.631 2.764 2.477 4.53-.523-1.256.123.252 0 0zm21.376 20.408a4.339 4.339 0 00-.587.106 16.967 16.967 0 00-4.743 2.429l-7.231 4.73a5.963 5.963 0 00-1.76 1.513 3.192 3.192 0 00-.394 2.623c.081-.308.214-.6.394-.863a5.961 5.961 0 011.76-1.513l7.231-4.73a17.339 17.339 0 014.614-2.388c.252-.634.493-1.273.716-1.907zm55.811 23.582a5.362 5.362 0 01-1.126 2.312 8.419 8.419 0 01-3.481 2.347c-.769.3-1.62.587-2.089 1.25a2.711 2.711 0 00-.229 2.212c.055-.16.132-.312.229-.452.469-.68 1.32-.95 2.089-1.25a8.419 8.419 0 003.481-2.346 4.9 4.9 0 001.173-3.944c-.011-.047-.011-.088-.047-.129zm1.855-8.649c-.763 1.579-2.424 2.84-2.401 4.595a3.4 3.4 0 00.135.868c.405-1.32 1.638-2.406 2.266-3.702a6.451 6.451 0 00.475-3.52 5.496 5.496 0 01-.475 1.76zm-23.308 9.935c.346.333.795.54 1.274.586a9.505 9.505 0 004.373-.252 2.513 2.513 0 001.713-1.22c.112-.297.172-.61.177-.928.099-1.443.129-2.887.099-4.33 0 .857-.041 1.713-.099 2.57-.005.317-.065.63-.177.927a2.513 2.513 0 01-1.713 1.22 9.505 9.505 0 01-4.373.253 2.13 2.13 0 01-1.274-.587 2.347 2.347 0 01-.428-1.173 928.765 928.765 0 01-.658-3.896c-1.901.745-4.108.193-5.869-.804-1.761-.998-3.31-2.389-5.024-3.521-1.714-1.133-3.762-1.936-5.775-1.573a9.765 9.765 0 00-3.088 1.297 21.574 21.574 0 00-5.282 3.95c-1.068 1.173-2.002 2.58-3.481 3.115a3.686 3.686 0 01-4.595-2.347c-.311-1.086-.1-2.248-.229-3.368-.153-1.28-.793-1.76-1.761-2.394-.969-.634-1.127-1.461-1.55-2.559-.052-.14-.111-.293-.158-.44a2.19 2.19 0 00-.182.693c.002.521.118 1.036.34 1.508.423 1.097.587 1.913 1.55 2.558.962.645 1.585 1.115 1.761 2.394.129 1.12-.082 2.283.229 3.368a3.684 3.684 0 004.595 2.347c1.479-.534 2.413-1.954 3.481-3.116a21.574 21.574 0 015.282-3.949 9.768 9.768 0 013.088-1.296c2.013-.364 4.055.463 5.775 1.572 1.72 1.11 3.24 2.506 5.024 3.52 1.784 1.016 3.974 1.55 5.869.805l.658 3.896c.034.423.182.828.428 1.173zm12.573 13.947c-1.109.352-2.436.112-3.351.822-.916.71-1.01 2.13-1.579 3.186a3.65 3.65 0 01-4.778 1.431 3.69 3.69 0 01.206-1.596 3.007 3.007 0 01-3.352-1.367 3.076 3.076 0 01-.299-.769 3.607 3.607 0 00.299 2.53 3.004 3.004 0 003.352 1.367 3.688 3.688 0 00-.206 1.596 3.653 3.653 0 004.778-1.432c.587-1.056.628-2.447 1.579-3.186.951-.74 2.242-.47 3.351-.822 1.955-.622 2.806-3.004 2.471-5.052-.235 1.49-1.068 2.846-2.471 3.292z" fill="#000"/><path d="M310.722 29.726a21.028 21.028 0 01-2.571 4.407 6.056 6.056 0 00-.669.117c-.622.174-1.227.404-1.808.686a36.662 36.662 0 012.213-5.903c.646.212 1.755.394 2.835.693zm39.407 11.806c-.487-.423-1.004-.822-1.508-1.227a44.896 44.896 0 01-.781-3.825c.394.008.787-.023 1.174-.094a16.152 16.152 0 011.115 5.146z" fill="#B5EBE1"/><path d="M505.068 106.464l-4.209 9.388-1.555.91-10.477 6.131s-13.206-1.273-13.593-1.466c-.388-.194-1.01-11.407 2.406-13.766.188-.135.396-.24.616-.311 2.096-.704 2.894-3.591 3.17-6.255.041-.393.07-.775.088-1.174a27.838 27.838 0 000-3.743s3.205-3.204 7.043-6.52c6.803-5.867 15.601-12.057 12.226-1.501a35.158 35.158 0 00-1.373 5.832 19.17 19.17 0 00-.153 1.344c-.411 5.199 1.215 8.003 2.853 9.494.176.164.358.305.534.44.714.565 1.54.973 2.424 1.197zM489.414 310.66l-1.467.681-9.878-2.248-.88-3.497-1.274-5.046-.88-3.486h12.672l1.631 12.986.076.61z" fill="#CF6F80"/><path opacity=".1" d="M487.947 311.341l-9.878-2.248-.88-3.52c3.744-1.121 9.197 2.03 9.197 2.03-.358 1.244 2.453 2.253 2.935 2.423l.076.587-1.45.728zm4.695 4.794l-7.084 6.941-2.5 2.447-1.356-.047c-2.553-1.432.757-4.911 2.97-6.842.434-.381.827-.698 1.127-.933 1.584-1.238 3.069-4.764 4.02-6.871l2.823 5.305z" fill="#000"/><path opacity=".1" d="M489.819 310.83l2.823 5.281-7.084 6.942-2.5 2.47-1.356-.047c-2.553-1.432.757-4.911 2.97-6.842.434-.381.827-.698 1.127-.933 1.584-1.238 3.069-4.764 4.02-6.871zm15.835.511l-13.012-4.401.387-3.714c3.393-1.174 9.291 3.092 12.443 5.68l.182 2.435z" fill="#000"/><path d="M492.642 316.722l-7.084 6.941-2.5 2.447s-13.6-.487-21.171-.587c-5.599-.076-2.307-2.987 1.538-5.404a57.757 57.757 0 013.885-2.224c4.303-2.247 7.724-10.268 7.724-10.268 3.228-4.108 11.352.586 11.352.586-.394 1.367 3.028 2.447 3.028 2.447l3.228 6.062z" fill="#3F3D56"/><path opacity=".1" d="M485.558 323.663l-2.5 2.447s-13.6-.487-21.171-.587c-5.599-.076-2.307-2.987 1.538-5.404 2.072.469 4.155 1.467 4.86 3.521l17.273.023z" fill="#000"/><path d="M505.654 311.341l-13.012-4.401.387-3.714.335-3.245.452-4.383h10.664l.352 4.723.64 8.585.182 2.435z" fill="#CF6F80"/><path d="M510.45 324.449c-.293.974-14.579 2.054-24.651 2.248-8.745.17-4.009-4.965-1.127-7.476.434-.381.828-.698 1.127-.933 2.248-1.76 4.302-8.121 4.889-8.508.587-.387 1.567-5.574 1.567-5.574 4.402-3.134 15.354 7.135 15.354 7.135l.294 8.901s.751.851 1.444 1.813c.692.962 1.244 1.919 1.103 2.394z" fill="#3F3D56"/><path opacity=".1" d="M510.45 324.449c-.293.974-14.579 2.054-24.651 2.248-8.745.17-4.009-4.964-1.127-7.476a12.977 12.977 0 015.529 4.442h11.246s5.423-.786 7.9-1.608c.645.91 1.244 1.919 1.103 2.394zm-22.82-27.385c.065 1.074.123 1.761.123 1.761l-11.838 1.725-.88-3.486h12.595zm17.203 3.257c-2.894.804-8.968.029-11.469-.34l.452-4.383h10.665l.352 4.723z" fill="#000"/><path d="M505.461 260.292c5.377 14.575 1.174 29.438 1.174 29.438l-.687 8.901c-2.447 1.954-13.693 0-13.693 0v-9.194c-1.761-5.968-2.348-16.723-2.348-16.723l-.686-9.876a19.236 19.236 0 01-4.402-10.761l-.1-18.777-.681.687-.293 20.343c-1.861 3.227.193 8.215.193 8.215 4.402 5.475 4.502 19.164 3.815 23.078-.686 3.913 0 12.029 0 12.029l-13.399 1.953s-7.83-31.779-7.143-34.619c.686-2.84-.487-8.995-.487-8.995s-2.348-6.455-1.568-9.975c.781-3.521-.393-4.888-.586-6.455-.194-1.567-1.568-7.434-1.568-7.434-2.441-10.949-.293-24.251.904-30.078.382-1.872.664-2.975.664-2.975s36.389-10.562 42.552-1.76a12.607 12.607 0 011.667 3.467c3.011 9.512-2.283 24.398-3.234 26.558-1.074 2.441-3.322 11.536-3.322 11.536l-.199 7.727c-1.268 3.621 3.427 13.69 3.427 13.69z" fill="#3F3D56"/><path d="M496.064 275.26a.393.393 0 100-.786.393.393 0 000 .786zm-19.474 9.811a.393.393 0 100-.786.393.393 0 000 .786zm-1.362-6.191a.393.393 0 100-.786.393.393 0 000 .786zm2.688.488a.393.393 0 100-.787.393.393 0 000 .787zm-1.151 3.315a.393.393 0 100-.786.393.393 0 000 .786zm17.638-.968a.393.393 0 100-.786.393.393 0 000 .786zm8.217 2.247a.393.393 0 100-.786.393.393 0 000 .786zm2.641-2.64a.393.393 0 100-.786.393.393 0 000 .786zm-8.411-1.561a.393.393 0 10.001-.787.393.393 0 00-.001.787zm-15.958-2.682a.393.393 0 100-.786.393.393 0 000 .786zm3.263 2.289a.393.393 0 100-.787.393.393 0 000 .787zm-5.611 9.928a.393.393 0 100-.786.393.393 0 000 .786zm1.35 4.741a.393.393 0 100-.786.393.393 0 000 .786zm4.431 1.655a.393.393 0 10.001-.787.393.393 0 00-.001.787zm-2.653.299a.394.394 0 100-.788.394.394 0 000 .788zm-2.347 2.235a.393.393 0 100-.786.393.393 0 000 .786zm1.96-15.936a.393.393 0 100-.786.393.393 0 000 .786zm0 4.805a.393.393 0 100-.786.393.393 0 000 .786zm2.483 3.163a.393.393 0 100-.786.393.393 0 000 .786zm-2.254 1.426a.393.393 0 100-.786.393.393 0 000 .786zm-4.537 6.542a.393.393 0 100-.786.393.393 0 000 .786zm6.961-5.715a.393.393 0 100-.786.393.393 0 000 .786zm18.682-14.024a.393.393 0 100-.786.393.393 0 000 .786zm-3.862 5.475a.393.393 0 100-.786.393.393 0 000 .786zm-2.694 8.115a.393.393 0 100-.786.393.393 0 000 .786zm-.881 5.381a.393.393 0 100-.786.393.393 0 000 .786zm4.602-16.917a.393.393 0 100-.786.393.393 0 000 .786zm-1.42 5.768a.393.393 0 100-.786.393.393 0 000 .786zm1.173 4.342a.393.393 0 10.001-.787.393.393 0 00-.001.787zm-6.163 4.418a.393.393 0 10.001-.787.393.393 0 00-.001.787zm3.475-1.425a.393.393 0 10.001-.787.393.393 0 00-.001.787zm-1.173 1.173a.393.393 0 100-.786.393.393 0 000 .786zm6.943-1.707a.393.393 0 100-.786.393.393 0 000 .786zm0 1.32a.393.393 0 100-.786.393.393 0 000 .786zm-3.862 3.028a.393.393 0 100-.786.393.393 0 000 .786zm-1.127 1.162a.393.393 0 100-.787.393.393 0 000 .787zm2.688-3.551a.393.393 0 100-.786.393.393 0 000 .786zm-3.081 2.002a.393.393 0 100-.786.393.393 0 000 .786zm6.837-4.994a.393.393 0 100-.786.393.393 0 000 .786zm.793 2.353a.393.393 0 10.001-.787.393.393 0 00-.001.787zm-5.723-.786a.393.393 0 100-.786.393.393 0 000 .786zm1.174 3.996a.393.393 0 100-.787.393.393 0 000 .787zm2.301-.569a.393.393 0 100-.786.393.393 0 000 .786zm-.394 1.549a.393.393 0 10.001-.787.393.393 0 00-.001.787zm-1.907.393a.393.393 0 100-.787.393.393 0 000 .787zm1.907-9.952a.393.393 0 10.001-.787.393.393 0 00-.001.787zm-26.956 3.057a.393.393 0 100-.786.393.393 0 000 .786zm0 1.32a.393.393 0 100-.786.393.393 0 000 .786zm1.455-2.347a.393.393 0 100-.786.393.393 0 000 .786zm1.185 4.601a.393.393 0 100-.787.393.393 0 000 .787zm-.393-2.254a.393.393 0 100-.786.393.393 0 000 .786zm-2.247 2.641a.393.393 0 100-.786.393.393 0 000 .786zm-.394-8.004a.393.393 0 100-.786.393.393 0 000 .786z" fill="#6167FF"/><path opacity=".1" d="M482.958 199.86l.98 29.925 1.074-.786.787-30.805-2.841 1.666z" fill="#000"/><path d="M466.43 159.567s-6.75-6.361-8.218-2.934c-1.467 3.427-4.601 8.995-4.601 8.995l7.436 7.041s1.274-2.447 2.248-2.447a32.268 32.268 0 003.815-.586l-.68-10.069z" fill="#CF6F80"/><path d="M471.025 133.162l-4.502 33.833-1.69-2.588-5.647-8.655.881-9.294.452-15.502.135-4.642 10.371 6.848z" fill="#CF6F80"/><path opacity=".1" d="M500.766 88.174a32.37 32.37 0 00-1.526 7.176 18.156 18.156 0 01-13.688 6.208 18.318 18.318 0 01-4.108-.469c.161-1.626.18-3.264.058-4.894 0 0 24.546-24.55 19.264-8.02z" fill="#000"/><path d="M503.747 82.195a18.117 18.117 0 01-4.355 11.812 18.334 18.334 0 01-6.122 4.664 18.206 18.206 0 01-17.483-1.123 18.194 18.194 0 01-8.213-18.17 18.188 18.188 0 016.69-11.464 18.2 18.2 0 0124.649 1.919 18.192 18.192 0 014.834 12.362z" fill="#CF6F80"/><path opacity=".1" d="M465.743 135.603c-2.154-1.831-4.566-3.468-5.223-4.647l.135-4.642 10.371 6.848-4.502 33.833-1.661-2.588c.094-1.76.305-3.426.716-4.254 1.174-2.347.294-5.967.294-7.141 0-1.173 1.661-3.033 1.561-3.814a46.424 46.424 0 00-.587-4.888c-.417-1.86 1.538-6.454-1.104-8.707zm43.046 65.178v.053s-12.819-2.053-22.797 1.467c-8.182 2.887-18.606.646-22.086-.252.381-1.872.663-2.975.663-2.975s36.39-10.562 42.553-1.76a12.664 12.664 0 011.667 3.467zm-3.721-94.317l-4.209 9.388-12.032 7.041s-13.206-1.273-13.593-1.467c-.388-.193-1.01-11.406 2.406-13.765-.962 2.711-2.013 8.215 5.124 8.678a29.618 29.618 0 0019.328-11.495 6.748 6.748 0 002.976 1.62z" fill="#000"/><path d="M520.721 125.24l-.2 4.401-11.738 70.02s-12.813-2.054-22.791 1.466c-9.978 3.521-23.284-.586-23.284-.586s1.861-5.281 1.08-7.235c-.78-1.954-.199-8.021-.199-8.021s.587-2.641-.094-4.695c-.681-2.053 1.367-10.368 1.367-10.368s-.487-8.895.687-11.242c1.174-2.347.294-5.968.294-7.141 0-1.174 1.661-3.034 1.561-3.814a46.392 46.392 0 00-.587-4.888c-.388-1.86 1.567-6.455-1.074-8.708s-5.676-4.201-5.382-5.375c.293-1.173-3.029-.88-3.029-.88a7.267 7.267 0 01.781-4.013c1.074-2.148.587-6.355.587-6.355s2.347-.1 2.054-3.034a17.108 17.108 0 01.1-4.788s.974.88 3.815.781c2.84-.1 5.963.686 6.843-.194.881-.88 4.796-3.914 6.75-3.227-.153.299-4.83 9.588 4.508 10.163a29.623 29.623 0 0019.862-12.229s1.074-1.173 4.595 2.647c3.522 3.82 6.55 2.347 6.55 2.347l3.915.293s-2.541 2.148-.98 3.615c.33.321.638.664.922 1.027 1.567 1.942 3.627 5.192 4.754 5.92 1.361.886-1.667 4.113-1.667 4.113z" fill="#B5EBE1"/><path d="M458.505 160.934s-14.379 7.041-11.838 13.689c2.541 6.648 6.163 5.774 8.317 4.988 2.154-.787 6.063-6.942 6.063-6.942l-2.542-11.735z" fill="#CF6F80"/><path opacity=".1" d="M499.052 121.579c0 .628-3.668 8.549 0 10.603 3.668 2.054 0-10.603 0-10.603zm-28.907-2.746s-5.183 5.574-3.034 6.161c2.148.587 3.034-6.161 3.034-6.161z" fill="#000"/><path d="M505.068 129.735s2.248 13.889 2.347 17.996c.1 4.108.687 10.756.687 10.756s1.661 15.843-.88 22.297c-2.542 6.455-2.154 13.496-2.154 13.496s-7.437 14.476-8.511 15.942c-1.074 1.467.88 15.356 8.704 9.489 7.824-5.868 6.85-18.683 6.85-18.683l2.741-8.802 3.815-11.242s1.074-6.848 1.467-8.215 0-8.802 0-8.802 4.596-37.653-1.567-41.567c-6.163-3.913-13.499 7.335-13.499 7.335z" fill="#CF6F80"/><path opacity=".1" d="M505.068 134.529s9.197-10.075 12.032-9.195c2.835.88 3.621.493 3.621.493s.388-5.574-3.815-7.628c-4.202-2.054-8.804-8.314-12.325-.88-3.522 7.434.487 17.21.487 17.21z" fill="#000"/><path d="M505.068 133.942s9.197-10.075 12.032-9.194c2.835.88 3.621.492 3.621.492s.388-5.574-3.815-7.628c-4.202-2.053-8.804-8.314-12.325-.88-3.522 7.435.487 17.21.487 17.21z" fill="#B5EBE1"/><path opacity=".1" d="M517.628 115.213a18.755 18.755 0 01-2.131 1.59 15.859 15.859 0 01-6.157 2.347 13.773 13.773 0 01-5.552-.311 13.448 13.448 0 01-4.484-2.083 11.394 11.394 0 01-3.399-3.773 11.143 11.143 0 01-.323-.634c-1.972-4.154-1.443-9.101-2.312-13.683a30.797 30.797 0 00-.211-.974 15.96 15.96 0 00-4.52-8.022c-3.14-3.033-7.372-4.876-11.738-7.164-2.542-1.338-4.696-2.4-7.584-2.775a9.862 9.862 0 01-1.661-.358 18.2 18.2 0 013.138-7.707 18.201 18.201 0 0122.439-5.996 18.194 18.194 0 0110.051 20.933 18.193 18.193 0 01-3.81 7.398c-.07.463-.117.915-.153 1.343-.41 5.199 1.215 8.004 2.853 9.494.176.165.358.306.534.441 0 0 1.074-1.174 4.596 2.646 3.521 3.82 6.55 2.347 6.55 2.347l3.915.293s-2.542 2.148-.98 3.615c.336.322.65.667.939 1.033z" fill="#000"/><path d="M465.45 71.891c1.309-1.555 3.257-2.388 5.083-3.286 1.825-.898 3.697-2.007 4.578-3.837 1.537-3.18-.294-7.716 2.347-10.099 1.262-1.144 3.117-1.285 4.819-1.285 2.78-.077 5.554.292 8.217 1.092 4.05 1.343 7.431 4.107 11.035 6.413 3.603 2.306 7.847 4.16 12.038 3.339 2.447-.475 5.059-1.83 7.266-.663 1.326.704 2.083 2.177 2.418 3.644a9.975 9.975 0 01-.258 5.316c-.957 2.88-3.193 5.199-4.179 8.068-.364 1.062-.534 2.306.053 3.262.686 1.11 2.148 1.461 3.451 1.414 1.303-.047 2.594-.393 3.891-.246 3.721.422 5.87 4.665 5.87 8.409 0 3.743-1.298 7.393-1.339 11.148-.053 5.134 2.389 10.069 5.87 13.842a27.787 27.787 0 0014.556 8.291 10.985 10.985 0 01-10.09.299c-7.554-3.714-8.71-14.757-15.847-19.175a2.427 2.427 0 00-1.397-.476c-.933.059-1.52.998-2.001 1.796-2.694 4.5-7.214 8.056-12.402 8.837-5.189.78-10.906-1.567-13.435-6.167-2.53-4.601-1.62-10.216-2.847-15.291-2.13-8.802-9.021-11.384-16.24-15.186-2.542-1.338-4.696-2.4-7.584-2.776-3.68-.475-7.107-2.857-3.873-6.683z" fill="#512E4E"/><path opacity=".1" d="M476.055 63.148c1.385-2.863.047-6.824 1.679-9.324a3.84 3.84 0 00-.534.405c-2.612 2.377-.781 6.913-2.319 10.093a5.507 5.507 0 01-.628.968 6.22 6.22 0 001.802-2.142zm65.931 62.239c-7.56-3.714-8.716-14.757-15.883-19.181a2.458 2.458 0 00-1.396-.476c-.752.047-1.274.663-1.703 1.32a1.48 1.48 0 01.529-.146 2.46 2.46 0 011.397.475c7.166 4.424 8.322 15.467 15.882 19.182a10.988 10.988 0 0010.083-.3 32.834 32.834 0 01-1.044-.246 11.017 11.017 0 01-7.865-.628zm-31.683-9.019c-5.183.781-10.905-1.572-13.429-6.166-2.524-4.595-1.62-10.222-2.847-15.292-2.136-8.801-9.027-11.383-16.246-15.185-2.536-1.344-4.696-2.4-7.577-2.776-3.522-.463-6.909-2.775-3.956-6.495a7.098 7.098 0 00-1.027.991c-3.217 3.826.211 6.208 3.809 6.678 2.882.375 5.042 1.431 7.577 2.775 7.219 3.802 14.087 6.36 16.246 15.186 1.227 5.069.329 10.72 2.847 15.291s8.246 6.947 13.429 6.167a17.244 17.244 0 009.931-5.527 16.844 16.844 0 01-8.757 4.353z" fill="#000"/><path d="M79.834 103.87c-.44 0-35.07 6.601-26.412-5.134 1.642-2.2 2.839-4.7 3.521-7.358.682-2.794.86-5.687.529-8.544a30.125 30.125 0 00-2.876-9.916s28.613-6.308 24.064-1.467c-1.984 2.112-1.931 8.561-1.274 15.15.353 3.562.88 7.16 1.356 10.146.67 4.16 1.233 7.123 1.092 7.123z" fill="#FFCCD0"/><path d="M50.487 329.466s8.95 8.25 14.38 8.896c5.43.645 13.06 2.986 7.924 6.654-5.136 3.667-30.961 2.235-30.961 2.235s-5.981-3.908-2.788-8.837 11.445-8.948 11.445-8.948z" fill="#3F3D56"/><path opacity=".1" d="M72.79 345.016a9.516 9.516 0 01-3.216 1.249c-8.598 2.048-27.744.986-27.744.986s-5.981-3.908-2.788-8.837 11.445-8.948 11.445-8.948 8.95 8.25 14.38 8.896l.769.099c5.341.763 12.05 3.057 7.155 6.555z" fill="#000"/><path opacity=".1" d="M72.79 345.016a9.515 9.515 0 01-3.216 1.249l-.587-.029s-5.147-3.356-3.34-7.775c5.33.763 12.039 3.057 7.144 6.555z" fill="#000"/><path d="M78.807 328.457s8.95 8.215 14.38 8.889c5.429.675 13.059 2.993 7.923 6.66-5.135 3.668-30.96 2.23-30.96 2.23s-5.981-3.902-2.788-8.802c3.193-4.899 11.445-8.977 11.445-8.977z" fill="#3F3D56"/><path opacity=".1" d="M78.807 328.457s8.95 8.215 14.38 8.889c5.429.675 13.059 2.993 7.923 6.66-5.135 3.668-30.96 2.23-30.96 2.23s-5.981-3.902-2.788-8.802c3.193-4.899 11.445-8.977 11.445-8.977z" fill="#000"/><path d="M70.003 334.471c-1.174.863-3.992 1.315-7.402 1.514h-.053l-.64.035c-.375 0-.762.036-1.173.042-8.587.275-19.662-.71-19.662-.71s.88-1.467-1.321-2.494c-2.201-1.027.293-2.347.587-4.841.293-2.494-5.112-10.415-5.112-10.415s-3.375-30.806-1.873-33.3c1.503-2.493-1.502-6.161-1.502-6.161s2.788-1.467.769-3.96c-2.02-2.494-1.356-12.176-.182-14.963 1.174-2.787-3.669-14.963-3.522-18.043.147-3.081-1.027-6.895-5.135-24.498-2.87-12.322 1.496-22.45 4.384-27.449a27.71 27.71 0 012.219-3.356H58.41l.71 6.595.035.364c.235 2.224.522 4.917.845 8.009 3.915 37.213 13.412 131.161 10.002 133.631z" fill="#3F3D56"/><path opacity=".1" d="M70.003 334.471c-1.274.922-4.373 1.373-8.094 1.549a19.826 19.826 0 00-2.935.041s-.44-1.003-5.722-4.694c-5.283-3.691 0-12.029 0-12.029l-5.494-22.444s-1.38-5.99-.205-9.511c1.174-3.521-2.53-4.401-2.53-4.401s3.703-2.347 0-5.428c-3.704-3.08-4.22-14.375-4.22-14.375s-5.282-7.042-2.935-9.389c2.348-2.347-1.467-7.921-1.467-7.921s-5.576-8.802-4.99-11.736c.588-2.933 8.511-1.907 6.164-11.295-2.348-9.388 12.12 3.521 12.12 3.521l9.461-33.528c3.07 29.01 14.539 138.965 10.847 141.64z" fill="#000"/><path d="M84.236 329.337s-15.847 9.975-16.874 8.068c-.64-1.173-3.04-1.414-4.76-1.42h-.053c-1.021 0-1.79.076-1.79.076s-.44-1.003-5.723-4.694c-5.282-3.691 0-12.029 0-12.029l-5.494-22.444s-1.402-5.991-.229-9.511c1.174-3.521-2.53-4.401-2.53-4.401s3.704-2.347 0-5.428c-3.703-3.08-4.22-14.376-4.22-14.376s-5.282-7.041-2.934-9.388c2.348-2.347-1.467-7.921-1.467-7.921s-5.576-8.802-4.99-11.736c.588-2.934 0-2.347-2.347-11.735-1.76-7.077 2.794-22.984 5.153-30.389.77-2.423 1.303-3.937 1.303-3.937l21.84 4.395 21.887 4.406.587 7.775-.164 1.232-2.935 21.711-1.76 18.841s0 5.428-.881 7.921c-.88 2.494.44 12.909.44 12.909s0 2.054-2.201 10.269S76 288.973 76 288.973s2.642 22.737 1.761 27.725c-.88 4.987 6.474 12.639 6.474 12.639z" fill="#3F3D56"/><path opacity=".1" d="M52.03 274.767c2.202.37 13.57.587 10.566 1.984-3.005 1.396-10.565-1.984-10.565-1.984zm-1.25 7.411c.88-.076 4.919-1.836 6.017-1.69 1.097.147 2.57-.311 3.891 0 1.32.311 3.792 1.174 2.406 1.696-1.385.522-4.284.07-5.951.587-1.667.516-6.362-.593-6.362-.593zm-12.032-3.08c.588-.077 5.136-1.25 4.772 0-.364 1.25-4.772 0-4.772 0zm-7.26-36.82c.44.587 3.005 6.454 4.255 6.454s-4.255-6.454-4.255-6.454zM78.66 71.451c-1.984 2.112-1.93 8.561-1.273 15.15a23.548 23.548 0 01-6.04.787c-5.206 0-5.617-6.566-9.508-9.424-.617-5.72-7.243-5.046-7.243-5.046s28.613-6.308 24.064-1.467z" fill="#000"/><path d="M94.824 62.743a23.467 23.467 0 01-6.342 16.033 23.48 23.48 0 01-40.407-12.945 23.466 23.466 0 014.16-16.732 23.478 23.478 0 0131.449-6.336 23.472 23.472 0 0111.14 19.98z" fill="#FFCCD0"/><path opacity=".1" d="M79.834 103.87c-.44 0-35.07 6.601-26.412-5.134 1.642-2.2 2.839-4.7 3.521-7.358 7.003-2.236 15.584 1.49 15.584 1.49l3.961 2.934c.788.245 1.553.561 2.284.945.64 4.16 1.203 7.123 1.062 7.123zm1.761 100.778l-.165 1.232c-.933.317-5.223 1.508-15.483-2.699a347.095 347.095 0 00-5.946-2.347c-7.283-2.787-16.956-6.296-24.023-8.801a1378.083 1378.083 0 00-7.812-2.782 27.8 27.8 0 012.219-3.356H58.41l.71 6.595 21.887 4.384.587 7.774z" fill="#000"/><path d="M72.497 93.455s-15.553-6.748-21.863 3.374c-6.31 10.122-9.098 16.136-9.098 16.136s-.88 6.748-2.494 8.362c-1.614 1.613 2.935 30.659 2.935 30.659s-5.43 11.148-.587 13.126c4.842 1.977-.44 3.597-.44 3.597s1.467 3.373-1.321 3.667c-2.788.293-4.402 5.427-4.402 5.427l-8.657 9.682s28.272 9.975 39.377 14.523c11.105 4.547 15.208 2.787 15.648 2.64.44-.146 7.19-18.63 7.19-18.63s-.294-5.134 2.2-6.894c2.495-1.761 0-39.754 0-39.754l-.856-23.723A21.441 21.441 0 0079.44 97.709a14.862 14.862 0 00-2.982-1.32l-3.962-2.934z" fill="#B5EBE1"/><path d="M87.904 133.942l3.082 5.428s-24.651 7.041-25.62.293c-.147-.985 9.626-8.801 9.626-8.801l12.912 3.08z" fill="#A3D4CB"/><path opacity=".1" d="M87.904 133.942l3.082 5.428s-24.651 7.041-25.62.293c-.147-.985 9.626-8.801 9.626-8.801l12.912 3.08z" fill="#B5EBE1"/><path opacity=".1" d="M45.938 163.281s11.74-3.814 9.245-.734c-2.495 3.081-9.245.734-9.245.734zm13.394.856s6.005 7.499 7.443 4.695c1.438-2.805-7.443-4.695-7.443-4.695zm34.67-107.56a15.18 15.18 0 00-2.066 2.622c-2.054 3.228-3.592 3.304-3.592 3.304s0 6.983-.95 7.71c-.951.728-6.386-3.092-6.457-4.043-.07-.95-6.709-11.295-9.59 1.83l-.54 10.64s-9.509 1.173-14.374 2.235a23.47 23.47 0 01-5.383-29.928 23.473 23.473 0 0117.846-11.543 23.484 23.484 0 0119.853 7.59 23.469 23.469 0 015.247 9.583h.006z" fill="#000"/><path d="M78.953 33.24h1.837l-.921.734h2.389v.88l1.978.804v.587l1.837.37-.44 1.243h3.228l-.37 1.415 2.201 1.009v1.537s2.201 1.027 2.935 1.027c.733 0 1.948.663 1.174 1.027-.775.364.587.81 1.226.88.64.07 1.468.81 1.098 1.103l-.364.293s1.978 1.684 2.348 1.684c.37 0 .364 1.397 0 1.544-.364.146-1.761.95-.587 1.684 1.174.733 1.027 2.13.293 2.13-.733 0-1.027-.957-1.103.363-.077 1.32-1.174 3.01-1.32 1.69-.148-1.32-2.419.147-4.473 3.374-2.054 3.228-3.598 3.298-3.598 3.298s0 6.983-.951 7.71c-.95.728-6.386-3.086-6.456-4.043-.07-.956-6.709-11.295-9.59 1.837l-.535 10.632s-15.847 1.983-17.097 3.08c-1.25 1.098-20.056-14.082-12.72-30.024 7.337-15.943 8.905-17.31 14.287-19.164 5.382-1.854 18.9-2.107 23.694 1.296z" fill="#3F3D56"/><path d="M66.628 136.436s-.147 11.882-1.174 14.816c-1.027 2.934 7.043 30.366 7.043 30.366s6.457 14.463 5.283 18.923c-1.174 4.459.44 33.006 10.124 25.965 9.685-7.042 2.495-30.073 2.495-30.073s-3.082-12.826-3.082-14.405c0-1.578-3.228-25.348-3.228-25.348s-2.494-7.775-1.76-12.469c.733-4.694 1.027-13.349 1.027-13.349l-16.728 5.574z" fill="#FFCCD0"/><path opacity=".1" d="M76.459 114.139s-11.774 3.814-12.267 14.229c-.493 10.415 0 11.295 0 11.295s17.55-8.801 25.62-.293l-.828-23.031-12.525-2.2z" fill="#000"/><path d="M77.633 114.139s-11.774 3.814-12.267 14.229c-.493 10.415 0 11.295 0 11.295s17.55-8.801 25.62-.293l-.828-23.031-12.525-2.2z" fill="#B5EBE1"/><path opacity=".1" d="M93.463 42.834c-.265.33.827.681 1.414.746a.95.95 0 01.176.04c.041-.357-.84-.774-1.426-.774l-.164-.011zm-3.944-2.188s.54.252 1.173.504v-.868l-1.173-.54v.904zm6.391 4.107l-.3.24s.676.587 1.315 1.057l.223-.176c.37-.294-.44-1.027-1.097-1.103l-.141-.018zm-8.592-6.648l1.32.599.218-.845h-1.474l-.064.246zM70.173 66.246L69.64 76.88s-15.847 1.983-17.097 3.08c-.388.346-2.495-.903-4.983-3.268 2.97 3.116 5.705 4.84 6.157 4.442 1.25-1.097 17.097-3.08 17.097-3.08l.534-10.633c1.684-7.698 4.696-7.329 6.855-5.516-2.16-2.54-5.998-4.829-8.029 4.342zm28.373-15.185c-1.174-.733.217-1.537.587-1.684.37-.147.364-1.543 0-1.543-.333-.118-.64-.3-.904-.534 0 .387-.077.821-.27.903-.37.147-1.761.951-.587 1.684 1.174.734 1.027 2.13.293 2.13-.733 0-1.027-.956-1.103.364-.076 1.32-1.174 3.01-1.32 1.69-.148-1.32-2.419.147-4.473 3.374-2.055 3.227-3.598 3.298-3.598 3.298s0 6.982-.951 7.71c-.663.499-3.445-1.174-5.136-2.547.863 1.28 5.435 4.383 6.31 3.72.874-.663.95-7.71.95-7.71s1.544-.07 3.599-3.297c2.054-3.228 4.325-4.694 4.472-3.374.147 1.32 1.25-.37 1.32-1.69.071-1.32.37-.364 1.104-.364.734 0 .88-1.397-.293-2.13zM84.453 36.685h1.59l.024-.07-1.479-.3-.135.37zm-2.201-2.529v-.182H81.8l.452.182z" fill="#000"/><path d="M97.243 214.952s48.328-73.382 105.26-31.721c56.933 41.661 70.92 68.065 118.514 53.396 47.595-14.669 45.828-43.503 83.392-32.9 37.563 10.603 50.576-24.116 50.576-24.116" stroke="#B5EBE1" stroke-width="4" stroke-miterlimit="10"/><path d="M459.579 165.698l-.005-.002a5.183 5.183 0 00-6.811 2.706l-5.072 11.763a5.18 5.18 0 002.707 6.809l.006.003a5.185 5.185 0 006.811-2.707l5.072-11.763a5.18 5.18 0 00-2.708-6.809z" fill="#B5EBE1"/></svg>