<svg width="436" height="300" fill="none" xmlns="http://www.w3.org/2000/svg"><path d="M59.802 66.71c.302.437.671.84 1.208.975.84.235 1.746-.403 2.082-1.21.336-.805.302-1.711.268-2.584 1.343 1.276 3.19 2.283 5.003 1.846 1.813-.436 2.92-3.021 1.578-4.264 1.31.336 2.72.672 3.962.202 1.275-.47 2.148-2.115 1.376-3.223-.403-.537-1.074-.806-1.712-1.007a890.416 890.416 0 00-8.696-2.989c-.738-.268-1.51-.537-2.316-.47-5.943.47-5.238 9.099-2.753 12.725z" fill="#F7EDE1"/><path d="M135.611 27.262c-1.175.37-5.943-14-10.576-7.823-4.163 5.506 6.883 8.998 10.576 7.823z" fill="#FFD037"/><path d="M35.058 98.673c3.19.571 6.446.235 9.635-.37-3.256-1.073-6.177-2.954-9.266-4.397-1.813-.84-8.293-3.794-8.158.335.033 2.384 6.043 4.13 7.789 4.432z" fill="#F7EDE1"/><path d="M95.893 22.696c.302-.135.605-.269.739-.537.504-.873-.907-1.578-1.914-1.578-2.148-.034-13.094-1.142-11.314 2.652 1.679 3.693 9.938.537 12.49-.537zm257.938-9.961c.303.436.672.84 1.209.974.839.235 1.746-.403 2.082-1.21.335-.805.302-1.711.268-2.584 1.343 1.276 3.19 2.283 5.003 1.846 1.813-.436 2.921-3.021 1.578-4.264 1.309.336 2.719.672 3.961.202 1.243-.47 2.149-2.115 1.377-3.223-.403-.537-1.074-.806-1.712-1.007A896.947 896.947 0 00358.901.48c-.739-.268-1.511-.537-2.317-.47-5.942.47-5.237 9.065-2.753 12.725z" fill="#FFD037"/><path d="M222.5 300c109.629 0 198.5-7.163 198.5-16s-88.871-16-198.5-16S24 275.163 24 284s88.871 16 198.5 16zm72.973-67.419c2.552-3.19 6.916-5.07 10.609-7.42 3.693-2.35 6.984-5.808 6.144-9.703-1.376-6.446-12.858-9.77-14.067-16.216-1.377-7.386 11.214-10.676 14.168-17.492 1.679-3.894-.134-8.46-3.122-12.154-2.988-3.659-7.051-6.748-10.543-10.139-4.263-4.096-7.789-8.897-8.427-14.034-.637-5.103 2.25-10.508 8.025-12.422 3.256-1.074 7.017-.974 10.542-1.444 3.525-.47 7.218-1.88 8.158-4.566.47-1.343.202-2.82.067-4.23-1.04-11.885 9.837-23.031 24.408-25.046-.873 2.787 3.861 5.372 7.42 4.768 3.559-.605 5.876-3.123 7.89-5.473 1.981-2.35 4.197-4.868 7.722-5.64 2.82-.605 5.909.033 8.83.705 2.249.537 4.868 1.343 5.607 3.122.302.739.201 1.51.067 2.25-1.142 6.714-4.331 13.026-5.876 19.674-1.544 6.647-1.343 14.134 3.66 20.043 3.022 3.559 7.588 6.346 9.636 10.274 3.189 6.211-1.108 12.724-5.506 17.995-4.399 5.271-9.267 11.315-7.085 17.761 2.183 6.48 34.783 2.518 26.859 42.437-1.913 9.669-15.712-.638-14.168 9.166.638 4.129-8.762.436-9.669 4.431-.302 1.276 5.909 7.554 5.405 8.763-1.745 4.23-7.084 4.298-2.92 7.722 2.148 1.779 5.069 3.324 5.841 5.64 1.377 4.231-5.069 6.883-10.441 7.051-4.499.134-5.439-12.758-9.166-10.643-4.398 2.485-9.031 12.288-30.552 9.535-8.897-1.141-12.422-23.535-19.103-19.741-15.276 8.729-33.607 1.477-20.413-14.974z" fill="#F7EDE1"/><path fill="#D2C9BF" d="M336.699 271.334l4.485-129.382 1.242.043-4.486 129.382z"/><path d="M337.675 206.158l-.705-1.041c1.947-1.343 19.137-13.228 22.427-13.429l.067 1.242c-2.249.168-14.269 7.99-21.789 13.228zm.067-24.072c-8.36-11.416-22.26-30.888-21.387-32.97.101-.268.336-.436.638-.503l.202 1.242c.235-.034.369-.269.369-.37-.034 2.048 12.993 20.615 21.219 31.862l-1.041.739zm3.189-22.898l-.839-.94c.638-.571 15.545-14.034 17.123-15.175l.738 1.007c-1.511 1.141-16.887 14.974-17.022 15.108z" fill="#D2C9BF"/><path d="M360.572 194.172c.772-1.981 1.679-4.062 3.928-5.17 2.887-1.377 7.017-.806 10.307.537 3.257 1.377 6.044 3.458 9.233 5.103.839.437 1.847.873 2.787.705.94-.168 1.544-.906 1.981-1.578 4.935-7.99 3.323-17.727 5.103-26.422.436-2.384 1.276-4.936 3.324-6.614 5.405-4.701 6.479-1.377 11.65-6.715 3.592-3.727 5.774-11.65 11.079-13.497 10.945-3.861 6.413 17.627 6.144 22.696-.537 9.636 12.556 11.717 7.856 22.595-2.048 4.701-6.11 8.092-9.132 12.087-2.988 4.029-4.835 9.636-1.242 13.899 2.35 2.753 6.983 5.003 6.715 8.293-.168 1.947-2.149 3.122-3.996 4.063a141.405 141.405 0 01-14.436 6.177c-1.243.47-2.586.94-3.19 1.947-.839 1.343-.033 3.156.504 4.835 1.913 6.178-.571 12.053-5.439 15.813-4.835 3.76-11.751 5.708-18.768 7.118a182.107 182.107 0 01-28.168 3.458c-28.236.101-14.706-18.835-12.053-26.12a1303.913 1303.913 0 0115.813-43.21z" fill="#01AF7C"/><path d="M365.407 256.921a.649.649 0 01-.336-.1.648.648 0 01-.202-.873l47.474-75.407c.201-.302.57-.369.873-.201.302.201.369.57.201.873l-47.473 75.406a.644.644 0 01-.537.302z" fill="#D2C9BF"/><path d="M392.4 214.014a.644.644 0 01-.604-.436l-3.559-10.945a.653.653 0 01.403-.806c.335-.101.671.067.805.403l3.559 10.945c.101.336-.067.671-.403.806-.067.033-.134.033-.201.033zm6.815-10.609a.646.646 0 01-.604-.47.67.67 0 01.47-.772l11.18-2.686a.67.67 0 01.772.47.672.672 0 01-.47.772l-11.18 2.686h-.168zm-98.975 53.449c-.638-1.746-.94-3.76-.134-5.439 1.578-3.256 6.379-3.29 9.602-1.611 3.223 1.645 5.808 4.465 9.233 5.64 3.424 1.175 8.292-.47 8.359-4.096.034-1.813-1.141-3.424-2.148-4.935a29.803 29.803 0 01-4.734-14.806c-.067-1.981.604-4.6 2.585-4.7 1.175-.068 2.149.839 2.954 1.678l10.14 10.341c.738-9.804 1.981-20.681 9.434-27.128 1.376-1.208 3.559-2.148 4.935-.94.605.537.84 1.377 1.007 2.183 1.209 6.278-.839 12.925.907 19.103.269.907.638 1.847 1.343 2.451 3.391 2.787 7.755-4.23 11.986-3.122 2.753.705 3.458 4.532 2.316 7.184-1.108 2.619-3.357 4.633-4.666 7.152-1.31 2.518-1.377 6.244 1.141 7.654 1.175.638 2.585.605 3.895.538 4.129-.168 8.292-.37 12.422-.538a2399.657 2399.657 0 00-6.648 9.703c-.57.839-1.175 1.847-.94 2.854.571 2.081 3.861 1.611 5.439 3.122 1.746 1.679.235 4.868-2.014 5.741-2.25.873-4.768.336-7.219.202-13.597-.638-23.233 8.326-36.897 3.021-11.046-4.398-27.732-8.594-32.298-21.252z" fill="#D2C9BF"/><path d="M342.039 280.188c-.302 0-.47-.235-.47-.504.739-13.026 2.216-34.95 3.693-35.655.235-.101.504 0 .638.235a.465.465 0 01-.134.571c-1.007 1.511-2.518 22.159-3.223 34.917a.505.505 0 01-.504.436z" fill="#F7EDE1"/><path d="M342.845 267.866a.494.494 0 01-.47-.369.471.471 0 01.336-.571l16.787-3.961c.235-.068.503.1.57.335a.47.47 0 01-.335.571l-16.787 3.962c-.034.033-.067.033-.101.033zm-.604 8.898a.616.616 0 01-.235-.068l-21.42-12.959a.458.458 0 01-.168-.638.458.458 0 01.638-.168l21.42 12.96a.458.458 0 01.168.638c-.068.167-.235.235-.403.235zm1.108-15.847c-.135 0-.302-.067-.37-.202l-8.024-11.18c-.168-.201-.1-.503.101-.671a.517.517 0 01.671.101l8.025 11.18c.167.201.1.503-.101.671a.545.545 0 01-.302.101z" fill="#F7EDE1"/><path d="M399.297 281.41c1.578-2.988 2.787-5.909 5.036-8.527.773-.873 1.713-1.746 2.854-1.78.235 0 .47.034.604.202.135.134.168.369.168.57 1.075 12.658-15.41 11.919-18.7 1.276-.202-.671-.37-1.376-.168-2.014.369-1.175 1.846-1.679 3.022-1.31 1.175.37 2.048 1.411 2.719 2.485 1.746 2.854 2.283 6.245 2.787 9.535-.806-4.298-.303-8.83 1.477-12.758.268-.604.772-1.276 1.376-1.041.303.101.47.403.638.672 1.108 1.98 1.175 4.398.672 6.58-.437 2.149-1.444 4.163-2.485 6.11z" fill="#88B0A9"/><path d="M72.216 235.948c-5.752-2.357-11.43-4.774-15.183-9.646-1.948-2.546-2.823-6.864-.051-8.416 1.405-.791 3.121-.433 4.738-.39 6.188.244 3.358-5.642.52-8.083-5.027-4.337-11.307-8.036-13.348-14.341-.126-.386-.245-.838-.1-1.227.2-.586.844-.92 1.404-1.095 4.029-1.312 10.316 1.712 13.438-1.794 7.627-8.515-11.17-26.43-15.086-32.875-.743-1.23-1.508-2.564-1.45-4.01.14-2.788 3.427-4.419 6.208-4.213 4.252.334 7.988 3.212 12.337 2.982 3.43-.162 6.019-3.119 7.132-6.171 3.378-9.187.003-19.929 1.56-29.451 1.266-7.798 8.354-22.148 18.495-17.314 4.654 2.202 5.468 8.304 6.428 13.375.901 4.693 2.34 10.02 4.831 14.078 1.83 3.005 4.728 5.52 8.177 6.103 6.733 1.115 16.207-3.312 15.099 7.645-.334 3.34-1.893 6.445-2.628 9.742-.769 3.293-.491 7.208 2.073 9.382 4.659 3.993 20.59-1.411 18.664 9.321-.465 2.684-2.203 4.959-3.732 7.188-7.418 10.903 4.321 11.657 6.29 20.758.718 3.288-.373 6.748-2.169 9.556-2.899 4.544-7.461 7.925-10.946 11.965-7.094 8.27-12.288 18-16.785 27.839-3.297 7.237-7.012 21.621-17.505 20.599-6.486-.614-7.469-10.687-9.152-15.331-3.292-9.044-10.792-12.709-19.259-16.176z" fill="#F63"/><path d="M106.655 271.599c-.301-.033-.546-.263-.546-.567L95.396 152.575a.641.641 0 01.582-.679.616.616 0 01.679.582l10.713 118.457a.615.615 0 01-.582.678l-.133-.014z" fill="#D84E32"/><path d="M99.882 189.381c-.1-.011-.163-.052-.26-.096a.616.616 0 01-.208-.868l12.426-21.091a.615.615 0 01.868-.208.615.615 0 01.208.867l-12.426 21.091a.62.62 0 01-.608.305zm4.317 42.934c-.101-.011-.164-.052-.26-.096a.615.615 0 01-.208-.868l12.426-21.091a.614.614 0 01.867-.208.614.614 0 01.208.867l-12.426 21.091c-.122.19-.374.331-.607.305zm-4.273-20.062c-.1-.011-.163-.052-.26-.096l-20.464-12.593c-.286-.167-.375-.582-.208-.868.166-.285.581-.375.867-.208l20.465 12.593c.286.167.375.582.208.867a.62.62 0 01-.608.305z" fill="#D84E32"/><path d="M12.614 237.011a7.486 7.486 0 012.342-1.086c3.467-.903 7.073.912 9.9 3.122s5.358 4.947 8.663 6.347c1.531.658 3.913.545 4.193-1.092.111-.75-.315-1.492-.768-2.131-4.488-6.36-10.542-11.154-16.067-16.527-1.489-1.436-3.088-3.436-2.29-5.348.855-2.051 3.847-2.11 5.777-1.077 1.932 1.065 3.45 2.87 5.467 3.727.523.23 1.107.387 1.705.275 1.06-.215 1.75-1.345 1.8-2.46.332-6.725-8.137-11.404-11.061-16.67-2.495-4.491-2.505-9.945-2.05-15.064.336-3.998.99-8.257 3.659-11.253.587-.685 1.348-1.315 2.252-1.383 3.448-.261 4.121 7.735 6.2 9.833 1.892 1.877 4.479 3.129 5.802 5.486 1.637 2.94.703 6.614 1.191 9.944.774 5.328 5.663 6.305 7.376 10.249.037-3.067.074-6.133.078-9.198-.007-.976.08-2.06.77-2.718 1.575-1.432 3.965.777 4.426 2.863.578 2.751.053 5.586.098 8.41.046 2.825.887 5.926 3.285 7.361 2.679 1.581 6.028.452 8.99-.446 2.962-.897 6.66-1.413 8.718.855.81.915 1.236 2.095 1.461 3.29 1.943 10.088-7.563 20.169-4.628 30.014 2.624 8.858 8.365 13.979-.777 21.304-3.744 3.011-7.91 4.472-12.708 3.354-3.666-.833-7.011-2.769-10.344-4.536-6.879-3.688-14.607-5.257-21.857-8.075-5.066-1.973-9.994-4.798-13.125-9.241-3.131-4.443-4.046-10.737-1.126-15.302a8.832 8.832 0 012.648-2.827z" fill="#B5EBE1"/><path d="M63.246 277.35a.645.645 0 01-.635-.39l-31.183-76.054a.653.653 0 01.34-.834.653.653 0 01.834.341l31.183 76.054a.653.653 0 01-.34.834.5.5 0 01-.199.049z" fill="#FFF3E5"/><path d="M57.012 262.166c-.067.005-.134.01-.17-.021l-31.044-6.671c-.343-.076-.569-.395-.494-.737.075-.343.395-.569.737-.494l31.044 6.671c.343.076.569.395.494.737a.607.607 0 01-.567.515zM45.32 233.624c-.1.008-.17-.021-.273-.047l-12.004-4.242a.657.657 0 01-.399-.811.656.656 0 01.812-.398l12.005 4.242a.657.657 0 01.398.811.602.602 0 01-.539.445z" fill="#FFF3E5"/><path d="M130.665 261c.101 0 .235 0 .369.034.403.134.605.57.772.973 1.377 3.626 1.243 2.686 1.612 7.689.336-3.19.101-2.619 1.242-5.641.235-.571.47-1.208.94-1.611 3.089-2.653 1.242 7.151.84 8.326-1.511 4.297-5.54 5.942-9.804 5.103-3.76-.705-7.588-2.921-9.434-6.345-.168-.302-.302-.705-.101-.974.134-.201.403-.269.638-.302 2.149-.336 4.331.436 6.178 1.544 1.846 1.108 3.491 2.585 5.271 3.828 1.275.873 3.659.436 5.204.369 2.618-.101 3.458-1.242 5.472-2.921.437-.369.94-.705 1.477-.806.571-.067 1.209.168 1.41.705.101.336.068.672-.033 1.008-1.209 4.129-6.245 4.398-8.931 1.678-2.551-2.585-4.666-7.252-4.23-10.945.034-.705.47-1.645 1.108-1.712z" fill="#D2C9BF"/><path d="M86.901 272.24c1.477-2.343 2.753-5.026 3.055-8.049.067-.713.1-1.528-.235-2.139-.268-.509-.772-.747-1.242-.883-3.323-.951-6.412 2.275-8.796 5.502-4.23 5.671-7.99 11.919-11.213 18.643 1.948-4.007 2.955-11.716 2.485-16.47-.034-.17-.034-.374-.168-.509-.1-.136-.269-.102-.403-.068-1.007.271-1.645 1.596-2.149 2.818-1.51 3.77-2.82 8.151-3.692 12.396.537-2.683-1.075-5.875-2.552-7.472-2.652-2.852-2.081 1.121-1.51 3.464.57 2.276 4.297 11.241 6.949 9.237.503-.373.604-2.377 1.007-2.988.705-1.121 1.678-1.494 2.686-1.902 2.685-1.121 5.472-1.562 8.023-3.328 2.954-2.071 5.607-4.89 7.755-8.252z" fill="#88B0A9"/><path fill-rule="evenodd" clip-rule="evenodd" d="M153.135 120.733c0-38.375 31.122-69.498 69.497-69.498s69.498 31.09 69.498 69.498c0 38.374-48.414 126.103-69.498 126.103-19.17 0-69.497-87.729-69.497-126.103zm22.192 1.477c0 26.12 21.185 47.305 47.305 47.305s47.305-21.185 47.305-47.305-21.185-47.306-47.305-47.306-47.305 21.185-47.305 47.306z" fill="#FF6584"/><path d="M222.632 290.347c27.48 0 49.756-3.006 49.756-6.715 0-3.708-22.276-6.715-49.756-6.715s-49.756 3.007-49.756 6.715c0 3.709 22.276 6.715 49.756 6.715z" fill="#FF6584"/><path d="M284.849 24.652c4.499 1.713 9.669 1.511 14-.537-1.846.873-9.199-2.25-11.18-2.82-2.753-.806-6.916-3.223-9.669-1.914 1.007 2.451 4.331 4.298 6.849 5.271z" fill="#F7EDE1"/><path d="M411 83.57l4.13 7.253c.671 1.208 1.376 2.417 2.417 3.324 1.041.906 2.451 1.477 3.794 1.141.537-.134 1.074-.504 1.175-1.04.067-.404-.135-.807-.336-1.142-2.249-4.063-5.506-7.554-9.367-10.106" fill="#FFD037"/><path d="M394.821 59.052c.47.067.974-.1 1.41-.269a32.776 32.776 0 008.629-5.07c-2.149-.033-13.598-2.047-14.806-.839-1.981 1.981 2.451 5.842 4.767 6.178z" fill="#F7EDE1"/></svg>