<svg width="86" height="84" fill="none" xmlns="http://www.w3.org/2000/svg"><path d="M24.736 56.02c-1.316-2.25-2.06-4.673-2.025-6.975.034-2.13.882-5.435 1.194-7.547.156-1.039.415-3.687 1.264-4.448 1.02-.918 1.54.986 1.73 1.748.64 2.579-.415 5.21-.432 7.789-.018 1.021-.208 2.094-.104 3.115.138 1.35.761 2.718 1.454 3.878a52.785 52.785 0 002.7 4.033c.571.779 1.16 1.575 1.558 2.458.277.605 1.021 1.644.813 2.319-.779-.139-1.488-.796-2.18-1.16-2.112-1.125-4.76-3.133-5.972-5.21z" fill="#EAAF9B"/><path d="M29.479 57.128c-1.074-1.852-1.697-3.843-1.662-5.747.034-1.748.744-4.483.986-6.214.122-.865.347-3.029 1.039-3.652.848-.744 1.28.814 1.42 1.437.518 2.129-.33 4.293-.364 6.422 0 .848-.173 1.73-.087 2.561.121 1.108.623 2.233 1.195 3.185a38.428 38.428 0 002.232 3.324c.485.64.952 1.298 1.281 2.025.225.502.848 1.35.675 1.904-.64-.122-1.229-.658-1.8-.952-1.73-.918-3.912-2.58-4.915-4.293z" fill="#E2A08F"/><path d="M21.049 54.462c-1.61-2.042-2.7-4.327-2.995-6.629-.26-2.112.104-5.504.104-7.65 0-.935.121-1.766.225-2.683.07-.572-.017-1.42.398-1.887.883-1.039 1.662.744 1.956 1.471 1.004 2.475.347 5.227.693 7.79.138 1.02.086 2.094.346 3.098.329 1.315 1.142 2.579 1.973 3.634a49.386 49.386 0 003.237 3.6c.675.693 1.367 1.385 1.886 2.216.364.554 1.247 1.489 1.143 2.181-.796-.034-1.575-.571-2.32-.83-2.25-.797-5.157-2.407-6.646-4.31z" fill="#F4BFA8"/><path d="M60.547 56.02c1.316-2.25 2.06-4.673 2.026-6.975-.035-2.13-.883-5.435-1.195-7.547-.155-1.039-.415-3.687-1.263-4.448-1.021-.918-1.54.986-1.731 1.748-.64 2.579.415 5.21.433 7.789.017 1.021.207 2.094.103 3.115-.138 1.35-.761 2.718-1.453 3.878a52.785 52.785 0 01-2.7 4.033c-.572.779-1.16 1.575-1.559 2.458-.276.605-1.02 1.644-.813 2.319.779-.139 1.489-.796 2.18-1.16 2.113-1.125 4.76-3.133 5.972-5.21z" fill="#EAAF9B"/><path d="M55.805 57.128c1.073-1.852 1.696-3.843 1.662-5.747-.035-1.748-.745-4.483-.987-6.214-.121-.865-.346-3.029-1.039-3.652-.848-.744-1.28.814-1.419 1.437-.52 2.129.329 4.293.364 6.422 0 .848.173 1.73.086 2.561-.121 1.108-.623 2.233-1.194 3.185a38.428 38.428 0 01-2.233 3.324c-.485.64-.952 1.298-1.28 2.025-.226.502-.849 1.35-.676 1.904.64-.122 1.229-.658 1.8-.952 1.731-.918 3.912-2.58 4.916-4.293z" fill="#E2A08F"/><path d="M64.234 54.462c1.61-2.042 2.7-4.327 2.995-6.629.26-2.112-.104-5.504-.104-7.65 0-.935-.121-1.766-.225-2.683-.07-.572.017-1.42-.398-1.887-.883-1.039-1.662.744-1.956 1.471-.987 2.458-.329 5.21-.675 7.772-.139 1.021-.087 2.094-.346 3.098-.329 1.316-1.143 2.58-1.973 3.635a49.386 49.386 0 01-3.237 3.6c-.675.693-1.368 1.385-1.887 2.216-.363.554-1.246 1.489-1.142 2.18.796-.034 1.575-.57 2.32-.83 2.232-.779 5.14-2.389 6.628-4.293z" fill="#F4BFA8"/><path d="M57.451 52.905c8.13-8.13 8.13-21.312 0-29.442-8.13-8.13-21.312-8.13-29.442 0-8.13 8.13-8.13 21.312 0 29.442 8.13 8.13 21.312 8.13 29.442 0z" fill="#8280CE"/><path d="M53.805 20.59c-1.67-1.037-3.466-1.872-5.414-2.429-.126.026-.227.051-.354.051-.404 0-.784-.076-1.214-.025-.835.076-1.492-.05-2.327-.253-.784-.177-1.518-.43-2.327-.304-.33.05-.683.152-1.012.228-.38.101-.734.101-1.139.152-.328.05-.581.126-.885.227-.228.076-.632.253-.835.228.05-.202.33-.455.506-.582-.556.076-.961.506-1.442.582-.303.05-.556.025-.86.127-.38.1-.733.404-1.088.455.304-.152.582-.38.734-.658a21.547 21.547 0 00-8.424 5.363c.304-.05.962-.506 1.139-.734.455.203-.127.86-.203 1.139-.076.227-.025.354-.177.53-.1.127-.278.077-.405.203.076-.05.127.076.279.026.177-.051.227-.127.405-.203.253-.101.404-.101.607.076.126-.304.025-.658.227-.885.304-.355 1.088-.355 1.265-.734-.126.354-.48.683-.708.987-.304.404-.278.759-.405 1.214-.126.43-.48.683-.733 1.088-.709-.279-.228-.86 0-1.341-.228 0-.481.152-.658.253 0-.076-.05-.152-.05-.253-.254.05-.633.152-.633-.253-.405-.076-1.442.885-1.34 1.29.1 0 .176.101.277.101.101.279-.227.557-.38.734-.075.101-.176.177-.252.278-.076.127-.127.405-.202.531-.355.506-.557.127-.557-.278.025-.354.05-.38-.05-.48-2.075 3.187-3.264 7.032-3.264 11.155 0 4.933 1.72 9.486 4.604 13.053-.076-.202-.152-.405-.228-.582-.253-.506-.455-.986-.784-1.442a6.41 6.41 0 01-.708-1.189c-.152-.354-.05-.96-.38-1.24.253-.303.127-.328.076-.581-.025-.101-.1-.152-.1-.304-.026-.177.126-.227.126-.354.025-.582-.38-1.34-.607-1.872-.127-.354-.38-.683-.456-1.062-.076-.43 0-.936.076-1.34a14.717 14.717 0 011.012-3.416c.228-.531.253-.986.43-1.518.127-.379.43-.607.43-1.011-.455-.102-.784.683-1.214.455-.304-.177-.101-.81-.127-1.113-.05-.405-.126-.81-.177-1.189-.025-.329.177-.531.203-.835.025-.278-.026-.455.076-.759.177-.581.227-1.012.253-1.619.025-.43.151-.81.455-1.113-.177.48-.05 1.164-.152 1.695-.126.582-.05 1.214-.202 1.822-.203.784-.177 1.492-.253 2.25.582-.202.936-.581 1.416-.96.127-.102.253-.127.38-.279.076-.1.101-.328.177-.404.126-.127.531-.178.708-.253.304-.102.582-.253.76-.582.1-.177.075-.38.176-.557.127-.253.405-.278.455-.607 0-.05-.1-.253-.151-.354-.102-.126-.33-.05-.405-.152-.202-.253.076-.582.127-.834-.178.227-.633.733-.962.657-.076-.329-.152-.354-.101-.708-.48-.203.025-1.366.177-1.67.329.38.025 1.012.329 1.366.405.456.658.026.936-.177.025.127 0 .532.101.607.101.102.531.127.683.177.228.076.531.253.759.228.253-.025.405-.354.658-.303.025.075.076.1.1.151.482.279.102.481.178.886.152 0 .303 0 .455.05-.025.127-.126.253-.202.33.329 0 .531.328.708.556.253.328.228.632.253 1.087.101 1.088.48 2.075.708 3.112.102.43.152.759.506 1.088.203-.152.279-.43.506-.506-.025-.203.279-.785.354-1.038.127-.43.203-.708.203-1.188 0-.835.708-1.113 1.366-1.493.48-.278.759-.531 1.062-.961.177-.253.304-.329.582-.43.38-.127 1.34.101 1.569-.203-.026.177.455.253.581.38.228.253.203.48.304.784.076.228.278.405.329.658.076.329-.101.556-.152.835.405.05.835-.279 1.163-.178.405.152.481.608.506.987.026.405.102.81.102 1.189 0 .43-.152.759-.177 1.138.303.33.556.354.758.76.203.404.178.783.33 1.188.151.405.53.455.834.734.177.151.304.278.48.404.127.102.279.102.38.253.177-.303-.303-.607-.38-.885-.1-.38.051-.708-.176-1.037-.279-.405-.86-.607-1.19-.961-.278-.304-.353-.506-.328-.911-.076 0-.152-.076-.228-.05-.05-.38-.025-1.696.405-1.797.253-.076.455.228.48.456.507 0 .355.025.633.404.202.279.278.355.38.734.177-.05.303-.253.455-.05.151.176-.101.404 0 .556.177.253.683-.557.885-.708.48-.355.86-.405.886-1.088 0-.253.075-.633 0-.886-.076-.354-.304-.379-.582-.607-.557-.455-.86-.758-.936-1.441-.05-.405.759-.911 1.189-.835.986.151.1.784.126 1.214.278.076.38-.177.607-.202.203-.43-.152-.835.43-1.088.253-.101.532-.05.76-.152.252-.101.43-.354.632-.506.252-.177.53-.253.758-.506.33-.329.481-.733.683-1.138.279-.582.33-1.088.127-1.72-.076-.253-.101-.76-.354-.936-.203-.127-.48.076-.582-.253-.025-.025-.076-.101-.025-.253.253-.025.43-.177.354-.43-.228 0-.48-.05-.658.076-.126-.228-.455-.405-.38-.683.051-.228.405-.228.38-.607.228.151.101.404.304.48.303.127.354-.177.632-.202.354-.05.38.152.506.38.177.379.152.227.43.43.253.176.253.1.253.505 0 .253-.101.582.177.658.329.101.734-.455.759-.708.025-.456-.354-.354-.683-.582-.177-.127-.177-.025-.253-.253.025.05-.025-.557-.05-.48.1-.33.43-.355.303-.785.658-.152.986-.228.961-.961 0-.127 0-.506-.025-.633-.076-.253-.354-.379-.38-.708.152.177.38.203.532.354.1.101.076.203.151.33.178.227.304.43.608.58-.076-.176-.304-.328-.43-.53-.102-.177-.051-.456-.178-.633-.1-.152-1.037-.759-1.239-.759-.329-.025-.38.253-.734.127-.354-.101-.708-.455-.455-.835.202-.303 1.063-.076 1.467-.101-.025-.152-.152-.278-.227-.405.505.101 1.24.658 1.517 1.088.228.354.253.531.658.708.253.101.556.127.708.354-.202-.253-.556-.48-.759-.759-.126-.177-.126-.379-.252-.556.303.101.632.152.885.076zm-.556 2.808c-.05-.026-.076-.026-.102 0 .076.1.152.202.203.329.05.151 0 .1-.026.177-.075.126-.126.253.076.303.026-.05.026-.126.026-.177.126.025.202-.076.329-.05.075.025.126.126.227.075.05-.025.076-.177.076-.227-.025-.203-.329-.203-.48-.279-.152-.025-.203-.1-.33-.151zm.429 1.112c-.177.127.178.507.228.633.026.101.05.253.026.354-.026.228-.051.076-.178.05-.1 0-.202.127-.227.229-.026.1.076.202.025.278-.025.05-.101.025-.127.05-.025.026-.075.102-.1.127-.102.05-.228-.025-.33-.025-.252 0-.657.227-.682.506.252-.051.607.025.784-.152.076-.076.227-.253.38-.177.1.05.15.253.252.329.101-.102-.076-.177-.05-.279.025-.1.151-.126.227-.1.101.05.05.126.203.126.177 0 .151-.127.202-.228.076-.152.05-.025.177-.076.152-.076.101-.202.025-.278-.076-.127-.177-.177-.177-.33 0-.125.05-.252.026-.378-.127-.304-.33-.608-.684-.658zm-1.163 2.53c-.127-.025-.127.178-.127.279 0 .025.05.1.076.126.025.05-.025.127.025.177.127.152.253-.05.279-.177.025-.076 0-.152 0-.202 0-.076.075-.101.05-.203a.413.413 0 00-.303 0zm-2.252 3.112c-.253.126-.354.506-.278.759.025.05.025.126.076.177.025.05.101.076.127.101.05.076.05.127.075.228a.84.84 0 01.127-.405c.076-.177.05-.127 0-.304-.076-.126.253-.581-.127-.556zm.38 2.555c-.38.025.025.759-.05.936-.051.151-.152.227-.178.404-.025.178-.025.38.127.506.126-.151.227.152.253.253.025.177-.026.355.227.355v-.304c0-.076 0-.101.026-.177.025-.026.076-.05.076-.101.05-.152-.05-.102-.127-.203-.025-.05-.05-.227-.025-.278.025-.101.126-.202.177-.303.05-.152.076-.355.025-.507-.05-.202-.227-.53-.531-.581zm-1.265 5.16c-.253-.05-.354.506-.48.658-.076.101-.152.101-.279.126-.126.026-.202.102-.303.177-.177.127-.177.177-.228.355-.05.151-.126.202-.253.278-.227.126-.43.025-.632.126-.253.101-.05.253-.076.405-.025.127-.203.076-.304.101-.151.026-.177 0-.303-.05-.228-.076-.38.126-.33.354.026.101.102.202.102.303 0 .102-.05.228-.05.354 0 .178.05.456.253.532.025.025.151 0 .177 0 .075.076 0 .202.025.303.025.177.076.279.227.354.102.076.051.051.178.051.076 0 .1-.076.202-.05.05 0 .101.075.152.1.278.152.506.026.81.026.252 0 .303.177.505.202.177.026.38 0 .354-.202.102.025.228.152.304.025.076-.126-.101-.303-.101-.405 0-.1.075-.227.1-.303.026-.101 0-.202-.024-.304.151-.076.404-.025.48-.202.05-.127-.025-.354-.025-.506 0-.101 0-.228.101-.278.101-.05.329.05.354-.101.026-.127-.278-.177-.329-.304-.05-.101 0-.202.026-.329.025-.253-.228-.404-.051-.657.076-.102.38-.051.354-.203-.025-.101-.202-.025-.177-.177.152-.025.304-.101.48-.126-.05-.228-.455-.127-.606-.253-.102-.076-.127-.228-.253-.304-.152-.025-.228-.025-.38-.076z" fill="#B5EBE1"/><path d="M44.85 43.356c-.101-.05.126-.632.152-.758 0-.076.025-.076-.026-.152-.025-.05-.1-.076-.126-.127-.025-.076.025-.177 0-.253-.05-.177-.329-.151-.456-.253-.1-.076-.176-.227-.278-.329-.076-.075-.202-.177-.227-.252-.076-.228.202-.355-.102-.506-.1-.05-.151-.026-.252-.102-.076-.05-.152-.126-.228-.202-.177-.126-.38-.303-.607-.38-.076-.025-.203-.025-.279-.05-.075-.025-.1-.126-.151-.177-.102-.101-.228-.152-.33-.253a4.217 4.217 0 00-.404-.303c-.228-.152-.152-.456-.405-.608-.354-.253-.81.051-1.189-.1.152.1.178.379.33.505.1.076.252.05.379.177.126.152.126.329.303.456.152.1.177.202.279.354.1.151.227.05.354.151.1.051.126.177.151.279.026.126.102.202.152.354.101.278.152.48.43.632.33.203.279.48.48.784.127.177.254.355.406.506.151.152.379.253.556.38.152.101.253.177.354.329.076.075.152.202.279.177v-.354c.202-.051.303.075.455.075zm.177.304c-.151 0-.328 0-.278.203-.076 0-.152.05-.227.075.1.076.303.101.404.076.05 0 .127-.101.152.025 0 .051-.076.127-.101.152.076 0 .152.026.228.026.151.05.227.025.379 0 .126 0 .228.025.354.05.152.025.329.152.48.152.102 0 .203-.05.33-.05.126 0 .278.025.404.025.152 0 .304-.026.456 0 .126.025.253.076.38.1.201.051.58.102.809.051-.076-.151-.253-.126-.38-.227-.101-.076-.025-.152-.202-.127-.101 0-.33.101-.38-.05-.076-.177.203-.127.203-.253-.101-.05-.203 0-.304-.026-.126-.025-.177-.1-.329-.126-.303-.025-.582-.127-.885-.025-.354.1-.708.126-1.063-.05-.1-.052-.202-.102-.303-.102a.552.552 0 01-.127.101zm5.464-.531c-.025-.203.202-.987-.152-.961-.025.126-.1.151-.177.075-.101-.126.026-.227.076-.328.127-.177.253-.355.278-.557.026-.101 0-.227 0-.329 0-.152.05-.329.102-.506.05-.278.227-.354.455-.329.152 0 .303-.025.43-.025.152 0 .278.076.43.05.329-.05.683-.05.81-.404.05.38-.38.81-.709.835-.303.025-.936-.278-1.163.05-.127.177-.076.506.1.607.254.152.355-.126.583-.227.075-.025.581-.177.581-.05-.025.1-.354.227-.43.252-.1.05-.227.101-.278.203-.101.126-.05.1 0 .227s.05.228.101.354c.05.102.101.177.127.279a.664.664 0 01-.05.38c-.153-.052-.178.024-.304.05 0-.152-.051-.38-.102-.532-.05-.1-.177-.455-.328-.404-.076.253 0 .531-.026.81-.025.176-.05.404-.025.556-.101.076-.253.05-.329-.076zm-1.113 1.239c-.1.203.228.304.355.203-.076-.05-.33-.228-.38-.152m.885.329c.127.05.253.076.354.152.076.05.127.202.253.177.026-.203-.505-.43-.607-.33zm.38-.354c.151.1.404.126.581.126.178 0 .38.05.557.025.202-.025.278-.202.455-.278.127-.076.203-.076.253-.228-.177.026-.354.127-.556.152-.203.026-.38.127-.582.101-.152 0-.329-.075-.48-.075-.102 0-.33.075-.228.177zm1.29.506c.126 0 .177-.127.253-.178.126-.126.253-.253.405-.354.177-.126.379-.126.556-.253-.076.203-.38.354-.531.481-.101.076-.177.228-.278.304-.076.05-.177.05-.279.126-.1.05-.177.202-.278.228-.076-.177.025-.253.152-.354zm7.968-1.012c-.228-.203-.329-.43-.405-.709-.05-.177-.43-.354-.329-.53.076-.153.354-.051.177-.28-.075-.126-.202-.15-.253-.277l-.075-.228c-.026-.127-.026-.228-.127-.329-.152-.152-.455-.202-.658-.278-.455-.152-.885-.43-1.39-.329-.254.05-.304.278-.456.43-.05.05-.354.354-.43.354-.076 0-.101-.278-.127-.354a.814.814 0 01-.025-.43c.025-.101.101-.152.025-.228-.05-.05-.202-.076-.253-.076-.126-.025-.303-.05-.38 0-.1.076-.05.152-.202.203-.126.05-.202.025-.328-.025.025.303.278.126.38.328.024.051-.026.152.024.203a.661.661 0 00.203.076c.1 0 .126-.076.202-.102.101-.025.177 0 .152.102-.076.177-.329.05-.455.1-.304.127.227.228.252.33.026.076-.126.253-.05.329.152.126.303-.203.303-.279.178.026.304.203.456.253.329.101.531.076.784.33.202.201.177.505 0 .707-.101.127-.127.253-.228.405-.025.05-.227.177-.025.202.076.026.304-.151.405-.177.101-.025.177-.075.278-.075.329.025.076.48.455.354.279-.102.607-.228.683-.532.051-.227.102-.379.38-.227.076.05.253.202.303.303.076.102.026.304.127.405.126.076.43.05.607.05zm-5.262-1.898c-.177-.05-.354-.202-.581-.227-.203-.026-.507.025-.203.177.203.101.43.05.607.126.05.026.203.127.228.127.126 0 .025-.127-.05-.203zm-.657-2.479c-.177-.025-.354.279-.33.405 0 .05.077.127.077.177.025.101 0 .152-.026.253 0 .076-.05.38 0 .405.178.127.127-.228.152-.278.05-.304.177.025.33.05-.026-.126-.228-.227-.228-.354 0-.177.202-.152.202-.329-.127-.025-.329.228-.354.026-.026-.127.126-.253.227-.279 0-.025 0-.076-.05-.076zm2.783 7.564c-.102.025-.279-.101-.355-.152a3.33 3.33 0 00-.48-.278 2.373 2.373 0 01-.304-.228c-.101-.151 0-.278.101-.404.051-.076.102-.102.152-.152.05-.076.076-.152.152-.228.05-.076.278-.227.253-.354-.05-.278-.633.025-.734 0-.177-.05-.683-.48-.81-.152-.05.101.026.152-.075.228-.05.05-.127.025-.177.025-.127.05-.152.127-.228.228a4.153 4.153 0 00-.354.556c-.076.102-.101.177-.202.253-.253.152-.355-.1-.582-.151-.152-.051-.177-.026-.304.126-.177.177-.38.329-.556.531a.719.719 0 00-.228.43c-.025.076-.025.127-.101.152-.101.05-.203-.05-.304.076-.05.076-.05.202-.05.278-.177-.05-.177-.303-.43-.177-.203.101-.228.43-.304.633-.101.303-.253.404-.582.48-.253.076-.455.253-.708.354-.228.102-.405.076-.632.102-.304.025-.76.202-.962.43-.202.227-.303.581-.404.86-.026.076-.076.202-.076.278 0 .05.05.101.05.152.026.177-.126.303-.126.48.025.177.278.405.354.557.101.152.202.329.278.506.026.1.076.329.026.43-.026.076-.102.05-.102.151 0 .152-.025.507-.303.507.05.227.152.202.354.202.101 0 .177.025.278.025.127 0 .253.05.38.05.126 0 .126-.025.227-.075.102-.05.253-.101.38-.127.227-.05.329-.227.582-.253a1.89 1.89 0 01.53-.025c.178.025.38.076.557.05.253-.05.355-.379.557-.505.278-.177.556-.405.86-.532.228-.1.658-.176.885-.05.304.152.304.455.532.658.05-.127.252-.43.404-.405 0 .177-.177.278 0 .405.05.05.152.05.177.126.026.05-.025.177-.05.253-.026.152-.101.304.076.354.253.076.48-.177.683-.303.1-.05.177-.152.278-.177.177-.076.329 0 .455-.127.101-.101.177-.227.279-.329.177-.151.379-.303.53-.455.355-.354.532-.885.886-1.265.203-.227.455-.455.607-.733.076-.127.101-.279.152-.43.101-.279.303-.532.354-.86.025-.178 0-.355-.025-.532-.026-.227-.026-.354-.152-.556-.05-.076-.101-.127-.05-.228-.228-.025-.127-.43-.102-.582l-.151-.076c-.026-.227.126-.43.151-.657.026-.228 0-.405 0-.607-.278-.026-.278-.076-.278-.38 0-.303-.101-.607-.127-.91-.227.202-.202.657-.328.91-.102.202-.203.405-.228.633 0 .1.025.177 0 .278-.025.202-.177.405-.278.582 0 0-.127.253-.279.126zm-1.898 6.755c-.253.1-.53.202-.657.454-.127.203-.076.279.126.102.127-.127.177-.102.329-.076.127 0 .076 0 .177-.076.127-.152.177-.228.025-.405zM52.16 35.11c-.1.202.077.278.203.38.127.126.076.227 0 .353-.05.102-.126.203-.025.33.101.126.228.126.177.328-.025.076-.05.101-.076.177 0 .076 0 .203.026.279-.127 0-.304.025-.43-.026.05.203-.279.05-.38.127-.278.151-.076.48-.202.683.075.1.227-.026.278-.102.05-.05.101-.151.177-.177.076-.025.05.026.101.026.177 0 .228 0 .228.202 0 .101-.05.228-.026.304.051.126.304.177.43.151.355 0 .051-.227.102-.43.05-.202.43-.177.404-.455 0-.101-.126-.228-.177-.329-.025-.076-.025-.152-.05-.202-.026-.076-.05-.127-.076-.203-.025-.1-.101-.177-.101-.278-.026-.101-.026-.227-.05-.329-.077-.227-.026-.38-.228-.556-.102-.101-.254-.177-.304-.253zm-.657.455c-.101.101-.202.228-.202.354 0 .026.05.178.101.178.076 0 .101-.127.152-.152.05.076.025.202 0 .303.126-.1.151-.303.151-.455-.075 0-.05-.101-.202-.228z" fill="#B5EBE1"/><path d="M34.365 73.91c.811 1.193 4.159-.605 4.952-1.377 1.916-1.848 1.812-4.821 1.864-7.24.069-2.822-.155-5.829-1.415-8.45-1.38-2.889-4.003-5.09-6.591-6.92-2.071-1.478-3.693-3.46-5.505-5.19-1.07-1.025-2.433-2.235-3.917-2.671-.655-.185-2.743-.286-2.433.907.138.52.95 1.075 1.294 1.444.587.605 1.156 1.243 1.726 1.848 1.794 1.915 3.692 3.813 4.918 6.131.241.454 2.294 5.073.38 3.796-3.366-2.25-7.23-4.67-9.819-7.878-1.225-1.512-1.708-3.41-2.502-5.14-.897-1.982-1.984-4.031-4.366-4.4-.207 1.713.76 3.41 1.295 5.005.62 1.864 1.087 3.763 2.019 5.526a20.65 20.65 0 002.07 3.175c1.122 1.411 2.692 2.604 3.986 3.847 3.313 3.175 7.35 5.963 10.111 9.642 1.277 1.713 1.622 3.494 1.795 5.543.052.84-.172 1.596.138 2.402zm16.885 0c-.811 1.194-4.159-.606-4.952-1.379-1.916-1.85-1.812-4.826-1.864-7.247-.069-2.824.155-5.834 1.415-8.457 1.38-2.892 4.003-5.094 6.591-6.927 2.071-1.48 3.693-3.464 5.505-5.196 1.07-1.025 2.433-2.236 3.917-2.673.655-.185 2.743-.286 2.433.908-.138.521-.95 1.076-1.294 1.446-.587.605-1.157 1.244-1.726 1.85-1.794 1.916-3.692 3.816-4.918 6.136-.241.454-2.295 5.078-.38 3.8 3.366-2.253 7.23-4.674 9.819-7.885 1.225-1.514 1.708-3.413 2.502-5.145.88-1.95 1.984-4.002 4.365-4.372.208 1.732-.759 3.43-1.294 5.01-.62 1.867-1.087 3.767-2.019 5.532a20.673 20.673 0 01-2.07 3.178c-1.122 1.413-2.692 2.606-3.986 3.85-3.313 3.178-7.35 5.97-10.112 9.651-1.276 1.716-1.622 3.498-1.794 5.549-.052.807.172 1.564-.138 2.37z" fill="#F7C8AF"/><path d="M33.324 79.07s-.066 0-.131-.065c-.066 0-.198-.066-.263-.066-.066 0-.197-.066-.263-.066s-.132-.066-.197-.066c-.066 0-.132 0-.132.066s-.066.197-.131.46c-.066.198-.132.46-.197.723-.066.263-.132.592-.263.855-.066.328-.132.591-.263.854-.132.263-.132.526-.198.723-.065.197-.131.395-.131.46 0 .066-.066.132-.066.198 0 .065 0 .131-.065.263 0 .065-.066.065-.132.065-.131 0-.263-.066-.328-.066-.066-.065-.198-.065-.33-.065-.065 0-.13-.066-.065-.132 0-.066.066-.197.132-.46.065-.263.131-.526.197-.854.066-.329.197-.658.263-.986.065-.329.197-.723.263-.986.065-.329.131-.592.197-.789.066-.197.066-.328.131-.394 0-.066 0-.132-.066-.132-.065 0-.131 0-.197-.065-.065 0-.131-.066-.197-.066s-.131-.066-.131-.197c0-.132.065-.329.131-.46.066-.132.066-.329.132-.46v-.132c0-.066 0-.066.065-.131l.066-.066h.131c.066 0 .198.066.33.066.13 0 .196.065.262.065.132.066.132.132.132.263l-.066.197c0 .066 0 .132.066.132.065 0 .197.066.328.066.132.065.263.065.46.131s.329.066.526.132c.197.065.329.065.526.131s.263.066.394.131c.132 0 .132.066.197.066-.065 0 0 .066 0 .132v.197s0 .131-.065.263c-.066.131-.066.328-.132.591l-.197.789c-.066.263-.197.591-.263.92-.066.329-.197.592-.263.92a6.802 6.802 0 01-.197.79c-.131.262-.197.46-.197.59-.066.132-.066.263-.066.263a.141.141 0 01-.131.132h-.197c-.066 0-.198-.066-.263-.066-.132 0-.198-.066-.263-.066 0 0-.066 0-.066-.065l-.066-.066v-.066l1.183-4.272c0-.066.066-.131.066-.197v-.132zm-5.521 2.367c.066 0 .066-.066.066-.066.065-.131.065-.197.13-.329.067-.131.067-.197.132-.328v-.066c0-.066 0-.066-.065-.066-.066-.066-.197-.066-.263-.131-.066-.066-.198-.066-.263-.132-.066 0-.197-.065-.263-.065s-.132-.066-.197-.066c-.132-.066-.132-.066-.197-.132v-.197c0-.066.065-.131.065-.197s.066-.132.066-.197c.131-.066.197-.066.394-.066.132.066.263.132.46.197.132.066.33.132.46.197h.132s.066-.065.066-.131c0-.132.066-.263.131-.46.066-.197.132-.329.197-.526.066-.197.132-.329.198-.46.065-.131.131-.197.131-.263v-.066s0-.065-.066-.065a3.182 3.182 0 00-.46-.198c-.197-.065-.329-.131-.526-.197l-.591-.263c-.066 0-.066-.065-.132-.065-.065 0-.065-.066-.065-.132 0 0 0-.066.065-.131 0-.066.066-.132.066-.198 0-.065.066-.13.066-.197 0-.065.066-.131.066-.131 0-.066.065-.066.065-.132h.132c.066 0 .131.066.263.066.131.066.262.132.46.197.197.066.328.132.526.197.197.066.394.132.525.198.132.065.329.131.395.197a.51.51 0 00.197.066c.066 0 .066.065.131.131.066.066 0 .132 0 .197 0 .066-.065.263-.197.526-.131.263-.197.592-.394.92-.132.329-.263.723-.46 1.118-.132.394-.329.788-.46 1.117-.132.329-.263.657-.329.92s-.132.395-.197.46c-.066.132-.132.132-.197.132-.066 0-.197-.066-.395-.132a4.534 4.534 0 01-.657-.263c-.263-.065-.46-.197-.657-.262-.197-.066-.395-.132-.526-.198-.263-.065-.263-.263-.197-.46 0-.066.065-.066.065-.131.198-.066.198-.132.198-.132 0-.065.065-.131.131-.131h.197s.066 0 .132.066c.065 0 .197.065.263.131.131.066.197.066.328.132.132.065.263.065.329.13h.328c.132.067.132.067.198.067zm-1.513-5.784s.067 0 .132.065c.066 0 .132.066.197.066.066.066.132.066.198.131.065 0 .131.066.131.066.066.066.131.132.066.132 0 .066-.066.131-.066.197s-.066.131-.131.263c-.066.131-.198.329-.263.526-.132.197-.263.46-.395.723a4.893 4.893 0 01-.46.788 4.897 4.897 0 01-.46.79c-.197.262-.263.525-.394.722-.066.263-.132.46-.263.592l-.132.263v.065s0 .066-.065.066c0 0-.066 0-.132-.066-.066-.065-.131-.065-.263-.131-.065-.066-.197-.066-.263-.132-.065-.065-.065-.065-.131-.065v-.132c.066-.066.066-.197.197-.394.066-.132.132-.263.197-.46.066-.197.198-.329.263-.526.066-.132.132-.263.197-.329.066-.065.066-.131 0-.131-.131-.066-.328-.132-.46-.263-.131-.066-.263-.132-.46-.263h-.066c0 .066-.065.132-.131.263s-.197.329-.263.46c-.066.197-.197.329-.263.526s-.197.328-.197.394c-.131.197-.197.197-.263.132-.131-.066-.263-.132-.329-.198l-.394-.197c-.066 0-.066-.065-.066-.065v-.132c.066-.066.132-.197.198-.329.131-.131.197-.328.328-.591.132-.263.263-.46.395-.789.131-.263.262-.526.46-.854.131-.263.328-.526.46-.789.131-.263.263-.526.394-.723.132-.197.197-.394.263-.526.066-.131.131-.197.131-.263.066-.066.066-.131.132-.131h.197c.066.066.197.066.329.131.131.066.197.132.263.132.065 0 .065.065.065.131s0 .132-.065.197c-.066.066-.132.197-.198.395-.065.197-.197.394-.328.591a3.08 3.08 0 00-.329.657c-.131.198-.197.395-.263.46v.066s0 .066.066.066c.131.066.263.132.46.197.132.066.263.132.395.263.065.066.131 0 .131-.066.131-.262.329-.591.46-.854.132-.263.329-.591.46-.855 0-.065.066-.065.066-.13 0-.067.066-.132.066-.198s.065-.066.065-.132c0-.065.132.132.132.198zm-5.783 3.417s-.132-.065-.197-.131c-.132-.066-.263-.197-.46-.263-.198-.066-.33-.263-.526-.394-.198-.132-.395-.263-.526-.395-.132-.131-.329-.197-.46-.328-.132-.132-.197-.132-.197-.132l-.132-.131c-.066-.066 0-.066.066-.132.066-.065.066-.131.131-.197.066-.066.066-.131.132-.197.131-.132.263-.132.394 0 .132.066.197.131.329.197.131.066.197.132.328.197.066.066.132 0 .132-.065.066-.066.131-.198.263-.395.131-.197.328-.46.46-.723.197-.263.394-.591.591-.854.198-.263.395-.592.592-.855.197-.263.329-.526.46-.657.131-.197.197-.329.197-.329.066-.065.066-.065.132 0 .065.066.197.132.263.198.065-.066.131 0 .197 0 .131.065.131.131.066.263-.066.13-.198.328-.33.525-.13.197-.328.46-.525.789-.197.263-.394.526-.591.854-.198.263-.395.526-.526.79-.132.262-.329.525-.526.788 0 .066-.066.066-.066.131 0 .066 0 .066-.066.066v.066s.066.066.132.066c.066.065.131.065.197.131s.197.132.263.197c.066.066.131.132.197.132v.131c0 .066-.066.066-.066.132-.065.065-.065.131-.131.197s-.066.131-.131.197c-.066.066 0 .131-.066.131zm-4.667-6.112c.132-.132.197-.263.395-.329.197-.066.328-.197.46-.197.197-.066.328-.066.526-.066.197 0 .394 0 .525.066.132.066.198.066.329.197.131.132.263.197.394.263.066 0 .066.066.132.066 0 0 .066 0 .066-.066.131-.197.328-.394.46-.591.197-.198.328-.395.46-.592.131-.132.263-.132.394 0 .066.066.132.131.197.131.066.066.132.066.197.132.132.131.132.197.066.329-.066.131-.197.262-.394.525a6.953 6.953 0 01-.657.79c-.263.328-.526.59-.79.92-.262.328-.525.59-.722.92a7.047 7.047 0 01-.592.722c-.131.198-.263.33-.263.33-.065.065-.131.065-.197.065s-.197-.066-.329-.197c-.13-.066-.262-.198-.394-.329-.131-.132-.263-.197-.329-.329-.13-.065-.197-.131-.197-.197-.131-.131-.197-.263-.328-.394-.132-.132-.132-.329-.197-.46v-.526c0-.197.065-.329.197-.46.065-.066.131-.197.263-.329.131-.131.262-.263.328-.394zm2.038.92s0-.066 0 0v-.132l-.132-.13c-.065-.067-.131-.132-.197-.198s-.197-.066-.328-.132h-.33l-.393.198c-.132.065-.198.197-.33.328-.065.066-.065.132-.065.197 0 .066-.066.198-.066.263 0 .066 0 .197.066.263s.066.132.132.197l.197.198c.066.065.131.131.197.131.066.066.131.066.197 0s.132-.197.263-.329c.132-.131.197-.263.329-.394.131-.131.197-.263.263-.329.131-.065.197-.131.197-.131zm-6.31-3.812c-.066.066-.066.131 0 .197s.197.197.263.329c.066.131.197.197.263.328h.132c.065 0 .13-.131.328-.263.197-.131.394-.328.657-.525.263-.198.526-.46.79-.658.262-.263.525-.46.788-.657s.46-.394.591-.526c.198-.131.263-.197.263-.263h.132c.197.132.394.263.526.46.065.132.065.198-.066.263 0 0-.132.132-.329.263-.197.132-.394.329-.657.592-.263.263-.526.46-.854.723-.33.263-.592.526-.855.788-.263.263-.526.46-.723.658l-.394.394-.066.066s-.066.066-.131.066c-.066 0-.066.065-.132.065s-.066 0-.131-.066l-.198-.197c-.065-.131-.197-.197-.328-.394-.132-.132-.263-.329-.395-.46-.131-.132-.262-.329-.394-.46-.131-.132-.263-.263-.329-.395-.065-.131-.131-.197-.197-.197v-.131l.066-.066s.131-.066.263-.197c.131-.132.263-.263.46-.394.197-.132.394-.33.591-.526.198-.197.46-.395.658-.592.263-.197.46-.394.657-.591.197-.198.46-.395.657-.526.197-.198.329-.329.526-.46.132-.132.263-.198.263-.263.066-.066.132-.132.197-.132.066 0 .132.066.197.132l.198.197c.065.066.131.131.131.197.066.066.066.132.066.197 0 .066-.066.066-.132.132l-.263.263a5.376 5.376 0 01-.591.526c-.197.197-.46.394-.723.657-.263.263-.526.46-.723.657-.263.197-.46.394-.657.592-.198.065-.33.131-.395.197zm-.526-4.864c-.066 0-.066.066-.131.066 0 0-.066.065-.132.065h-.065s-.066 0-.066-.065c-.066-.066-.132-.198-.197-.263-.066-.132-.132-.197-.197-.263v-.132c.065-.131.197-.197.328-.263.132-.065.197-.131.329-.262.066-.066.263-.132.394-.198a1.59 1.59 0 01.592-.131c.197 0 .46 0 .657.066.197.065.394.197.591.46.132.131.198.328.263.526.066.197.066.394.066.591 0 .197-.131.394-.263.592a2.51 2.51 0 01-.591.591l-2.366 1.71c-.066.065-.198.13-.395.196s-.329.132-.526.198c-.197 0-.394 0-.657-.066s-.46-.263-.657-.526a3.07 3.07 0 01-.329-.657c-.066-.197-.066-.395 0-.526.066-.132.132-.329.197-.395.066-.131.197-.262.263-.328s.197-.132.263-.197c.066-.066.132-.066.132-.066s.065-.066.131-.066.131 0 .197.132c0 .065.066.065.132.197.065.066.131.131.131.197.066.066.066.131.066.197s-.066.066-.066.132l-.131.131-.198.197a.498.498 0 00-.131.263c0 .066 0 .197.066.263.065.132.197.197.263.197h.328c.132 0 .197-.065.263-.065.066-.066.132-.066.197-.132.066-.066.132-.066.263-.197.132-.066.263-.197.395-.263.131-.131.328-.197.46-.329.197-.131.328-.263.46-.328.131-.132.263-.197.394-.263.132-.066.197-.132.197-.132.263-.197.46-.394.526-.525.066-.132 0-.33-.066-.46a.361.361 0 00-.328-.198c-.132 0-.263 0-.394.066l-.395.197c-.131-.066-.197 0-.263.066zm-2.169-2.169c-.066 0-.197 0-.394.066-.197 0-.395.065-.657.065-.263 0-.526.066-.79.132-.262.066-.525.066-.722.131-.197.066-.395.066-.592.066-.131 0-.263.066-.263.066s-.065 0-.065-.066c-.066-.066-.066-.132-.132-.197-.066-.066-.066-.132-.131-.263-.066-.066-.066-.132-.066-.132 0-.065-.066-.065-.066-.131 0 0 0-.066.066-.066l.263-.131c.131-.066.328-.197.591-.329.263-.131.46-.263.79-.46.262-.131.59-.329.854-.526.328-.197.591-.328.854-.526.263-.131.526-.328.789-.46.263-.131.394-.263.526-.328.131-.066.197-.132.197-.132s.066 0 .066.066.065.131.131.197.066.132.131.197a.203.203 0 01.066.132c.066.065.066.131 0 .197-.066 0-.131.066-.263.131-.197.066-.394.198-.591.329-.197.132-.46.263-.658.394-.263.132-.46.263-.657.395-.197.131-.394.263-.591.328l-.066.066v.066h.197c.066 0 .197 0 .329-.066.131-.066.394-.066.657-.066s.526-.065.789-.065.526-.066.788-.066c.263 0 .46-.066.592-.066h.263s.066.066.066.132c.065.065.065.131.131.197s.066.131.066.197.066.066.066.132c0 .065 0 .197-.066.197s-.132.065-.263.131a6.053 6.053 0 00-.526.329c-.197.131-.46.263-.723.394-.263.132-.526.329-.854.46-.263.132-.526.329-.79.46-.262.132-.525.263-.722.395-.197.131-.395.197-.526.263-.131.065-.197.131-.263.131s-.131.066-.197 0l-.132-.131c-.065-.066-.065-.132-.131-.263-.066-.066-.066-.197-.131-.263v-.066l.065-.066.263-.131c.132-.066.329-.197.46-.263.197-.131.395-.197.592-.329.197-.131.46-.263.657-.328.197-.132.395-.197.526-.263s.263-.132.263-.197c0 0 .066 0 .131-.066.066 0 .066-.066.066-.066H8.94c.066.066 0 .066-.066.066zM4.01 60.798s0-.066.13-.197c.066-.132.198-.263.33-.46.13-.197.262-.329.394-.526.131-.197.263-.329.394-.526H3.615a.288.288 0 01-.197-.066c0-.065-.066-.13 0-.13v-.592c0-.066 0-.132.065-.132 0 0 .066-.066.132-.066s.197 0 .394.066c.197 0 .395.066.657.066.198 0 .46.066.658.066.197 0 .394.065.46.065h.131c.066 0 .066-.066.132-.066.066-.065.066-.131.197-.262.131-.132.197-.263.329-.395.131-.131.263-.328.394-.46a2 2 0 00.329-.46c.131-.131.197-.329.394-.46.066-.066.131-.131.131-.197.066-.066.066-.066.132-.066h.131c.066 0 .132.066.198.132.065.065.065.065.131.065s.131.066.131.066c.066.066.066.066.066.131 0 .066 0 .132-.066.132-.065.066-.065.131-.131.197s-.131.197-.263.329c-.131.131-.197.263-.263.394-.131.132-.197.263-.328.394a1.432 1.432 0 01-.263.329c-.066.132-.132.197-.198.197v.132c.066 0 .198 0 .395.065.197 0 .394 0 .657.066.263 0 .46.066.723.066.263 0 .46.066.592.066.065 0 .131 0 .197.065.066.066.066.132.066.263v.46c0 .066-.066.132-.066.132-.066 0-.132.066-.197 0h-.263c-.132 0-.329 0-.526-.066-.197 0-.394 0-.592-.066-.197-.065-.394-.065-.591-.065-.197 0-.395-.066-.526-.066h-.46s-.066.066-.132.066c-.065.131-.197.262-.328.46-.132.197-.263.394-.395.525-.131.132-.262.33-.394.526a1.136 1.136 0 00-.197.263c-.066.066-.066.066-.132.066-.065 0-.131 0-.131-.066-.066 0-.066-.066-.131-.066-.066-.065-.132-.065-.198-.13-.065 0-.131-.067-.131-.067-.263-.131-.329-.131-.329-.197zm-.33-4.404h-.46c-.197 0-.394-.065-.59-.131a1.023 1.023 0 01-.527-.394c-.197-.198-.328-.46-.394-.79-.066-.262-.066-.525 0-.722.066-.197.197-.395.329-.526.131-.131.262-.263.394-.329.131-.065.263-.131.329-.131.065 0 .197-.066.328-.132.132-.065.329-.131.526-.131.197-.066.394-.131.657-.197s.46-.132.658-.197c.197-.066.394-.132.525-.132.132-.066.263-.066.329-.066.131 0 .263-.065.46-.065s.394.066.592.131c.197.066.394.197.591.329.197.131.329.394.395.657.065.263.131.46.065.657-.065.198-.065.395-.131.526-.066.132-.197.263-.329.395a1.376 1.376 0 01-.394.262c-.132.066-.263.132-.329.132-.131.066-.197.066-.197.066-.066 0-.131.065-.263.065a1.239 1.239 0 01-.526.132 8.277 8.277 0 01-.657.197l-.592.197c-.197.066-.328.132-.525.132-.198.065-.263.065-.263.065zm-.46-2.169c-.065.066-.197.066-.262.132l-.197.197c-.066.066-.066.131-.066.263 0 .131 0 .131.066.197 0 .066.065.132.131.197.066.066.131.066.197.132a.726.726 0 00.526 0c.066 0 .131 0 .263-.066.131 0 .263-.066.394-.131.197-.066.329-.132.526-.132l.592-.197c.197-.066.394-.132.525-.132.198-.065.33-.065.395-.131.197-.066.329-.131.394-.197.066-.132.066-.263.066-.395 0-.065 0-.131-.066-.197-.066-.065-.066-.131-.131-.197-.066-.066-.132-.066-.197-.131h-.198c-.065 0-.197.065-.328.065-.132 0-.329.066-.526.132a8.232 8.232 0 01-.657.197c-.263.066-.46.131-.592.197-.197.066-.329.132-.46.132-.263.065-.329.065-.394.065zm.132-3.549h.329c.131 0 .329 0 .526.066s.394 0 .657.066c.197 0 .46 0 .657.065.197 0 .395 0 .592.066h.591c.066 0 .066 0 .132.066 0 0 .066.065.066.131s0 .132.065.197v.198c0 .065 0 .13-.065.197-.066.131-.132.131-.263.131-.066 0-.198 0-.46-.066-.263 0-.592-.065-.986-.065-.395 0-.79-.066-1.25-.066-.46 0-.854-.066-1.248-.066s-.723-.065-.986-.065-.394-.066-.46-.066c0 0-.066 0-.131-.066-.066 0-.066-.066-.066-.066s0-.065-.066-.131 0-.132-.066-.197c0-.066 0-.132-.065-.198v-.197s0-.065.065-.065c.066 0 .132-.066.329-.132s.329-.197.592-.263c.197-.131.46-.197.788-.328.263-.132.526-.263.855-.395.263-.131.591-.263.854-.394.263-.132.526-.263.723-.329.197-.131.395-.197.526-.263l.263-.131c.066 0 .066-.066.131-.066.066 0 .132 0 .132-.066h.066s.065 0 .065.066c.066.066.066.132.132.197.065.066.065.132.131.197.066.132.066.198 0 .263l-.197.198c-.066 0-.131.065-.329.131-.131.066-.328.132-.46.197-.197.066-.394.197-.591.263-.197.066-.395.197-.592.263a1.972 1.972 0 00-.526.263c-.131.066-.263.131-.328.131-.066.066-.132.066-.263.132-.066.066-.197.066-.263.131-.066 0-.066.066-.066.066h.46zm-1.643-2.629c-.132 0-.263-.066-.46-.066-.198-.066-.33-.131-.526-.197a1.536 1.536 0 01-.46-.46c-.132-.197-.198-.526-.263-.855 0-.328 0-.525.131-.723.132-.197.263-.328.395-.46.131-.131.328-.197.46-.263.197-.065.263-.065.394-.065h.329c.131 0 .328 0 .591-.066.197 0 .46-.066.657-.066.198 0 .46-.065.658-.065.197 0 .394 0 .591-.066h.329c.131 0 .263 0 .46.066.197.065.394.131.526.262.197.132.328.263.526.46.131.198.197.46.263.724 0 .262 0 .525-.066.657-.066.197-.132.329-.263.46a1.376 1.376 0 01-.394.263c-.132.066-.263.131-.395.131-.131.066-.263.066-.394.066h-.46c-.132 0-.329 0-.526.066-.197 0-.394.066-.657.066s-.46.065-.658.065c-.197 0-.394 0-.525.066h-.263zm.065-2.235c-.131 0-.197.066-.328.066-.066 0-.197.066-.263.197-.066.066-.132.132-.132.197v.263c0 .066.066.132.066.197.066.066.132.132.197.132.132.066.329.131.46.131h.723c.198 0 .329 0 .592-.065.263-.066.394 0 .591-.066.198-.066.395 0 .526-.066h.46c.198 0 .329-.066.395-.131.065-.066.131-.198.197-.395v-.197c0-.066-.066-.131-.132-.197-.065-.066-.065-.132-.131-.132s-.131-.065-.197-.065h-.92c-.198 0-.46 0-.658.066-.263 0-.46 0-.657.065-.197 0-.394 0-.526.066-.197-.066-.263-.066-.263-.066zM.263 43.643c-.066 0-.132 0-.132-.066-.065 0-.065-.065-.065-.131v-2.038c0-.065 0-.131.065-.197 0-.066.066-.066.066-.066h.394c.132 0 .263.066.395.066 0 0 .066.066 0 .066v1.38h4.732c.132 0 .197 0 .263.066.066 0 .066.132.066.197v.263c0 .066 0 .197-.066.263s-.066.066-.131.066H.658c-.264.131-.33.131-.395.131zm1.249-3.549c-.132-.066-.263-.066-.395-.197-.197-.066-.328-.197-.46-.329a1.432 1.432 0 01-.329-.526c-.065-.263-.131-.526-.065-.854.065-.329.131-.526.263-.723a1.23 1.23 0 01.46-.395c.197-.065.328-.131.526-.131h.394c.066 0 .197 0 .329.066.197 0 .328.065.591.065.197 0 .46.066.657.066.263 0 .46.066.658.066.197 0 .394.066.591.066.197 0 .263.065.329.065.131 0 .263.066.394.132.197.066.329.197.526.328.197.132.263.33.394.526.132.197.132.46.132.723 0 .263-.066.46-.197.657a.673.673 0 01-.329.395.597.597 0 01-.46.197c-.132.066-.263.066-.46.066h-.855c-.131 0-.328-.066-.525-.066-.198 0-.395-.066-.658-.066-.197 0-.46-.065-.657-.065s-.394-.066-.526-.066c-.197.066-.328.066-.328 0zm.46-2.103h-.329c-.131 0-.197.065-.263.131l-.197.197c-.066.066-.066.132-.066.197 0 .066 0 .132.066.198.066.065.066.131.131.197a.597.597 0 00.46.197c.066 0 .132 0 .263.066.132 0 .263.065.46.065.198 0 .33.066.526.066.197 0 .395.066.592.066.197 0 .394.066.526.066.197 0 .328.065.46.065.197 0 .328 0 .394-.065.066-.066.197-.198.263-.329v-.197c0-.066 0-.132-.066-.197 0-.066-.065-.132-.131-.198-.066-.065-.132-.065-.197-.065-.066 0-.198-.066-.329-.066-.197 0-.329-.066-.592-.066-.262 0-.46-.066-.657-.066-.263 0-.46-.065-.657-.065s-.329-.066-.526-.066c-.066-.131-.131-.131-.131-.131zm1.183-2.104l.328-1.643v-.066l.066-.065h.132c.065 0 .197.065.263.065.131 0 .197.066.262.066.132.066.132.132.132.263-.066.263-.132.526-.132.789l-.197.788c0 .132-.065.198-.197.132-.131 0-.197-.066-.329-.066-.131 0-.197-.066-.262-.066-.066 0-.132-.065-.132-.065.066 0 .066-.066.066-.132zm0-5.061c-.066 0-.132 0-.197.066 0 .131-.066.263-.132.394-.066.132-.066.263-.131.395v.066l.065.065c.066 0 .198.066.395.132.197.065.46.131.788.263.33.065.658.197.986.328.329.132.658.197.986.329.329.066.592.197.789.263.197.066.329.131.329.131l.065.066s0 .066.066.066c0 .197-.066.46-.131.657-.066.131-.132.131-.263.066-.066 0-.197-.066-.395-.132-.197-.066-.525-.131-.854-.263-.329-.131-.657-.197-1.052-.328-.394-.132-.788-.263-1.117-.329-.329-.131-.657-.197-.92-.263s-.46-.131-.526-.197H1.84c-.066 0-.066 0-.131-.066-.066-.066-.066-.066-.132-.066v-.13s0-.132.066-.264c.066-.131.066-.263.131-.46l.198-.591.197-.592c.066-.197.131-.329.131-.46.066-.132.066-.197.066-.263s.066-.066.131-.066h.132c.066 0 .131.066.263.066.131 0 .328.131.591.197.198.066.46.132.79.263.262.066.59.197.854.263.328.066.591.197.854.263s.526.197.789.263.46.131.657.197.329.066.394.131c.132 0 .198.066.198.132s0 .131-.066.197c0 .066-.066.132-.066.263 0 .066-.066.131-.066.263-.065.066-.065.131-.131.131h-.197c-.066 0-.132-.065-.395-.131a3.205 3.205 0 01-.723-.263c-.263-.066-.591-.197-.92-.263-.328-.131-.657-.197-.986-.329-.328-.131-.591-.197-.788-.263-.198-.065-.46-.197-.526-.197zm.92-3.089c0 .066.066.132.066.132.131.065.197.065.328.131.132.066.198.066.33.131h.065c.066 0 .066 0 .066-.065.065-.066.065-.197.131-.263s.066-.197.131-.263c.066-.066.066-.197.132-.263 0-.066.066-.131.066-.197.065-.132.065-.132.131-.197h.197c.066 0 .132.065.197.065.066 0 .132.066.198.066.131.066.131.197.065.329a3.203 3.203 0 00-.197.46c-.066.131-.131.328-.197.46v.131s.066.066.131.066c.132.066.263.132.46.197.198.066.33.132.526.198.198.065.329.13.46.197.132.065.198.065.263.065h.066s.066 0 .066-.065a3.24 3.24 0 00.197-.46c.066-.198.131-.33.197-.526l.263-.592c0-.066.066-.066.066-.131 0-.066.066-.066.131-.066 0 0 .066 0 .132.066.065.066.131.066.197.066s.131.065.197.065.132.066.132.066c.065 0 .065.066.131.066s0 .065 0 .131-.066.132-.131.263a3.182 3.182 0 00-.198.46c-.065.197-.131.329-.197.526a4.534 4.534 0 01-.197.526c-.066.131-.131.328-.197.394-.066.132-.066.197-.066.197 0 .066-.066.066-.131.132-.066.066-.132 0-.198 0-.065 0-.262-.066-.525-.197-.263-.132-.592-.263-.92-.395-.33-.131-.724-.328-1.118-.46-.394-.197-.789-.328-1.117-.46-.329-.131-.658-.263-.855-.394-.263-.132-.394-.132-.46-.198-.131-.065-.131-.131-.066-.197 0-.065.066-.197.198-.394.131-.197.197-.394.263-.657.065-.263.197-.46.262-.658a4.48 4.48 0 01.198-.525c.065-.263.263-.263.46-.132.065 0 .065.066.131.066s.066.066.132.066c.065 0 .131.065.131.131v.197s0 .066-.066.132a.499.499 0 01-.131.263c-.066.131-.066.197-.132.328-.065.132-.131.263-.131.329-.066.131-.066.197-.131.263-.132.328-.132.394-.132.394z" fill="#16295B"/><path d="M5.981 21.822s.066 0 0 0h.131c.066.065.198.131.395.262.197.132.46.263.723.395.263.131.526.329.854.46.263.197.592.329.855.46s.46.263.657.394c.197.132.329.198.394.198a.204.204 0 00.132.065s.066-.065.066-.131.065-.132.065-.132l.066-.131c0-.066.066-.066.066-.066h.131c.066.066.197.132.329.197.131.066.197.132.329.198.065.065.065.065.065.131s0 .066-.066.131l-.13.263a6.067 6.067 0 01-.33.526c-.131.197-.262.46-.394.723-.131.263-.263.46-.394.723-.132.198-.263.395-.329.592a.707.707 0 01-.197.329c0 .065-.066.065-.132.13-.065 0-.131 0-.197-.065-.065-.066-.131-.131-.263-.131-.065-.066-.197-.066-.263-.132-.065-.065-.065-.131-.065-.197s.065-.131.065-.131c0-.066.066-.132.066-.132.066-.066 0-.131-.066-.131-.131-.066-.262-.132-.46-.263a7.17 7.17 0 00-.723-.395c-.263-.131-.526-.328-.854-.46a8.401 8.401 0 01-.789-.46c-.197-.131-.46-.263-.657-.394-.197-.132-.329-.197-.395-.197-.065-.066-.131-.066-.131-.132s0-.131.066-.197c0 0 .065-.066.131-.197l.197-.395c.066-.13.198-.328.263-.46.066-.197.197-.328.263-.46l.197-.394c.263-.329.329-.394.329-.394zm.46 1.248c-.066-.065-.131 0-.131.066a.498.498 0 00-.132.263c-.066.066-.131.197-.197.263s0 .131.066.131.066 0 .131.066c.066 0 .066.066.132.066.065.066.197.131.328.197.197.066.329.197.592.329.197.131.46.263.657.394a5.9 5.9 0 01.657.394c.198.132.395.198.526.263l.263.132h.132c.065-.132.131-.197.197-.329.066-.131.131-.197.131-.328.066-.066 0-.132-.065-.132-.066 0-.132-.066-.263-.131-.132-.066-.329-.198-.526-.263-.197-.066-.46-.263-.657-.395-.263-.131-.46-.263-.723-.394-.198-.131-.395-.263-.592-.329-.329-.131-.46-.197-.526-.263zm1.183-3.812l.132-.131c.065-.066.131-.132.197-.263l.197-.197c.066-.066.066-.066.131-.066.066 0 .132.066.33.131.13.066.328.132.59.263.198.066.46.197.724.329.262.131.525.263.854.329.263.131.592.263.855.328.262.132.525.197.723.329.197.066.394.197.591.263.197.066.263.131.263.131.131.066.197.066.197.132v.263c-.066.131-.066.262-.131.394a.141.141 0 01-.132.131h-.197c-.131-.065-.263-.131-.46-.197a3.212 3.212 0 00-.46-.197c-.066 0-.132 0-.132.066-.065.131-.197.263-.262.394-.132.132-.198.263-.33.394v.132l.132.131c.066.066.132.132.132.198.066.065.131.131.131.197l.066.066c.066.131.131.197.066.262 0 .066-.066.132-.132.263l-.131.132-.132.131c-.065.132-.197.132-.262 0l-.198-.197a2.864 2.864 0 01-.394-.46c-.132-.197-.329-.394-.526-.657s-.394-.46-.591-.723c-.198-.263-.395-.526-.592-.723-.197-.197-.394-.46-.592-.658-.197-.197-.328-.394-.46-.525-.065-.263-.131-.33-.197-.395zm1.775.789c.066.066.131.197.263.329l.328.328c.132.132.197.263.329.329.131.131.197.197.263.328.066.066.066.066.131 0 .066-.065.132-.131.132-.262a.499.499 0 00.131-.263c.066-.066.066-.132.066-.132s-.066-.066-.131-.066c-.066 0-.132-.065-.263-.131-.132-.066-.197-.131-.329-.131-.132-.066-.197-.132-.329-.132-.131-.066-.197-.066-.263-.131-.131-.066-.262-.132-.328-.132h-.132v.066H9.4zm.197-3.352c-.066-.066-.066-.066-.066-.132v-.131l.132-.131.262-.263c.066-.132.198-.198.33-.33.13-.13.196-.262.328-.328.066-.131.197-.197.263-.263l.131-.131.132-.132h.065c.132.066.197.132.329.263.131.132.197.198.263.329v.066l-.066.066c-.066.065-.131.13-.197.262s-.197.198-.263.329-.197.197-.263.263l-.131.131.328.329c.197.131.395.329.658.592.263.197.525.46.788.657s.526.46.789.657.46.395.657.526.329.263.329.329c.066.065.131.131.131.197s0 .131-.065.197c-.066.066-.132.131-.132.197-.066.066-.131.132-.263.132h-.131c-.066-.066-.132-.132-.329-.263-.131-.132-.328-.263-.526-.46a5.802 5.802 0 00-.657-.592c-.263-.197-.46-.394-.723-.657-.263-.197-.46-.395-.723-.592-.263-.197-.46-.394-.592-.526a2.857 2.857 0 01-.46-.394c-.262-.131-.328-.197-.328-.197zm3.155-1.972c-.066-.066-.131-.197-.197-.394a1.24 1.24 0 01-.132-.526c0-.197 0-.395.066-.657.066-.263.263-.46.526-.724.197-.197.46-.328.657-.394s.46 0 .592 0c.197.066.329.132.526.197.131.132.263.197.328.263l.263.263.395.395.46.46.46.46.394.394.263.263c.066.066.131.197.197.394.066.198.132.395.132.592 0 .197 0 .46-.066.657-.066.263-.197.46-.394.657a1.551 1.551 0 01-.592.395c-.197.066-.329.066-.526.066s-.328-.066-.46-.132l-.394-.197a.513.513 0 01-.263-.263c-.066-.066-.132-.131-.132-.197 0 0-.065-.132-.197-.197l-.394-.395-.46-.46c-.132-.197-.329-.328-.46-.46-.132-.131-.263-.263-.329-.394-.066-.132-.197 0-.263-.066zm1.775-1.315a.905.905 0 00-.263-.197c-.066-.065-.197-.065-.329-.131h-.263c-.066 0-.131.066-.197.131-.066.066-.066.132-.131.197v.263c.065.198.131.329.197.46 0 .066.066.132.131.198l.329.328.394.395c.132.131.263.263.395.46l.394.394c.132.132.197.263.329.329.131.131.263.197.394.197.132 0 .263 0 .394-.131.066-.066.132-.066.132-.132.066-.066.066-.131.066-.197v-.197c0-.066-.066-.132-.066-.197a.908.908 0 01-.197-.263c-.132-.132-.263-.263-.395-.46-.131-.198-.263-.33-.46-.526-.131-.197-.328-.329-.46-.46-.131-.132-.263-.263-.329-.395l-.065-.066zm.789-2.498c-.066-.065-.066-.065-.066-.13 0-.066 0-.066.066-.132l.131-.131c.066-.066.197-.132.263-.198.131-.065.263-.197.329-.263.065-.065.262-.197.328-.263.132-.065.197-.131.329-.197.066-.065.131-.131.197-.131.066-.066.131-.066.197-.066h.066c.066.066.197.197.263.329.066.131.131.263.197.328v.066l-.066.066a.89.89 0 01-.263.197c-.131.066-.197.197-.328.263-.132.066-.197.131-.263.197l-.132.132c.066.065.132.197.263.394.132.197.329.394.526.657s.395.526.657.855c.198.263.46.591.658.788.197.263.394.46.525.658.132.197.264.328.264.394a.947.947 0 01.13.197c0 .066-.065.132-.13.197l-.198.198c-.066.065-.131.065-.263.065-.065 0-.131 0-.131-.065a1.8 1.8 0 01-.263-.33c-.131-.13-.263-.328-.394-.525-.132-.197-.329-.46-.526-.723l-.592-.789a7.062 7.062 0 00-.591-.723c-.198-.197-.329-.46-.526-.657-.132-.197-.263-.329-.329-.46s-.328-.197-.328-.197zm5.455-.328c0-.066 0-.197-.066-.394 0-.197-.066-.395-.131-.657-.066-.263-.066-.526-.132-.79-.065-.262-.065-.525-.131-.722-.066-.197-.066-.395-.132-.592 0-.131-.065-.263-.065-.263s0-.065.065-.065c.066-.066.132-.066.198-.132.065-.066.131-.066.197-.131.066-.066.131-.066.131-.132.066 0 .066-.065.132-.065.065 0 .065 0 .065.065l.132.263c.066.132.197.329.328.592.132.263.33.46.46.788.198.263.33.592.526.855.198.263.33.591.526.854.197.263.329.526.46.723.132.197.263.395.329.526a.814.814 0 00.132.197s0 .066-.066.066c-.066.066-.132.066-.198.132-.065.065-.13.065-.197.131-.065.066-.131.066-.131.066-.066.066-.132.066-.197 0 0-.066-.066-.132-.197-.263-.132-.197-.198-.329-.33-.592a5.783 5.783 0 00-.394-.657c-.13-.197-.262-.46-.394-.657-.131-.197-.263-.395-.329-.592l-.065-.066c-.066-.065 0 0-.066 0v.198c0 .065 0 .197.066.328 0 .197.066.395.131.658.066.262.066.525.132.788.065.263.065.526.131.789s.066.46.066.591v.263s-.066.066-.132.066c-.065.066-.131.066-.197.132-.066.065-.131.065-.197.065s-.066.066-.131.066c-.066 0-.198 0-.198-.066 0-.065-.065-.131-.197-.263a6.067 6.067 0 00-.328-.525c-.132-.197-.263-.46-.46-.723-.198-.263-.33-.526-.526-.79-.198-.262-.329-.525-.526-.788a4.416 4.416 0 01-.46-.723c-.132-.263-.263-.394-.329-.526-.066-.131-.131-.197-.131-.263-.066-.065-.066-.131 0-.197 0-.065.065-.131.131-.131.066-.066.132-.132.197-.132.066-.065.132-.065.263-.131h.066c.066 0 .066.066.066.066l.131.263c.066.131.197.262.263.46l.394.591.395.592c.131.197.197.394.328.526.066.131.132.262.198.262 0 0 0 .066.065.132 0 .066.066.066.066.066v-.198c.329.198.263.132.263.066zm6.573-.592s0 .066-.066.066c-.066.066-.132.066-.197.132-.066.066-.198.066-.263.131-.066.066-.132.066-.198.066-.065 0-.065 0-.131-.066 0-.065-.066-.131-.066-.197-.065-.066-.065-.197-.131-.329-.066-.131-.132-.328-.197-.46-.066-.131-.132-.328-.198-.46l-.131-.263h-.131c-.132.066-.263.066-.395.132-.131.066-.263.066-.394.131-.132 0-.329.066-.46.066-.132 0-.263-.066-.46-.131a1.434 1.434 0 01-.329-.263c-.131-.132-.197-.198-.263-.329 0-.066-.066-.197-.197-.329-.132-.131-.197-.394-.263-.591-.066-.197-.197-.395-.263-.592-.066-.197-.131-.328-.131-.328-.066-.132 0-.198.131-.263.066-.066.131-.066.197-.132.066 0 .132-.065.197-.065h.132a.14.14 0 01.131.131l.395.789.394.788a.906.906 0 00.197.263c.066.066.198.132.329.198h.328c.132 0 .198-.066.33-.132 0 0 0-.066-.066-.197a3.193 3.193 0 01-.198-.46c-.066-.197-.197-.395-.263-.592-.065-.197-.197-.394-.262-.591a3.215 3.215 0 00-.198-.46c-.066-.132-.066-.198-.066-.198l.132-.131c.066-.066.197-.066.263-.131.066-.066.197-.066.263-.132s.131-.066.131 0c0 0 .066.066.132.263s.131.329.263.592l.394.788c.131.329.263.592.46.92.132.33.329.592.46.92.132.33.263.592.395.79.131.262.197.46.328.59-.131-.065-.066 0-.066.067zm-.066-5.258c0 .066-.066.066 0 0-.066.066-.066.132-.066.132.066.131.066.197.131.328.066.132.066.198.132.33h.131a.498.498 0 00.263-.132c.066-.066.197-.066.263-.132s.197-.066.263-.066.132-.065.197-.065c.132-.066.197-.066.263 0 .066 0 .066.065.132.131 0 .066.065.132.065.197 0 .066.066.132.066.198 0 .131-.066.197-.197.262-.132.066-.263.132-.46.198-.132.065-.329.131-.46.197-.066 0-.132.066-.132.066v.131c.066.131.132.263.197.46.066.197.132.395.198.526.065.197.131.329.197.46a.497.497 0 01.066.263l.065.066h.066c.131-.066.263-.066.46-.132.197-.065.329-.131.526-.197l.591-.197c.066 0 .066 0 .132-.066.066 0 .066 0 .131.066 0 0 .066.066.066.131 0 .066.066.132.066.198 0 .065.066.131.066.197 0 .065.065.131.065.131v.132c0 .065-.066.065-.131.131-.066 0-.132.066-.263.066-.132 0-.263.131-.46.197s-.329.131-.526.197a4.532 4.532 0 00-.526.197c-.131.066-.328.132-.394.132-.132.066-.197.066-.197.066h-.198c-.065 0-.065-.066-.131-.132 0-.066-.066-.263-.197-.526-.066-.263-.197-.591-.329-.92a21.368 21.368 0 01-.394-1.117c-.132-.395-.263-.79-.395-1.118-.131-.328-.262-.657-.328-.92s-.132-.394-.197-.46c-.066-.131 0-.197.065-.197.066 0 .198-.066.395-.132.197-.065.394-.131.657-.263.263-.131.46-.197.657-.262.197-.066.395-.132.526-.198.263-.065.394 0 .394.198 0 .065 0 .131.066.131 0 .066.066.066.066.131v.198c0 .065-.066.065-.132.131 0 0-.065 0-.131.066a.498.498 0 00-.263.131c-.131.066-.197.066-.329.132-.131.065-.263.065-.328.131-.132.066-.197.066-.263.132-.132.065-.197.065-.197.065zm5.653 1.183c0-.065 0-.065-.066-.131v-.197l.066-.066c.065-.066.197-.066.328-.131.132-.066.263-.066.329-.066h.066s.065 0 .065.066c.066.131.132.263.132.394s.065.263.131.394c0 .132.066.263.066.46 0 .198 0 .395-.066.658s-.197.394-.328.591c-.132.198-.395.329-.658.395-.197.065-.394.065-.591.065a.746.746 0 01-.526-.197 1.535 1.535 0 01-.46-.46 2.194 2.194 0 01-.329-.789l-.723-2.826c0-.131-.066-.263-.066-.46s0-.394.066-.592c.066-.197.132-.394.329-.591.131-.197.394-.329.723-.394.263-.066.526-.066.723-.066.197.066.328.131.526.197a.792.792 0 01.328.329l.197.394a.593.593 0 01.066.329v.263c0 .065-.066.065-.197.131-.066 0-.132 0-.197.066-.066 0-.132.065-.197.065h-.198s-.065-.065-.065-.131c0 0-.066-.066-.066-.197a.499.499 0 00-.132-.263c-.065-.066-.131-.197-.197-.263-.065-.066-.131-.066-.263-.066-.131.066-.262.066-.328.197-.066.132-.132.198-.132.263v.263c0 .066 0 .132.066.197 0 .066.066.132.066.33 0 .196.066.328.131.46.066.196.066.394.132.59.065.198.065.395.131.592.066.197.066.329.132.46.065.132.065.198.065.263.066.329.197.592.329.658.131.131.263.131.46.065.131-.065.263-.131.263-.263.066-.131.066-.263.066-.394s0-.329-.066-.46c-.066.066-.066-.066-.132-.132zm2.563-2.365s.131-.132.263-.198l.46-.46.526-.526.526-.526c.197-.131.328-.328.394-.394l.197-.197.066-.066h.066c.065.066.131.132.197.132l.197.197c.066.065.132.131.197.131l.066.066-.132.131-.262.263c-.132.132-.263.197-.395.329-.131.131-.263.263-.394.329-.132.065-.197.197-.329.262-.131.066-.131.132-.131.132v.131c0 .066.131.132.197.329l.394.592c.132.197.329.46.46.723.198.263.329.46.46.657.132.197.263.394.395.526.131.131.131.197.131.263.066.065.066.197-.066.197 0 0-.065.066-.13.066-.067.065-.132.065-.198.131s-.132.066-.197.131c-.066 0-.066.066-.066.066s-.066 0-.066-.066c0 0 0-.065-.066-.065-.328-.46-.657-.855-.92-1.25a1.996 1.996 0 01-.328-.46 1.998 1.998 0 00-.329-.46c-.066-.13-.197-.262-.263-.328s-.131-.197-.131-.197c-.066-.066-.066-.132-.132-.197 0-.066-.066-.066-.066-.066s-.065 0-.065.066c0 .065-.066.065-.132.131l-.197.197-.197.197c-.066 0-.066.066-.066.132 0 .131.066.329.066.591 0 .263.066.526.066.79 0 .262.065.525.065.722 0 .197.066.395.066.46v.132c0 .066-.066.066-.066.066h-.131c-.066 0-.132 0-.197.065h-.329v-.131c0-.132-.066-.329-.066-.657-.065-.33-.065-.658-.131-1.052s-.132-.855-.132-1.249c0-.394-.13-.854-.13-1.183-.067-.394-.067-.657-.132-.92 0-.263-.066-.395-.066-.395 0-.131 0-.197.131-.197.132 0 .197 0 .329-.066.131 0 .197-.065.329-.065.065 0 .131 0 .131.131 0 .066 0 .263.066.395 0 .197.066.394.066.591 0 .197.065.394.065.526.066.197.066.329.066.394zm4.141-1.184c0-.131.066-.263.131-.46.066-.197.132-.328.263-.526.132-.197.263-.328.526-.46.197-.131.526-.197.854-.197.33 0 .526.066.724.197.197.132.328.263.46.46a.747.747 0 01.197.526.977.977 0 01.066.395v3.154c0 .132 0 .263-.066.46-.066.198-.132.395-.263.526-.132.132-.263.329-.46.46a1.32 1.32 0 01-.723.198c-.263 0-.526 0-.658-.132-.197-.066-.328-.197-.46-.263a1.373 1.373 0 01-.263-.394c-.065-.132-.131-.263-.131-.394 0-.132-.066-.263-.066-.395V2.695c-.131-.197-.131-.329-.131-.329zm2.169.132c0-.132-.066-.197-.066-.329a.498.498 0 00-.131-.263c-.066-.066-.132-.131-.198-.131-.065 0-.131-.066-.262 0-.066 0-.132.065-.198.065-.065.066-.131.132-.131.198a1.219 1.219 0 00-.132.46V5.39c0 .197.066.328.132.394s.197.132.394.197h.197c.066 0 .132-.065.198-.065.065-.066.131-.066.131-.132s.066-.131.066-.197V2.498zm4.732 1.512s-.066.065-.131.262c-.066.197-.198.329-.329.526s-.263.394-.46.657c-.132.263-.329.46-.46.658a5.905 5.905 0 00-.329.526.905.905 0 01-.197.262c-.066.066-.131.066-.197.066h-.789c-.066 0-.066 0-.066-.066v-.065c0-.066 0-.197.066-.395 0-.197.066-.394.066-.657s.066-.591.066-.92c0-.329.065-.657.065-.986 0-.329.066-.657.066-.986 0-.329.066-.592.066-.854 0-.263.066-.46.066-.592v-.263s0-.066.065-.066l.066-.065h.394c.132 0 .263 0 .395.065 0 0 .065 0 .065.066s.066.066.066.066v.263c0 .197-.066.394-.066.657s-.065.526-.065.789-.066.591-.066.854-.066.46-.066.657c0 .198 0 .33-.066.395v.131l.132-.131c.066-.066.131-.197.263-.395.131-.197.197-.328.328-.525l.395-.592.394-.591c.132-.198.263-.395.329-.526a6.1 6.1 0 01.328-.526c.066-.066.066-.132.132-.132h.723c.066 0 .131 0 .197.066 0 0 .066.066.066.197 0 .132 0 .329-.066.46-.066.132-.066.33-.066.46 0 .066 0 .198-.065.46 0 .264-.066.526-.066.855-.066.329-.066.723-.131 1.052-.066.394-.066.723-.132 1.051 0 .329-.066.592-.066.79a.798.798 0 01-.065.328s-.066.066-.132.066h-.329c-.131 0-.262-.066-.328-.066-.132 0-.132-.066-.132-.132 0-.131 0-.328.066-.525 0-.198.066-.395.066-.592 0-.197.066-.46.066-.657s.065-.395.065-.592c0-.197 0-.329.066-.46s-.197-.329-.263-.329c.066 0 .066 0 0 0 .066-.065.066-.065 0 0 .066-.065.066 0 0 0zm0-3.287c0 .131 0 .197-.066.197h-.92V.263c0-.066 0-.132.066-.197L45.68 0h.328c.066 0 .197 0 .263.066.066.065.132.065.132.197v.263c0 .131.131.066.131.197zm.723 7.033c0-.066.066-.066.131-.066.066 0 .132 0 .132-.066l.197-.197c.066-.065.066-.197.131-.328a.593.593 0 00.066-.329c0-.066.066-.131.066-.197 0-.132.066-.197.131-.197.132 0 .263.065.395.065.131 0 .263.066.394.066.066 0 .066.066.066.066 0 .197 0 .394-.066.526 0 .197-.066.328-.197.525-.132.198-.263.33-.526.263-.131 0-.197-.065-.329-.065-.131 0-.262-.066-.328-.066h-.066c-.197.066-.197.066-.197 0zm6.704-5.061v2.892s.066 0 .066-.066c0 0 .066-.131.197-.263.132-.131.263-.328.395-.591.13-.263.328-.46.525-.658.197-.262.329-.46.46-.657 0 0 .066-.066.132-.066h.066l.723.263.065.066v.132c0 .065-.065.262-.065.46-.066.197-.132.46-.132.723 0 .263-.131.591-.197.92L56 6.836c-.066.328-.132.657-.197.92a6.841 6.841 0 01-.198.789c-.065.263-.065.394-.131.591-.066.132-.066.197-.066.197h-.263c-.065 0-.131 0-.197-.065-.066 0-.131 0-.197-.066-.131 0-.197-.066-.197-.132v-.262c0-.066.066-.198.066-.33 0-.13.065-.328.13-.525.067-.197.067-.394.132-.657.066-.197.066-.46.132-.657.066-.198.066-.395.131-.592 0-.197.066-.329.066-.394v-.066s-.066 0-.066.066c-.065.131-.197.263-.328.46l-.395.591c-.131.197-.263.329-.328.526-.132.132-.132.263-.197.263 0 0-.066 0-.066.066h-.066c-.131 0-.197 0-.263-.066-.066 0-.131-.066-.263-.131-.066 0-.066-.066-.131-.132V4.995s0 .066-.066.132c0 .066-.066.131-.131.328-.066.132-.132.33-.198.526a2.294 2.294 0 01-.263.592c-.065.197-.197.394-.262.591a4.434 4.434 0 01-.198.526c-.065.132-.131.263-.131.329-.066.066-.066.066-.132.066-.065 0-.197-.066-.262-.066-.066 0-.198-.066-.263-.066-.066-.066-.132-.066-.197-.131-.066-.066 0-.132.065-.263 0-.066.066-.197.197-.395.132-.263.197-.525.395-.854.197-.329.328-.723.46-1.117.197-.395.328-.79.46-1.118.131-.328.263-.657.394-.92.132-.263.197-.394.197-.526 0-.066.066-.131.132-.066.066 0 .131.066.197.066s.132.066.263.066c.132 0 .132.066.197.066.066 0 0-.066 0-.066zm4.864 2.826s-.065 0 0 0c-.065 0-.131.066-.131.066-.066.131-.066.197-.132.328-.065.132-.065.198-.131.33v.065s0 .066.066.066c.066.065.197.065.263.131.065.066.197.066.263.131.065.066.197.066.262.132.066.066.132.066.198.066.131.065.131.065.197.131v.197c0 .066-.066.132-.066.198 0 .065-.066.131-.066.197-.065.131-.197.131-.328.065-.132-.065-.263-.131-.46-.197-.132-.065-.263-.131-.46-.197h-.132s-.066.066-.066.131c-.065.132-.131.263-.197.46-.066.198-.197.33-.263.526-.065.198-.131.33-.197.46-.066.132-.066.198-.131.263v.066s0 .066.065.066l.395.197c.197.066.328.132.526.197l.46.132c.065 0 .065.065.131.065s.066.066.066.132c0 0 0 .066-.066.131 0 .066-.066.132-.066.198 0 .065-.065.131-.065.197 0 .065-.066.131-.066.131 0 .066-.066.066-.132.066h-.131c-.066 0-.131-.066-.263-.132a3.202 3.202 0 00-.46-.197 1.969 1.969 0 01-.526-.263c-.197-.065-.328-.197-.526-.263l-.394-.197c-.131-.065-.197-.065-.197-.065-.066 0-.066-.066-.132-.132-.065-.066 0-.131 0-.197s.132-.263.198-.46c.131-.263.263-.526.394-.92.131-.329.329-.723.526-1.118.197-.394.328-.723.526-1.117.197-.395.262-.657.394-.855.131-.263.197-.394.197-.46.066-.131.132-.131.197-.065.066 0 .197.065.395.197.197.131.394.197.657.263.263.065.46.197.657.328.197.132.395.197.526.263.263.066.263.263.132.46 0 .066-.066.066-.066.132 0 .065-.066.066-.066.131a.141.141 0 01-.131.132h-.198s-.065 0-.131-.066a.499.499 0 01-.263-.132c-.131-.065-.197-.131-.329-.131-.131 0-.263-.131-.328-.131-.132-.066-.197-.066-.263-.132h-.132zm5.85 2.169v.132c-.066.065-.132.197-.263.394a5.78 5.78 0 00-.394.657c-.132.263-.33.526-.526.789a4.894 4.894 0 00-.46.789c-.132.263-.263.46-.395.657-.131.197-.197.329-.197.394-.066.066-.066.132-.066.132l.132.131c.066 0 .131.066.131.066s.066.066.132.066c.065 0 .065.066.065.066v.13c-.065.067-.131.198-.197.33a.906.906 0 01-.197.262c-.066.066-.066.066-.131.066-.066 0-.066 0-.132-.066 0 0-.131-.065-.263-.197-.131-.065-.328-.197-.526-.328-.197-.132-.46-.263-.657-.395a4.416 4.416 0 01-.723-.46c-.197-.131-.394-.263-.591-.328-.198-.132-.263-.198-.33-.198-.065 0-.065-.065-.065-.131s0-.131.066-.197.131-.132.131-.263c0-.132.066-.197.132-.263s.131-.066.197-.066.132.066.132.066c.065 0 .13.066.13.066.067.065.132 0 .132-.066.066-.132.132-.263.263-.46.132-.197.263-.46.395-.723.131-.263.328-.526.526-.789.197-.263.328-.526.46-.789a5.61 5.61 0 01.394-.657c.131-.197.197-.329.197-.394.066-.066.066-.132.132-.132.065 0 .131 0 .197.066 0 0 .066.066.197.131.131.066.263.132.394.263.132.066.329.198.46.263.198.132.329.197.46.263.132.066.263.197.395.263.131.394.197.394.263.46zm-1.315.395c.066-.066 0-.132 0-.132-.066-.066-.197-.131-.263-.197-.065-.066-.197-.132-.263-.197-.065-.066-.131 0-.131.065 0 .066-.066.066-.066.132s-.066.066-.066.131c-.065.066-.131.198-.197.329-.065.131-.197.329-.328.526-.132.197-.263.46-.395.657-.131.263-.263.46-.394.657-.132.198-.197.395-.329.526-.065.132-.131.197-.131.263v.132c.131.065.197.131.263.197s.197.131.328.197c.066.066.132 0 .132-.066s.066-.131.131-.263c.066-.131.197-.328.329-.525.131-.198.263-.395.394-.658a5.78 5.78 0 01.395-.657c.131-.197.263-.394.328-.592.132-.328.263-.46.263-.525zm1.906 3.68c.066 0 .132-.066.33-.197.13-.066.328-.197.59-.329.264-.131.46-.263.658-.394.197-.131.46-.263.657-.394.197-.132.329-.197.526-.329.131-.066.197-.131.197-.131s.066 0 .132.065c.065.066.131.066.197.132l.197.197c.066.066.131.066.131.131.066 0 .066.066.066.066s0 .066-.066.132c0 0-.065.065-.197.262-.131.198-.263.33-.394.526-.197.197-.329.46-.526.723a4049.605 4049.605 0 01-1.183 1.578c-.197.263-.394.46-.526.723-.131.197-.263.394-.394.526-.132.131-.132.197-.132.197h-.13c-.066 0-.132-.066-.197-.132-.066-.065-.132-.131-.197-.131-.066-.066-.066-.066-.132-.066-.066-.066-.131-.131-.066-.131 0-.066.066-.132.132-.263.131-.132.263-.329.394-.526.132-.197.329-.394.46-.591.132-.198.329-.395.46-.592.132-.197.263-.395.395-.526v-.131h-.066c-.066 0-.066.065-.131.065-.066 0-.132.066-.329.197-.132.066-.329.198-.592.33a7.56 7.56 0 01-.723.394 5.61 5.61 0 00-.657.394c-.197.131-.394.197-.526.263-.131.066-.197.131-.263.131 0 0-.065 0-.131-.065-.066-.066-.131-.066-.197-.132s-.132-.066-.132-.131l-.065-.066c-.066-.066-.066-.131 0-.263 0-.066.065-.131.197-.263.131-.131.263-.329.394-.526.132-.197.329-.394.526-.657s.394-.526.591-.723a7 7 0 01.592-.723c.197-.263.329-.46.526-.657.131-.197.263-.329.394-.46.132-.132.132-.198.197-.198.066-.065.132-.065.198-.065.065 0 .131 0 .197.065.066.066.131.132.197.132l.197.197v.066s0 .066-.066.066l-.197.197c-.066.131-.197.263-.328.46-.132.197-.263.328-.46.526-.132.197-.33.394-.46.591a2.86 2.86 0 01-.395.46c-.131.132-.197.197-.197.263l-.066.066-.066.066s.066 0 .132-.066c.131-.197.263-.263.329-.329zm2.103 4.01s.067.065.132.131l.198.197c.065.066.13.132.197.197l.131.132c.066.066.132.066.197 0 .066-.066.132-.197.329-.329l.526-.526.657-.657.657-.657.526-.526.329-.329c.066-.065.131-.131.131-.197.066-.065.132-.131.132-.197.065-.066.131-.066.131 0 .066.066.197.132.263.263.066.066.197.132.263.263.066.066.066.131 0 .131-.066.066-.132.198-.329.329a5.929 5.929 0 00-.591.657c-.197.263-.46.46-.723.789l-.723.723c-.197.197-.395.46-.592.592-.131.197-.263.262-.263.328-.065.066-.065.132 0 .197.066.066.132.066.132.132.066.066.066.131.131.131.066.066.066.132 0 .198-.131.131-.197.262-.328.328-.132.066-.263.263-.33.395l-.065.065-.066.066c-.065 0-.065.066-.131.066s-.066 0-.131-.066l-.263-.263c-.066-.066-.198-.131-.198-.197-.065-.066-.065-.197 0-.329l.132-.131c.066-.066.066-.132 0-.132-.066-.065-.132-.131-.263-.197s-.197-.197-.329-.329l-.394-.394-.394-.394-.263-.263-.132-.132c-.065-.065-.065-.131 0-.197 0-.066.066-.131.066-.197l.197-.197.46-.46.592-.592.657-.657.657-.657.592-.592c.197-.197.329-.329.394-.46.066-.131.263-.131.263-.131.066-.066.066-.066.132-.066.065 0 .131 0 .131.066l.197.197.197.197.066.066v.131l-3.089 3.155-.131.132c0 .065-.066.13-.066.197zm4.404 2.103c.066 0 .198-.066.329-.131l.592-.198a3.2 3.2 0 00.723-.263c.262-.065.525-.131.722-.197.198-.066.395-.131.526-.197.132-.066.263-.066.263-.066s.066 0 .066.066c.066.066.066.131.131.197.066.066.132.132.132.197.066.066.066.132.131.132l.066.066s0 .065-.066.065c0 0-.065.066-.263.198-.131.131-.328.262-.525.394-.198.197-.46.329-.723.591-.263.198-.526.395-.79.658a6.974 6.974 0 00-.788.657c-.263.197-.46.394-.657.526-.197.131-.394.263-.46.394-.132.132-.197.132-.197.197 0 0-.066 0-.066-.065l-.132-.132c-.065-.066-.131-.131-.131-.197s-.066-.131-.066-.131c-.066-.066-.066-.132-.066-.198 0-.065.132-.131.198-.197.131-.131.328-.263.526-.46.197-.197.394-.329.591-.526.197-.197.394-.328.592-.526.197-.131.394-.328.525-.46l.066-.065v-.066h-.066c-.065 0-.131 0-.131.066-.066 0-.131.065-.329.131a8.237 8.237 0 01-.657.197l-.789.197c-.263.066-.526.132-.723.198-.197.065-.394.131-.591.131-.132.066-.263.066-.263.066s-.066-.066-.132-.066c-.065-.066-.065-.131-.131-.197s-.066-.132-.132-.197c-.065-.066-.065-.066-.065-.132-.066-.066 0-.197.066-.263.065 0 .13-.065.262-.197.132-.131.263-.263.46-.394.198-.132.395-.329.658-.526s.46-.394.723-.592c.263-.197.526-.394.723-.591.263-.197.46-.394.657-.526.197-.131.329-.263.46-.394.132-.066.197-.132.197-.197.066-.066.132-.066.198-.066.065 0 .131.066.197.131l.197.197c.066.066.131.132.131.198v.065l-.065.066-.198.197c-.131.066-.263.197-.46.329-.197.131-.328.263-.525.46-.198.131-.395.329-.592.46-.197.131-.329.263-.46.394-.132.132-.197.198-.263.198l-.066.065-.065.066h.197c.131.329.197.263.328.263zm.263 4.667s0-.066-.065-.066c0-.066-.066-.066-.132-.132-.065-.065-.065-.131-.131-.197s-.066-.131-.066-.197c-.066-.066-.066-.131 0-.197l.132-.132c.065 0 .131-.065.262-.197.132-.131.33-.197.526-.328.197-.132.46-.263.658-.46.263-.132.525-.33.788-.526.263-.197.526-.329.79-.526.262-.197.46-.329.722-.46.197-.132.394-.263.526-.329a.908.908 0 00.263-.197s.066 0 .066-.066h.065s.066.066.066.132c.066.065.066.131.131.197.066.066.132.131.132.263a.203.203 0 01.066.131v.132c-.066.065-.198.131-.329.197-.131.131-.329.197-.46.329-.197.131-.329.197-.46.328-.132.066-.263.132-.329.197-.066 0-.066.066-.066.132.132.131.198.263.263.394.066.132.198.263.263.395l.066.065c.066 0 .131-.066.263-.197.131-.066.329-.197.46-.263.197-.131.329-.197.526-.328.197-.132.329-.198.394-.263.066-.066.132 0 .197.065.066.132.132.198.198.329.065.131.131.263.197.329 0 .065.066.065.066.131 0 0 0 .066-.066.066-.066.066-.197.131-.329.197-.197.131-.394.197-.591.394-.198.132-.46.263-.723.46-.263.198-.526.33-.79.526a4.833 4.833 0 01-.788.46c-.263.132-.46.329-.657.46a6.358 6.358 0 01-.526.33c-.131.065-.197.13-.197.13-.066.066-.132.066-.197.066-.066 0-.066-.066-.132-.131a.905.905 0 01-.197-.263c-.066-.131-.132-.197-.197-.263-.066-.066-.066-.131 0-.197 0-.066.066-.132.131-.132.066-.065.197-.131.395-.197l.591-.394c.197-.132.395-.263.657-.395.198-.131.395-.197.46-.263l.066-.065v-.066c-.066-.131-.197-.263-.263-.394-.065-.132-.197-.263-.263-.395-.065-.065-.065-.065-.131 0-.263.197-.592.329-.854.526-.263.197-.592.329-.855.526-.066 0-.066.066-.131.066-.066.065-.132.065-.132.131-.066 0-.131.066-.131.066-.132.131-.132.131-.198.066zm4.404 3.615c.066 0 .066-.066.132-.066.065 0 .065-.066.131-.066h.066s.066 0 .066.066c.065.066.131.197.197.328.066.132.131.198.131.33v.065s0 .066-.066.066c-.13.065-.197.131-.328.197-.132.066-.263.131-.329.197a.946.946 0 01-.46.131c-.197.066-.394.066-.657.066-.197 0-.46-.066-.657-.197-.198-.132-.395-.263-.526-.526-.066-.197-.132-.329-.197-.526 0-.197 0-.394.065-.591.066-.197.198-.395.329-.592.131-.197.394-.328.657-.46l2.63-1.314c.13-.066.262-.132.394-.132.197-.066.394-.066.591-.066.197 0 .395.066.592.198.197.131.394.328.526.591.131.263.197.46.197.657 0 .198 0 .395-.066.526-.066.132-.131.263-.263.395-.131.131-.197.197-.329.262-.13.066-.197.132-.262.132-.066.066-.132.066-.132.066s-.066 0-.131.065c-.066.066-.132-.065-.132-.131s-.066-.131-.066-.197c-.065-.132-.065-.132-.065-.197-.066-.132-.066-.198-.066-.198l.132-.131.131-.131c.066-.066.197-.132.263-.198a.89.89 0 00.197-.263.2.2 0 000-.262.514.514 0 00-.263-.263c-.131-.066-.197-.066-.329-.066-.13 0-.197 0-.262.066-.066 0-.132.065-.198.065-.065 0-.131.066-.263.132-.13.066-.262.131-.46.197-.197.066-.328.197-.525.263-.198.066-.329.197-.526.263-.132.066-.329.131-.395.197-.131.066-.197.131-.263.131-.328.132-.525.33-.591.46-.066.132-.066.263 0 .46.066.132.197.198.329.264h.394c.131 0 .263-.066.394-.132.132 0 .198-.066.263-.131zm2.892 2.037c.066 0 .131.066.263.197.131.066.328.198.526.329.197.132.394.263.657.394.197.132.46.263.657.395.197.131.329.263.46.328a.813.813 0 01.198.132l.065.066c.066.065 0 .065 0 .065-.066.066-.066.132-.131.197-.066.066-.066.198-.132.263-.065.066-.065.132-.131.198l-.066.065s-.066 0-.131-.065c-.066-.066-.197-.132-.329-.198-.131-.065-.263-.197-.394-.262-.132-.066-.263-.198-.395-.263a1.437 1.437 0 01-.328-.263c-.066-.066-.132-.132-.198-.132h-.131l-.263.263c-.263.197-.394.329-.591.526a5.802 5.802 0 00-.592.657c-.197.263-.394.395-.591.592-.198.197-.33.328-.46.46l-.198.197c-.066.066-.131.066-.263 0l-.131-.131a1971175147390.99 1971175147390.99 0 01-.263-.263l-.066-.066v-.066l.066-.066a16.97 16.97 0 001.052-1.183c.131-.131.263-.328.394-.46l.394-.394c.132-.131.197-.263.329-.329l.197-.197.132-.131.065-.066-.065-.066c-.066 0-.066-.066-.132-.066-.066-.065-.197-.065-.263-.131s-.197-.131-.263-.197h-.131c-.132.066-.329.131-.526.197s-.46.197-.723.263c-.263.066-.46.131-.657.263-.197.066-.329.131-.395.131h-.131c-.066 0-.066-.065-.066-.065 0-.066-.066-.066-.066-.132s-.065-.131-.065-.197-.066-.131-.066-.197v-.197h.066c.131-.066.328-.132.657-.198.329-.131.657-.197 1.052-.394l1.183-.394c.394-.132.788-.263 1.117-.395.329-.131.657-.197.855-.328.262-.066.328-.132.394-.132.131-.066.197 0 .197.066.066.066.066.197.132.328 0 0 0 .132.065.198 0 .066 0 .131-.065.197-.066 0-.198.066-.395.131a4.534 4.534 0 00-.526.198c-.131.065-.394.131-.525.197-.198.066-.329.066-.329.131zm2.037 3.813h.46c.198 0 .395.065.527.13.197.067.394.198.525.395.132.197.263.46.395.789.066.263.066.526 0 .723a1.432 1.432 0 01-.329.526c-.131.131-.263.263-.46.328-.131.066-.263.132-.329.132-.065 0-.197.066-.328.066-.132.065-.329.065-.526.131s-.394.066-.657.132c-.263.065-.46.13-.657.13-.198.067-.395.067-.526.132a.714.714 0 01-.329.066h-.46c-.197 0-.394-.066-.592-.131a1.022 1.022 0 01-.525-.395c-.198-.197-.263-.394-.33-.657-.065-.263-.065-.46-.065-.657.066-.197.132-.329.197-.526.066-.197.198-.263.329-.329.132-.065.263-.197.394-.197.132-.066.263-.066.329-.131.132 0 .197-.066.197-.066.066 0 .132 0 .263-.066.132-.066.329-.066.526-.131.197-.066.394-.132.657-.132.197-.065.46-.131.657-.131.198 0 .263-.066.395-.132h.263zm.264 2.168c.131-.065.197-.065.263-.131.065-.066.197-.131.262-.197.066-.066.066-.132.132-.263v-.263c0-.131-.066-.131-.132-.197-.065-.066-.131-.066-.197-.132-.197-.065-.328-.065-.526-.065a.5.5 0 00-.262.065c-.132.066-.263.066-.46.066-.198.066-.33.066-.526.132-.198.13-.395.13-.592.197-.197.065-.394.065-.526.131-.131.066-.328.066-.394.066-.197.066-.329.131-.394.197-.066.066-.132.263-.132.394 0 .066 0 .132.066.198.066.065.066.131.131.197.066.066.132.066.198.131.065 0 .13.066.197 0 .065 0 .197 0 .328-.066.198 0 .329-.065.592-.131.197-.066.46-.066.657-.131.197-.066.46-.066.657-.132.198-.066.329-.066.46-.131a.51.51 0 00.198.065zm2.76 4.207h-.197s-.066-.066-.066-.197v-.657s.066-.066.132-.066h.723s.066 0 .066.066v.065c0 .066 0 .197.065.263v.263c0 .132-.066.132-.131.197h-.263a.714.714 0 01-.329.066zm-3.22.723l-.263-.131a3.055 3.055 0 00-.592-.198c-.263-.065-.46-.197-.723-.263-.263-.131-.526-.197-.723-.262-.197-.066-.394-.198-.592-.263l-.262-.132c-.066-.066-.066-.131-.132-.131 0-.066-.066-.132-.066-.197v-.658h.066c.066 0 .197 0 .394-.066.198 0 .395-.065.658-.065s.591-.066.854-.132c.329-.065.657-.065.986-.131.329-.066.657-.066.986-.132.329-.065.592-.065.855-.065.262 0 .46-.066.657-.132h.263s.066 0 .066.066.065.066.065.066c0 .131.066.263.066.394s0 .263.066.394v.066l-.066.066s-.131 0-.263.066c-.132.065-.394.065-.657.065s-.526.066-.789.066-.592.066-.855.066c-.262 0-.46.066-.657.066s-.328.065-.394.065h-.066s-.066 0-.066.066c0 0 .066 0 .132.066.066.065.263.065.394.131.197 0 .395.066.592.132.197.065.46.131.657.263.263.065.46.131.657.263.329 0 .526.065.658.13.131.067.394.132.591.198.132 0 .132.066.197.066 0 0 0 .066.066.197v.263c0 .066 0 .131.066.263v.197c0 .066-.066.066-.132.066-.131 0-.328.066-.46.066h-.526c-.065 0-.197 0-.46.065-.263 0-.525.066-.854.066-.329.066-.723.066-1.052.131-.394.066-.723.066-1.051.132-.329.066-.592.066-.79.066-.196 0-.328.065-.328.065s-.066-.065-.066-.131c0-.132-.065-.197-.065-.329V39.7c0-.132.066-.132.066-.198.131 0 .328-.065.525-.065s.395-.066.592-.066c.197 0 .46-.066.657-.066s.395-.066.592-.066c.197 0 .328-.065.46-.065 0 0 .066 0 .066-.066 0 .066.065 0 0 0 .065 0 .065 0 0 0 .065 0 .065 0 0 0zM80.91 44.3c.066 0 .198.066.33.132.197.066.394.197.59.263.198.131.461.197.724.328.263.132.46.198.657.33.197.065.395.196.526.262s.197.131.263.131v.986c0 .066-.066.066-.132 0h-.328c-.197 0-.395 0-.658-.065-.262 0-.591-.066-.92-.066-.328 0-.657-.066-.986-.066-.328 0-.657-.066-.986-.066-.328 0-.591-.065-.854-.065s-.46 0-.657-.066h-.263l-.066-.066v-.591c0-.066.066-.132.066-.132h.263c.197 0 .394 0 .657.066.263 0 .526 0 .789.066.263 0 .526 0 .788.066.263 0 .46 0 .658.065h.131l-.066-.066c-.065 0-.065-.065-.13-.065-.067 0-.132-.066-.33-.132-.065-.328-.263-.394-.525-.526a2.43 2.43 0 00-.723-.328c-.263-.132-.46-.263-.723-.329-.198-.131-.395-.197-.526-.263a.814.814 0 01-.197-.131v-.657c0-.066.065-.132.197-.132h.328c.198 0 .395 0 .658.066.263 0 .525 0 .854.066.329 0 .657 0 .92.065.329 0 .658.066.92.066.33 0 .592 0 .855.066.263 0 .46 0 .592.066.131.065.262 0 .262 0 .066 0 .132.065.198.065 0 .066.065.132.065.197v.263c0 .066 0 .197-.065.263 0 0 0 .066-.066.066h-.394c-.132 0-.33 0-.592-.066-.263-.066-.46 0-.723-.066-.263-.065-.526 0-.723-.065-.197 0-.46 0-.592-.066h-.525l.131.132c.066.065.263 0 .329 0zm-1.511 7.296h.132c.065 0 .065 0 .13.066 0 0 .067 0 .067.066v.066c0 .13 0 .197-.066.328 0 .132-.066.263-.066.329 0 0 0 .066-.066.066h-.065c-.132 0-.263 0-.395-.066-.131-.066-.262-.066-.394-.066-.131 0-.263-.066-.46-.197-.197-.132-.329-.197-.526-.395a2.295 2.295 0 01-.394-.591c-.066-.197-.132-.46-.066-.723.066-.197.132-.395.197-.526.132-.197.263-.329.395-.394a1.06 1.06 0 01.591-.197c.263-.066.526 0 .855.065l2.826.657c.131 0 .263.066.394.132.263.066.46.131.592.263.131.131.263.328.394.526.066.197.066.46 0 .788-.066.263-.131.46-.263.658-.131.131-.263.263-.394.328-.132.066-.263.132-.46.132h-.395c-.131 0-.263 0-.328-.066-.066 0-.132-.066-.132-.066-.065 0-.065 0-.131-.065-.066-.066-.066-.066 0-.197 0-.066 0-.132.066-.198 0-.066 0-.131.065-.197 0-.131.066-.197.066-.197h.657c.132 0 .198 0 .329-.066l.197-.197v-.329c0-.065-.131-.197-.197-.262a.498.498 0 00-.263-.132c-.066 0-.131-.066-.197-.066s-.132-.066-.329-.066-.328-.065-.46-.13c-.197-.067-.394-.067-.591-.132-.198-.066-.395-.066-.592-.132-.329.066-.46.066-.591 0-.132-.066-.198-.066-.263-.066-.33-.065-.592-.065-.79 0-.13.066-.262.198-.262.33 0 .13 0 .262.066.394.065.13.197.197.328.262.132.066.263.132.395.132.131 0 .328.066.394.131zm1.971 2.498c.066.066.198.131.395.263l.394.394c.132.197.198.395.263.592.066.263 0 .526-.131.854-.066.263-.263.526-.394.657-.198.132-.395.198-.526.263-.197.066-.395.066-.526.066-.197 0-.329-.066-.394-.066-.066 0-.198-.065-.329-.131-.132-.066-.329-.131-.526-.197s-.394-.132-.657-.197c-.263-.066-.46-.132-.657-.198a4.278 4.278 0 01-.526-.197c-.132-.066-.263-.066-.329-.131-.131-.066-.197-.132-.394-.197a2.864 2.864 0 01-.395-.46 2.336 2.336 0 01-.263-.592c-.065-.263-.065-.46.066-.789.066-.263.197-.46.329-.591.131-.132.263-.263.394-.329a1.22 1.22 0 01.46-.131h.46c.132 0 .263.065.395.065.131 0 .197.066.197.066.066 0 .131.066.263.066.131.065.329.131.526.197s.394.131.657.197l.591.197c.198.066.33.132.526.197 0 .066.066.132.132.132zm-.92 2.038c.132 0 .198.065.33.065.13 0 .196 0 .328-.066.066-.065.131-.065.197-.131s.066-.197.066-.263v-.197c0-.066-.066-.132-.132-.197-.131-.198-.263-.263-.394-.329-.066 0-.132-.066-.263-.066-.131-.065-.263-.065-.394-.131a4.406 4.406 0 00-.526-.197l-.592-.197a4.48 4.48 0 01-.525-.198c-.132-.065-.33-.131-.395-.131-.197-.066-.329-.066-.46 0s-.197.131-.329.328c-.065.066-.065.132-.065.198v.197c0 .066.065.131.065.197.066.066.066.131.132.131s.197.066.329.132c.131.066.328.131.525.197.198.066.395.132.658.197l.591.198c.197.065.329.131.46.131.263.066.395.066.395.132zm-4.206 1.577s0 .066-.066.131c-.065.066-.065.132-.131.263-.066.066-.066.197-.132.263-.065.066-.065.132-.065.197-.066.066 0 .132.066.198.065 0 .197.065.394.197.197.066.394.197.657.328l.789.395c.263.131.591.263.789.394.197.132.46.197.657.329.197.131.329.131.394.197.066.066.132.066.197.066.066 0 .132.065.198.065.065 0 .065.066.065.132-.065.131-.065.197-.131.329-.066.13-.066.197-.132.328 0 .066-.065.132-.131.066-.066 0-.197-.066-.46-.197-.197-.066-.46-.197-.789-.329-.328-.131-.591-.263-.986-.46-.328-.132-.657-.263-.92-.46s-.526-.263-.723-.329c-.197-.066-.329-.131-.394-.197-.066-.066-.132 0-.198.066 0 .066-.065.131-.065.197-.066.066-.066.131-.066.197-.066.066-.131.132-.197.066-.132-.066-.329-.132-.46-.197-.132-.066-.329-.132-.46-.198 0 0-.066 0-.066-.065 0-.066-.066-.066-.132-.066-.065 0-.065-.066-.065-.066v-.131c.066-.066.066-.197.131-.329.066-.131.066-.197.132-.263.065-.065.197-.131.328-.065l.263.065c.066 0 .132 0 .132-.065 0-.066.065-.198.131-.33.066-.13.132-.262.197-.46.066-.13.132-.328.197-.525.066-.197.132-.329.198-.46.065-.131.131-.263.197-.329.066-.065.066-.131.066-.197.065-.066.065-.066.131-.066h.197l.263.132c.132.066.329.131.592.263.197.131.46.197.788.328.263.132.592.263.855.395.263.131.591.263.854.394.263.132.526.263.723.329.198.131.395.197.526.263.132.065.197.131.263.131s.066.066.132.132v.131c-.066.066-.066.131-.132.263-.066.131-.066.197-.066.263 0 0 0 .066-.065.066h-.132l-4.01-1.84c-.065.065-.13.065-.196.065 0 0-.066-.066-.132 0 0-.066 0-.066 0 0zm-.526 4.798c.066.066.132.132.197.329.132.131.263.328.395.526.131.197.328.394.46.591.131.197.329.394.46.592.132.197.263.328.329.46a.813.813 0 00.131.197v.131c0 .066-.066.132-.131.198-.066.065-.066.131-.132.197s-.066.131-.066.131c0 .066-.065.066-.065.066h-.132l-.263-.132c-.131-.065-.328-.197-.591-.328-.197-.132-.46-.329-.789-.46-.263-.197-.591-.329-.854-.526s-.592-.329-.855-.526-.526-.329-.723-.46a6.054 6.054 0 00-.526-.329c-.131-.065-.197-.131-.197-.131V62.9c0-.065.066-.131.132-.197.065-.066.065-.131.131-.197s.066-.131.066-.131c.066-.066.131-.132.131-.066s.132.066.263.131c.197.132.329.197.592.329.263.131.46.263.657.394.197.132.46.263.657.395.197.131.395.263.592.328h.131s0-.065-.065-.065c-.066 0-.066-.066-.066-.132s-.132-.131-.197-.263c-.132-.131-.263-.328-.395-.526-.131-.197-.328-.394-.46-.657-.131-.197-.328-.46-.46-.657-.131-.197-.263-.395-.329-.526-.065-.131-.131-.197-.131-.263 0 0 0-.066.066-.131 0-.066.066-.132.131-.198.066-.065.066-.13.132-.197v.066c.065-.066.131-.066.263 0 .065 0 .131.066.263.197.13.066.328.197.525.329.197.131.46.263.723.46.263.131.526.329.789.526s.526.328.789.46c.263.131.526.328.723.46.197.131.394.263.526.329.131.065.197.131.263.131l.131.132c0 .065 0 .131-.066.197s-.066.131-.131.263c-.066.065-.132.131-.132.197h-.065c-.066 0-.066 0-.132-.066l-.263-.131c-.131-.066-.263-.198-.46-.329l-.591-.394-.592-.395c-.197-.131-.394-.197-.526-.328-.131-.066-.263-.132-.263-.198 0 0-.065 0-.131-.065-.066 0-.066-.066-.066 0 0 .065 0 .065.066.131 0 .132.066.197.131.263zm0 5.587l-.131.131c-.066.066-.132.132-.197.263l-.198.197c-.065.066-.065.066-.131.066s-.132-.066-.329-.131c-.131-.066-.328-.132-.591-.263-.263-.132-.46-.197-.723-.329-.263-.131-.526-.263-.855-.394a10.701 10.701 0 00-.854-.395c-.263-.131-.526-.263-.723-.328-.197-.132-.395-.197-.526-.263l-.263-.132c-.131-.065-.197-.131-.197-.131v-.263c.066-.131.066-.263.131-.394.066-.066.066-.132.132-.132s.066 0 .197.066c.132.066.263.131.46.197a3.2 3.2 0 00.46.197c.066 0 .132 0 .197-.065.066-.132.198-.263.33-.395.13-.131.196-.263.328-.394v-.132s-.066-.065-.066-.131c-.066-.066-.066-.131-.132-.197-.065-.066-.13-.132-.13-.197-.067-.066-.067-.066-.067-.132-.065-.131-.065-.197-.065-.263s.065-.131.197-.197l.131-.131.132-.132c.131-.131.197-.066.263 0l.197.197c.066.132.197.263.394.46.132.198.329.395.526.658l.592.788.591.79c.197.262.394.46.526.722.131.197.329.394.394.526-.131.131-.066.197 0 .263zm-1.774-.92c-.066-.066-.132-.198-.263-.329a.792.792 0 00-.329-.329c-.131-.131-.197-.263-.329-.328-.131-.132-.197-.197-.263-.329-.065-.066-.065-.066-.13 0l-.198.197c-.066.066-.132.132-.197.263-.066.066-.066.132-.066.132s.066.065.131.065c.066 0 .132.066.263.132.066.066.197.131.329.197.131.066.197.132.329.197.065.066.197.066.263.132.131.065.262.131.328.131h.132v-.131zm-2.958 2.76c0-.066-.066-.131-.198-.263-.065-.131-.197-.263-.262-.46-.132-.197-.198-.328-.329-.526a6.058 6.058 0 01-.329-.525 3.772 3.772 0 01-.263-.46c-.065-.132-.131-.263-.197-.33-.066-.065-.066-.13-.131-.196-.066-.066 0-.066 0-.132s0-.066.066-.131c0-.066.065-.066.131-.132.066-.065.131-.065.131-.131s.132-.066.198-.066c.131 0 .197 0 .263.132 0 .065.131.197.262.394.132.263.329.526.526.854.197.33.395.723.657 1.052.263.394.46.723.658 1.052.197.328.394.591.526.854.131.197.197.329.263.394v.263c0 .066-.066.066-.066.132-.066.066-.066.131-.132.131-.065.066-.065.132-.131.132l-.066.066h-.131c-.066 0-.132-.066-.329-.132-.131-.066-.329-.197-.591-.329a7.173 7.173 0 00-.724-.394c-.262-.131-.525-.329-.788-.46-.263-.132-.526-.329-.789-.46-.263-.132-.526-.263-.723-.395-.197-.13-.394-.197-.526-.328-.131-.066-.197-.132-.263-.132-.065 0-.065-.065-.131-.065-.066-.066-.066-.066-.132-.066v-.132c0-.065.066-.13.066-.197 0-.065.066-.131.132-.197.065-.131.131-.197.197-.197s.197 0 .328.066c.066 0 .132.065.263.131.132.066.263.197.46.263.198.066.329.197.526.329.197.131.395.197.526.328.197.132.329.197.46.263.132.066.263.132.329.197.066.066.131.066.263.132.065.066.131.066.263.131.065.066.065.066.065 0 0-.065 0-.065-.065-.131a.141.141 0 00-.132-.132c-.066 0-.066-.131-.131-.197zm-2.301 3.024c-.066 0-.066.066-.131.066-.066 0-.066.065-.132.065-.065 0-.065.066-.131.066-.132.131-.263.197-.329.197a.71.71 0 01-.328.066c-.132 0-.263 0-.33-.066-.065-.066-.196-.066-.328-.131a4.614 4.614 0 01-.657-.526l-.329-.394a2.222 2.222 0 01-.394-.79c0-.13-.066-.262-.066-.328 0-.131 0-.263.066-.394.066-.132.066-.263.197-.395.066-.131.197-.263.329-.394.131-.131.263-.263.394-.329l.132-.131c.065-.066.131-.066.197 0s.131.066.131.131l.198.198c.13.131.262.263.394.46.131.197.329.394.526.657s.394.46.657.723c.197.263.394.46.657.723.197.263.395.46.592.657.197.197.328.329.394.526s.197.197.197.263c.066.066.066.131 0 .197l-.065.066-.132.131-.131.132-.066.066s-.066.065-.132 0H70l-1.315-1.512zm-1.906-2.3s-.066 0-.066.065c-.065 0-.065.066-.065.066s-.066.066-.066.131c-.066.066-.066.132-.066.263 0 .132 0 .197.066.394.066.198.131.33.263.46.131.132.263.263.394.33.132.065.197.13.329.13h.263c.066 0 .131-.065.131-.065s.066 0 .066-.066.066-.066.066-.066c.065-.065.065-.065 0-.131l-.132-.131c-.066-.066-.131-.198-.263-.263-.065-.132-.197-.198-.263-.329-.131-.131-.197-.263-.263-.329-.065-.065-.131-.197-.197-.263l-.197-.197zm-3.023 1.38l.065-.066.132-.132c.066-.065.131-.065.197-.131s.131-.066.131-.132c.066-.065.132-.065.198 0l.131.132c0 .066.066.131.197.263.066.131.197.329.329.526.131.197.263.394.46.657s.329.526.526.723c.197.197.328.526.526.723.197.263.328.46.46.657.131.197.263.395.328.526a.908.908 0 00.197.263l.066.066v.065s-.066.066-.131.066c-.066.066-.132.132-.197.132-.066 0-.132.131-.263.131-.066.066-.132.066-.132.131h-.131c-.066-.065-.132-.197-.263-.328-.132-.132-.197-.329-.329-.46-.131-.132-.197-.329-.328-.46-.132-.132-.198-.263-.198-.329-.065-.066-.065-.066-.131-.066-.132.132-.263.197-.394.263-.132.066-.263.197-.395.263l-.066.066c0 .066.066.131.198.263.065.131.197.263.328.46.132.197.198.328.329.526.131.197.197.328.263.394s.066.132-.066.197c-.066.066-.197.132-.329.263-.131.132-.131.329-.262.395-.066.065-.066.065-.132.065 0 0-.066 0-.066-.066-.065-.065-.131-.197-.197-.328a2.294 2.294 0 01-.394-.592c-.132-.263-.329-.46-.46-.723-.197-.263-.329-.526-.526-.788-.197-.263-.329-.526-.526-.79-.197-.262-.329-.46-.46-.656-.132-.198-.263-.329-.329-.46-.065-.132-.131-.198-.131-.198-.066-.065-.066-.131-.066-.197s.066-.066.132-.131a.89.89 0 01.263-.198c.065-.065.197-.13.262-.197.066-.065.132-.065.198 0 .065.066.131.066.131.132.066.066.132.197.263.328l.394.592.395.591c.131.198.263.33.328.46l.066.066h.066c.131-.065.263-.197.394-.263.132-.065.263-.197.395-.263.065-.065.065-.065 0-.13-.198-.264-.395-.527-.526-.79-.132-.263-.395-.526-.526-.788 0-.066-.066-.066-.132-.132-.065-.066-.065-.131-.131-.131 0-.066-.066-.132-.066-.132-.065-.263-.065-.263-.065-.328zm-.329 5.718c0 .131.066.263.132.46a.912.912 0 010 .592c0 .197-.132.394-.263.591-.132.197-.329.394-.658.592a1.713 1.713 0 01-.723.197 1.06 1.06 0 01-.591-.197.673.673 0 01-.395-.329c-.197-.197-.262-.263-.262-.394 0-.066-.066-.132-.198-.329-.065-.131-.197-.329-.263-.526-.065-.197-.197-.394-.328-.591-.132-.198-.197-.395-.329-.592a1.97 1.97 0 01-.263-.526.702.702 0 00-.197-.328c-.066-.066-.066-.263-.131-.395-.066-.131-.066-.394 0-.591 0-.198.131-.46.197-.658.131-.197.328-.394.526-.525.263-.132.46-.198.657-.198s.394 0 .526.066c.131.066.328.132.394.197l.329.329c.131.131.131.197.197.329.066.065.066.131.131.197 0 .066.066.131.132.263.066.131.197.263.263.46.131.197.197.394.328.591.132.197.198.395.33.592.13.197.196.329.262.46.131.131.197.197.197.263zm-2.037.854c.065.066.131.198.197.263.066.066.131.132.263.197.065.066.197.066.263.066.065 0 .131-.066.197-.066s.131-.131.131-.197c.066-.066.066-.131.066-.263 0-.197 0-.328-.066-.525 0-.066-.066-.132-.131-.198l-.197-.394c-.066-.131-.198-.329-.263-.46-.066-.197-.197-.329-.263-.526s-.197-.329-.263-.46l-.197-.394a.792.792 0 00-.329-.329c-.131-.066-.263-.066-.46 0-.066 0-.132.066-.197.131-.066.066-.132.132-.132.198 0 .065-.065.131-.065.197v.197c0 .066.065.197.131.329.066.131.131.328.263.525.131.198.263.263.394.526.132.197.197.395.329.592.131.197.197.328.263.46 0 .066.066.131.066.131zm-4.864.92v-.262c0-.198.065-.395.065-.592 0-.263.066-.526.066-.789s.066-.525.066-.788.065-.46.065-.592c0-.197 0-.263.066-.263 0-.066.066-.131.132-.131.065-.066.131-.066.197-.132s.131-.066.263-.066c.065 0 .131-.065.197-.065s.131-.066.131-.066h.066s0 .066.066.066c0 .066.066.197.131.328.066.198.132.395.263.658.132.263.197.526.329.854.131.329.263.592.394.92.132.329.263.46.329.79.131.262.197.525.328.788.066.197.198.394.198.526a.496.496 0 01.065.263v.065s0 .066-.065.066c-.132.066-.198.132-.329.132a.498.498 0 01-.263.13h-.066c-.065 0-.065 0-.065-.065 0-.066-.066-.131-.132-.263-.066-.131-.197-.328-.263-.526-.066-.262-.197-.46-.328-.723-.132-.262-.198-.525-.329-.788-.132-.263-.197-.46-.263-.657-.066-.198-.131-.263-.131-.33v-.065s0-.066-.066 0v.657c0 .198 0 .395-.066.658 0 .263 0 .46-.066.723 0 .263 0 .46-.065.723 0 .263 0 .46-.066.657v.789s-.066.065-.197.065c-.066 0-.132.066-.197.066-.066 0-.132.066-.198.132-.065.065-.131.065-.197.065s-.066-.065-.131-.131c-.066-.132-.132-.263-.197-.46 0-.197-.066-.329-.132-.526 0-.066-.066-.197-.197-.46-.066-.263-.197-.526-.329-.789l-.394-.986-.394-.986c-.132-.328-.198-.526-.329-.723-.066-.197-.132-.328-.132-.328s0-.066.132-.132a.501.501 0 01.329-.131c.131-.066.197-.066.328-.132.132 0 .197 0 .197.066.066.131.132.263.198.46.065.197.131.394.263.592.065.197.197.394.262.591.066.197.132.395.198.526l.197.394c.066.132 0 .198.066.198-.066 0 0 .065 0 0 0 .065 0 .065 0 0 0 .065 0 0 0 0zm1.577 2.893c-.066-.132-.066-.198-.066-.198s.066-.065.197-.131c.066 0 .132-.066.198-.066.065 0 .131-.066.197-.066s.131-.065.131 0c0 0 .066.066.066.132s.066.131.131.263c.066.066.066.131.132.263v.263l-.066.065c-.066.066-.197.066-.263.132s-.197.066-.263.131c-.065 0-.197 0-.197-.131 0-.066-.066-.132-.066-.197-.065-.329-.131-.395-.131-.46z" fill="#16295B"/></svg>