<svg width="122" height="112" fill="none" xmlns="http://www.w3.org/2000/svg"><path d="M65.456 98.675s18.228-59.76-2.881-83.68C46.802-2.903 28.898-.764 20.882 1.453a14.787 14.787 0 00-9.564 7.92C8.516 15.421 9.02 25.212 28.804 36.69c33.13 19.173 35.197 45.482 35.197 45.482l1.454 16.503z" fill="#B5EBE1"/><path d="M23.763 9.927s53.742 16.797 41.693 88.748M55.149 15.946s-7.397 4.99-5.041 12.478M29.171 20.36s4.523-4.601 10.026-2.06m11.199 25.222s7.922-4.032 9.996 1.016m9.658 7.387s-5.963-.475-6.071 2.376" stroke="#F7EDE1" stroke-miterlimit="10"/><path d="M66.19 99.15S44.843 55.726 38.973 56.67c-2.78.453-4.069 3.19-4.645 5.947a17.484 17.484 0 001.16 10.57C38.533 80.12 46.657 93.34 66.19 99.15z" fill="#B5EBE1"/><path d="M39.132 64.92S61.58 97.4 65.902 98.84m-28.83-28.85h5.229m1.037 11.887l8.203.353m-3.211-9.864l-.894 4.27m9.614 8.726l-.158 3.88" stroke="#F7EDE1" stroke-miterlimit="10"/><path d="M65.556 99.15S86.91 55.726 92.78 56.67c2.78.453 4.07 3.19 4.645 5.947.72 3.558.315 7.252-1.16 10.57C93.27 80.12 85.096 93.34 65.557 99.15z" fill="#B5EBE1"/><path d="M92.614 64.92S70.224 97.4 65.902 98.84m28.772-28.85h-5.228m-1.038 11.887l-8.196.353m3.213-9.864l.886 4.27m-9.608 8.726l.158 3.88" stroke="#F7EDE1" stroke-miterlimit="10"/><path d="M28.897 109.295a3.734 3.734 0 01-1.217-1.836 1.62 1.62 0 01.85-1.865c.778-.302 1.613.238 2.247.785.634.547 1.354 1.166 2.16 1.051a3.334 3.334 0 01-1.03-3.11 1.32 1.32 0 01.289-.627c.432-.468 1.217-.266 1.736.101 1.649 1.159 2.11 3.399 2.117 5.407a9.984 9.984 0 000-2.225 2.281 2.281 0 01.843-1.972c.39-.213.83-.317 1.274-.303a2.654 2.654 0 012.075.591 2.066 2.066 0 01-.08 2.541 8.055 8.055 0 01-2.16 1.721 4.73 4.73 0 00-1.534 1.44c-.05.081-.089.168-.115.259h-4.646a13.148 13.148 0 01-2.809-1.958zm81.363-17.489a3.722 3.722 0 01-1.217-1.836 1.619 1.619 0 01.849-1.865c.778-.302 1.614.238 2.247.785.634.547 1.354 1.166 2.161 1.051a3.326 3.326 0 01-1.03-3.11 1.32 1.32 0 01.288-.627c.432-.468 1.217-.266 1.736.101 1.649 1.16 2.11 3.398 2.117 5.407a9.97 9.97 0 000-2.224 2.287 2.287 0 01.836-1.973 2.513 2.513 0 011.282-.303 2.653 2.653 0 012.074.59 2.059 2.059 0 01-.086 2.542 7.935 7.935 0 01-2.161 1.721 4.626 4.626 0 00-1.527 1.44 1.03 1.03 0 00-.115.26h-4.645a12.948 12.948 0 01-2.809-1.959zm-27.116 17.489a3.734 3.734 0 01-1.217-1.836 1.62 1.62 0 01.85-1.865c.778-.302 1.613.238 2.247.785.633.547 1.354 1.166 2.16 1.051a3.318 3.318 0 01-1.03-3.11 1.32 1.32 0 01.289-.627c.432-.468 1.217-.266 1.735.101 1.65 1.159 2.11 3.399 2.118 5.407a9.984 9.984 0 000-2.225 2.287 2.287 0 01.835-1.972 2.513 2.513 0 011.282-.303 2.654 2.654 0 012.074.591 2.058 2.058 0 01-.086 2.541 7.923 7.923 0 01-2.16 1.721 4.637 4.637 0 00-1.528 1.44c-.05.081-.088.168-.115.259h-4.645a12.938 12.938 0 01-2.809-1.958zM6.24 73.943s-1.743 2.275.806 5.71c2.55 3.434 4.646 6.343 3.796 8.481 0 0-3.839-6.38-6.972-6.48-3.133-.1-1.066-3.874 2.37-7.711z" fill="#B5EBE1"/><path opacity=".1" d="M6.24 73.943a2.694 2.694 0 00-.353.72c-3.054 3.6-4.674 6.926-1.743 7.005 2.73.08 6.006 4.961 6.791 6.2 0 .093-.057.187-.093.273-.036.087-3.839-6.38-6.972-6.48-3.133-.1-1.066-3.88 2.37-7.718z" fill="#000"/><path d="M3.006 76.844c0 .8.087 1.44.195 1.44.108 0 .201-.648.201-1.44 0-.792-.108-.425-.223-.425s-.173-.381-.173.425z" fill="#FFD037"/><path d="M1.89 77.802c.72.381 1.318.612 1.376.511.057-.1-.476-.482-1.181-.864-.706-.382-.425-.108-.483 0-.058.108-.41-.036.288.353z" fill="#FFD037"/><path d="M15.444 73.943s1.736 2.275-.806 5.71c-2.543 3.434-4.646 6.343-3.796 8.481 0 0 3.839-6.38 6.964-6.48 3.126-.1 1.074-3.874-2.362-7.711z" fill="#B5EBE1"/><path opacity=".1" d="M15.444 73.943c.15.223.268.465.353.72 3.047 3.6 4.674 6.926 1.743 7.005-2.73.08-6.006 4.961-6.791 6.2 0 .093.057.187.093.273.036.087 3.839-6.38 6.964-6.48 3.126-.1 1.074-3.88-2.362-7.718z" fill="#000"/><path d="M18.678 76.844c0 .8-.087 1.44-.202 1.44-.115 0-.202-.648-.202-1.44 0-.792.116-.425.224-.425s.18-.381.18.425z" fill="#FFD037"/><path d="M19.809 77.802c-.72.381-1.318.612-1.369.511-.05-.1.476-.482 1.181-.864.706-.382.425-.108.476 0 .05.108.432-.036-.288.353z" fill="#FFD037"/><path d="M18.124 87.839s-4.869-.151-6.338-1.195c-1.47-1.044-7.49-2.29-7.85-.612-.36 1.677-7.325 8.33-1.823 8.373 5.503.043 12.777-.856 14.239-1.75 1.462-.892 1.772-4.816 1.772-4.816z" fill="#F7EDE1"/><path opacity=".2" d="M2.012 93.8c5.503.044 12.777-.856 14.239-1.75 1.116-.676 1.563-3.117 1.714-4.24h.159s-.31 3.924-1.772 4.817c-1.462.893-8.744 1.793-14.239 1.75-1.591 0-2.16-.577-2.11-1.44.223.561.828.863 2.01.863z" fill="#000"/></svg>