<svg width="33" height="23" viewBox="0 0 33 23" fill="none" xmlns="http://www.w3.org/2000/svg">
<path d="M16.5002 0.5625C9.2085 0.5625 2.98141 5.09792 0.458496 11.5C2.98141 17.9021 9.2085 22.4375 16.5002 22.4375C23.7918 22.4375 30.0189 17.9021 32.5418 11.5C30.0189 5.09792 23.7918 0.5625 16.5002 0.5625ZM16.5002 18.7917C12.4752 18.7917 9.2085 15.525 9.2085 11.5C9.2085 7.475 12.4752 4.20833 16.5002 4.20833C20.5252 4.20833 23.7918 7.475 23.7918 11.5C23.7918 15.525 20.5252 18.7917 16.5002 18.7917ZM16.5002 7.125C14.0793 7.125 12.1252 9.07917 12.1252 11.5C12.1252 13.9208 14.0793 15.875 16.5002 15.875C18.921 15.875 20.8752 13.9208 20.8752 11.5C20.8752 9.07917 18.921 7.125 16.5002 7.125Z" fill="#16295B"/>
</svg>
