<svg width="563" height="367" viewBox="0 0 563 367" fill="none" xmlns="http://www.w3.org/2000/svg">
<path d="M282.137 350.706C436.91 342.136 561.955 327.535 561.432 318.093C560.909 308.652 435.016 307.944 280.242 316.514C125.469 325.084 0.424025 339.685 0.947086 349.126C1.47015 358.568 127.363 359.275 282.137 350.706Z" fill="#F8EDDF"/>
<g opacity="0.1">
<path opacity="0.1" d="M330.374 219.84C330.374 219.84 347.131 180.156 378.42 165.434C391.556 159.255 402.414 149.351 409.07 136.841C412.2 130.912 414.767 124.702 416.735 118.293" stroke="#535461" stroke-width="2" stroke-miterlimit="10"/>
<path opacity="0.1" d="M436.409 108.905C433.152 112.848 416.266 118.598 416.266 118.598C416.266 118.598 418.302 101.494 421.548 97.5565C423.162 95.6541 425.444 94.4424 427.925 94.1706C430.405 93.8989 432.895 94.5877 434.883 96.0955C435.853 96.8156 436.665 97.7259 437.271 98.7706C437.876 99.8154 438.262 100.973 438.405 102.172C438.548 103.371 438.444 104.586 438.101 105.744C437.758 106.902 437.182 107.977 436.409 108.905Z" fill="#6167FF"/>
<path opacity="0.1" d="M430.616 140.115C425.65 141.717 408.224 137.727 408.224 137.727C408.224 137.727 419.605 124.437 424.57 122.829C429.536 121.221 434.918 123.797 436.585 128.568C436.973 129.717 437.126 130.932 437.034 132.142C436.943 133.351 436.608 134.53 436.051 135.608C435.494 136.685 434.726 137.64 433.792 138.414C432.858 139.188 431.778 139.767 430.616 140.115Z" fill="#6167FF"/>
<path opacity="0.1" d="M399.209 177.005C394.079 175.984 381.131 164.096 381.131 164.096C381.131 164.096 397.953 158.129 403.071 159.173C404.268 159.386 405.411 159.835 406.432 160.495C407.453 161.155 408.332 162.012 409.017 163.016C409.702 164.02 410.179 165.151 410.421 166.342C410.663 167.533 410.665 168.761 410.425 169.952C409.363 174.864 404.339 178.032 399.209 177.005Z" fill="#6167FF"/>
<path opacity="0.1" d="M368.906 199.778C363.67 199.602 348.815 189.979 348.815 189.979C348.815 189.979 364.334 181.377 369.569 181.553C374.804 181.729 378.901 185.954 378.719 190.982C378.537 196.011 374.141 199.954 368.906 199.778Z" fill="#6167FF"/>
<path opacity="0.1" d="M392.007 126.578C392.676 131.572 404.022 144.891 404.022 144.891C404.022 144.891 411.493 129.242 410.824 124.249C410.155 119.255 405.401 115.729 400.201 116.368C395.001 117.008 391.338 121.585 392.007 126.578Z" fill="#6167FF"/>
<path opacity="0.1" d="M356.915 153.64C359.11 158.211 374.082 167.658 374.082 167.658C374.082 167.658 376.342 150.577 374.147 146.006C373.024 143.79 371.089 142.092 368.745 141.265C366.401 140.439 363.829 140.548 361.563 141.57C360.45 142.039 359.443 142.728 358.603 143.595C357.762 144.462 357.105 145.49 356.671 146.617C356.237 147.744 356.035 148.947 356.077 150.153C356.119 151.36 356.404 152.546 356.915 153.64Z" fill="#6167FF"/>
<path opacity="0.1" d="M326.564 184.44C327.92 189.304 341.02 201.045 341.02 201.045C341.02 201.045 346.25 184.58 344.888 179.716C343.527 174.852 338.332 171.965 333.267 173.262C332.084 173.54 330.968 174.052 329.986 174.769C329.005 175.485 328.177 176.392 327.552 177.434C326.927 178.476 326.517 179.633 326.348 180.837C326.178 182.04 326.252 183.265 326.564 184.44Z" fill="#6167FF"/>
<path opacity="0.25" d="M436.409 108.905C433.152 112.848 416.266 118.598 416.266 118.598C416.266 118.598 418.302 101.494 421.548 97.5565C423.162 95.6541 425.444 94.4424 427.925 94.1706C430.405 93.8989 432.895 94.5877 434.883 96.0955C435.853 96.8156 436.665 97.7259 437.271 98.7706C437.876 99.8154 438.262 100.973 438.405 102.172C438.548 103.371 438.444 104.586 438.101 105.744C437.758 106.902 437.182 107.977 436.409 108.905Z" fill="black"/>
<path opacity="0.25" d="M430.616 140.115C425.65 141.717 408.224 137.727 408.224 137.727C408.224 137.727 419.605 124.437 424.57 122.829C429.536 121.221 434.918 123.797 436.585 128.568C436.973 129.717 437.126 130.932 437.034 132.142C436.943 133.351 436.608 134.53 436.051 135.608C435.494 136.685 434.726 137.64 433.792 138.414C432.858 139.188 431.778 139.767 430.616 140.115Z" fill="black"/>
<path opacity="0.25" d="M399.209 177.005C394.079 175.984 381.131 164.096 381.131 164.096C381.131 164.096 397.953 158.129 403.071 159.173C404.268 159.386 405.411 159.835 406.432 160.495C407.453 161.155 408.332 162.012 409.017 163.016C409.702 164.02 410.179 165.151 410.421 166.342C410.663 167.533 410.665 168.761 410.425 169.952C409.363 174.864 404.339 178.032 399.209 177.005Z" fill="black"/>
<path opacity="0.25" d="M368.906 199.778C363.67 199.602 348.815 189.979 348.815 189.979C348.815 189.979 364.334 181.377 369.569 181.553C374.804 181.729 378.901 185.954 378.719 190.982C378.537 196.011 374.141 199.954 368.906 199.778Z" fill="black"/>
<path opacity="0.25" d="M392.007 126.578C392.676 131.572 404.022 144.891 404.022 144.891C404.022 144.891 411.493 129.242 410.824 124.249C410.155 119.255 405.401 115.729 400.201 116.368C395.001 117.008 391.338 121.585 392.007 126.578Z" fill="black"/>
<path opacity="0.25" d="M356.915 153.64C359.11 158.211 374.082 167.658 374.082 167.658C374.082 167.658 376.342 150.577 374.147 146.006C373.024 143.79 371.089 142.092 368.745 141.265C366.401 140.439 363.829 140.548 361.563 141.57C360.45 142.039 359.443 142.728 358.603 143.595C357.762 144.462 357.105 145.49 356.671 146.617C356.237 147.744 356.035 148.947 356.077 150.153C356.119 151.36 356.404 152.546 356.915 153.64Z" fill="black"/>
<path opacity="0.25" d="M326.564 184.44C327.92 189.304 341.02 201.045 341.02 201.045C341.02 201.045 346.25 184.58 344.888 179.716C343.527 174.852 338.332 171.965 333.267 173.262C332.084 173.54 330.968 174.052 329.986 174.769C329.005 175.485 328.177 176.392 327.552 177.434C326.927 178.476 326.517 179.633 326.348 180.837C326.178 182.04 326.252 183.265 326.564 184.44Z" fill="black"/>
</g>
<g opacity="0.1">
<path opacity="0.1" d="M342.916 159.76C342.916 159.76 345.028 116.979 369.468 93.1206C379.728 83.1044 386.554 70.3011 388.514 56.377C389.428 49.7687 389.711 43.0886 389.36 36.4268" stroke="#535461" stroke-width="2" stroke-miterlimit="10"/>
<path opacity="0.1" d="M404.673 21.2822C402.953 26.035 389.008 36.8433 389.008 36.8433C389.008 36.8433 385.04 20.1086 386.742 15.3264C388.444 10.5443 393.868 8.05049 398.815 9.70518C399.971 10.0648 401.043 10.6528 401.967 11.4342C402.891 12.2157 403.648 13.1747 404.195 14.2545C404.741 15.3342 405.065 16.5126 405.147 17.7198C405.229 18.927 405.068 20.1384 404.673 21.2822Z" fill="#6167FF"/>
<path opacity="0.1" d="M409.973 52.5922C405.864 55.6904 388.027 57.4801 388.027 57.4801C388.027 57.4801 394.173 41.3086 398.305 38.2163C400.305 36.7253 402.802 36.0584 405.279 36.3532C407.757 36.6479 410.028 37.8819 411.622 39.8006C412.386 40.7356 412.951 41.8165 413.283 42.9772C413.615 44.1379 413.706 45.3541 413.552 46.5514C413.397 47.7486 413 48.9018 412.385 49.9405C411.77 50.9792 410.949 51.8815 409.973 52.5922Z" fill="#6167FF"/>
<path opacity="0.1" d="M393.075 97.4098C387.881 98.0788 371.558 90.9554 371.558 90.9554C371.558 90.9554 385.363 79.9769 390.551 79.3138C395.74 78.6508 400.529 82.1479 401.216 87.1355C401.902 92.123 398.263 96.7409 393.075 97.4098Z" fill="#6167FF"/>
<path opacity="0.1" d="M372.339 128.55C367.338 130.052 350.006 125.704 350.006 125.704C350.006 125.704 361.68 112.648 366.681 111.146C371.681 109.644 376.999 112.32 378.566 117.125C378.927 118.284 379.052 119.503 378.932 120.711C378.813 121.918 378.452 123.09 377.871 124.155C377.291 125.221 376.501 126.159 375.551 126.914C374.601 127.669 373.508 128.225 372.339 128.55Z" fill="#6167FF"/>
<path opacity="0.1" d="M368.876 52.1288C371.224 56.6234 386.531 65.5717 386.531 65.5717C386.531 65.5717 388.18 48.4321 385.827 43.9316C384.633 41.7479 382.642 40.1088 380.27 39.3557C377.897 38.6026 375.325 38.7935 373.09 39.8887C371.99 40.3939 371.004 41.1169 370.192 42.0139C369.38 42.9109 368.758 43.9633 368.364 45.1074C367.97 46.2516 367.812 47.4637 367.9 48.6706C367.988 49.8774 368.32 51.0538 368.876 52.1288Z" fill="#6167FF"/>
<path opacity="0.1" d="M345.128 88.8429C348.773 92.4574 366.158 96.5941 366.158 96.5941C366.158 96.5941 362.396 79.7656 358.751 76.151C356.964 74.4092 354.577 73.4178 352.082 73.3807C349.586 73.3436 347.172 74.2636 345.334 75.9515C344.443 76.7662 343.727 77.7542 343.232 78.8549C342.736 79.9557 342.47 81.146 342.451 82.353C342.432 83.5599 342.66 84.7581 343.12 85.8741C343.58 86.9901 344.264 88.0003 345.128 88.8429Z" fill="#6167FF"/>
<path opacity="0.1" d="M327.103 127.57C330.038 131.724 346.472 138.631 346.472 138.631C346.472 138.631 345.715 121.432 342.78 117.272C341.3 115.268 339.107 113.908 336.654 113.471C334.201 113.034 331.673 113.555 329.592 114.925C328.575 115.572 327.701 116.419 327.021 117.414C326.342 118.409 325.871 119.532 325.639 120.715C325.406 121.897 325.416 123.114 325.668 124.292C325.919 125.471 326.408 126.586 327.103 127.57Z" fill="#6167FF"/>
</g>
<path opacity="0.1" d="M218.884 285.799C224.735 285.799 229.478 285.147 229.478 284.343C229.478 283.54 224.735 282.888 218.884 282.888C213.033 282.888 208.29 283.54 208.29 284.343C208.29 285.147 213.033 285.799 218.884 285.799Z" fill="#A8A8A8"/>
<path opacity="0.1" d="M178.304 289.912C184.155 289.912 188.898 289.26 188.898 288.457C188.898 287.653 184.155 287.001 178.304 287.001C172.453 287.001 167.71 287.653 167.71 288.457C167.71 289.26 172.453 289.912 178.304 289.912Z" fill="#A8A8A8"/>
<path opacity="0.1" d="M130.504 284.343C136.355 284.343 141.098 283.692 141.098 282.888C141.098 282.085 136.355 281.433 130.504 281.433C124.653 281.433 119.91 282.085 119.91 282.888C119.91 283.692 124.653 284.343 130.504 284.343Z" fill="#A8A8A8"/>
<path opacity="0.1" d="M194.544 301.201C198.703 301.201 202.074 300.739 202.074 300.169C202.074 299.598 198.703 299.136 194.544 299.136C190.385 299.136 187.014 299.598 187.014 300.169C187.014 300.739 190.385 301.201 194.544 301.201Z" fill="#A8A8A8"/>
<path opacity="0.1" d="M152.426 300.169C156.585 300.169 159.956 299.706 159.956 299.136C159.956 298.566 156.585 298.103 152.426 298.103C148.267 298.103 144.896 298.566 144.896 299.136C144.896 299.706 148.267 300.169 152.426 300.169Z" fill="#A8A8A8"/>
<path d="M178.075 288.128C178.075 288.128 192.93 239.426 175.727 219.934C162.873 205.347 148.282 207.089 141.75 208.896C140.06 209.343 138.488 210.151 137.142 211.266C135.796 212.38 134.708 213.774 133.955 215.351C131.672 220.28 132.083 228.26 148.206 237.613C175.205 253.239 176.889 274.679 176.889 274.679L178.075 288.128Z" fill="#B5EBE1"/>
<path d="M144.097 215.803C144.097 215.803 187.894 229.492 178.075 288.128" stroke="#F8EDDF" stroke-miterlimit="10"/>
<path d="M169.676 220.708C169.676 220.708 163.648 224.774 165.568 230.877" stroke="#F8EDDF" stroke-miterlimit="10"/>
<path d="M148.505 224.305C148.505 224.305 152.191 220.556 156.675 222.627" stroke="#F8EDDF" stroke-miterlimit="10"/>
<path d="M165.802 243.181C165.802 243.181 172.258 239.896 173.949 244.009" stroke="#F8EDDF" stroke-miterlimit="10"/>
<path d="M181.819 250.029C181.819 250.029 176.96 249.642 176.872 251.965" stroke="#F8EDDF" stroke-miterlimit="10"/>
<path d="M178.674 288.515C178.674 288.515 161.277 253.127 156.493 253.896C154.228 254.266 153.177 256.495 152.708 258.743C152.121 261.642 152.451 264.653 153.653 267.356C156.135 273.007 162.756 283.78 178.674 288.515Z" fill="#B5EBE1"/>
<path d="M156.622 260.62C156.622 260.62 174.917 287.09 178.439 288.263" stroke="#F8EDDF" stroke-miterlimit="10"/>
<path d="M154.944 264.751H159.205" stroke="#F8EDDF" stroke-miterlimit="10"/>
<path d="M160.05 274.439L166.735 274.726" stroke="#F8EDDF" stroke-miterlimit="10"/>
<path d="M164.118 266.688L163.39 270.167" stroke="#F8EDDF" stroke-miterlimit="10"/>
<path d="M171.225 277.279L171.096 280.442" stroke="#F8EDDF" stroke-miterlimit="10"/>
<path d="M178.157 288.515C178.157 288.515 195.56 253.127 200.343 253.896C202.609 254.266 203.659 256.495 204.129 258.743C204.716 261.642 204.386 264.653 203.184 267.356C200.742 273.007 194.081 283.78 178.157 288.515Z" fill="#B5EBE1"/>
<path d="M200.208 260.62C200.208 260.62 181.961 287.09 178.439 288.263" stroke="#F8EDDF" stroke-miterlimit="10"/>
<path d="M201.887 264.751H197.626" stroke="#F8EDDF" stroke-miterlimit="10"/>
<path d="M196.78 274.439L190.101 274.726" stroke="#F8EDDF" stroke-miterlimit="10"/>
<path d="M192.719 266.688L193.441 270.167" stroke="#F8EDDF" stroke-miterlimit="10"/>
<path d="M185.611 277.279L185.74 280.442" stroke="#F8EDDF" stroke-miterlimit="10"/>
<path d="M148.282 296.783C147.808 296.395 147.463 295.874 147.29 295.287C147.213 294.992 147.239 294.68 147.366 294.403C147.492 294.126 147.71 293.902 147.983 293.767C148.617 293.521 149.298 293.961 149.814 294.407C150.331 294.852 150.918 295.357 151.575 295.263C151.229 294.949 150.969 294.55 150.822 294.106C150.675 293.662 150.645 293.187 150.736 292.728C150.767 292.54 150.848 292.364 150.97 292.218C151.323 291.836 151.962 292.001 152.385 292.3C153.729 293.245 154.105 295.07 154.11 296.707C154.178 296.104 154.178 295.496 154.11 294.894C154.084 294.59 154.133 294.284 154.253 294.004C154.373 293.724 154.56 293.477 154.797 293.286C155.115 293.112 155.474 293.027 155.836 293.039C156.136 292.996 156.441 293.017 156.733 293.1C157.024 293.183 157.294 293.326 157.526 293.521C157.748 293.824 157.862 294.192 157.851 294.567C157.839 294.943 157.702 295.303 157.462 295.592C156.96 296.157 156.364 296.631 155.701 296.994C155.201 297.286 154.774 297.688 154.451 298.168C154.41 298.234 154.379 298.305 154.357 298.379H150.571C149.742 297.949 148.972 297.412 148.282 296.783Z" fill="#B5EBE1"/>
<path d="M214.588 282.53C214.114 282.143 213.769 281.621 213.596 281.034C213.519 280.74 213.545 280.428 213.672 280.151C213.798 279.874 214.016 279.649 214.289 279.514C214.923 279.268 215.604 279.708 216.12 280.154C216.637 280.6 217.223 281.104 217.881 281.01C217.534 280.697 217.274 280.298 217.126 279.854C216.979 279.41 216.95 278.935 217.041 278.476C217.073 278.288 217.154 278.111 217.276 277.965C217.628 277.584 218.268 277.748 218.691 278.047C220.035 278.992 220.41 280.817 220.416 282.454C220.484 281.851 220.484 281.243 220.416 280.641C220.39 280.338 220.438 280.033 220.557 279.752C220.676 279.472 220.861 279.225 221.097 279.033C221.417 278.86 221.778 278.774 222.142 278.787C222.442 278.744 222.747 278.765 223.038 278.848C223.329 278.93 223.6 279.074 223.832 279.268C224.054 279.571 224.168 279.94 224.155 280.316C224.142 280.691 224.004 281.052 223.762 281.339C223.262 281.906 222.666 282.381 222.001 282.741C221.502 283.032 221.076 283.434 220.757 283.915C220.716 283.981 220.684 284.052 220.663 284.126H216.877C216.047 283.698 215.277 283.161 214.588 282.53Z" fill="#B5EBE1"/>
<path d="M192.49 296.783C192.016 296.395 191.67 295.874 191.498 295.287C191.421 294.992 191.447 294.68 191.573 294.403C191.7 294.126 191.918 293.902 192.191 293.767C192.825 293.521 193.505 293.961 194.022 294.407C194.538 294.852 195.125 295.357 195.783 295.263C195.435 294.949 195.175 294.551 195.028 294.107C194.881 293.662 194.852 293.187 194.943 292.728C194.975 292.54 195.056 292.364 195.178 292.218C195.53 291.836 196.17 292.001 196.593 292.3C197.937 293.245 198.312 295.07 198.318 296.707C198.386 296.104 198.386 295.496 198.318 294.894C198.292 294.59 198.34 294.285 198.459 294.005C198.578 293.725 198.763 293.478 198.999 293.286C199.319 293.112 199.68 293.027 200.044 293.039C200.344 292.997 200.649 293.017 200.94 293.1C201.231 293.183 201.502 293.326 201.734 293.521C201.956 293.824 202.07 294.193 202.057 294.568C202.044 294.944 201.906 295.304 201.664 295.592C201.164 296.159 200.568 296.633 199.903 296.994C199.404 297.285 198.978 297.687 198.659 298.168C198.618 298.234 198.586 298.305 198.565 298.379H194.779C193.949 297.95 193.179 297.414 192.49 296.783Z" fill="#B5EBE1"/>
<path d="M129.817 267.973C129.817 267.973 128.397 269.827 130.475 272.626C132.552 275.425 134.26 277.795 133.568 279.538C133.568 279.538 130.44 274.339 127.886 274.257C125.333 274.175 127.018 271.1 129.817 267.973Z" fill="#B5EBE1"/>
<path opacity="0.1" d="M129.817 267.973C129.693 268.153 129.596 268.351 129.53 268.559C127.041 271.493 125.721 274.204 128.109 274.269C130.334 274.333 133.004 278.312 133.644 279.321C133.644 279.397 133.597 279.473 133.568 279.544C133.539 279.614 130.44 274.345 127.886 274.263C125.333 274.181 127.018 271.1 129.817 267.973Z" fill="#B5EBE1"/>
<path d="M127.182 270.337C127.182 270.989 127.252 271.511 127.34 271.511C127.429 271.511 127.505 270.983 127.505 270.337C127.505 269.692 127.417 269.991 127.323 269.991C127.229 269.991 127.182 269.68 127.182 270.337Z" fill="#FFD037"/>
<path d="M126.272 271.118C126.859 271.429 127.346 271.616 127.393 271.534C127.44 271.452 127.006 271.141 126.431 270.83C125.856 270.519 126.085 270.742 126.038 270.83C125.991 270.918 125.703 270.801 126.272 271.118Z" fill="#FFD037"/>
<path d="M137.318 267.973C137.318 267.973 138.733 269.827 136.661 272.626C134.589 275.425 132.875 277.795 133.568 279.538C133.568 279.538 136.696 274.339 139.244 274.257C141.791 274.175 140.118 271.1 137.318 267.973Z" fill="#B5EBE1"/>
<path opacity="0.1" d="M137.318 267.973C137.44 268.154 137.537 268.352 137.606 268.559C140.088 271.493 141.415 274.204 139.026 274.269C136.802 274.333 134.131 278.312 133.491 279.321C133.491 279.397 133.538 279.473 133.568 279.544C133.597 279.614 136.696 274.345 139.243 274.263C141.791 274.181 140.118 271.1 137.318 267.973Z" fill="black"/>
<path d="M139.954 270.337C139.954 270.989 139.883 271.511 139.789 271.511C139.695 271.511 139.625 270.983 139.625 270.337C139.625 269.692 139.719 269.991 139.807 269.991C139.895 269.991 139.954 269.68 139.954 270.337Z" fill="#FFD037"/>
<path d="M140.875 271.118C140.288 271.429 139.801 271.616 139.76 271.534C139.719 271.452 140.147 271.141 140.722 270.83C141.297 270.519 141.069 270.742 141.11 270.83C141.151 270.918 141.462 270.801 140.875 271.118Z" fill="#FFD037"/>
<path d="M139.502 279.297C139.502 279.297 135.534 279.174 134.337 278.323C133.139 277.472 128.232 276.457 127.939 277.824C127.646 279.192 121.97 284.613 126.454 284.649C130.938 284.684 136.866 283.95 138.058 283.223C139.249 282.495 139.502 279.297 139.502 279.297Z" fill="#A8A8A8"/>
<path opacity="0.2" d="M126.372 284.156C130.856 284.191 136.784 283.457 137.975 282.73C138.885 282.178 139.249 280.189 139.372 279.274H139.501C139.501 279.274 139.249 282.472 138.057 283.199C136.866 283.927 130.932 284.66 126.454 284.625C125.157 284.625 124.693 284.156 124.734 283.451C124.916 283.909 125.409 284.156 126.372 284.156Z" fill="black"/>
<path d="M102.839 211.565L102.837 211.559C101.98 208.829 99.071 207.311 96.3401 208.168L84.1157 212.005C81.3848 212.862 79.8661 215.77 80.7234 218.5L80.7252 218.506C81.5826 221.236 84.4914 222.754 87.2222 221.897L99.4467 218.06C102.178 217.203 103.696 214.295 102.839 211.565Z" fill="#B5EBE1"/>
<path d="M382.498 64.2163C383.378 67.1501 379.464 85.5336 379.464 85.5336C379.464 85.5336 377.409 90.0577 377.803 90.486C378.196 90.9143 376.335 94.922 372.227 94.5288C368.118 94.1357 361.662 92.7685 358.434 93.3553C356.021 93.7954 349.119 91.8297 345.891 90.04C344.793 89.4533 344.13 88.8372 344.189 88.3677C344.441 86.5135 350.604 78.0993 350.604 78.0993C351.528 78.3453 352.47 78.5141 353.421 78.6039C353.68 78.6039 353.867 78.5745 353.932 78.4924C354.225 78.0993 361.075 80.5461 362.149 81.2326C363.223 81.9191 366.158 81.79 366.158 81.79C367.149 79.4199 368.504 77.2186 370.172 75.2652C371.376 73.8546 372.159 72.1347 372.432 70.3011C372.691 68.853 373.032 67.4209 373.453 66.0118C374.04 64.052 374.574 61.5112 373.888 60.5959C372.714 59.0292 361.169 41.6256 371.147 41.919C381.125 42.2123 382.985 56.0015 382.985 56.0015C382.985 56.0015 381.618 61.2824 382.498 64.2163Z" fill="#FBBEBE"/>
<path d="M337.498 80.6928L329.281 84.2134L319.743 87.1473C319.743 87.1473 297.88 69.3974 303.456 68.0772C304.427 67.8326 305.354 67.4366 306.203 66.9037C307.841 65.8392 309.327 64.5582 310.622 63.0955C312.034 61.5451 313.317 59.883 314.461 58.1256C314.461 58.1256 336.031 57.0987 332.656 62.233C331.341 64.2339 331.787 67.4846 332.82 70.706C332.879 70.8996 332.943 71.0932 333.008 71.2927C334.2 74.5627 335.703 77.7106 337.498 80.6928Z" fill="#FBBEBE"/>
<path d="M283.453 179.481C283.453 179.481 279.667 175.961 278.288 181.383C277.504 184.297 276.958 187.27 276.656 190.272C276.656 190.272 274.566 196.662 273.463 198.417C272.36 200.171 268.116 216.489 276.222 214.846C276.222 214.846 279.203 214.212 279.784 207.33C280.365 200.447 285.378 179.916 285.378 179.916L283.453 179.481Z" fill="#3F3D56"/>
<path d="M344.981 192.326C336.764 195.401 326.939 194.609 321.745 193.852C319.503 193.529 318.129 193.206 318.129 193.206L292.451 190.566L291.934 191.106L288.636 194.538L284.821 203.768C284.821 203.768 274.549 217.851 273.375 209.489C273.155 207.659 273.083 205.815 273.158 203.973C273.393 195.06 275.723 183.231 275.723 183.231L299.054 180.151L313.727 172.523L313.886 164.566L313.921 162.612L314.021 157.707L333.976 159.614L337.498 167.535L337.533 167.57C338.05 168.051 344.623 174.218 346.595 176.19C348.568 178.161 356.72 187.925 344.981 192.326Z" fill="#FBBEBE"/>
<path d="M288.366 195.195C288.366 195.195 277.889 195.635 277.214 193.758L273.968 201.497C273.968 201.497 283.506 205.165 284.826 203.768L288.366 195.195Z" fill="#B5EBE1"/>
<path d="M270 171.349C270 171.349 263.18 167.975 262.3 174.429C261.766 177.9 261.619 181.418 261.859 184.921C261.859 184.921 260.099 192.619 258.778 194.82C257.457 197.02 254.67 216.483 267.066 213.156C267.066 213.156 271.614 211.912 270.881 203.915C270.147 195.917 273.135 171.496 273.135 171.496L270 171.349Z" fill="#3F3D56"/>
<path opacity="0.1" d="M307.711 156.093L328.987 174.869C328.987 174.869 341.313 181.471 326.64 192.766C326.64 192.766 320.037 195.553 309.912 194.526C303.627 193.86 297.43 192.533 291.424 190.566C291.424 190.566 283.793 189.392 281.152 193.499C278.511 197.607 272.642 206.555 272.642 206.555C272.642 206.555 265.452 220.784 260.756 203.181L266.772 186.018C266.772 186.018 267.066 180.297 266.772 178.977C266.479 177.657 270.734 171.789 272.935 173.696C275.136 175.603 278.071 178.243 280.565 178.097C283.06 177.95 289.369 177.803 289.369 177.803L285.701 176.483C285.701 176.483 275.136 173.549 275.87 171.349C276.603 169.148 281.739 158.44 281.739 158.44L307.711 156.093Z" fill="black"/>
<path d="M325.466 192.766C324.258 193.231 323.013 193.594 321.744 193.851C317.472 194.765 313.082 194.992 308.738 194.526C303.042 193.914 297.416 192.768 291.934 191.105C290.854 190.777 290.25 190.566 290.25 190.566C290.25 190.566 282.619 189.392 279.978 193.499C278.217 196.204 275.101 201.004 273.158 203.973L271.468 206.555C271.468 206.555 264.278 220.784 259.582 203.181L265.598 186.018C265.598 186.018 265.892 180.297 265.598 178.977C265.399 178.079 267.295 175.092 269.22 173.866C270.13 173.279 271.051 173.08 271.761 173.696C273.2 175.044 274.774 176.242 276.457 177.269C277.34 177.81 278.356 178.096 279.391 178.097C281.886 177.95 288.195 177.803 288.195 177.803L284.527 176.483C282.536 175.915 280.576 175.239 278.658 174.459C276.375 173.496 274.379 172.346 274.714 171.349C275.447 169.148 280.583 158.44 280.583 158.44L306.555 156.093L313.938 162.612L317.102 165.399L327.831 174.869C327.831 174.869 340.139 181.471 325.466 192.766Z" fill="#FBBEBE"/>
<path opacity="0.1" d="M306.978 183.231C306.978 183.231 301.402 175.75 288.196 177.803" stroke="black" stroke-miterlimit="10"/>
<path opacity="0.1" d="M265.011 184.774L260.756 194.526C260.756 194.526 265.452 205.311 274.549 203.698L280.143 193.564C280.143 193.564 267.512 192.25 265.011 184.774Z" fill="black"/>
<path d="M264.425 185.361L260.169 195.113C260.169 195.113 264.865 205.898 273.962 204.284L279.556 194.151C279.556 194.151 266.925 192.837 264.425 185.361Z" fill="#B5EBE1"/>
<path opacity="0.1" d="M347.622 89.3475C347.016 89.5249 346.426 89.7566 345.861 90.0399C344.764 89.4531 344.101 88.837 344.159 88.3676C344.412 86.5134 350.574 78.0991 350.574 78.0991C351.498 78.3452 352.44 78.514 353.392 78.6038C354.384 85.0993 349.424 88.9309 347.622 89.3475Z" fill="black"/>
<path opacity="0.1" d="M337.498 81.2796L329.281 84.8002L319.743 87.7341C319.743 87.7341 297.88 69.9843 303.456 68.664C304.427 68.4194 305.354 68.0234 306.203 67.4905C309.489 71.8091 317.249 76.2921 317.249 76.2921C323.74 78.6391 329.639 74.3557 332.82 71.2693C334.027 74.7597 335.594 78.1146 337.498 81.2796Z" fill="black"/>
<path d="M346.449 89.3477C344.541 89.7878 335.884 94.7753 335.884 94.7753L330.455 104.164C330.455 104.164 330.602 109.445 330.455 112.965C330.308 116.486 326.199 116.046 326.199 116.046L326 116.128C324.949 116.568 320.019 118.639 320.019 118.686C320.019 118.733 309.912 117.659 309.912 117.659L290.103 114.432C290.103 114.432 283.793 114.139 281.739 112.085L281.681 112.026C279.697 110.002 280.448 108.541 283.647 106.071C286.846 103.6 284.38 99.7629 284.38 99.7629C284.38 99.7629 282.62 93.4551 282.62 89.6411C282.62 85.8271 280.712 85.9738 280.712 85.9738C280.712 85.9738 279.391 85.9738 285.261 82.1597C291.13 78.3457 284.527 60.5959 286.581 63.0897C288.636 65.5835 292.451 64.2632 292.744 62.7963C293.038 61.3294 299.054 64.7033 299.054 64.7033C299.054 64.7033 301.695 63.0897 302.575 64.7033C302.77 65.1344 303.118 65.478 303.552 65.6677C303.986 65.8573 304.474 65.8796 304.923 65.7302C306.39 70.571 317.249 76.8788 317.249 76.8788C326.933 80.3994 335.297 69.1041 335.297 69.1041C335.297 69.1041 338.525 69.9842 338.965 71.3162C339.406 72.6482 343.074 72.5836 343.074 72.5836C343.074 72.5836 347.476 73.0648 347.623 74.385C347.769 75.7053 352.025 77.4656 352.025 77.4656C353.785 84.6535 348.356 88.9076 346.449 89.3477Z" fill="white"/>
<path opacity="0.1" d="M326.199 114.872L326 116.128C324.949 116.568 320.019 118.639 320.019 118.686C320.019 118.733 309.912 117.659 309.912 117.659L290.103 114.432C290.103 114.432 283.793 114.139 281.739 112.085L281.68 112.026L281.739 110.911L284.967 110.325C284.967 110.325 316.661 112.085 321.063 114.139L326.199 114.872Z" fill="black"/>
<path opacity="0.1" d="M337.533 167.57C337.533 168.298 337.498 168.708 337.498 168.708C337.498 168.708 331.335 159.173 323.265 163.867C321.417 165.015 319.254 165.551 317.084 165.399C315.979 165.305 314.897 165.023 313.886 164.566C312.186 163.793 310.678 162.652 309.472 161.227C309.472 161.227 295.385 164.161 290.543 168.122C285.701 172.082 281.739 166.948 281.739 166.948C281.739 166.948 280.36 172.974 278.64 174.459C276.357 173.496 274.361 172.346 274.696 171.349C275.43 169.148 280.565 158.44 280.565 158.44L306.537 156.093L313.921 162.612L314.021 157.706L333.976 159.613L337.498 167.535L337.533 167.57Z" fill="black"/>
<path d="M284.967 111.498C284.967 111.498 316.661 113.259 321.063 115.312L326.199 116.046L325.319 121.62C325.319 121.62 333.682 130.275 336.177 131.302C338.671 132.329 337.498 167.535 337.498 167.535C337.498 167.535 331.335 158 323.264 162.694C315.194 167.388 309.471 160.054 309.471 160.054C309.471 160.054 295.385 162.987 290.543 166.948C285.701 170.909 281.739 165.775 281.739 165.775C281.739 165.775 280.125 172.816 278.217 173.549C276.31 174.283 275.869 178.977 275.869 178.977C275.869 178.977 270.587 177.95 270.587 176.337C270.587 174.723 270.44 174.136 269.413 172.963C268.386 171.789 268.239 167.975 268.239 167.975C268.239 167.975 268.826 163.574 266.919 161.814C265.011 160.054 265.158 152.572 265.158 152.572C265.158 152.572 264.272 147.731 265.158 146.558C266.044 145.384 266.625 137.463 266.625 137.463C266.625 137.463 269.56 129.248 271.174 126.168C272.788 123.087 280.565 117.806 280.565 117.806H281.428L281.721 112.085L284.967 111.498Z" fill="#B5EBE1"/>
<path d="M320.084 123.867C320.596 123.867 321.011 123.452 321.011 122.94C321.011 122.428 320.596 122.013 320.084 122.013C319.571 122.013 319.156 122.428 319.156 122.94C319.156 123.452 319.571 123.867 320.084 123.867Z" fill="#3F3D56"/>
<path d="M315.142 144.897C315.654 144.897 316.069 144.482 316.069 143.97C316.069 143.458 315.654 143.043 315.142 143.043C314.629 143.043 314.214 143.458 314.214 143.97C314.214 144.482 314.629 144.897 315.142 144.897Z" fill="#3F3D56"/>
<path d="M321.651 137.756C322.163 137.756 322.578 137.341 322.578 136.829C322.578 136.317 322.163 135.902 321.651 135.902C321.139 135.902 320.723 136.317 320.723 136.829C320.723 137.341 321.139 137.756 321.651 137.756Z" fill="#3F3D56"/>
<path opacity="0.1" d="M283.107 118.686H284.281C284.281 118.686 277.238 134.822 276.85 130.322C276.463 125.821 283.107 118.686 283.107 118.686Z" fill="black"/>
<path opacity="0.1" d="M291.523 119.86C291.523 119.86 283.5 132.182 287.415 133.942C291.33 135.702 294.845 120.446 294.845 120.446L291.523 119.86Z" fill="black"/>
<path opacity="0.1" d="M302.182 126.971C302.182 126.971 305.216 145.678 308.638 149.298C312.06 152.918 308.051 155.459 308.051 155.459C308.051 155.459 320.083 156.533 323.899 157.313C327.714 158.094 333.583 156.433 331.235 154.872C328.887 153.312 330.848 136.682 331.041 135.896C331.235 135.11 323.511 150.319 302.182 126.971Z" fill="black"/>
<path opacity="0.1" d="M289.175 104.997C289.856 104.703 300.814 89.3182 303.455 90.5562C306.097 91.7943 289.175 104.997 289.175 104.997Z" fill="black"/>
<path opacity="0.1" d="M290.543 91.4014C290.543 91.4014 286.141 98.1492 287.415 99.3228C288.689 100.496 290.543 91.4014 290.543 91.4014Z" fill="black"/>
<path opacity="0.1" d="M296.453 65.8767C296.453 65.8767 300.914 74.778 299.641 76.4386C298.367 78.0992 296.453 65.8767 296.453 65.8767Z" fill="black"/>
<path opacity="0.1" d="M346.496 78.0991C346.496 78.0991 345.616 83.2862 344.442 83.4798C343.268 83.6734 346.496 78.0991 346.496 78.0991Z" fill="black"/>
<path opacity="0.1" d="M325.366 79.7656C325.366 79.7656 337.791 82.8051 338.771 83.4857C339.752 84.1664 328.007 84.1664 325.366 79.7656Z" fill="black"/>
<path opacity="0.1" d="M371.147 88.5673C371.147 88.5673 369.586 82.5001 367.532 82.5998C365.477 82.6996 371.147 88.5673 371.147 88.5673Z" fill="black"/>
<path d="M365.729 49.0775C364.966 50.656 363.305 51.9175 363.329 53.672C363.329 54.5052 363.746 55.2738 363.916 56.0953C364.018 56.7984 363.966 57.5153 363.763 58.1962C363.561 58.8771 363.212 59.5058 362.742 60.0384C361.799 61.1023 360.601 61.9099 359.261 62.3855C358.492 62.6848 357.641 62.9723 357.172 63.6353C356.403 64.7443 357.072 66.223 357.389 67.5374C357.894 69.6556 357.06 72.302 354.988 72.9591C353.879 73.3112 352.553 73.0706 351.637 73.7806C350.721 74.4906 350.628 75.9106 350.058 76.9668C349.592 77.7667 348.839 78.3596 347.952 78.6255C347.065 78.8913 346.11 78.8102 345.281 78.3985C345.231 77.8579 345.301 77.3129 345.486 76.8025C344.855 76.9696 344.186 76.9266 343.581 76.6799C342.977 76.4332 342.469 75.9963 342.135 75.4353C341.871 74.8851 341.736 74.2818 341.741 73.6716C341.746 73.0614 341.891 72.4604 342.164 71.9147C342.721 70.8204 343.428 69.8092 344.265 68.9104C346.814 65.9402 348.957 62.6451 350.639 59.1113C352.323 55.5644 353.164 51.6768 353.099 47.7514C353.107 46.5879 352.881 45.4346 352.435 44.3599C351.878 43.2677 351.089 42.3105 350.123 41.5551C349.636 41.1327 349.119 40.7337 348.614 40.3288C348.262 40.0471 347.91 39.742 347.575 39.4721C347.118 39.0672 345.298 37.5827 345.445 36.8668C345.527 36.4561 346.76 36.5148 347.834 36.503C348.227 36.5115 348.62 36.48 349.008 36.4092C349.09 36.3943 349.171 36.3707 349.248 36.3388C349.605 36.1323 349.976 35.95 350.358 35.7931C351.449 35.4527 352.576 36.1392 353.486 36.8316C354.789 37.9117 356.162 38.9054 357.594 39.8066C359.043 40.7012 360.739 41.1122 362.437 40.9801C362.971 40.8547 363.525 40.8308 364.068 40.9097C365.107 41.1855 365.565 42.3766 365.829 43.4211C366.258 45.287 366.563 47.3407 365.729 49.0775Z" fill="#3F3D56"/>
<path d="M308.152 34.1325C307.927 34.1591 307.703 34.1982 307.483 34.2498C306.861 34.4243 306.256 34.654 305.675 34.9364C304.66 35.4592 303.679 36.0472 302.74 36.6967L295.509 41.426C294.829 41.8103 294.23 42.3247 293.748 42.9399C292.522 44.7413 293.672 47.3172 295.451 48.5847C296.272 49.1714 297.211 49.5822 298.015 50.1807C298.439 50.4548 298.799 50.8168 299.07 51.242C299.341 51.6672 299.518 52.1457 299.588 52.6451C299.676 54.1766 298.268 55.3795 296.853 55.9604C295.439 56.5413 293.854 56.7701 292.616 57.6679C292.369 57.8833 292.082 58.0469 291.77 58.149C291.402 58.1888 291.03 58.1173 290.702 57.9437C288.488 57.0209 286.352 55.92 284.316 54.6519C284.447 54.7621 284.541 54.9085 284.588 55.0725C284.635 55.2364 284.633 55.4107 284.581 55.5731C282.747 55.0096 281.065 54.04 279.659 52.7363C278.253 51.4326 277.159 49.8286 276.459 48.0436C275.758 46.2586 275.47 44.3387 275.615 42.4269C275.761 40.5151 276.335 38.6607 277.297 37.0018C278.054 35.705 279.057 34.5374 279.644 33.1702C280.231 31.803 280.454 30.1072 279.644 28.8574C279.057 27.9831 278.03 27.3963 277.725 26.393C277.42 25.3896 278.054 24.1867 278.823 23.3711C280.519 21.6108 282.861 20.5546 284.733 18.9468C286.605 17.3391 288.02 14.6751 286.958 12.4513C286.112 10.691 283.841 9.38247 284.222 7.46373C284.475 6.60039 285.06 5.87239 285.848 5.43937C287.234 4.55003 288.824 4.02932 290.468 3.92663C292.111 3.82394 293.754 4.14268 295.239 4.8526C295.128 4.41417 295.158 3.95207 295.323 3.53113C295.488 3.11019 295.781 2.75154 296.161 2.50552C296.553 2.27812 297.008 2.18327 297.459 2.23507C297.909 2.28687 298.331 2.48255 298.661 2.79304C298.92 3.12393 299.199 3.43937 299.495 3.73774C299.651 3.87751 299.855 3.95081 300.065 3.94205C300.274 3.93328 300.472 3.84313 300.616 3.6908C300.71 3.51033 300.753 3.30724 300.739 3.10402C300.778 2.02245 301.054 0.962666 301.549 0C303.665 3.07807 305.021 6.61459 305.504 10.3186C305.986 14.0226 305.582 17.7882 304.325 21.3057C303.871 22.2736 303.606 23.3191 303.544 24.3862C303.609 26.5983 305.681 28.2413 307.759 28.9924L307.87 29.0276C308.522 29.2388 309.631 29.4207 310.711 29.72C312.131 30.1131 313.499 30.7116 313.645 31.8323C313.962 33.6572 310.007 33.8802 308.152 34.1325Z" fill="#3F3D56"/>
<path d="M277.924 42.3061C276.85 43.4796 271.274 56.682 271.274 56.682C271.738 59.9151 281.592 63.7584 285.765 65.243C286.892 65.6478 287.608 65.8767 287.608 65.8767L291.617 69.3973C291.617 69.3973 287.509 92.0877 287.18 86.5134C286.851 80.9391 279.585 78.0991 279.585 78.0991C279.585 78.0991 277.683 77.3246 275.406 76.2743C272.213 74.8132 268.269 72.8299 267.776 71.7444C266.896 69.8843 265.722 69.2975 259.653 63.823C253.584 58.3484 257.599 53.8479 257.798 53.2611C258.772 50.3272 268.557 37.3772 268.557 37.3772L282.719 20.1085C282.719 20.1085 286.628 4.07206 296.454 10.327C306.279 16.582 285.261 31.5506 285.261 31.5506C285.261 31.5506 278.998 41.1325 277.924 42.3061Z" fill="#FBBEBE"/>
<path opacity="0.1" d="M291.617 69.3975C291.617 69.3975 287.509 92.0879 287.18 86.5136C286.851 80.9393 279.585 78.0993 279.585 78.0993C279.585 78.0993 277.683 77.3248 275.406 76.2745C276.14 71.0757 281.551 67.3731 285.765 65.2432C286.892 65.648 287.608 65.8769 287.608 65.8769L291.617 69.3975Z" fill="black"/>
<path d="M296.354 67.0092L292.051 63.0896C292.051 63.0896 264.219 71.8912 283.001 88.5672H290.919L298.173 78.9324L296.354 67.0092Z" fill="white"/>
<path opacity="0.1" d="M332.802 70.6825C332.861 70.8761 332.925 71.0698 332.99 71.2693C328.868 72.3113 324.528 72.0878 320.534 70.6277C316.541 69.1676 313.081 66.5387 310.604 63.0838C312.016 61.5334 313.299 59.8713 314.443 58.1139C314.443 58.1139 336.013 57.087 332.638 62.2213C331.341 64.2104 331.787 67.4611 332.802 70.6825Z" fill="black"/>
<path d="M348.937 50.1923C348.937 54.3702 347.698 58.4542 345.376 61.928C343.054 65.4018 339.754 68.1093 335.893 69.7081C332.033 71.3069 327.784 71.7252 323.685 70.9102C319.587 70.0951 315.822 68.0832 312.867 65.129C309.912 62.1748 307.899 58.4109 307.084 54.3133C306.269 50.2157 306.687 45.9684 308.286 42.1086C309.886 38.2487 312.594 34.9496 316.069 32.6285C319.543 30.3074 323.628 29.0685 327.807 29.0685C330.585 29.0577 333.338 29.5966 335.906 30.6543C338.475 31.7121 340.808 33.2676 342.773 35.2313C344.737 37.195 346.293 39.528 347.351 42.0957C348.409 44.6635 348.948 47.4152 348.937 50.1923Z" fill="#FBBEBE"/>
<path opacity="0.1" d="M348.937 50.1923C348.94 52.9992 348.381 55.7783 347.294 58.366C346.109 58.6142 344.888 58.6341 343.696 58.4247C343.217 58.3784 342.768 58.1716 342.422 57.8379C342.176 57.4926 342.028 57.0871 341.994 56.6644C341.771 55.3617 341.552 54.063 341.336 52.7682C339.435 53.5134 337.228 52.9619 335.467 51.9643C333.706 50.9668 332.157 49.5762 330.443 48.4437C328.729 47.3112 326.681 46.5074 324.667 46.8712C323.571 47.1225 322.527 47.5612 321.58 48.1679C319.627 49.2059 317.846 50.5378 316.298 52.1169C315.23 53.2904 314.296 54.6987 312.817 55.2326C311.896 55.5206 310.899 55.4361 310.04 54.9973C309.181 54.5585 308.528 53.8003 308.222 52.8856C307.91 51.8 308.122 50.6382 307.993 49.5175C307.962 49.1299 307.846 48.754 307.652 48.417C307.458 48.0801 307.191 47.7905 306.872 47.5694C307.529 42.2298 310.2 37.3424 314.34 33.9042C318.479 30.4661 323.774 28.7364 329.145 29.068C334.516 29.3997 339.559 31.7676 343.243 35.6888C346.928 39.61 348.977 44.7889 348.972 50.1688L348.937 50.1923Z" fill="black"/>
<path d="M307.957 48.9543C308.086 50.0751 307.875 51.2369 308.186 52.3224C308.492 53.2371 309.145 53.9953 310.004 54.4341C310.864 54.873 311.861 54.9575 312.782 54.6695C314.261 54.1355 315.194 52.7155 316.262 51.5537C317.81 49.9746 319.592 48.6427 321.544 47.6048C322.491 46.998 323.536 46.5593 324.632 46.308C326.645 45.9442 328.687 46.7715 330.407 47.8805C332.127 48.9895 333.647 50.3861 335.431 51.4012C337.216 52.4163 339.405 52.9503 341.301 52.2051L341.958 56.1012C341.992 56.5239 342.14 56.9295 342.387 57.2748C342.733 57.6084 343.182 57.8152 343.66 57.8615C345.117 58.119 346.615 58.0326 348.033 57.6092C348.39 57.5418 348.728 57.3977 349.024 57.187C349.32 56.9763 349.566 56.7039 349.747 56.3887C349.859 56.0922 349.918 55.7785 349.923 55.4616C350.429 47.9705 349.27 40.4601 346.53 33.4694C345.527 30.9229 344.247 28.3704 342.087 26.6981C340.818 25.7994 339.437 25.0696 337.979 24.5271C333.588 22.667 328.752 20.7717 324.168 22.1037C322.149 22.6905 320.359 23.864 318.598 25.0375L310.381 30.4887C309.944 30.7512 309.548 31.0776 309.207 31.4568C308.79 32.0396 308.49 32.697 308.321 33.3932C307.48 36.0288 306.35 38.5633 304.952 40.9508C304.624 41.418 304.407 41.9538 304.318 42.5175C304.32 43.0389 304.436 43.5536 304.658 44.0255C305.081 45.1227 305.245 45.9383 306.208 46.5838C307.17 47.2292 307.804 47.6869 307.957 48.9543Z" fill="#3F3D56"/>
<g opacity="0.1">
<path opacity="0.1" d="M296.858 54.1825C295.444 54.7693 293.859 54.9923 292.621 55.8901C292.374 56.1055 292.087 56.2691 291.775 56.3712C291.407 56.411 291.035 56.3395 290.707 56.1658C288.466 55.2295 286.307 54.1089 284.251 52.8154C284.41 52.9166 284.531 53.0678 284.595 53.2452C284.658 53.4225 284.661 53.616 284.603 53.7953C282.772 53.2223 281.091 52.2496 279.682 50.9476C278.274 49.6456 277.172 48.0469 276.456 46.267C275.987 45.0641 276.545 47.552 276.456 46.267C276.327 48.1388 275.776 46.267 276.456 48.0273C277.169 49.8047 278.267 51.4019 279.672 52.7037C281.077 54.0055 282.753 54.9796 284.58 55.5556C284.638 55.3763 284.635 55.1828 284.571 55.0055C284.507 54.8281 284.386 54.677 284.228 54.5757C286.283 55.8692 288.443 56.9898 290.684 57.9262C291.011 58.0998 291.383 58.1713 291.752 58.1315C292.063 58.0294 292.351 57.8658 292.597 57.6504C293.836 56.7526 295.42 56.5179 296.835 55.9429C298.249 55.3678 299.658 54.1825 299.57 52.6276C299.552 52.3719 299.495 52.1204 299.4 51.8824C298.884 52.9504 297.972 53.7754 296.858 54.1825Z" fill="black"/>
<path opacity="0.1" d="M303.555 22.6319C303.564 22.8833 303.599 23.1332 303.661 23.3771C303.836 22.6734 304.062 21.9831 304.336 21.3117C305.345 18.5317 305.805 15.5826 305.692 12.6274C305.603 14.9919 305.146 17.3281 304.336 19.5513C303.882 20.5193 303.617 21.5648 303.555 22.6319Z" fill="black"/>
<path opacity="0.1" d="M352.441 42.5762C351.654 40.8921 350.163 39.7714 348.725 38.6331C348.89 39.3313 349.036 40.0354 349.171 40.7454C350.463 41.7664 351.736 42.8285 352.441 44.3365C352.867 45.3572 353.091 46.4515 353.098 47.5578C353.098 47.0298 353.098 46.5017 353.098 45.9677C353.108 44.8046 352.884 43.6513 352.441 42.5762Z" fill="black"/>
<path opacity="0.1" d="M286.687 11.9761C286.863 11.1135 287.332 11.489 286.945 10.6734C286.305 9.34732 284.861 8.27939 284.351 7.01196C284.289 7.15144 284.241 7.29696 284.21 7.44618C283.828 9.36492 285.841 10.2099 286.687 11.9761C286.164 10.7204 286.81 12.2284 286.687 11.9761Z" fill="black"/>
<path opacity="0.1" d="M308.063 32.384C307.865 32.4057 307.669 32.441 307.476 32.4896C305.777 33.0445 304.176 33.8644 302.733 34.9189L295.502 39.6482C294.822 40.0325 294.224 40.5469 293.742 41.1621C293.492 41.5457 293.328 41.9784 293.26 42.4309C293.192 42.8834 293.222 43.3451 293.348 43.785C293.429 43.4771 293.562 43.1854 293.742 42.9224C294.224 42.3072 294.822 41.7928 295.502 41.4086L302.733 36.6792C304.142 35.6559 305.698 34.8509 307.347 34.291C307.599 33.6573 307.84 33.0177 308.063 32.384Z" fill="black"/>
<path opacity="0.1" d="M363.874 55.9663C363.692 56.8169 363.305 57.6103 362.748 58.2782C361.804 59.3421 360.607 60.1496 359.267 60.6253C358.498 60.9245 357.647 61.2121 357.178 61.8751C356.985 62.2068 356.866 62.5754 356.826 62.9567C356.787 63.3379 356.829 63.7232 356.949 64.0873C357.004 63.9267 357.081 63.7746 357.178 63.6354C357.647 62.9548 358.498 62.6849 359.267 62.3856C360.607 61.9099 361.804 61.1024 362.748 60.0385C363.218 59.5058 363.566 58.8772 363.769 58.1963C363.972 57.5153 364.024 56.7984 363.921 56.0954C363.91 56.0485 363.91 56.0074 363.874 55.9663Z" fill="black"/>
<path opacity="0.1" d="M365.729 47.3174C364.966 48.8959 363.305 50.1574 363.328 51.9119C363.335 52.206 363.381 52.4979 363.463 52.7803C363.868 51.46 365.101 50.3745 365.729 49.0778C366.214 47.9718 366.378 46.752 366.204 45.5571C366.145 46.1663 365.984 46.7612 365.729 47.3174Z" fill="black"/>
<path opacity="0.1" d="M342.421 57.2515C342.767 57.5851 343.216 57.7919 343.695 57.8382C345.152 58.0957 346.65 58.0093 348.068 57.5859C348.425 57.5185 348.763 57.3744 349.059 57.1637C349.354 56.953 349.601 56.6807 349.781 56.3654C349.893 56.0689 349.953 55.7552 349.958 55.4383C350.057 53.9949 350.087 52.5514 350.057 51.108C350.057 51.9647 350.016 52.8213 349.958 53.678C349.953 53.9949 349.893 54.3086 349.781 54.6051C349.601 54.9204 349.354 55.1927 349.059 55.4034C348.763 55.6141 348.425 55.7582 348.068 55.8256C346.65 56.249 345.152 56.3354 343.695 56.0779C343.216 56.0316 342.767 55.8248 342.421 55.4911C342.175 55.1458 342.027 54.7403 341.993 54.3176C341.77 53.015 341.551 51.7163 341.335 50.4215C339.434 51.1667 337.227 50.6151 335.466 49.6176C333.705 48.6201 332.156 47.2294 330.442 46.097C328.728 44.9645 326.68 44.1606 324.667 44.5244C323.57 44.7757 322.526 45.2145 321.579 45.8212C319.626 46.8591 317.845 48.191 316.297 49.7701C315.229 50.9437 314.295 52.3519 312.816 52.8859C311.895 53.1739 310.898 53.0894 310.039 52.6505C309.18 52.2117 308.527 51.4535 308.221 50.5388C307.91 49.4533 308.121 48.2915 307.992 47.1707C307.839 45.8916 307.199 45.4104 306.231 44.7767C305.262 44.143 305.104 43.3157 304.681 42.2184C304.629 42.0776 304.57 41.925 304.523 41.7783C304.425 41.9976 304.363 42.2315 304.341 42.4707C304.343 42.9922 304.459 43.5068 304.681 43.9787C305.104 45.076 305.268 45.8916 306.231 46.537C307.193 47.1825 307.816 47.6519 307.992 48.9311C308.121 50.0518 307.91 51.2136 308.221 52.2991C308.527 53.2138 309.18 53.972 310.039 54.4108C310.898 54.8497 311.895 54.9342 312.816 54.6462C314.295 54.1122 315.229 52.6923 316.297 51.5304C317.845 49.9513 319.626 48.6194 321.579 47.5815C322.526 46.9748 323.57 46.5361 324.667 46.2847C326.68 45.9209 328.722 46.7483 330.442 47.8573C332.162 48.9663 333.682 50.3628 335.466 51.3779C337.25 52.393 339.44 52.927 341.335 52.1818C341.555 53.4805 341.774 54.7792 341.993 56.0779C342.027 56.5006 342.175 56.9062 342.421 57.2515Z" fill="black"/>
<path opacity="0.1" d="M354.994 71.199C353.885 71.5511 352.558 71.3105 351.643 72.0205C350.727 72.7305 350.633 74.1505 350.064 75.2066C349.598 76.0066 348.845 76.5995 347.958 76.8653C347.071 77.1311 346.116 77.05 345.286 76.6384C345.236 76.0977 345.307 75.5528 345.492 75.0424C344.86 75.2095 344.192 75.1665 343.587 74.9198C342.982 74.6731 342.474 74.2362 342.14 73.6752C342.006 73.4336 341.906 73.175 341.841 72.9065C341.63 73.7579 341.736 74.6569 342.14 75.4355C342.474 75.9965 342.982 76.4334 343.587 76.6801C344.192 76.9268 344.86 76.9698 345.492 76.8027C345.307 77.3131 345.236 77.858 345.286 78.3987C346.116 78.8103 347.071 78.8915 347.958 78.6256C348.845 78.3598 349.598 77.7669 350.064 76.967C350.651 75.9108 350.692 74.5201 351.643 73.7808C352.594 73.0415 353.885 73.3114 354.994 72.9593C356.949 72.3373 357.8 69.9551 357.465 67.9072C357.23 69.3976 356.397 70.7531 354.994 71.199Z" fill="black"/>
</g>
<path d="M310.722 29.7258C310.047 31.2934 309.184 32.7731 308.151 34.1325C307.926 34.159 307.703 34.1982 307.482 34.2498C306.86 34.4243 306.255 34.654 305.674 34.9363C306.241 32.9088 306.981 30.9339 307.887 29.0334C308.533 29.2447 309.642 29.4266 310.722 29.7258Z" fill="#B5EBE1"/>
<path d="M350.129 41.5317C349.642 41.1093 349.125 40.7103 348.621 40.3054C348.327 39.1318 348.034 37.7295 347.84 36.4796C348.234 36.488 348.627 36.4566 349.014 36.3857C349.665 38.0286 350.041 39.767 350.129 41.5317Z" fill="#B5EBE1"/>
<path d="M505.068 106.464L500.859 115.852L499.304 116.762L488.827 122.893C488.827 122.893 475.621 121.62 475.234 121.427C474.846 121.233 474.224 110.02 477.64 107.661C477.828 107.526 478.036 107.421 478.256 107.35C480.352 106.646 481.15 103.759 481.426 101.095C481.467 100.702 481.496 100.32 481.514 99.9214C481.598 98.6749 481.598 97.4242 481.514 96.1778C481.514 96.1778 484.719 92.974 488.557 89.6587C495.36 83.791 504.158 77.6006 500.783 88.1566C500.16 90.0583 499.701 92.0095 499.41 93.9891C499.339 94.4527 499.292 94.9045 499.257 95.3328C498.846 100.532 500.472 103.336 502.11 104.827C502.286 104.991 502.468 105.132 502.644 105.267C503.358 105.832 504.184 106.24 505.068 106.464Z" fill="#CF6F80"/>
<path d="M489.414 310.66L487.947 311.341L478.069 309.093L477.189 305.596L475.915 300.55L475.035 297.064H487.707L489.338 310.05L489.414 310.66Z" fill="#CF6F80"/>
<path opacity="0.1" d="M487.947 311.341L478.069 309.093L477.189 305.573C480.933 304.452 486.386 307.603 486.386 307.603C486.028 308.847 488.839 309.856 489.321 310.026L489.397 310.613L487.947 311.341Z" fill="black"/>
<path opacity="0.1" d="M492.642 316.135L485.558 323.076L483.058 325.523L481.702 325.476C479.149 324.044 482.459 320.565 484.672 318.634C485.106 318.253 485.499 317.936 485.799 317.701C487.383 316.463 488.868 312.937 489.819 310.83L492.642 316.135Z" fill="black"/>
<path opacity="0.1" d="M489.819 310.83L492.642 316.111L485.558 323.053L483.058 325.523L481.702 325.476C479.149 324.044 482.459 320.565 484.672 318.634C485.106 318.253 485.499 317.936 485.799 317.701C487.383 316.463 488.868 312.937 489.819 310.83Z" fill="black"/>
<path opacity="0.1" d="M505.654 311.341L492.642 306.94L493.029 303.226C496.422 302.052 502.32 306.318 505.472 308.906L505.654 311.341Z" fill="black"/>
<path d="M492.642 316.722L485.558 323.663L483.058 326.11C483.058 326.11 469.458 325.623 461.887 325.523C456.288 325.447 459.58 322.536 463.425 320.119C464.775 319.268 466.189 318.482 467.31 317.895C471.613 315.648 475.034 307.627 475.034 307.627C478.262 303.519 486.386 308.213 486.386 308.213C485.992 309.58 489.414 310.66 489.414 310.66L492.642 316.722Z" fill="#3F3D56"/>
<path opacity="0.1" d="M485.558 323.663L483.058 326.11C483.058 326.11 469.458 325.623 461.887 325.523C456.288 325.447 459.58 322.536 463.425 320.119C465.497 320.588 467.58 321.586 468.285 323.64L485.558 323.663Z" fill="black"/>
<path d="M505.654 311.341L492.642 306.94L493.029 303.226L493.364 299.981L493.816 295.598H504.48L504.832 300.321L505.472 308.906L505.654 311.341Z" fill="#CF6F80"/>
<path d="M510.45 324.449C510.157 325.423 495.871 326.503 485.799 326.697C477.054 326.867 481.79 321.732 484.672 319.221C485.106 318.84 485.5 318.523 485.799 318.288C488.047 316.528 490.101 310.167 490.688 309.78C491.275 309.393 492.255 304.206 492.255 304.206C496.657 301.072 507.609 311.341 507.609 311.341L507.903 320.242C507.903 320.242 508.654 321.093 509.347 322.055C510.039 323.017 510.591 323.974 510.45 324.449Z" fill="#3F3D56"/>
<path opacity="0.1" d="M510.45 324.449C510.157 325.423 495.871 326.503 485.799 326.697C477.054 326.867 481.79 321.733 484.672 319.221C486.892 320.16 488.807 321.698 490.201 323.663H501.447C501.447 323.663 506.87 322.877 509.347 322.055C509.992 322.965 510.591 323.974 510.45 324.449Z" fill="black"/>
<path opacity="0.1" d="M487.63 297.064C487.695 298.138 487.753 298.825 487.753 298.825L475.915 300.55L475.035 297.064H487.63Z" fill="black"/>
<path opacity="0.1" d="M504.833 300.321C501.939 301.125 495.865 300.35 493.364 299.981L493.816 295.598H504.481L504.833 300.321Z" fill="black"/>
<path d="M505.461 260.292C510.838 274.867 506.635 289.73 506.635 289.73L505.948 298.631C503.501 300.585 492.255 298.631 492.255 298.631V289.437C490.494 283.469 489.907 272.714 489.907 272.714L489.221 262.838C486.679 259.791 485.141 256.032 484.819 252.077L484.719 233.3L484.038 233.987L483.745 254.33C481.884 257.557 483.938 262.545 483.938 262.545C488.34 268.02 488.44 281.709 487.753 285.623C487.067 289.536 487.753 297.652 487.753 297.652L474.354 299.605C474.354 299.605 466.524 267.826 467.211 264.986C467.897 262.146 466.724 255.991 466.724 255.991C466.724 255.991 464.376 249.536 465.156 246.016C465.937 242.495 464.763 241.128 464.57 239.561C464.376 237.994 463.002 232.127 463.002 232.127C460.561 221.178 462.709 207.876 463.906 202.049C464.288 200.177 464.57 199.074 464.57 199.074C464.57 199.074 500.959 188.512 507.122 197.314C507.852 198.378 508.414 199.547 508.789 200.781C511.8 210.293 506.506 225.179 505.555 227.339C504.481 229.78 502.233 238.875 502.233 238.875L502.034 246.602C500.766 250.223 505.461 260.292 505.461 260.292Z" fill="#3F3D56"/>
<path d="M496.064 275.26C496.281 275.26 496.457 275.084 496.457 274.867C496.457 274.65 496.281 274.474 496.064 274.474C495.847 274.474 495.671 274.65 495.671 274.867C495.671 275.084 495.847 275.26 496.064 275.26Z" fill="#6167FF"/>
<path d="M476.59 285.071C476.807 285.071 476.983 284.895 476.983 284.678C476.983 284.461 476.807 284.285 476.59 284.285C476.373 284.285 476.197 284.461 476.197 284.678C476.197 284.895 476.373 285.071 476.59 285.071Z" fill="#6167FF"/>
<path d="M475.228 278.88C475.445 278.88 475.621 278.704 475.621 278.487C475.621 278.27 475.445 278.094 475.228 278.094C475.011 278.094 474.834 278.27 474.834 278.487C474.834 278.704 475.011 278.88 475.228 278.88Z" fill="#6167FF"/>
<path d="M477.916 279.368C478.133 279.368 478.309 279.192 478.309 278.974C478.309 278.757 478.133 278.581 477.916 278.581C477.699 278.581 477.522 278.757 477.522 278.974C477.522 279.192 477.699 279.368 477.916 279.368Z" fill="#6167FF"/>
<path d="M476.765 282.683C476.982 282.683 477.158 282.507 477.158 282.29C477.158 282.073 476.982 281.897 476.765 281.897C476.548 281.897 476.372 282.073 476.372 282.29C476.372 282.507 476.548 282.683 476.765 282.683Z" fill="#6167FF"/>
<path d="M494.403 281.715C494.62 281.715 494.796 281.539 494.796 281.322C494.796 281.105 494.62 280.928 494.403 280.928C494.185 280.928 494.009 281.105 494.009 281.322C494.009 281.539 494.185 281.715 494.403 281.715Z" fill="#6167FF"/>
<path d="M502.62 283.962C502.837 283.962 503.013 283.786 503.013 283.569C503.013 283.352 502.837 283.176 502.62 283.176C502.402 283.176 502.226 283.352 502.226 283.569C502.226 283.786 502.402 283.962 502.62 283.962Z" fill="#6167FF"/>
<path d="M505.261 281.322C505.478 281.322 505.654 281.146 505.654 280.929C505.654 280.711 505.478 280.535 505.261 280.535C505.044 280.535 504.868 280.711 504.868 280.929C504.868 281.146 505.044 281.322 505.261 281.322Z" fill="#6167FF"/>
<path d="M496.85 279.761C497.068 279.761 497.244 279.585 497.244 279.368C497.244 279.151 497.068 278.975 496.85 278.975C496.633 278.975 496.457 279.151 496.457 279.368C496.457 279.585 496.633 279.761 496.85 279.761Z" fill="#6167FF"/>
<path d="M480.892 277.079C481.109 277.079 481.285 276.903 481.285 276.686C481.285 276.469 481.109 276.293 480.892 276.293C480.674 276.293 480.498 276.469 480.498 276.686C480.498 276.903 480.674 277.079 480.892 277.079Z" fill="#6167FF"/>
<path d="M484.155 279.368C484.372 279.368 484.548 279.192 484.548 278.974C484.548 278.757 484.372 278.581 484.155 278.581C483.938 278.581 483.762 278.757 483.762 278.974C483.762 279.192 483.938 279.368 484.155 279.368Z" fill="#6167FF"/>
<path d="M478.544 289.296C478.761 289.296 478.937 289.12 478.937 288.903C478.937 288.686 478.761 288.51 478.544 288.51C478.327 288.51 478.151 288.686 478.151 288.903C478.151 289.12 478.327 289.296 478.544 289.296Z" fill="#6167FF"/>
<path d="M479.894 294.037C480.111 294.037 480.287 293.861 480.287 293.644C480.287 293.427 480.111 293.251 479.894 293.251C479.677 293.251 479.501 293.427 479.501 293.644C479.501 293.861 479.677 294.037 479.894 294.037Z" fill="#6167FF"/>
<path d="M484.325 295.692C484.543 295.692 484.719 295.516 484.719 295.298C484.719 295.081 484.543 294.905 484.325 294.905C484.108 294.905 483.932 295.081 483.932 295.298C483.932 295.516 484.108 295.692 484.325 295.692Z" fill="#6167FF"/>
<path d="M481.672 295.991C481.889 295.991 482.066 295.815 482.066 295.598C482.066 295.381 481.889 295.205 481.672 295.205C481.455 295.205 481.279 295.381 481.279 295.598C481.279 295.815 481.455 295.991 481.672 295.991Z" fill="#6167FF"/>
<path d="M479.325 298.226C479.542 298.226 479.718 298.05 479.718 297.833C479.718 297.616 479.542 297.44 479.325 297.44C479.107 297.44 478.931 297.616 478.931 297.833C478.931 298.05 479.107 298.226 479.325 298.226Z" fill="#6167FF"/>
<path d="M481.285 282.29C481.502 282.29 481.678 282.114 481.678 281.897C481.678 281.679 481.502 281.503 481.285 281.503C481.068 281.503 480.892 281.679 480.892 281.897C480.892 282.114 481.068 282.29 481.285 282.29Z" fill="#6167FF"/>
<path d="M481.285 287.095C481.502 287.095 481.678 286.919 481.678 286.702C481.678 286.485 481.502 286.309 481.285 286.309C481.068 286.309 480.892 286.485 480.892 286.702C480.892 286.919 481.068 287.095 481.285 287.095Z" fill="#6167FF"/>
<path d="M483.768 290.258C483.985 290.258 484.161 290.082 484.161 289.865C484.161 289.648 483.985 289.472 483.768 289.472C483.551 289.472 483.375 289.648 483.375 289.865C483.375 290.082 483.551 290.258 483.768 290.258Z" fill="#6167FF"/>
<path d="M481.514 291.684C481.731 291.684 481.907 291.508 481.907 291.291C481.907 291.074 481.731 290.898 481.514 290.898C481.297 290.898 481.121 291.074 481.121 291.291C481.121 291.508 481.297 291.684 481.514 291.684Z" fill="#6167FF"/>
<path d="M476.977 298.226C477.194 298.226 477.37 298.05 477.37 297.833C477.37 297.616 477.194 297.44 476.977 297.44C476.76 297.44 476.584 297.616 476.584 297.833C476.584 298.05 476.76 298.226 476.977 298.226Z" fill="#6167FF"/>
<path d="M483.938 292.511C484.155 292.511 484.331 292.335 484.331 292.118C484.331 291.901 484.155 291.725 483.938 291.725C483.721 291.725 483.545 291.901 483.545 292.118C483.545 292.335 483.721 292.511 483.938 292.511Z" fill="#6167FF"/>
<path d="M502.62 278.487C502.837 278.487 503.013 278.311 503.013 278.094C503.013 277.877 502.837 277.701 502.62 277.701C502.402 277.701 502.226 277.877 502.226 278.094C502.226 278.311 502.402 278.487 502.62 278.487Z" fill="#6167FF"/>
<path d="M498.758 283.962C498.975 283.962 499.151 283.786 499.151 283.569C499.151 283.352 498.975 283.176 498.758 283.176C498.541 283.176 498.365 283.352 498.365 283.569C498.365 283.786 498.541 283.962 498.758 283.962Z" fill="#6167FF"/>
<path d="M496.064 292.077C496.281 292.077 496.457 291.901 496.457 291.684C496.457 291.467 496.281 291.291 496.064 291.291C495.847 291.291 495.671 291.467 495.671 291.684C495.671 291.901 495.847 292.077 496.064 292.077Z" fill="#6167FF"/>
<path d="M495.183 297.458C495.4 297.458 495.576 297.282 495.576 297.065C495.576 296.847 495.4 296.671 495.183 296.671C494.966 296.671 494.79 296.847 494.79 297.065C494.79 297.282 494.966 297.458 495.183 297.458Z" fill="#6167FF"/>
<path d="M499.785 280.541C500.002 280.541 500.178 280.365 500.178 280.148C500.178 279.931 500.002 279.755 499.785 279.755C499.568 279.755 499.392 279.931 499.392 280.148C499.392 280.365 499.568 280.541 499.785 280.541Z" fill="#6167FF"/>
<path d="M498.365 286.309C498.582 286.309 498.758 286.133 498.758 285.916C498.758 285.699 498.582 285.523 498.365 285.523C498.147 285.523 497.971 285.699 497.971 285.916C497.971 286.133 498.147 286.309 498.365 286.309Z" fill="#6167FF"/>
<path d="M499.538 290.651C499.756 290.651 499.932 290.475 499.932 290.258C499.932 290.041 499.756 289.865 499.538 289.865C499.321 289.865 499.145 290.041 499.145 290.258C499.145 290.475 499.321 290.651 499.538 290.651Z" fill="#6167FF"/>
<path d="M493.375 295.069C493.593 295.069 493.769 294.893 493.769 294.676C493.769 294.459 493.593 294.283 493.375 294.283C493.158 294.283 492.982 294.459 492.982 294.676C492.982 294.893 493.158 295.069 493.375 295.069Z" fill="#6167FF"/>
<path d="M496.85 293.644C497.068 293.644 497.244 293.468 497.244 293.251C497.244 293.033 497.068 292.857 496.85 292.857C496.633 292.857 496.457 293.033 496.457 293.251C496.457 293.468 496.633 293.644 496.85 293.644Z" fill="#6167FF"/>
<path d="M495.677 294.817C495.894 294.817 496.07 294.641 496.07 294.424C496.07 294.207 495.894 294.031 495.677 294.031C495.459 294.031 495.283 294.207 495.283 294.424C495.283 294.641 495.459 294.817 495.677 294.817Z" fill="#6167FF"/>
<path d="M502.62 293.11C502.837 293.11 503.013 292.934 503.013 292.717C503.013 292.499 502.837 292.323 502.62 292.323C502.402 292.323 502.226 292.499 502.226 292.717C502.226 292.934 502.402 293.11 502.62 293.11Z" fill="#6167FF"/>
<path d="M502.62 294.43C502.837 294.43 503.013 294.254 503.013 294.037C503.013 293.82 502.837 293.644 502.62 293.644C502.402 293.644 502.226 293.82 502.226 294.037C502.226 294.254 502.402 294.43 502.62 294.43Z" fill="#6167FF"/>
<path d="M498.758 297.458C498.975 297.458 499.151 297.282 499.151 297.065C499.151 296.847 498.975 296.671 498.758 296.671C498.541 296.671 498.365 296.847 498.365 297.065C498.365 297.282 498.541 297.458 498.758 297.458Z" fill="#6167FF"/>
<path d="M497.631 298.62C497.848 298.62 498.024 298.444 498.024 298.226C498.024 298.009 497.848 297.833 497.631 297.833C497.414 297.833 497.238 298.009 497.238 298.226C497.238 298.444 497.414 298.62 497.631 298.62Z" fill="#6167FF"/>
<path d="M500.319 295.069C500.536 295.069 500.712 294.893 500.712 294.676C500.712 294.459 500.536 294.283 500.319 294.283C500.102 294.283 499.926 294.459 499.926 294.676C499.926 294.893 500.102 295.069 500.319 295.069Z" fill="#6167FF"/>
<path d="M497.238 297.071C497.455 297.071 497.631 296.895 497.631 296.678C497.631 296.46 497.455 296.284 497.238 296.284C497.021 296.284 496.845 296.46 496.845 296.678C496.845 296.895 497.021 297.071 497.238 297.071Z" fill="#6167FF"/>
<path d="M504.075 292.077C504.292 292.077 504.468 291.901 504.468 291.684C504.468 291.467 504.292 291.291 504.075 291.291C503.858 291.291 503.682 291.467 503.682 291.684C503.682 291.901 503.858 292.077 504.075 292.077Z" fill="#6167FF"/>
<path d="M504.868 294.43C505.086 294.43 505.262 294.254 505.262 294.037C505.262 293.82 505.086 293.644 504.868 293.644C504.651 293.644 504.475 293.82 504.475 294.037C504.475 294.254 504.651 294.43 504.868 294.43Z" fill="#6167FF"/>
<path d="M499.145 293.644C499.362 293.644 499.538 293.468 499.538 293.251C499.538 293.033 499.362 292.857 499.145 292.857C498.928 292.857 498.752 293.033 498.752 293.251C498.752 293.468 498.928 293.644 499.145 293.644Z" fill="#6167FF"/>
<path d="M500.319 297.64C500.536 297.64 500.712 297.464 500.712 297.246C500.712 297.029 500.536 296.853 500.319 296.853C500.102 296.853 499.926 297.029 499.926 297.246C499.926 297.464 500.102 297.64 500.319 297.64Z" fill="#6167FF"/>
<path d="M502.62 297.071C502.837 297.071 503.013 296.895 503.013 296.678C503.013 296.46 502.837 296.284 502.62 296.284C502.402 296.284 502.226 296.46 502.226 296.678C502.226 296.895 502.402 297.071 502.62 297.071Z" fill="#6167FF"/>
<path d="M502.226 298.62C502.444 298.62 502.62 298.444 502.62 298.226C502.62 298.009 502.444 297.833 502.226 297.833C502.009 297.833 501.833 298.009 501.833 298.226C501.833 298.444 502.009 298.62 502.226 298.62Z" fill="#6167FF"/>
<path d="M500.319 299.013C500.536 299.013 500.712 298.837 500.712 298.619C500.712 298.402 500.536 298.226 500.319 298.226C500.102 298.226 499.926 298.402 499.926 298.619C499.926 298.837 500.102 299.013 500.319 299.013Z" fill="#6167FF"/>
<path d="M502.226 289.061C502.444 289.061 502.62 288.885 502.62 288.668C502.62 288.451 502.444 288.275 502.226 288.275C502.009 288.275 501.833 288.451 501.833 288.668C501.833 288.885 502.009 289.061 502.226 289.061Z" fill="#6167FF"/>
<path d="M475.27 292.118C475.487 292.118 475.663 291.942 475.663 291.725C475.663 291.508 475.487 291.332 475.27 291.332C475.052 291.332 474.876 291.508 474.876 291.725C474.876 291.942 475.052 292.118 475.27 292.118Z" fill="#6167FF"/>
<path d="M475.27 293.438C475.487 293.438 475.663 293.262 475.663 293.045C475.663 292.828 475.487 292.652 475.27 292.652C475.052 292.652 474.876 292.828 474.876 293.045C474.876 293.262 475.052 293.438 475.27 293.438Z" fill="#6167FF"/>
<path d="M476.725 291.091C476.942 291.091 477.118 290.915 477.118 290.698C477.118 290.481 476.942 290.305 476.725 290.305C476.508 290.305 476.332 290.481 476.332 290.698C476.332 290.915 476.508 291.091 476.725 291.091Z" fill="#6167FF"/>
<path d="M477.91 295.692C478.127 295.692 478.303 295.516 478.303 295.298C478.303 295.081 478.127 294.905 477.91 294.905C477.693 294.905 477.517 295.081 477.517 295.298C477.517 295.516 477.693 295.692 477.91 295.692Z" fill="#6167FF"/>
<path d="M477.517 293.438C477.734 293.438 477.91 293.262 477.91 293.045C477.91 292.828 477.734 292.652 477.517 292.652C477.299 292.652 477.123 292.828 477.123 293.045C477.123 293.262 477.299 293.438 477.517 293.438Z" fill="#6167FF"/>
<path d="M475.27 296.079C475.487 296.079 475.663 295.903 475.663 295.686C475.663 295.468 475.487 295.292 475.27 295.292C475.052 295.292 474.876 295.468 474.876 295.686C474.876 295.903 475.052 296.079 475.27 296.079Z" fill="#6167FF"/>
<path d="M474.876 288.075C475.093 288.075 475.269 287.899 475.269 287.682C475.269 287.465 475.093 287.289 474.876 287.289C474.659 287.289 474.483 287.465 474.483 287.682C474.483 287.899 474.659 288.075 474.876 288.075Z" fill="#6167FF"/>
<path opacity="0.1" d="M482.958 199.86L483.938 229.785L485.012 228.999L485.799 198.194L482.958 199.86Z" fill="black"/>
<path d="M466.43 159.567C466.43 159.567 459.68 153.206 458.212 156.633C456.745 160.06 453.611 165.628 453.611 165.628L461.047 172.669C461.047 172.669 462.321 170.222 463.295 170.222C464.578 170.103 465.852 169.907 467.11 169.636L466.43 159.567Z" fill="#CF6F80"/>
<path d="M471.025 133.162L466.523 166.995L464.833 164.407L459.186 155.752L460.067 146.458L460.519 130.956L460.654 126.314L471.025 133.162Z" fill="#CF6F80"/>
<path opacity="0.1" d="M500.766 88.1741C499.987 90.5009 499.475 92.9083 499.24 95.3503C497.534 97.3022 495.43 98.8661 493.069 99.937C490.708 101.008 488.145 101.561 485.552 101.558C484.169 101.557 482.791 101.4 481.444 101.089C481.605 99.4625 481.624 97.8252 481.502 96.1953C481.502 96.1953 506.048 71.6448 500.766 88.1741Z" fill="black"/>
<path d="M503.747 82.195C503.754 86.526 502.209 90.7163 499.392 94.0067C497.704 95.9773 495.618 97.5673 493.27 98.6715C490.497 99.9702 487.44 100.548 484.384 100.352C481.328 100.155 478.371 99.1909 475.787 97.5478C473.203 95.9048 471.076 93.6363 469.602 90.9525C468.128 88.2688 467.356 85.2565 467.357 82.195C467.358 81.252 467.43 80.3104 467.574 79.3785C468.28 74.8509 470.669 70.7565 474.264 67.9138C477.859 65.0711 482.395 63.6896 486.965 64.0454C491.534 64.4012 495.801 66.4682 498.913 69.833C502.024 73.1979 503.75 77.6127 503.747 82.195Z" fill="#CF6F80"/>
<path opacity="0.1" d="M465.743 135.603C463.589 133.772 461.177 132.135 460.52 130.956L460.655 126.314L471.026 133.162L466.524 166.995L464.863 164.407C464.957 162.647 465.168 160.981 465.579 160.153C466.753 157.806 465.873 154.186 465.873 153.012C465.873 151.839 467.534 149.979 467.434 149.198C467.325 147.56 467.129 145.928 466.847 144.31C466.43 142.45 468.385 137.856 465.743 135.603Z" fill="black"/>
<path opacity="0.1" d="M508.789 200.781V200.834C508.789 200.834 495.97 198.781 485.992 202.301C477.81 205.188 467.386 202.947 463.906 202.049C464.287 200.177 464.569 199.074 464.569 199.074C464.569 199.074 500.959 188.512 507.122 197.314C507.851 198.378 508.413 199.547 508.789 200.781Z" fill="black"/>
<path opacity="0.1" d="M505.068 106.464L500.859 115.852L488.827 122.893C488.827 122.893 475.621 121.62 475.234 121.426C474.846 121.233 474.224 110.02 477.64 107.661C476.678 110.372 475.627 115.876 482.764 116.339C490.468 115.197 497.412 111.067 502.092 104.844C502.93 105.628 503.954 106.186 505.068 106.464Z" fill="black"/>
<path d="M520.721 125.24L520.521 129.641L508.783 199.661C508.783 199.661 495.97 197.607 485.992 201.127C476.014 204.648 462.708 200.541 462.708 200.541C462.708 200.541 464.569 195.26 463.788 193.306C463.008 191.352 463.589 185.285 463.589 185.285C463.589 185.285 464.176 182.644 463.495 180.59C462.814 178.537 464.862 170.222 464.862 170.222C464.862 170.222 464.375 161.327 465.549 158.98C466.723 156.633 465.843 153.012 465.843 151.839C465.843 150.665 467.504 148.805 467.404 148.025C467.295 146.386 467.099 144.755 466.817 143.137C466.429 141.277 468.384 136.682 465.743 134.429C463.102 132.176 460.067 130.228 460.361 129.054C460.654 127.881 457.332 128.174 457.332 128.174C457.203 126.789 457.474 125.396 458.113 124.161C459.187 122.013 458.7 117.806 458.7 117.806C458.7 117.806 461.047 117.706 460.754 114.772C460.563 113.18 460.596 111.568 460.854 109.984C460.854 109.984 461.828 110.864 464.669 110.765C467.509 110.665 470.632 111.451 471.512 110.571C472.393 109.691 476.308 106.657 478.262 107.344C478.109 107.643 473.432 116.932 482.77 117.507C486.736 116.919 490.542 115.532 493.956 113.43C497.37 111.328 500.322 108.555 502.632 105.278C502.632 105.278 503.706 104.105 507.227 107.925C510.749 111.745 513.777 110.272 513.777 110.272L517.692 110.565C517.692 110.565 515.151 112.713 516.712 114.18C517.042 114.501 517.35 114.844 517.634 115.207C519.201 117.149 521.261 120.399 522.388 121.127C523.749 122.013 520.721 125.24 520.721 125.24Z" fill="#B5EBE1"/>
<path d="M458.505 160.934C458.505 160.934 444.126 167.975 446.667 174.623C449.208 181.271 452.83 180.397 454.984 179.611C457.138 178.824 461.047 172.669 461.047 172.669L458.505 160.934Z" fill="#CF6F80"/>
<path opacity="0.1" d="M499.052 121.579C499.052 122.207 495.384 130.128 499.052 132.182C502.72 134.236 499.052 121.579 499.052 121.579Z" fill="black"/>
<path opacity="0.1" d="M470.145 118.833C470.145 118.833 464.962 124.407 467.111 124.994C469.259 125.581 470.145 118.833 470.145 118.833Z" fill="black"/>
<path d="M505.068 129.735C505.068 129.735 507.316 143.624 507.415 147.731C507.515 151.839 508.102 158.487 508.102 158.487C508.102 158.487 509.763 174.33 507.222 180.784C504.68 187.239 505.068 194.28 505.068 194.28C505.068 194.28 497.631 208.756 496.557 210.222C495.483 211.689 497.437 225.578 505.261 219.711C513.085 213.843 512.111 201.028 512.111 201.028L514.852 192.226L518.667 180.984C518.667 180.984 519.741 174.136 520.134 172.769C520.527 171.402 520.134 163.967 520.134 163.967C520.134 163.967 524.73 126.314 518.567 122.4C512.404 118.487 505.068 129.735 505.068 129.735Z" fill="#CF6F80"/>
<path opacity="0.1" d="M505.068 134.529C505.068 134.529 514.265 124.454 517.1 125.334C519.935 126.214 520.721 125.827 520.721 125.827C520.721 125.827 521.109 120.253 516.906 118.199C512.704 116.145 508.102 109.885 504.581 117.319C501.059 124.753 505.068 134.529 505.068 134.529Z" fill="black"/>
<path d="M505.068 133.942C505.068 133.942 514.265 123.867 517.1 124.748C519.935 125.628 520.721 125.24 520.721 125.24C520.721 125.24 521.109 119.666 516.906 117.612C512.704 115.559 508.102 109.298 504.581 116.732C501.059 124.167 505.068 133.942 505.068 133.942Z" fill="#B5EBE1"/>
<path opacity="0.1" d="M517.628 115.213C516.956 115.793 516.244 116.324 515.497 116.803C513.632 118.008 511.534 118.807 509.34 119.15C507.488 119.425 505.598 119.319 503.788 118.839C502.177 118.428 500.657 117.721 499.304 116.756C497.901 115.77 496.74 114.48 495.905 112.983C495.788 112.772 495.682 112.56 495.582 112.349C493.61 108.195 494.139 103.248 493.27 98.6656C493.205 98.3429 493.135 98.0143 493.059 97.6916C492.373 94.632 490.801 91.8421 488.539 89.6704C485.399 86.6368 481.167 84.7943 476.801 82.5059C474.259 81.1681 472.105 80.106 469.217 79.7305C468.654 79.6593 468.099 79.5395 467.556 79.3726C467.993 76.596 469.067 73.9584 470.694 71.6665C472.322 69.3747 474.459 67.4912 476.937 66.1636C479.415 64.836 482.167 64.1006 484.977 64.015C487.787 63.9295 490.579 64.4961 493.133 65.6704C495.687 66.8447 497.934 68.5948 499.698 70.7833C501.462 72.9719 502.695 75.5393 503.3 78.2841C503.905 81.029 503.865 83.8766 503.184 86.6035C502.502 89.3304 501.199 91.8624 499.374 94.0008C499.304 94.4643 499.257 94.9162 499.221 95.3445C498.811 100.543 500.436 103.348 502.074 104.838C502.25 105.003 502.432 105.144 502.608 105.279C502.608 105.279 503.682 104.105 507.204 107.925C510.725 111.745 513.754 110.272 513.754 110.272L517.669 110.565C517.669 110.565 515.127 112.713 516.689 114.18C517.025 114.502 517.339 114.847 517.628 115.213Z" fill="black"/>
<path d="M465.45 71.8911C466.759 70.3361 468.707 69.5029 470.533 68.6052C472.358 67.7074 474.23 66.5984 475.111 64.7677C476.648 61.5874 474.817 57.0516 477.458 54.6693C478.72 53.5251 480.575 53.3843 482.277 53.3843C485.057 53.3071 487.831 53.6756 490.494 54.4757C494.544 55.8194 497.925 58.5831 501.529 60.8891C505.132 63.1951 509.376 65.0493 513.567 64.2279C516.014 63.7526 518.626 62.3971 520.833 63.5648C522.159 64.2689 522.916 65.7417 523.251 67.2086C523.648 68.9714 523.559 70.8088 522.993 72.5248C522.036 75.4058 519.8 77.7236 518.814 80.5929C518.45 81.655 518.28 82.8989 518.867 83.8554C519.553 84.9644 521.015 85.3164 522.318 85.2695C523.621 85.2225 524.912 84.8763 526.209 85.023C529.93 85.4455 532.079 89.6879 532.079 93.4315C532.079 97.1751 530.781 100.825 530.74 104.58C530.687 109.714 533.129 114.649 536.61 118.422C540.493 122.617 545.576 125.512 551.166 126.713C549.63 127.566 547.913 128.038 546.157 128.09C544.402 128.142 542.659 127.773 541.076 127.012C533.522 123.298 532.366 112.255 525.229 107.837C524.824 107.537 524.336 107.371 523.832 107.361C522.899 107.42 522.312 108.359 521.831 109.157C519.137 113.657 514.617 117.213 509.429 117.994C504.24 118.774 498.523 116.427 495.994 111.827C493.464 107.226 494.374 101.611 493.147 96.5355C491.017 87.7339 484.126 85.1521 476.907 81.3498C474.365 80.012 472.211 78.95 469.323 78.5744C465.643 78.0991 462.216 75.7168 465.45 71.8911Z" fill="#512E4E"/>
<g opacity="0.1">
<path opacity="0.1" d="M476.055 63.1483C477.44 60.2848 476.102 56.3241 477.734 53.8245C477.544 53.9438 477.366 54.0792 477.2 54.2293C474.588 56.6058 476.419 61.1415 474.881 64.3218C474.706 64.6655 474.496 64.99 474.253 65.29C475.009 64.7219 475.625 63.9895 476.055 63.1483Z" fill="black"/>
<path opacity="0.1" d="M541.986 125.387C534.426 121.673 533.27 110.63 526.103 106.206C525.697 105.908 525.21 105.742 524.707 105.73C523.955 105.777 523.433 106.393 523.004 107.05C523.17 106.969 523.349 106.919 523.533 106.904C524.036 106.916 524.524 107.081 524.93 107.379C532.096 111.803 533.252 122.846 540.812 126.561C542.394 127.32 544.136 127.688 545.89 127.636C547.644 127.584 549.361 127.113 550.895 126.261C550.549 126.185 550.197 126.103 549.851 126.015C547.242 126.784 544.44 126.56 541.986 125.387Z" fill="black"/>
<path opacity="0.1" d="M510.303 116.368C505.12 117.149 499.398 114.796 496.874 110.202C494.35 105.607 495.254 99.98 494.027 94.9103C491.891 86.1087 485 83.5269 477.781 79.7246C475.245 78.3809 473.085 77.3247 470.204 76.9492C466.682 76.4856 463.295 74.1737 466.248 70.4536C465.873 70.749 465.529 71.0812 465.221 71.4453C462.004 75.271 465.432 77.6533 469.03 78.1227C471.912 78.4983 474.072 79.5544 476.607 80.8982C483.826 84.7004 490.694 87.2588 492.853 96.0838C494.08 101.153 493.182 106.804 495.7 111.375C498.218 115.946 503.946 118.322 509.129 117.542C512.969 116.875 516.47 114.926 519.06 112.015C516.636 114.3 513.588 115.815 510.303 116.368Z" fill="black"/>
</g>
<path d="M79.8338 103.87C79.3936 103.87 44.7645 110.471 53.4218 98.7359C55.0644 96.5362 56.2607 94.0366 56.9434 91.3778C57.6248 88.5838 57.8036 85.691 57.4716 82.8344C57.0908 79.3881 56.1179 76.0334 54.5957 72.918C54.5957 72.918 83.2087 66.6102 78.6599 71.451C76.6761 73.5634 76.7289 80.012 77.3863 86.6015C77.7385 90.1632 78.2667 93.7601 78.7421 96.7467C79.4112 100.907 79.9747 103.87 79.8338 103.87Z" fill="#FFCCD0"/>
<path d="M50.4872 329.466C50.4872 329.466 59.4379 337.716 64.8671 338.362C70.2962 339.007 77.9263 341.348 72.7907 345.016C67.655 348.683 41.8299 347.251 41.8299 347.251C41.8299 347.251 35.849 343.343 39.042 338.414C42.2349 333.485 50.4872 329.466 50.4872 329.466Z" fill="#3F3D56"/>
<path opacity="0.1" d="M72.7907 345.016C71.8036 345.625 70.7136 346.048 69.5743 346.265C60.9757 348.313 41.8299 347.251 41.8299 347.251C41.8299 347.251 35.849 343.343 39.042 338.414C42.2349 333.485 50.4872 329.466 50.4872 329.466C50.4872 329.466 59.4379 337.716 64.8671 338.362L65.6359 338.461C70.977 339.224 77.6857 341.518 72.7907 345.016Z" fill="black"/>
<path opacity="0.1" d="M72.7908 345.016C71.8038 345.625 70.7137 346.048 69.5744 346.265L68.9875 346.236C68.9875 346.236 63.8401 342.88 65.6478 338.461C70.9772 339.224 77.6858 341.518 72.7908 345.016Z" fill="black"/>
<path d="M78.8068 328.457C78.8068 328.457 87.7575 336.672 93.1866 337.346C98.6158 338.021 106.246 340.339 101.11 344.006C95.9746 347.674 70.1495 346.236 70.1495 346.236C70.1495 346.236 64.1686 342.334 67.3615 337.434C70.5545 332.535 78.8068 328.457 78.8068 328.457Z" fill="#3F3D56"/>
<path opacity="0.1" d="M78.8068 328.457C78.8068 328.457 87.7575 336.672 93.1866 337.346C98.6158 338.021 106.246 340.339 101.11 344.006C95.9746 347.674 70.1495 346.236 70.1495 346.236C70.1495 346.236 64.1686 342.334 67.3615 337.434C70.5545 332.535 78.8068 328.457 78.8068 328.457Z" fill="black"/>
<path d="M70.0026 334.471C68.8287 335.334 66.0114 335.786 62.6014 335.985H62.5485L61.9088 336.02C61.5331 336.02 61.1458 336.056 60.7349 336.062C52.1481 336.337 41.0726 335.352 41.0726 335.352C41.0726 335.352 41.953 333.885 39.752 332.858C37.551 331.831 40.0455 330.511 40.339 328.017C40.6324 325.523 35.2268 317.602 35.2268 317.602C35.2268 317.602 31.8519 286.796 33.3544 284.302C34.857 281.809 31.8519 278.141 31.8519 278.141C31.8519 278.141 34.6398 276.674 32.6208 274.181C30.6017 271.687 31.265 262.005 32.4388 259.218C33.6127 256.431 28.7705 244.255 28.9172 241.175C29.064 238.094 27.8901 234.28 23.7816 216.677C20.9114 204.355 25.2782 194.227 28.166 189.228C28.8234 188.057 29.5649 186.935 30.3846 185.872H58.4107L59.1208 192.467L59.1561 192.831C59.3908 195.055 59.6784 197.748 60.0013 200.84C63.9161 238.053 73.4127 332.001 70.0026 334.471Z" fill="#3F3D56"/>
<path opacity="0.1" d="M70.0028 334.471C68.7292 335.393 65.6302 335.844 61.909 336.02C60.9311 335.961 59.9502 335.975 58.9744 336.061C58.9744 336.061 58.5342 335.058 53.2518 331.367C47.9693 327.676 53.2518 319.338 53.2518 319.338L47.7581 296.894C47.7581 296.894 46.3788 290.904 47.5526 287.383C48.7265 283.862 45.0229 282.982 45.0229 282.982C45.0229 282.982 48.7265 280.635 45.0229 277.554C41.3194 274.474 40.8029 263.179 40.8029 263.179C40.8029 263.179 35.5205 256.137 37.8682 253.79C40.2159 251.443 36.4009 245.869 36.4009 245.869C36.4009 245.869 30.825 237.067 31.4119 234.133C31.9989 231.2 39.9225 232.226 37.5747 222.838C35.227 213.45 49.6949 226.359 49.6949 226.359L59.1563 192.831C62.226 221.841 73.6947 331.796 70.0028 334.471Z" fill="black"/>
<path d="M84.2361 329.337C84.2361 329.337 68.3889 339.312 67.3617 337.405C66.722 336.232 64.3214 335.991 62.6017 335.985H62.5489C61.5276 335.985 60.7587 336.061 60.7587 336.061C60.7587 336.061 60.3185 335.058 55.0361 331.367C49.7537 327.676 55.0361 319.338 55.0361 319.338L49.5424 296.894C49.5424 296.894 48.1397 290.903 49.3135 287.383C50.4874 283.862 46.7838 282.982 46.7838 282.982C46.7838 282.982 50.4874 280.635 46.7838 277.554C43.0803 274.474 42.5638 263.178 42.5638 263.178C42.5638 263.178 37.2814 256.137 39.6291 253.79C41.9768 251.443 38.1618 245.869 38.1618 245.869C38.1618 245.869 32.5859 237.067 33.1728 234.133C33.7598 231.199 33.1728 231.786 30.8251 222.398C29.0643 215.321 33.6189 199.414 35.9784 192.009C36.7473 189.586 37.2814 188.072 37.2814 188.072L59.1212 192.467L81.008 196.873L81.5949 204.648L81.4306 205.88L78.4959 227.591L76.7351 246.432C76.7351 246.432 76.7351 251.86 75.8547 254.353C74.9743 256.847 76.2949 267.262 76.2949 267.262C76.2949 267.262 76.2949 269.316 74.0939 277.531C71.8929 285.746 76.0014 288.973 76.0014 288.973C76.0014 288.973 78.6426 311.71 77.7622 316.698C76.8818 321.685 84.2361 329.337 84.2361 329.337Z" fill="#3F3D56"/>
<path opacity="0.1" d="M52.0309 274.767C54.2319 275.137 65.6008 275.354 62.5957 276.751C59.5906 278.147 52.0309 274.767 52.0309 274.767Z" fill="black"/>
<path opacity="0.1" d="M50.7805 282.178C51.6609 282.102 55.699 280.342 56.7966 280.488C57.8942 280.635 59.3674 280.177 60.688 280.488C62.0086 280.799 64.4796 281.662 63.0944 282.184C61.7092 282.706 58.8098 282.254 57.1429 282.771C55.476 283.287 50.7805 282.178 50.7805 282.178Z" fill="black"/>
<path opacity="0.1" d="M38.7485 279.098C39.3355 279.021 43.8842 277.848 43.5203 279.098C43.1564 280.348 38.7485 279.098 38.7485 279.098Z" fill="black"/>
<path opacity="0.1" d="M31.4882 242.278C31.9284 242.865 34.4933 248.732 35.7434 248.732C36.9936 248.732 31.4882 242.278 31.4882 242.278Z" fill="black"/>
<path opacity="0.1" d="M78.6601 71.451C76.6763 73.5634 76.7291 80.012 77.3865 86.6015C75.4159 87.124 73.3857 87.3883 71.3469 87.3877C66.1408 87.3877 65.73 80.8218 61.8386 77.9642C61.2223 72.2432 54.5958 72.918 54.5958 72.918C54.5958 72.918 83.2089 66.6102 78.6601 71.451Z" fill="black"/>
<path d="M94.8243 62.7434C94.8213 68.6984 92.5542 74.4297 88.4823 78.776C84.4104 83.1224 78.8382 85.7589 72.8945 86.1515C66.9508 86.544 61.08 84.6632 56.4716 80.8901C51.8632 77.1169 48.8617 71.7336 48.0751 65.8308C47.2886 59.9279 48.7759 53.9468 52.2357 49.0992C55.6954 44.2517 60.869 40.9001 66.7083 39.7235C72.5475 38.5469 78.6158 39.6333 83.6838 42.7625C88.7517 45.8917 92.4404 50.8298 94.0026 56.5764C94.549 58.5865 94.8253 60.6604 94.8243 62.7434Z" fill="#FFCCD0"/>
<path opacity="0.1" d="M79.8338 103.87C79.3936 103.87 44.7645 110.471 53.4218 98.736C55.0644 96.5364 56.2607 94.0367 56.9434 91.3779C63.9455 89.1423 72.5265 92.8683 72.5265 92.8683L76.4883 95.8022C77.2764 96.0473 78.0406 96.3635 78.7715 96.7469C79.4112 100.907 79.9747 103.87 79.8338 103.87Z" fill="black"/>
<path opacity="0.1" d="M81.5947 204.648L81.4304 205.88C80.4972 206.197 76.2067 207.388 65.9471 203.181C64.2978 202.506 62.2611 201.708 60.0014 200.834C52.7176 198.047 43.0449 194.538 35.9782 192.033C32.5916 190.818 29.8037 189.826 28.1661 189.251C28.8236 188.08 29.565 186.959 30.3847 185.895H58.4108L59.121 192.49L81.0078 196.874L81.5947 204.648Z" fill="black"/>
<path d="M72.4973 93.4551C72.4973 93.4551 56.9435 86.7072 50.634 96.829C44.3245 106.951 41.5365 112.965 41.5365 112.965C41.5365 112.965 40.6561 119.713 39.042 121.327C37.428 122.94 41.9767 151.986 41.9767 151.986C41.9767 151.986 36.5476 163.134 41.3898 165.112C46.232 167.089 40.9496 168.709 40.9496 168.709C40.9496 168.709 42.4169 172.082 39.629 172.376C36.841 172.669 35.227 177.803 35.227 177.803L26.5697 187.485C26.5697 187.485 54.8423 197.46 65.9471 202.008C77.0519 206.555 81.1546 204.795 81.5948 204.648C82.035 204.502 88.7847 186.018 88.7847 186.018C88.7847 186.018 88.4912 180.884 90.9857 179.124C93.4802 177.363 90.9857 139.37 90.9857 139.37L90.1288 115.647C90.0233 111.994 88.9861 108.429 87.1156 105.29C85.2451 102.151 82.6032 99.5412 79.4407 97.7092C78.4983 97.1611 77.4984 96.7184 76.4591 96.389L72.4973 93.4551Z" fill="#B5EBE1"/>
<path d="M87.9043 133.942L90.9857 139.37C90.9857 139.37 66.3345 146.411 65.366 139.663C65.2193 138.678 74.9917 130.862 74.9917 130.862L87.9043 133.942Z" fill="#A3D4CB"/>
<path opacity="0.1" d="M87.9043 133.942L90.9857 139.37C90.9857 139.37 66.3345 146.411 65.366 139.663C65.2193 138.678 74.9917 130.862 74.9917 130.862L87.9043 133.942Z" fill="#B5EBE1"/>
<path opacity="0.1" d="M45.9385 163.281C45.9385 163.281 57.6772 159.467 55.1827 162.547C52.6882 165.628 45.9385 163.281 45.9385 163.281Z" fill="black"/>
<path opacity="0.1" d="M59.3323 164.137C59.3323 164.137 65.3366 171.636 66.7746 168.832C68.2126 166.027 59.3323 164.137 59.3323 164.137Z" fill="black"/>
<path opacity="0.1" d="M94.0023 56.5765C93.2193 57.3722 92.5264 58.2518 91.9363 59.1994C89.882 62.4266 88.3443 62.5029 88.3443 62.5029C88.3443 62.5029 88.3443 69.4855 87.3934 70.2131C86.4426 70.9407 81.0076 67.1208 80.9372 66.1702C80.8667 65.2196 74.2285 54.8749 71.3466 68.0009L70.8067 78.6391C70.8067 78.6391 61.2983 79.8126 56.4327 80.8747C53.58 78.5295 51.3211 75.5445 49.8395 72.1624C48.3578 68.7802 47.6952 65.0963 47.9055 61.41C48.1158 57.7237 49.1931 54.139 51.0498 50.9472C52.9065 47.7554 55.4902 45.0466 58.5911 43.0408C61.6919 41.035 65.2223 39.7889 68.8955 39.4037C72.5687 39.0185 76.2809 39.5051 79.7306 40.8239C83.1803 42.1428 86.27 44.2566 88.7488 46.9938C91.2276 49.7309 93.0255 53.0141 93.9964 56.5765H94.0023Z" fill="black"/>
<path d="M78.9534 33.2405H80.7905L79.869 33.9739H82.2578V34.8541L84.2358 35.658V36.2447L86.0729 36.6144L85.6327 37.8584H88.8608L88.491 39.2725L90.692 40.2817V41.8191C90.692 41.8191 92.893 42.8459 93.6267 42.8459C94.3604 42.8459 95.5753 43.509 94.8006 43.8728C94.0258 44.2366 95.3875 44.6825 96.0273 44.7529C96.667 44.8233 97.4946 45.5627 97.1248 45.8561L96.7609 46.1494C96.7609 46.1494 98.7389 47.8335 99.1087 47.8335C99.4784 47.8335 99.4726 49.23 99.1087 49.3767C98.7448 49.5234 97.3479 50.3272 98.5217 51.0607C99.6956 51.7942 99.5489 53.1907 98.8152 53.1907C98.0815 53.1907 97.7881 52.2343 97.7118 53.5545C97.6355 54.8747 96.5379 56.5646 96.3912 55.2444C96.2444 53.9242 93.973 55.3911 91.9187 58.6183C89.8645 61.8456 88.3208 61.916 88.3208 61.916C88.3208 61.916 88.3208 68.8986 87.37 69.6262C86.4192 70.3538 80.9841 66.5397 80.9137 65.5833C80.8433 64.6269 74.2051 54.288 71.3232 67.4199L70.7891 78.0522C70.7891 78.0522 54.9419 80.0355 53.6917 81.1327C52.4416 82.23 33.6362 67.0502 40.9729 51.1076C48.3095 35.1651 49.8767 33.7979 55.2588 31.9437C60.641 30.0895 74.1581 29.8372 78.9534 33.2405Z" fill="#3F3D56"/>
<path d="M66.6281 136.436C66.6281 136.436 66.4814 148.318 65.4542 151.252C64.4271 154.186 72.4974 181.618 72.4974 181.618C72.4974 181.618 78.9537 196.081 77.7798 200.541C76.606 205 78.22 233.547 87.9045 226.506C97.5889 219.464 90.3989 196.433 90.3989 196.433C90.3989 196.433 87.3175 183.607 87.3175 182.028C87.3175 180.45 84.0894 156.68 84.0894 156.68C84.0894 156.68 81.5949 148.905 82.3286 144.211C83.0623 139.517 83.3557 130.862 83.3557 130.862L66.6281 136.436Z" fill="#FFCCD0"/>
<path opacity="0.1" d="M76.4588 114.139C76.4588 114.139 64.6849 117.953 64.1919 128.368C63.6989 138.783 64.1919 139.663 64.1919 139.663C64.1919 139.663 81.7412 130.862 89.8116 139.37L88.984 116.339L76.4588 114.139Z" fill="black"/>
<path d="M77.6333 114.139C77.6333 114.139 65.8594 117.953 65.3663 128.368C64.8733 138.783 65.3663 139.663 65.3663 139.663C65.3663 139.663 82.9157 130.862 90.986 139.37L90.1584 116.339L77.6333 114.139Z" fill="#B5EBE1"/>
<g opacity="0.1">
<path opacity="0.1" d="M93.4625 42.8345C93.1984 43.1631 94.2901 43.5151 94.877 43.5797C94.9369 43.5878 94.9958 43.6015 95.0531 43.6208C95.0942 43.2628 94.2138 42.8462 93.6268 42.8462L93.4625 42.8345Z" fill="black"/>
<path opacity="0.1" d="M89.5186 40.6458C89.5186 40.6458 90.0585 40.8981 90.6924 41.1504V40.282L89.5186 39.7422V40.6458Z" fill="black"/>
<path opacity="0.1" d="M95.9099 44.7532L95.6106 44.9938C95.6106 44.9938 96.2856 45.5805 96.9253 46.0499L97.1484 45.8739C97.5181 45.5805 96.7082 44.8471 96.0508 44.7708L95.9099 44.7532Z" fill="black"/>
<path opacity="0.1" d="M87.3177 38.1051L88.6384 38.7036L88.8555 37.8586H87.3823L87.3177 38.1051Z" fill="black"/>
<path opacity="0.1" d="M70.1732 66.2465L69.6391 76.8788C69.6391 76.8788 53.7918 78.8621 52.5417 79.9593C52.1543 80.3055 50.0472 79.0557 47.5586 76.691C50.5285 79.8068 53.2636 81.5319 53.7155 81.1329C54.9657 80.0356 70.8129 78.0523 70.8129 78.0523L71.347 67.42C73.0315 59.7216 76.0425 60.0913 78.2024 61.9044C76.0425 59.3637 72.204 57.0753 70.1732 66.2465Z" fill="black"/>
<path opacity="0.1" d="M98.5456 51.061C97.3718 50.3275 98.7628 49.5237 99.1326 49.377C99.5023 49.2303 99.4965 47.8338 99.1326 47.8338C98.7996 47.7159 98.4926 47.5346 98.2287 47.2998C98.2287 47.6871 98.1524 48.1213 97.9587 48.2034C97.5889 48.3501 96.1979 49.154 97.3718 49.8875C98.5456 50.6209 98.3989 52.0175 97.6652 52.0175C96.9316 52.0175 96.6381 51.061 96.5618 52.3812C96.4855 53.7015 95.3879 55.3914 95.2412 54.0712C95.0945 52.7509 92.823 54.2178 90.7688 57.4451C88.7145 60.6723 87.1709 60.7427 87.1709 60.7427C87.1709 60.7427 87.1709 67.7253 86.22 68.4529C85.5568 68.9517 82.7747 67.2794 81.0844 65.9063C81.9471 67.1855 86.5194 70.2895 87.3939 69.6265C88.2684 68.9634 88.3447 61.9163 88.3447 61.9163C88.3447 61.9163 89.8884 61.8459 91.9426 58.6186C93.9969 55.3914 96.2683 53.9245 96.4151 55.2447C96.5618 56.5649 97.6652 54.875 97.7357 53.5548C97.8061 52.2346 98.1054 53.191 98.8391 53.191C99.5728 53.191 99.7195 51.7945 98.5456 51.061Z" fill="black"/>
<path opacity="0.1" d="M84.4532 36.6851H86.0438L86.0673 36.6147L84.5882 36.3154L84.4532 36.6851Z" fill="black"/>
<path opacity="0.1" d="M82.2524 34.156V33.9741H81.8004L82.2524 34.156Z" fill="black"/>
</g>
<path d="M97.2426 214.952C97.2426 214.952 145.571 141.57 202.503 183.231C259.436 224.892 273.423 251.296 321.017 236.627C368.612 221.958 366.845 193.124 404.409 203.727C441.972 214.33 454.985 179.611 454.985 179.611" stroke="#B5EBE1" stroke-width="4" stroke-miterlimit="10"/>
<path d="M459.579 165.698L459.574 165.696C456.945 164.563 453.896 165.775 452.763 168.402L447.691 180.165C446.558 182.793 447.77 185.842 450.398 186.974L450.404 186.977C453.032 188.109 456.081 186.897 457.215 184.27L462.287 172.507C463.42 169.879 462.208 166.831 459.579 165.698Z" fill="#B5EBE1"/>
</svg>
