<svg width="572" height="350" viewBox="0 0 572 350" fill="none" xmlns="http://www.w3.org/2000/svg">
<path d="M0.184204 349.222H1.69279C1.69279 330.447 9.16307 312.442 22.4601 299.166C35.7572 285.89 53.7919 278.432 72.5968 278.432C91.4017 278.432 109.436 285.89 122.733 299.166C136.03 312.442 143.501 330.447 143.501 349.222H145.009C145.009 330.048 137.38 311.659 123.8 298.101C110.22 284.543 91.8018 276.926 72.5968 276.926C53.3918 276.926 34.9734 284.543 21.3934 298.101C7.8134 311.659 0.184204 330.048 0.184204 349.222Z" fill="#C6BEB4"/>
<path d="M177.444 176.765H178.953C178.953 105.342 237.154 47.2346 308.692 47.2346C380.23 47.2346 438.431 105.342 438.431 176.765H439.939C439.939 104.511 381.062 45.7284 308.692 45.7284C236.321 45.7284 177.444 104.511 177.444 176.765Z" fill="#C6BEB4"/>
<path d="M38.7946 59.4938C22.3394 59.4938 8.99987 46.1757 8.99987 29.7469C8.99987 13.3181 22.3394 0 38.7946 0C55.2498 0 68.5894 13.3181 68.5894 29.7469C68.5894 46.1757 55.2498 59.4938 38.7946 59.4938Z" fill="#FF6584"/>
<path d="M553.92 224.499L502.733 163.637H402.096L340.595 223.444L341.837 224.241H341.393V348.64H553.85V224.241L553.92 224.499Z" fill="#FFF3E5"/>
<path d="M523.124 198.039H511.521V157.938H523.124V198.039Z" fill="#FFF3E5"/>
<path d="M503.531 162.839L440.434 236.697V348.64H553.85V222.646L503.531 162.839Z" fill="#B5EBE1"/>
<path d="M455.015 251.354H478.177V275H455.015V251.354Z" fill="#3F3D56"/>
<path d="M455.015 283.528H478.177V307.174H455.015V283.528Z" fill="#3F3D56"/>
<path d="M455.015 251.354H478.177V275H455.015V251.354Z" fill="white"/>
<path d="M455.015 283.528H478.177V307.174H455.015V283.528Z" fill="white"/>
<path d="M487.049 251.354H510.211V275H487.049V251.354Z" fill="#3F3D56"/>
<path d="M487.049 283.528H510.211V307.174H487.049V283.528Z" fill="#3F3D56"/>
<path d="M487.049 251.354H510.211V275H487.049V251.354Z" fill="white"/>
<path d="M487.049 283.528H510.211V307.174H487.049V283.528Z" fill="white"/>
<path d="M519.083 251.354H542.245V275H519.083V251.354Z" fill="#3F3D56"/>
<path d="M519.083 283.528H542.245V307.174H519.083V283.528Z" fill="#3F3D56"/>
<path d="M519.083 251.354H542.245V275H519.083V251.354Z" fill="white"/>
<path d="M519.083 283.528H542.245V307.174H519.083V283.528Z" fill="white"/>
<path d="M293.606 20.1235H304.166V46.4815H293.606V20.1235Z" fill="#B5EBE1"/>
<path d="M294.36 44.2222H384.121V349.222H294.36V44.2222Z" fill="#B5EBE1"/>
<path d="M258.154 44.2222H294.36V349.222H258.154V44.2222Z" fill="#FFF3E5"/>
<path d="M354.326 70.5802H367.904V84.1357H354.326V70.5802Z" fill="white"/>
<path d="M332.452 70.5802H346.029V84.1357H332.452V70.5802Z" fill="white"/>
<path d="M310.577 70.5802H324.155V84.1357H310.577V70.5802Z" fill="white"/>
<path d="M353.949 101.457H367.527V115.012H353.949V101.457Z" fill="white"/>
<path d="M332.075 101.457H345.652V115.012H332.075V101.457Z" fill="white"/>
<path d="M310.2 101.457H323.778V115.012H310.2V101.457Z" fill="white"/>
<path d="M353.572 132.333H367.15V145.889H353.572V132.333Z" fill="white"/>
<path d="M331.698 132.333H345.275V145.889H331.698V132.333Z" fill="white"/>
<path d="M309.823 132.333H323.4V145.889H309.823V132.333Z" fill="white"/>
<path d="M353.195 163.21H366.772V176.765H353.195V163.21Z" fill="white"/>
<path d="M331.321 163.21H344.898V176.765H331.321V163.21Z" fill="white"/>
<path d="M309.446 163.21H323.023V176.765H309.446V163.21Z" fill="white"/>
<path d="M352.818 194.086H366.396V207.642H352.818V194.086Z" fill="white"/>
<path d="M330.943 194.086H344.521V207.642H330.943V194.086Z" fill="white"/>
<path d="M309.069 194.086H322.646V207.642H309.069V194.086Z" fill="white"/>
<path d="M352.441 224.963H366.018V238.518H352.441V224.963Z" fill="white"/>
<path d="M330.566 224.963H344.144V238.518H330.566V224.963Z" fill="white"/>
<path d="M308.692 224.963H322.269V238.518H308.692V224.963Z" fill="white"/>
<path d="M352.064 255.839H365.641V269.395H352.064V255.839Z" fill="white"/>
<path d="M330.189 255.839H343.767V269.395H330.189V255.839Z" fill="white"/>
<path d="M308.314 255.839H321.892V269.395H308.314V255.839Z" fill="white"/>
<path d="M351.687 286.716H365.264V300.272H351.687V286.716Z" fill="white"/>
<path d="M329.812 286.716H343.389V300.272H329.812V286.716Z" fill="white"/>
<path d="M329.812 322.864H343.389V348.469H329.812V322.864Z" fill="white"/>
<path d="M307.937 286.716H321.515V300.272H307.937V286.716Z" fill="white"/>
<path d="M288.325 20.1235H294.36V45.7285H288.325V20.1235Z" fill="#FFF3E5"/>
<path d="M180.461 154.173H191.021V169.795H180.461V154.173Z" fill="#B5EBE1"/>
<path d="M181.216 168.456H270.977V349.222H181.216V168.456Z" fill="#B5EBE1"/>
<path d="M145.009 168.456H181.215V349.222H145.009V168.456Z" fill="#FFF3E5"/>
<path d="M239.673 194.086H253.251V207.642H239.673V194.086Z" fill="white"/>
<path d="M217.799 194.086H231.376V207.642H217.799V194.086Z" fill="white"/>
<path d="M195.924 194.086H209.501V207.642H195.924V194.086Z" fill="white"/>
<path d="M239.296 224.963H252.874V238.518H239.296V224.963Z" fill="white"/>
<path d="M217.422 224.963H230.999V238.518H217.422V224.963Z" fill="white"/>
<path d="M195.547 224.963H209.125V238.518H195.547V224.963Z" fill="white"/>
<path d="M238.919 255.839H252.497V269.395H238.919V255.839Z" fill="white"/>
<path d="M217.044 255.839H230.622V269.395H217.044V255.839Z" fill="white"/>
<path d="M195.17 255.839H208.747V269.395H195.17V255.839Z" fill="white"/>
<path d="M238.542 286.716H252.119V300.272H238.542V286.716Z" fill="white"/>
<path d="M216.667 286.716H230.245V300.272H216.667V286.716Z" fill="white"/>
<path d="M216.667 322.864H230.245V348.469H216.667V322.864Z" fill="white"/>
<path d="M194.793 286.716H208.37V300.272H194.793V286.716Z" fill="white"/>
<path d="M175.181 154.173H181.215V169.348H175.181V154.173Z" fill="#FFF3E5"/>
<path d="M0 348.294H554.071V350H0V348.294Z" fill="#C6BEB4"/>
<path d="M117.357 313.888C106.509 313.888 97.7144 305.108 97.7144 294.277C97.7144 283.447 106.509 274.667 117.357 274.667C128.205 274.667 136.999 283.447 136.999 294.277C136.999 305.108 128.205 313.888 117.357 313.888Z" fill="#B5EBE1"/>
<path opacity="0.2" d="M102.746 281.179C100.913 285.458 100.665 290.248 102.044 294.693C103.424 299.138 106.342 302.948 110.276 305.443C114.211 307.938 118.905 308.955 123.522 308.313C128.138 307.67 132.375 305.409 135.476 301.934C134.356 304.549 132.681 306.889 130.566 308.792C128.451 310.696 125.947 312.118 123.227 312.96C120.507 313.801 117.636 314.042 114.814 313.666C111.991 313.29 109.284 312.306 106.88 310.781C104.476 309.257 102.433 307.229 100.893 304.838C99.3517 302.447 98.3499 299.75 97.9566 296.935C97.5633 294.119 97.7879 291.251 98.6148 288.531C99.4418 285.81 100.851 283.302 102.746 281.179Z" fill="black"/>
<path d="M117.303 294.278H117.249L116.278 349.877H118.328L117.303 294.278Z" fill="#C6BEB4"/>
<path d="M113.726 324.562L114.179 323.704L117.426 325.411L116.973 326.269L113.726 324.562Z" fill="#C6BEB4"/>
<path d="M59.6088 295.15C43.1123 295.15 29.7391 281.798 29.7391 265.328C29.7391 248.858 43.1123 235.506 59.6088 235.506C76.1054 235.506 89.4785 248.858 89.4785 265.328C89.4785 281.798 76.1054 295.15 59.6088 295.15Z" fill="#B5EBE1"/>
<path opacity="0.2" d="M37.39 245.409C34.6038 251.916 34.2258 259.2 36.3236 265.96C38.4214 272.719 42.8582 278.514 48.8413 282.308C54.8243 286.102 61.9637 287.648 68.9837 286.671C76.0036 285.693 82.4467 282.255 87.1616 276.972C85.4596 280.947 82.9123 284.506 79.6961 287.401C76.4799 290.295 72.6717 292.458 68.5354 293.737C64.3991 295.017 60.0336 295.384 55.7414 294.812C51.4491 294.24 47.3327 292.743 43.6774 290.425C40.0221 288.107 36.9152 285.023 34.5721 281.387C32.229 277.751 30.7056 273.651 30.1076 269.369C29.5095 265.087 29.851 260.726 31.1085 256.589C32.366 252.452 34.5093 248.637 37.39 245.409Z" fill="black"/>
<path d="M59.5268 265.328H59.4446L57.9677 349.877H61.0859L59.5268 265.328Z" fill="#C6BEB4"/>
<path d="M54.0878 311.381L54.7759 310.076L59.7134 312.672L59.0253 313.977L54.0878 311.381Z" fill="#C6BEB4"/>
<path d="M152.944 15.6225L146 10.0777C151.394 9.48347 153.611 12.4207 154.518 14.7456C158.732 12.9984 163.32 15.2881 163.32 15.2881L149.427 20.3238C150.128 18.4547 151.348 16.8239 152.944 15.6225Z" fill="#3F3D56"/>
<path d="M561.069 45.9812L554.125 40.4364C559.52 39.8422 561.736 42.7795 562.643 45.1043C566.858 43.3572 571.445 45.6469 571.445 45.6469L557.552 50.6826C558.253 48.8135 559.473 47.1826 561.069 45.9812Z" fill="#3F3D56"/>
<path d="M57.9437 54.6225L50.9999 49.0777C56.3942 48.4835 58.6107 51.4207 59.5178 53.7456C63.732 51.9984 68.3198 54.2881 68.3198 54.2881L54.4265 59.3238C55.1274 57.4547 56.3475 55.8239 57.9437 54.6225Z" fill="#3F3D56"/>
<path d="M503.743 30.9196L496.799 25.3748C502.193 24.7806 504.41 27.7178 505.317 30.0427C509.531 28.2955 514.119 30.5852 514.119 30.5852L500.226 35.6209C500.927 33.7518 502.147 32.121 503.743 30.9196Z" fill="#3F3D56"/>
<path d="M490.92 91.1664L483.976 85.6216C489.37 85.0274 491.587 87.9647 492.494 90.2895C496.708 88.5423 501.296 90.8321 501.296 90.8321L487.403 95.8678C488.103 93.9987 489.324 92.3678 490.92 91.1664Z" fill="#3F3D56"/>
<path d="M220.881 122.796L213.937 117.251C219.332 116.657 221.548 119.594 222.455 121.919C226.67 120.172 231.257 122.462 231.257 122.462L217.364 127.497C218.065 125.628 219.285 123.997 220.881 122.796Z" fill="#3F3D56"/>
<path d="M363.755 339.432C365.601 339.432 367.414 339.917 369.012 340.84C370.635 339.375 372.649 338.412 374.809 338.067C376.97 337.722 379.184 338.012 381.183 338.899C383.183 339.787 384.881 341.234 386.072 343.067C387.263 344.899 387.895 347.038 387.893 349.222H353.233C353.422 346.564 354.612 344.077 356.565 342.26C358.517 340.444 361.086 339.433 363.755 339.432Z" fill="#C6BEB4"/>
<path d="M246.839 339.432C248.685 339.432 250.498 339.917 252.096 340.84C253.719 339.375 255.733 338.412 257.893 338.067C260.054 337.722 262.268 338.012 264.267 338.899C266.267 339.787 267.965 341.234 269.156 343.067C270.347 344.899 270.979 347.038 270.977 349.222H236.317C236.506 346.564 237.696 344.077 239.649 342.26C241.601 340.444 244.17 339.433 246.839 339.432Z" fill="#C6BEB4"/>
<path d="M92.9625 339.432C94.8083 339.432 96.6217 339.917 98.2196 340.84C99.8424 339.375 101.856 338.412 104.017 338.067C106.177 337.722 108.392 338.012 110.391 338.899C112.39 339.787 114.088 341.234 115.279 343.067C116.47 344.899 117.103 347.038 117.1 349.222H82.4403C82.6292 346.564 83.8197 344.077 85.7721 342.26C87.7245 340.444 90.2937 339.433 92.9625 339.432Z" fill="#C6BEB4"/>
<path d="M19.0417 339.432C20.8876 339.432 22.7009 339.917 24.2988 340.84C25.9216 339.375 27.9355 338.412 30.0961 338.067C32.2566 337.722 34.4709 338.012 36.4701 338.899C38.4693 339.787 40.1674 341.234 41.3584 343.067C42.5493 344.899 43.1819 347.038 43.1792 349.222H8.51965C8.70859 346.564 9.89911 344.077 11.8515 342.26C13.8038 340.444 16.373 339.433 19.0417 339.432Z" fill="#C6BEB4"/>
</svg>
