<svg width="585" height="366" viewBox="0 0 585 366" fill="none" xmlns="http://www.w3.org/2000/svg">
<path d="M5.91504 206.099C14.5764 241.665 32.9041 272.405 61.8738 287.3C122.075 318.271 257.843 302.298 359.173 283.96C411.574 274.493 457.65 248.329 491.118 211.482L5.91504 206.099Z" fill="#FFF3E5"/>
<path d="M537.282 38.6925H481.678C481.059 38.7127 480.442 38.6083 479.864 38.3853C479.286 38.1623 478.758 37.8255 478.313 37.3947C477.868 36.9639 477.514 36.448 477.272 35.8777C477.03 35.3074 476.906 34.6943 476.906 34.0749C476.906 33.4555 477.03 32.8424 477.272 32.2721C477.514 31.7018 477.868 31.1859 478.313 30.7551C478.758 30.3243 479.286 29.9874 479.864 29.7645C480.442 29.5415 481.059 29.4371 481.678 29.4573H491.285C490.666 29.4775 490.049 29.373 489.471 29.1501C488.893 28.9271 488.366 28.5902 487.92 28.1595C487.475 27.7287 487.121 27.2128 486.879 26.6425C486.638 26.0722 486.513 25.4591 486.513 24.8397C486.513 24.2203 486.638 23.6072 486.879 23.0369C487.121 22.4666 487.475 21.9507 487.92 21.5199C488.366 21.0891 488.893 20.7522 489.471 20.5293C490.049 20.3063 490.666 20.2018 491.285 20.2221H484.422C483.803 20.2423 483.186 20.1378 482.608 19.9149C482.03 19.6919 481.503 19.355 481.057 18.9242C480.612 18.4935 480.258 17.9776 480.016 17.4073C479.775 16.837 479.65 16.2239 479.65 15.6045C479.65 14.985 479.775 14.372 480.016 13.8017C480.258 13.2313 480.612 12.7155 481.057 12.2847C481.503 11.8539 482.03 11.517 482.608 11.2941C483.186 11.0711 483.803 10.9666 484.422 10.9869H513.441C506.997 8.11039 499.493 6.0614 490.778 4.99258C411.688 -4.77951 383.437 1.68268 373.47 8.33204C361.153 16.528 347.457 22.5567 332.804 25.4627C283.98 35.1413 192.681 46.785 109.935 21.7342C68.8108 9.28265 38.2349 30.3242 19.9121 65.487H546.939C546.249 55.2666 544.189 45.8246 540.406 37.5695C539.526 38.2938 538.422 38.6907 537.282 38.6925Z" fill="#FFF3E5"/>
<path d="M339.11 150.865L338.386 150.82L330.818 150.392L258.315 146.318L250.482 145.875L135.027 139.393L102.667 137.566L97.5485 137.28L93.0011 137.024L1.19971 131.867C-0.940688 152.555 -0.214519 173.439 3.35766 193.928L80.6052 196.642L86.7292 196.863L87.8131 196.898L124.483 198.174L126.454 198.238L130.681 198.385L167.632 199.686L172.697 199.868L190.345 200.489H190.68L193.277 200.582L202.12 200.892L209.88 201.163L224.66 201.68H224.971L226.286 201.73L227.685 201.779H227.991L251.551 202.606L258.153 202.843H258.429L261.607 202.951L262.198 202.976H262.434L265.228 203.074L273.756 203.375L276.958 203.488L281.072 203.631H281.225L286.871 203.833L303.199 204.409L307.692 204.562H308.185L329.951 205.325L342.594 205.769L358.325 206.325L360.847 206.414L364.922 206.557L379.732 207.074L491.447 211.014C504.975 196.076 516.386 179.351 525.359 161.307L339.11 150.865ZM129.06 185.343C127.886 185.345 126.749 184.926 125.858 184.161C125.452 183.813 125.109 183.398 124.843 182.934C124.461 182.262 124.259 181.501 124.257 180.728C124.257 179.826 124.533 178.945 125.05 178.206C125.21 177.98 125.388 177.767 125.582 177.57C126.038 177.112 126.58 176.749 127.177 176.502C127.774 176.255 128.414 176.129 129.06 176.132H138.668C138.043 176.161 137.419 176.063 136.833 175.844C136.247 175.625 135.712 175.289 135.259 174.857C134.807 174.425 134.447 173.906 134.201 173.331C133.955 172.756 133.828 172.137 133.828 171.512C133.828 170.887 133.955 170.268 134.201 169.693C134.447 169.118 134.807 168.599 135.259 168.167C135.712 167.735 136.247 167.4 136.833 167.18C137.419 166.961 138.043 166.863 138.668 166.892H131.805C131.655 166.9 131.506 166.9 131.356 166.892C130.135 166.833 128.987 166.29 128.165 165.385C127.343 164.479 126.914 163.284 126.974 162.063C127.033 160.841 127.576 159.693 128.482 158.872C129.388 158.05 130.583 157.622 131.805 157.681H187.399C188.023 157.653 188.647 157.751 189.232 157.97C189.817 158.188 190.352 158.524 190.804 158.955C191.256 159.387 191.615 159.905 191.861 160.479C192.107 161.054 192.234 161.672 192.234 162.297C192.234 162.921 192.107 163.539 191.861 164.114C191.615 164.688 191.256 165.207 190.804 165.638C190.352 166.069 189.817 166.405 189.232 166.624C188.647 166.843 188.023 166.941 187.399 166.912H194.262C194.887 166.883 195.511 166.981 196.097 167.2C196.683 167.419 197.218 167.755 197.67 168.187C198.123 168.619 198.483 169.138 198.729 169.713C198.975 170.288 199.102 170.906 199.102 171.532C199.102 172.157 198.975 172.776 198.729 173.351C198.483 173.926 198.123 174.445 197.67 174.877C197.218 175.309 196.683 175.644 196.097 175.863C195.511 176.083 194.887 176.181 194.262 176.152H184.655C185.279 176.123 185.902 176.221 186.488 176.44C187.073 176.659 187.608 176.994 188.059 177.426C188.511 177.857 188.871 178.376 189.117 178.95C189.363 179.524 189.489 180.142 189.489 180.767C189.489 181.392 189.363 182.01 189.117 182.584C188.871 183.159 188.511 183.677 188.059 184.108C187.608 184.54 187.073 184.875 186.488 185.094C185.902 185.313 185.279 185.411 184.655 185.382L129.06 185.343Z" fill="#FFF3E5"/>
<path d="M546.958 65.812L163.474 74.7714L121.325 75.7565L14.0339 78.2635C7.54527 94.2811 3.24909 112.387 1.27344 131.163H537.621C541.116 120.154 543.704 108.878 545.361 97.4482C546.958 86.4102 547.603 75.7466 546.958 65.812ZM109.456 106.629H99.8492C101.097 106.608 102.303 107.082 103.203 107.946C104.103 108.811 104.624 109.997 104.653 111.244C104.653 111.338 104.653 111.432 104.653 111.525C104.602 112.244 104.382 112.942 104.012 113.56C103.641 114.179 103.13 114.702 102.519 115.086C101.725 115.595 100.802 115.865 99.859 115.864H44.2648C43.6456 115.885 43.0286 115.78 42.4505 115.557C41.8725 115.334 41.3452 114.997 40.9 114.567C40.4547 114.136 40.1007 113.62 39.859 113.05C39.6172 112.479 39.4926 111.866 39.4926 111.247C39.4926 110.627 39.6172 110.014 39.859 109.444C40.1007 108.874 40.4547 108.358 40.9 107.927C41.3452 107.496 41.8725 107.159 42.4505 106.936C43.0286 106.713 43.6456 106.609 44.2648 106.629H53.877C53.2578 106.649 52.6408 106.545 52.0627 106.322C51.4847 106.099 50.9574 105.762 50.5122 105.331C50.067 104.901 49.7129 104.385 49.4712 103.814C49.2294 103.244 49.1048 102.631 49.1048 102.012C49.1048 101.392 49.2294 100.779 49.4712 100.209C49.7129 99.6385 50.067 99.1226 50.5122 98.6918C50.9574 98.261 51.4847 97.9241 52.0627 97.7012C52.6408 97.4782 53.2578 97.3738 53.877 97.394H47.014C46.3947 97.4142 45.7777 97.3097 45.1997 97.0868C44.6216 96.8638 44.0943 96.5269 43.6491 96.0962C43.2039 95.6654 42.8499 95.1495 42.6081 94.5792C42.3663 94.0089 42.2418 93.3958 42.2418 92.7764C42.2418 92.157 42.3663 91.5439 42.6081 90.9736C42.8499 90.4033 43.2039 89.8874 43.6491 89.4566C44.0943 89.0258 44.6216 88.6889 45.1997 88.466C45.7777 88.243 46.3947 88.1385 47.014 88.1588H102.608C103.227 88.1385 103.844 88.243 104.422 88.466C105.001 88.6889 105.528 89.0258 105.973 89.4566C106.418 89.8874 106.772 90.4033 107.014 90.9736C107.256 91.5439 107.38 92.157 107.38 92.7764C107.38 93.3958 107.256 94.0089 107.014 94.5792C106.772 95.1495 106.418 95.6654 105.973 96.0962C105.528 96.5269 105.001 96.8638 104.422 97.0868C103.844 97.3097 103.227 97.4142 102.608 97.394H109.471C110.266 97.3922 111.049 97.5849 111.752 97.9555C112.504 98.3353 113.137 98.9143 113.581 99.6291C114.026 100.344 114.266 101.167 114.275 102.009C114.246 103.257 113.725 104.443 112.825 105.309C111.926 106.174 110.72 106.649 109.471 106.629H109.456Z" fill="#FFF3E5"/>
<path d="M367.5 366C463.321 366 541 361.747 541 356.5C541 351.253 463.321 347 367.5 347C271.679 347 194 351.253 194 356.5C194 361.747 271.679 366 367.5 366Z" fill="#FFF3E5"/>
<path d="M466 319.715L464.5 321.904L455.222 335.637L447.345 338L441.469 332.278L441.754 328.502L443.219 308.893C443.219 308.893 406.86 287.612 403.61 283.632C400.359 279.651 387.856 276.044 387.856 276.044C387.856 276.044 368.726 267.212 361.599 251.788C354.472 236.363 373.477 234 373.477 234L444.87 301.927L466 319.715Z" fill="#FFC1C7"/>
<path d="M475 327.701L452.316 348.64C452.316 348.64 439.283 351.118 427.628 349.384C420.179 348.274 421.612 344.234 423.572 341.454L423.607 341.404C424.781 339.814 426.498 338.698 428.44 338.262C438.085 335.963 441.413 329.059 441.413 329.059L448.431 335.006L460.588 321L469.576 325.173L475 327.701Z" fill="#575988"/>
<path opacity="0.1" d="M469.577 325.101L464.239 322.614L464.74 321.858L466.244 319.67L445.053 301.889L373.506 234C373.506 234 354.46 236.352 361.603 251.771C368.745 267.189 387.916 276.017 387.916 276.017C387.916 276.017 400.446 279.622 403.704 283.601C406.962 287.58 443.424 308.842 443.424 308.842L441.956 328.443L441.885 329.378L441.419 328.985C441.419 328.985 438.091 335.913 428.448 338.221C426.507 338.658 424.79 339.778 423.617 341.374L423.581 341.424C421.577 344.209 420.188 348.262 427.636 349.382C439.289 351.122 452.321 348.636 452.321 348.636L475 327.622L469.577 325.101Z" fill="black"/>
<g opacity="0.1">
<path opacity="0.1" d="M480.531 202.979C480.531 202.979 494.591 168.345 520.847 155.499C531.894 150.181 540.917 141.424 546.558 130.543C549.197 125.357 551.355 119.941 553.005 114.362" stroke="#535461" stroke-width="2" stroke-miterlimit="10"/>
<path opacity="0.1" d="M569.504 106.17C566.766 109.608 552.602 114.641 552.602 114.641C552.602 114.641 554.307 99.7167 557.044 96.2783C557.668 95.3872 558.469 94.6333 559.395 94.0629C560.322 93.4925 561.356 93.1177 562.433 92.9616C563.51 92.8054 564.608 92.8713 565.659 93.1551C566.71 93.4388 567.691 93.9345 568.543 94.6116C569.395 95.2887 570.099 96.1329 570.613 97.0922C571.126 98.0515 571.437 99.1057 571.528 100.19C571.618 101.274 571.486 102.365 571.139 103.396C570.791 104.427 570.237 105.376 569.509 106.185L569.504 106.17Z" fill="#B5EBE1"/>
<path opacity="0.1" d="M564.642 133.403C560.474 134.803 545.855 131.32 545.855 131.32C545.855 131.32 555.403 119.719 559.572 118.319C560.581 117.905 561.665 117.703 562.756 117.725C563.847 117.747 564.922 117.992 565.914 118.445C566.906 118.899 567.795 119.551 568.525 120.361C569.255 121.172 569.811 122.123 570.159 123.157C570.506 124.191 570.638 125.285 570.545 126.372C570.453 127.458 570.139 128.514 569.622 129.475C569.105 130.435 568.396 131.279 567.539 131.955C566.683 132.631 565.697 133.123 564.642 133.403Z" fill="#B5EBE1"/>
<path opacity="0.1" d="M538.287 165.6C533.984 164.703 523.12 154.323 523.12 154.323C523.12 154.323 537.225 149.125 541.528 150.017C543.486 150.552 545.166 151.814 546.226 153.544C547.287 155.275 547.647 157.344 547.234 159.33C546.82 161.317 545.665 163.071 544.003 164.236C542.34 165.401 540.296 165.889 538.287 165.6Z" fill="#B5EBE1"/>
<path opacity="0.1" d="M512.859 185.468C508.467 185.318 496.002 176.916 496.002 176.916C496.002 176.916 509.025 169.412 513.418 169.566C514.509 169.532 515.596 169.722 516.611 170.125C517.626 170.528 518.548 171.135 519.319 171.909C520.089 172.682 520.693 173.605 521.092 174.621C521.491 175.637 521.678 176.724 521.639 177.815C521.601 178.906 521.339 179.977 520.869 180.963C520.4 181.949 519.733 182.827 518.91 183.545C518.087 184.262 517.125 184.803 516.084 185.134C515.044 185.465 513.946 185.578 512.859 185.468Z" fill="#B5EBE1"/>
<path opacity="0.1" d="M532.244 121.588C532.802 125.948 542.325 137.569 542.325 137.569C542.325 137.569 548.598 123.915 548.034 119.56C547.644 117.574 546.514 115.811 544.871 114.627C543.229 113.444 541.198 112.929 539.189 113.187C537.181 113.445 535.346 114.456 534.056 116.016C532.767 117.576 532.119 119.568 532.244 121.588Z" fill="#B5EBE1"/>
<path opacity="0.1" d="M502.798 145.203C504.638 149.19 517.207 157.437 517.207 157.437C517.207 157.437 519.097 142.537 517.257 138.546C516.29 136.769 514.683 135.425 512.762 134.788C510.841 134.151 508.749 134.267 506.911 135.114C505.073 135.96 503.625 137.473 502.861 139.347C502.097 141.22 502.075 143.314 502.798 145.203Z" fill="#B5EBE1"/>
<path opacity="0.1" d="M477.33 172.083C478.472 176.329 489.461 186.574 489.461 186.574C489.461 186.574 493.848 172.207 492.711 167.962C492.066 166.037 490.71 164.432 488.921 163.472C487.132 162.512 485.044 162.27 483.082 162.795C481.121 163.321 479.434 164.574 478.365 166.3C477.296 168.026 476.926 170.094 477.33 172.083Z" fill="#B5EBE1"/>
<path opacity="0.25" d="M569.504 106.17C566.766 109.608 552.602 114.641 552.602 114.641C552.602 114.641 554.307 99.7167 557.044 96.2783C557.668 95.3872 558.469 94.6333 559.395 94.0629C560.322 93.4925 561.356 93.1177 562.433 92.9616C563.51 92.8054 564.608 92.8713 565.659 93.1551C566.71 93.4388 567.691 93.9345 568.543 94.6116C569.395 95.2887 570.099 96.1329 570.613 97.0922C571.126 98.0515 571.437 99.1057 571.528 100.19C571.618 101.274 571.486 102.365 571.139 103.396C570.791 104.427 570.237 105.376 569.509 106.185L569.504 106.17Z" fill="black"/>
<path opacity="0.25" d="M564.642 133.403C560.474 134.803 545.855 131.32 545.855 131.32C545.855 131.32 555.403 119.719 559.572 118.319C560.581 117.905 561.665 117.703 562.756 117.725C563.847 117.747 564.922 117.992 565.914 118.445C566.906 118.899 567.795 119.551 568.525 120.361C569.255 121.172 569.811 122.123 570.159 123.157C570.506 124.191 570.638 125.285 570.545 126.372C570.453 127.458 570.139 128.514 569.622 129.475C569.105 130.435 568.396 131.279 567.539 131.955C566.683 132.631 565.697 133.123 564.642 133.403Z" fill="black"/>
<path opacity="0.25" d="M538.287 165.6C533.984 164.703 523.12 154.323 523.12 154.323C523.12 154.323 537.225 149.125 541.528 150.017C543.486 150.552 545.166 151.814 546.226 153.544C547.287 155.275 547.647 157.344 547.234 159.33C546.82 161.317 545.665 163.071 544.003 164.236C542.34 165.401 540.296 165.889 538.287 165.6Z" fill="black"/>
<path opacity="0.25" d="M512.859 185.468C508.467 185.318 496.002 176.916 496.002 176.916C496.002 176.916 509.025 169.412 513.418 169.566C514.509 169.532 515.596 169.722 516.611 170.125C517.626 170.528 518.548 171.135 519.319 171.909C520.089 172.682 520.693 173.605 521.092 174.621C521.491 175.637 521.678 176.724 521.639 177.815C521.601 178.906 521.339 179.977 520.869 180.963C520.4 181.949 519.733 182.827 518.91 183.545C518.087 184.262 517.125 184.803 516.084 185.134C515.044 185.465 513.946 185.578 512.859 185.468Z" fill="black"/>
<path opacity="0.25" d="M532.244 121.588C532.802 125.948 542.325 137.569 542.325 137.569C542.325 137.569 548.598 123.915 548.034 119.56C547.644 117.574 546.514 115.811 544.871 114.627C543.229 113.444 541.198 112.929 539.189 113.187C537.181 113.445 535.346 114.456 534.056 116.016C532.767 117.576 532.119 119.568 532.244 121.588Z" fill="black"/>
<path opacity="0.25" d="M502.798 145.203C504.638 149.19 517.207 157.437 517.207 157.437C517.207 157.437 519.097 142.537 517.257 138.546C516.29 136.769 514.683 135.425 512.762 134.788C510.841 134.151 508.749 134.267 506.911 135.114C505.073 135.96 503.625 137.473 502.861 139.347C502.097 141.22 502.075 143.314 502.798 145.203Z" fill="black"/>
<path opacity="0.25" d="M477.33 172.083C478.472 176.329 489.461 186.574 489.461 186.574C489.461 186.574 493.848 172.207 492.711 167.962C492.066 166.037 490.71 164.432 488.921 163.472C487.132 162.512 485.044 162.27 483.082 162.795C481.121 163.321 479.434 164.574 478.365 166.3C477.296 168.026 476.926 170.094 477.33 172.083Z" fill="black"/>
</g>
<g opacity="0.1">
<path opacity="0.1" d="M458.145 147.57C458.145 147.57 459.919 110.236 480.426 89.4115C489.083 80.7337 494.691 69.4834 496.406 57.3495C497.17 51.5776 497.404 45.7478 497.104 39.9332" stroke="#535461" stroke-width="2" stroke-miterlimit="10"/>
<path opacity="0.1" d="M509.962 26.7277C508.521 30.8837 496.825 40.3119 496.825 40.3119C496.825 40.3119 493.484 25.6663 494.92 21.5153C495.707 19.6498 497.175 18.1534 499.025 17.3297C500.875 16.5059 502.97 16.4166 504.884 17.0798C506.798 17.743 508.388 19.109 509.331 20.9007C510.274 22.6925 510.5 24.7757 509.962 26.7277Z" fill="#B5EBE1"/>
<path opacity="0.1" d="M514.415 54.0357C510.925 56.7366 495.997 58.3013 495.997 58.3013C495.997 58.3013 501.157 44.1889 504.623 41.488C506.298 40.3474 508.344 39.8869 510.347 40.1999C512.349 40.513 514.158 41.5762 515.404 43.1736C516.651 44.771 517.242 46.7827 517.058 48.8002C516.875 50.8177 515.929 52.6896 514.415 54.0357Z" fill="#B5EBE1"/>
<path opacity="0.1" d="M500.235 93.1439C495.878 93.7269 482.181 87.5328 482.181 87.5328C482.181 87.5328 493.764 77.955 498.136 77.372C500.158 77.2337 502.156 77.8695 503.726 79.1502C505.295 80.4309 506.318 82.2606 506.587 84.2679C506.856 86.2751 506.351 88.3094 505.174 89.9579C503.997 91.6064 502.237 92.7454 500.25 93.1439H500.235Z" fill="#B5EBE1"/>
<path opacity="0.1" d="M482.834 120.317C478.641 121.633 464.098 117.826 464.098 117.826C464.098 117.826 473.89 106.434 478.088 105.124C479.107 104.726 480.198 104.541 481.291 104.583C482.385 104.624 483.458 104.89 484.444 105.363C485.431 105.837 486.309 106.508 487.025 107.335C487.741 108.163 488.279 109.128 488.605 110.172C488.931 111.216 489.039 112.316 488.922 113.404C488.805 114.491 488.465 115.543 487.924 116.494C487.383 117.444 486.652 118.273 485.776 118.929C484.9 119.585 483.899 120.055 482.834 120.307V120.317Z" fill="#B5EBE1"/>
<path opacity="0.1" d="M479.928 53.627C481.922 57.5538 494.746 65.3625 494.746 65.3625C494.746 65.3625 496.127 50.4129 494.152 46.4811C493.126 44.7361 491.474 43.4465 489.532 42.8739C487.59 42.3012 485.502 42.4884 483.692 43.3974C481.883 44.3064 480.487 45.8692 479.788 47.7688C479.089 49.6685 479.139 51.7628 479.928 53.627Z" fill="#B5EBE1"/>
<path opacity="0.1" d="M459.984 85.669C463.046 88.8234 477.634 92.4362 477.634 92.4362C477.634 92.4362 474.478 77.7457 471.417 74.5913C469.916 73.2269 467.951 72.4854 465.922 72.5177C463.894 72.5501 461.953 73.3538 460.497 74.7653C459.04 76.1768 458.176 78.0901 458.081 80.1158C457.986 82.1414 458.666 84.1272 459.984 85.669Z" fill="#B5EBE1"/>
<path opacity="0.1" d="M444.877 119.465C447.37 123.093 461.131 129.118 461.131 129.118C461.131 129.118 460.498 114.108 458.02 110.481C456.767 108.9 454.961 107.853 452.966 107.55C450.971 107.247 448.935 107.711 447.269 108.848C445.603 109.985 444.429 111.711 443.986 113.679C443.542 115.646 443.86 117.708 444.877 119.45V119.465Z" fill="#B5EBE1"/>
</g>
<path opacity="0.1" d="M297.761 0.0140452C297.761 0.0140452 285.684 -0.642905 287.118 7.02915C287.045 7.41842 287.109 7.81877 287.302 8.17283C287.495 8.52688 287.807 8.81644 288.193 9C288.193 9 288.193 8.43034 289.429 8.62329C289.862 8.69159 290.303 8.71165 290.742 8.68301C291.335 8.64567 291.899 8.43445 292.348 8.08119C292.348 8.08119 295.744 6.80864 297.061 1.77816C297.061 1.77816 298.039 0.680184 297.999 0.399947L295.972 1.19012C295.972 1.19012 296.666 2.5224 296.119 3.62956C296.119 3.62956 296.053 1.23606 295.663 1.29119C295.581 1.29119 294.603 1.7506 294.603 1.7506C294.603 1.7506 295.804 4.07518 294.897 5.7612C294.897 5.7612 295.242 2.89911 294.228 1.92057L292.794 2.67859C292.794 2.67859 294.193 5.07669 293.245 7.03375C293.245 7.03375 293.488 4.03384 292.495 2.86236L291.193 3.78116C291.193 3.78116 292.51 6.14709 291.7 7.76879C291.7 7.76879 291.598 4.27273 290.904 4.01087C290.412 4.38842 289.973 4.81883 289.596 5.2926C289.596 5.2926 290.493 7.01078 289.936 7.91581C289.936 7.91581 289.596 5.58662 289.313 5.57743C289.313 5.57743 288.177 7.12103 288.061 8.17766C288.115 7.19713 288.453 6.24671 289.039 5.42124C288.385 5.53364 287.781 5.81617 287.301 6.23438C287.301 6.23438 287.478 5.14559 289.328 5.04912C289.328 5.04912 290.265 3.87764 290.514 3.80873C290.514 3.80873 288.684 3.66631 287.579 4.11653C287.579 4.11653 288.553 3.08746 290.848 3.55146L292.135 2.60509C292.135 2.60509 289.728 2.30648 288.705 2.63265C288.705 2.63265 289.88 1.71384 292.48 2.38917L293.879 1.63115C292.803 1.41521 291.701 1.32871 290.6 1.37388C290.6 1.37388 291.892 0.744498 294.289 1.42442L295.303 1.02014C295.303 1.02014 293.782 0.753688 293.357 0.707747C292.931 0.661807 292.896 0.556143 292.896 0.556143C293.847 0.41226 294.825 0.51087 295.718 0.840975C295.718 0.840975 297.801 0.138084 297.761 0.0140452Z" fill="#B5EBE1"/>
<path opacity="0.1" d="M266.972 40.0984C266.972 40.0984 262.957 51.7231 271.248 52.7846C271.629 52.9806 272.059 53.0451 272.477 52.9688C272.895 52.8926 273.28 52.6795 273.576 52.36C273.576 52.36 272.994 52.1581 273.531 51.0293C273.714 50.6251 273.85 50.1991 273.936 49.7607C274.062 49.168 274.001 48.5483 273.763 47.9949C273.763 47.9949 273.393 44.2615 268.58 41.3618C268.58 41.3618 267.716 40.0518 267.416 40L267.667 42.2473C267.667 42.2473 269.231 41.9936 270.222 42.8842C270.222 42.8842 267.756 42.1851 267.687 42.5839C267.687 42.6667 267.869 43.7696 267.869 43.7696C267.869 43.7696 270.592 43.3399 272.081 44.7638C272.081 44.7638 269.231 43.5159 267.943 44.1891L268.328 45.8409C268.328 45.8409 271.184 45.235 272.934 46.7936C272.934 46.7936 269.911 45.5923 268.432 46.193L269.019 47.7464C269.019 47.7464 271.815 47.2286 273.265 48.5179C273.265 48.5179 269.64 47.4823 269.176 48.0985C269.429 48.7024 269.752 49.2712 270.138 49.7917C270.138 49.7917 272.15 49.4603 272.93 50.3095C272.93 50.3095 270.439 49.9005 270.35 50.1749C270.35 50.1749 271.623 51.7801 272.678 52.2461C271.688 51.88 270.808 51.248 270.123 50.4131C270.063 51.0815 270.188 51.7539 270.483 52.3497C270.483 52.3497 269.413 51.8319 269.822 49.9988C269.822 49.9988 268.875 48.7043 268.871 48.4454C268.871 48.4454 268.224 50.1956 268.377 51.4228C268.377 51.4228 267.588 50.1386 268.703 48.0364L268.081 46.4829C268.081 46.4829 267.095 48.7457 267.164 49.8487C267.164 49.8487 266.553 48.4092 267.953 46.0739L267.559 44.4635C267.044 45.4422 266.651 46.4864 266.39 47.5703C266.39 47.5703 266.099 46.0998 267.465 43.9768L267.322 42.8635C267.322 42.8635 266.631 44.2512 266.464 44.6706C266.296 45.09 266.178 45.0745 266.178 45.0745C266.294 44.0952 266.667 43.1688 267.253 42.3974C267.253 42.3974 267.11 40.1036 266.972 40.0984Z" fill="#B5EBE1"/>
<path opacity="0.1" d="M345.972 31.0956C345.972 31.0956 341.96 41.8205 350.239 42.8002C350.618 42.9813 351.046 43.0414 351.462 42.9719C351.879 42.9023 352.262 42.7068 352.557 42.4131C352.557 42.4131 351.981 42.2267 352.512 41.18C352.702 40.8077 352.844 40.4145 352.936 40.0091C353.063 39.4633 353 38.892 352.759 38.3841C352.759 38.3841 352.389 34.9382 347.586 32.257C347.586 32.257 346.729 31.0478 346.429 31L346.675 33.079C346.675 33.079 348.24 32.8401 349.225 33.6621C349.225 33.6621 346.764 33.0169 346.7 33.3897C346.7 33.4614 346.882 34.4842 346.882 34.4842C346.882 34.4842 349.599 34.0827 351.08 35.4018C351.08 35.4018 348.24 34.2452 346.951 34.8713L347.335 36.3911C347.335 36.3911 350.184 35.8319 351.937 37.2705C351.937 37.2705 348.92 36.1617 347.443 36.7209L348.029 38.1547C348.029 38.1547 350.819 37.6768 352.266 38.8668C352.266 38.8668 348.649 37.9109 348.186 38.4749C348.438 39.0314 348.759 39.5562 349.141 40.0378C349.141 40.0378 351.154 39.7319 351.932 40.5157C351.932 40.5157 349.441 40.1381 349.358 40.3866C349.358 40.3866 350.627 41.8682 351.681 42.2984C350.692 41.9585 349.811 41.3736 349.126 40.6017C349.061 41.2266 349.186 41.8564 349.486 42.4131C349.486 42.4131 348.413 41.9352 348.821 40.2385C348.821 40.2385 347.881 39.0484 347.876 38.8047C347.876 38.8047 347.227 40.4153 347.384 41.5528C347.384 41.5528 346.597 40.3628 347.714 38.4271L347.089 36.9933C347.089 36.9933 346.104 39.0819 346.178 40.1047C346.178 40.1047 345.568 38.7712 346.966 36.6157L346.572 35.1294C346.057 36.0321 345.665 36.9961 345.406 37.997C345.406 37.997 345.11 36.6444 346.474 34.6801L346.331 33.6573C346.331 33.6573 345.642 34.9382 345.479 35.3205C345.317 35.7029 345.194 35.6981 345.194 35.6981C345.308 34.7935 345.679 33.9378 346.267 33.2272C346.267 33.2272 346.104 31.0956 345.972 31.0956Z" fill="#B5EBE1"/>
<path opacity="0.1" d="M216.972 17.0908C216.972 17.0908 212.96 27.8229 221.24 28.7981C221.619 28.9807 222.047 29.0416 222.464 28.972C222.881 28.9024 223.264 28.7059 223.558 28.4109C223.558 28.4109 222.982 28.2244 223.514 27.1823C223.701 26.809 223.843 26.416 223.937 26.0111C224.062 25.4634 224 24.8913 223.76 24.381C223.76 24.381 223.391 20.9343 218.586 18.2525C218.586 18.2525 217.73 17.0478 217.43 17L217.676 19.0747C217.676 19.0747 219.236 18.8405 220.226 19.6627C220.226 19.6627 217.764 19.0126 217.7 19.3854C217.7 19.4619 217.882 20.4801 217.882 20.4801C217.882 20.4801 220.6 20.0834 222.082 21.398C222.082 21.398 219.236 20.2411 217.951 20.8674L218.335 22.3923C218.335 22.3923 221.186 21.833 222.933 23.2719C222.933 23.2719 219.92 22.1629 218.444 22.7174L219.029 24.1515C219.029 24.1515 221.821 23.6735 223.268 24.8638C223.268 24.8638 219.645 23.9077 219.187 24.4718C219.439 25.03 219.76 25.5566 220.142 26.0398C220.142 26.0398 222.155 25.7291 222.928 26.5178C222.928 26.5178 220.442 26.1402 220.354 26.3935C220.354 26.3935 221.629 27.8707 222.682 28.3057C221.692 27.9677 220.811 27.3824 220.127 26.6086C220.062 27.2337 220.187 27.8636 220.487 28.4204C220.487 28.4204 219.413 27.9424 219.822 26.2501C219.822 26.2501 218.877 25.055 218.877 24.816C218.877 24.816 218.227 26.4318 218.385 27.5647C218.385 27.5647 217.597 26.3792 218.709 24.4383L218.089 23.0042C218.089 23.0042 217.105 25.098 217.174 26.1163C217.174 26.1163 216.563 24.7873 217.961 22.6313L217.572 21.1398C217.057 22.0428 216.665 23.007 216.406 24.0081C216.406 24.0081 216.11 22.6552 217.474 20.6905L217.331 19.6675C217.331 19.6675 216.642 20.9486 216.479 21.3358C216.317 21.7231 216.194 21.7087 216.194 21.7087C216.307 20.8047 216.677 19.949 217.262 19.2372C217.262 19.2372 217.124 17.0956 216.972 17.0908Z" fill="#B5EBE1"/>
<path opacity="0.1" d="M342 92.389C342 92.389 345.07 104.256 352.351 100.128C352.764 100.058 353.147 99.8523 353.443 99.5391C353.739 99.2259 353.934 98.8217 354 98.3842C354 98.3842 353.424 98.5648 353.239 97.3214C353.172 96.88 353.056 96.4487 352.892 96.0367C352.672 95.4794 352.286 95.0125 351.794 94.7056C351.794 94.7056 349.466 91.8937 343.986 92.4303C343.986 92.4303 342.581 91.8834 342.307 92.0227L343.732 93.7047C343.732 93.7047 344.855 92.5541 346.138 92.6728C346.138 92.6728 343.752 93.5963 343.933 93.9523C343.967 94.0245 344.723 94.8088 344.723 94.8088C344.723 94.8088 346.675 92.8173 348.666 93.0804C348.666 93.0804 345.684 93.782 345.006 95.108L346.216 96.2224C346.216 96.2224 348.198 94.0039 350.457 94.2154C350.457 94.2154 347.363 95.0616 346.495 96.4443L347.822 97.3678C347.822 97.3678 349.774 95.2473 351.672 95.433C351.672 95.433 348.193 96.7951 348.139 97.5536C348.672 97.8935 349.243 98.1637 349.837 98.3584C349.837 98.3584 351.301 96.8725 352.365 97.0841C352.365 97.0841 350.13 98.2501 350.208 98.5287C350.208 98.5287 352.107 99.0446 353.209 98.797C352.209 99.0961 351.153 99.1122 350.145 98.8434C350.458 99.4336 350.928 99.9141 351.497 100.226C351.497 100.226 350.345 100.448 349.681 98.7092C349.681 98.7092 348.217 98.2294 348.066 98.0127C348.066 98.0127 348.49 99.8237 349.286 100.732C349.286 100.732 347.949 100.164 347.71 97.7806L346.368 96.8983C346.368 96.8983 346.807 99.3284 347.456 100.195C347.456 100.195 346.177 99.3903 346.041 96.6455L344.845 95.5724C344.964 96.6857 345.218 97.7782 345.601 98.8228C345.601 98.8228 344.567 97.7909 344.518 95.2473L343.796 94.4321C343.796 94.4321 343.991 95.9799 344.089 96.4185C344.186 96.857 344.089 96.9344 344.089 96.9344C343.648 96.068 343.443 95.0892 343.498 94.1071C343.498 94.1071 342.112 92.3065 342 92.389Z" fill="#B5EBE1"/>
<path d="M281 272.611C281 272.611 280.632 278.845 278.304 280.84C278.304 280.84 273.526 309.02 269.115 314.132L268.379 317L250 314.88L253.676 289.943L257.107 267L281 272.611Z" fill="#FFC1C8"/>
<path opacity="0.03" d="M281 272.611C281 272.611 280.632 278.845 278.304 280.84C278.304 280.84 273.526 309.02 269.115 314.132L268.379 317L250 314.88L253.676 289.943L257.107 267L281 272.611Z" fill="black"/>
<path d="M260.809 314.014L269 313.649L268.564 326.736L262.294 331L251 328.49L255.121 311L260.809 314.014Z" fill="#FF748F"/>
<path opacity="0.03" d="M260.809 314.014L269 313.649L268.564 326.736L262.294 331L251 328.49L255.121 311L260.809 314.014Z" fill="#FF6584"/>
<path d="M262.888 325.691C262.888 325.691 269.223 323.805 272.228 326.266C275.233 328.727 282.541 335.287 284.004 336.109C285.467 336.931 306.558 340.95 299.594 346.114C292.63 351.278 274.749 349.806 274.749 349.806C274.749 349.806 263.053 346.356 262.728 346.195C262.404 346.034 255.24 342.504 255.016 342.257C254.791 342.009 257.042 325.615 257.042 325.615L262.888 325.691Z" fill="#5D618C"/>
<path opacity="0.03" d="M262.888 325.691C262.888 325.691 269.223 323.805 272.228 326.266C275.233 328.727 282.541 335.287 284.004 336.109C285.467 336.931 306.558 340.95 299.594 346.114C292.63 351.278 274.749 349.806 274.749 349.806C274.749 349.806 263.053 346.356 262.728 346.195C262.404 346.034 255.24 342.504 255.016 342.257C254.791 342.009 257.042 325.615 257.042 325.615L262.888 325.691Z" fill="black"/>
<path d="M244 157.528L243.625 180.676L242.775 230.055L242.274 230.488C227.394 243.312 216.89 229.741 216.89 229.741C216.099 230.672 214.389 231.115 212.548 231.305C210.535 231.484 208.509 231.484 206.496 231.305L205.996 231.26C205.996 231.26 166.721 183.166 164.345 174.7C163.873 173.268 163.886 171.722 164.38 170.298C165.155 168.276 167.011 167.07 168.786 166.358C170.089 165.846 171.455 165.511 172.848 165.362C172.848 165.362 171.723 156.522 166.596 143.449C163.714 136.104 163.995 132.374 164.79 130.501C165.41 129.052 166.345 128.743 166.345 128.743C166.345 128.743 167.926 127.583 170.472 125.755C172.588 124.216 175.374 122.204 178.475 119.978L181.351 117.926C191.96 110.346 204.745 101.422 207.361 100.496C207.524 100.436 207.691 100.388 207.861 100.351C213.228 99.0612 231.24 101.741 231.24 101.741L244 157.528Z" fill="#B5EBE1"/>
<path opacity="0.1" d="M244 157.043L243.632 180C226.162 174.819 209.921 140.488 207.779 137.781C205.947 135.43 207.828 109.248 208.521 100.348C213.791 99.069 231.476 101.726 231.476 101.726L244 157.043Z" fill="black"/>
<path d="M447.345 112.128C447.345 112.128 433.503 119.213 431.757 147.058C431.757 147.058 429.512 161.229 428.265 163.715C427.018 166.201 421.032 189.696 421.78 192.555C421.78 192.555 420.533 195.414 415.919 194.171C411.305 192.927 386.364 189.074 380.752 185.345L365.289 178.011C365.289 178.011 335.11 156.754 328.75 175.027C322.39 193.3 358.555 192.565 358.555 192.565L375.639 200.52L427.392 217.54C427.392 217.54 434.251 220.648 438.865 210.703C441.817 204.439 445.323 198.448 449.34 192.803C449.34 192.803 459.815 163.467 459.691 158.494C459.566 153.522 470.914 141.713 470.914 141.713C470.914 141.713 473.159 110.388 454.702 111.009L447.345 112.128Z" fill="#FFC1C7"/>
<path opacity="0.03" d="M447.345 112.128C447.345 112.128 433.503 119.213 431.757 147.058C431.757 147.058 429.512 161.229 428.265 163.715C427.018 166.201 421.032 189.696 421.78 192.555C421.78 192.555 420.533 195.414 415.919 194.171C411.305 192.927 386.364 189.074 380.752 185.345L365.289 178.011C365.289 178.011 335.11 156.754 328.75 175.027C322.39 193.3 358.555 192.565 358.555 192.565L375.639 200.52L427.392 217.54C427.392 217.54 434.251 220.648 438.865 210.703C441.817 204.439 445.323 198.448 449.34 192.803C449.34 192.803 459.815 163.467 459.691 158.494C459.566 153.522 470.914 141.713 470.914 141.713C470.914 141.713 473.159 110.388 454.702 111.009L447.345 112.128Z" fill="black"/>
<path d="M301.319 136C302.073 136.878 305.593 138.689 305.593 138.689C305.593 138.689 317.158 152.419 321.809 155.931C326.46 159.443 341.67 172.862 338.592 177.944C335.515 183.026 332.056 181.892 332.056 181.892L304.839 163.08C304.839 163.08 295.285 156.247 293.339 152.986C291.393 149.725 289 142.898 289 142.898L301.319 136Z" fill="#FFC1C8"/>
<path opacity="0.03" d="M301.319 136C302.073 136.878 305.593 138.689 305.593 138.689C305.593 138.689 317.158 152.419 321.809 155.931C326.46 159.443 341.67 172.862 338.592 177.944C335.515 183.026 332.056 181.892 332.056 181.892L304.839 163.08C304.839 163.08 295.285 156.247 293.339 152.986C291.393 149.725 289 142.898 289 142.898L301.319 136Z" fill="black"/>
<path d="M286.369 113L306 139.159L288.323 146L281 124.102L286.369 113Z" fill="#DCE6F2"/>
<path opacity="0.03" d="M286.369 113L306 139.159L288.323 146L281 124.102L286.369 113Z" fill="black"/>
<path d="M291.303 179L294.904 184.101L297.991 260.487C297.991 260.487 298.248 267.703 296.062 269.818C293.875 271.933 276 270.565 276 270.565C276 270.565 276.643 192.685 276.9 191.192C277.157 189.699 291.303 179 291.303 179Z" fill="#575988"/>
<path opacity="0.1" d="M291.303 179L294.904 184.101L297.991 260.487C297.991 260.487 298.248 267.703 296.062 269.818C293.875 271.933 276 270.565 276 270.565C276 270.565 276.643 192.685 276.9 191.192C277.157 189.699 291.303 179 291.303 179Z" fill="black"/>
<path d="M268.057 276.247C266.916 279.04 265.575 281.748 264.046 284.351C264.046 284.351 260.787 302.859 259.398 304.565C258.395 305.813 257.934 315.124 257.769 319.979C257.708 321.736 257.683 322.908 257.683 322.908L238.52 332L238.434 319.984C238.434 319.984 238.434 319.929 238.434 319.825C238.314 317.175 236.93 286.487 239.833 284.7C241.538 283.647 243.163 279.211 244.261 275.573C245.098 272.764 245.625 270.414 245.625 270.414C245.625 270.414 266.914 269.037 268.689 271.307C269.341 272.115 268.89 274.081 268.057 276.247Z" fill="#FFC1C8"/>
<path opacity="0.1" d="M268.057 276C259.339 275.828 248.415 275.48 244 275.332C244.845 272.644 245.377 270.396 245.377 270.396C245.377 270.396 266.873 269.078 268.665 271.25C269.353 272.048 268.898 273.928 268.057 276Z" fill="black"/>
<path d="M242.886 162.589C242.886 162.589 237.02 193.851 238.143 213.984C239.266 234.116 237.269 248.987 239.766 254.874C242.262 260.762 242.262 274.132 242.262 274.132C242.262 274.132 276.213 275.382 279.708 274.882C283.203 274.382 283.079 271.756 283.079 271.756C283.079 271.756 280.707 250.988 282.954 244.485C285.201 237.983 284.826 218.1 284.826 218.1L294.312 186.088C294.312 186.088 297.183 171.708 291.192 165.831C285.201 159.953 242.886 162.589 242.886 162.589Z" fill="#575988"/>
<path d="M444 327.539L442.5 329.749L433.222 343.614L425.345 346L419.469 340.223L419.754 336.41L421.219 316.613C421.219 316.613 384.86 295.128 381.61 291.109C378.359 287.09 365.856 283.448 365.856 283.448C365.856 283.448 346.726 274.531 339.599 258.959C332.472 243.386 351.477 241 351.477 241L422.87 309.58L444 327.539Z" fill="#FFC1C7"/>
<path opacity="0.1" d="M443 329.044L433.735 343.51L425.869 346L420 339.972L420.285 335.994L426.743 341.807L438.855 327L443 329.044Z" fill="black"/>
<path d="M453 334.932L430.316 356.593C430.316 356.593 417.283 359.157 405.628 357.362C398.179 356.214 399.612 352.035 401.572 349.159L401.607 349.108C402.781 347.463 404.498 346.308 406.44 345.857C416.085 343.478 419.413 336.337 419.413 336.337L426.431 342.489L438.588 328L447.576 332.317L453 334.932Z" fill="#575988"/>
<path d="M453 335.531L430.452 356.631C430.452 356.631 417.495 359.126 405.91 357.379C398.505 356.261 399.432 352.193 401.38 349.393C403.621 351.172 406.31 352.293 409.149 352.632C415.502 353.256 425.095 352.632 425.095 352.632L447.608 333L453 335.531Z" fill="white"/>
<path d="M266.375 83.0637C264.522 83.9716 263.671 86.774 263.329 89.9712C262.75 95.4281 263.686 102 263.686 102C263.686 102 238.512 95.2554 241.201 93.938C242.747 93.1832 243.567 87.6868 243.985 83.1624C244.297 79.8172 244.388 77 244.388 77C244.388 77 271.409 80.5968 266.375 83.0637Z" fill="#FFC1C8"/>
<path d="M465 113.166C465 113.166 434.671 141.806 435.67 133.483C435.81 132.324 435.41 130.721 434.621 128.827C431.816 122.073 424.062 111.588 417.999 103.919C413.549 98.2943 410 94.1829 410 94.1829C410 94.1829 447.668 62.5458 444.669 80.5299C444.044 84.6307 444.615 88.8245 446.313 92.6093C450.068 101.441 458.386 108.39 462.54 111.458C464.04 112.562 465 113.166 465 113.166Z" fill="#FFC1C7"/>
<path opacity="0.1" d="M440.644 85.9543C440.097 86.6247 438.067 88.9785 437.464 89.5992C431.737 95.4936 430.974 104 422.057 104C420.713 104.001 419.371 103.916 418.038 103.747C413.567 98.1553 410 94.0684 410 94.0684C410 94.0684 447.843 62.6201 444.829 80.4969C444.116 84.7377 439.052 82.2399 440.644 85.9543Z" fill="black"/>
<path d="M453 71.9952C453.001 78.1268 451.183 84.121 447.777 89.2196C444.371 94.3183 439.53 98.2924 433.865 100.639C428.201 102.986 421.967 103.601 415.953 102.405C409.939 101.209 404.415 98.256 400.08 93.9203C395.744 89.5846 392.791 84.0605 391.595 78.0467C390.399 72.0328 391.014 65.7994 393.361 60.1347C395.708 54.47 399.682 49.6285 404.78 46.2226C409.879 42.8167 415.873 40.9993 422.005 41.0002C426.08 40.9845 430.117 41.7755 433.885 43.3276C437.652 44.8797 441.075 47.1622 443.957 50.0434C446.838 52.9247 449.12 56.3478 450.672 60.1154C452.224 63.8829 453.015 67.9205 453 71.9952Z" fill="#FFC1C7"/>
<path opacity="0.1" d="M465 113.026C465 113.026 435.049 141.849 436.037 133.473C436.175 132.307 435.78 130.693 435 128.788L439.329 118.391C444.634 113.658 451.437 111.034 458.489 111C459.772 110.999 461.053 111.088 462.324 111.266L462.571 111.307C464.052 112.418 465 113.026 465 113.026Z" fill="black"/>
<path d="M500.825 322.151C500.825 322.151 479.292 356.341 479.292 359C479.292 359 454.92 349.539 446.242 347.547C437.563 345.555 429.381 327.465 429.381 327.465C429.381 327.465 406.346 305.883 397.332 302.896C389.685 300.361 352.939 248.818 341.993 233.267C340.652 231.364 339.955 229.086 340.002 226.763C340.049 224.441 340.837 222.193 342.253 220.345L342.458 220.081C345.355 216.457 349.192 213.687 353.554 212.071C357.917 210.455 362.641 210.053 367.216 210.909C368.231 211.094 369.235 211.34 370.221 211.646C385.985 216.491 413.286 224.816 427.057 228.576C431.664 229.836 434.744 230.568 435.37 230.523C436.872 230.369 437.698 229.029 438.154 227.56C438.502 226.365 438.689 225.129 438.71 223.885C438.71 223.885 438.71 223.806 438.71 223.661C438.288 220.495 437.625 217.366 436.727 214.3C435.12 208.822 432.335 202.394 427.713 199.321C423.877 196.777 420.828 191.165 419.23 184.642C417.082 175.833 417.578 165.351 422.37 158.489L427.002 147.624L434.749 129.448L439.066 119.32C444.446 114.633 451.347 112.034 458.5 112C459.802 111.999 461.102 112.087 462.391 112.264C465.711 112.722 468.581 113.713 469.777 115.665C473.448 121.64 481.796 132.595 483.463 143.55C485.131 154.505 483.133 172.432 488.806 179.074C494.48 185.717 497.82 201.647 503.829 204.968C509.839 208.289 494.15 215.256 494.15 215.256L494.21 216.306L494.48 220.902C494.48 220.902 494.59 221.027 494.791 221.276C498.286 225.578 529.869 266.884 500.825 322.151Z" fill="#FF6584"/>
<path d="M495 221.706C488.375 223.006 473.886 225.839 467.423 227.083L466.288 227.301C465.91 227.372 465.487 227.438 465.028 227.5C458.534 228.337 444.448 227.925 438 227.679C438.35 226.544 438.538 225.37 438.56 224.189C438.56 224.189 438.56 224.113 438.56 223.976C443.465 223.678 455.091 222.808 465.053 220.887C465.865 220.731 466.666 220.566 467.448 220.414C468.577 220.168 469.676 219.908 470.725 219.634C479.658 217.269 489.091 216.957 494.42 217.004L494.692 221.37C494.692 221.37 494.773 221.469 495 221.706Z" fill="#575988"/>
<path d="M467 220V227.531L466.053 227.776C465.737 227.856 465.383 227.931 465 228V220.575C465.678 220.378 466.347 220.192 467 220Z" fill="#FF6584"/>
<path opacity="0.1" d="M473.549 234C473.549 234 460.261 264.314 452.189 267.284C444.118 270.253 424 280.77 424 280.77C424 280.77 435.549 290.916 447.595 279.78C459.64 268.645 477.026 238.949 473.549 234Z" fill="black"/>
<path opacity="0.1" d="M487.729 230C487.729 230 488.511 241.67 487.417 243.803C486.322 245.937 487.729 230 487.729 230Z" fill="black"/>
<path opacity="0.1" d="M495.449 237C495.449 237 502.123 307.626 469 308C469 308.01 500.022 276.93 495.449 237Z" fill="black"/>
<path opacity="0.1" d="M503.765 254C503.765 254 512.635 290.789 501 295C501 295.01 507.106 275.934 503.765 254Z" fill="black"/>
<path opacity="0.1" d="M444 245C443.383 245 418.342 249.096 423.77 252.374C429.197 255.651 444 245 444 245Z" fill="black"/>
<path opacity="0.1" d="M461 195C461 195 482.637 213.037 478.466 215L461 195Z" fill="black"/>
<path opacity="0.1" d="M460 201C460 201 471.179 215.16 469.898 216L460 201Z" fill="black"/>
<path opacity="0.1" d="M485 198C485 198 490.827 205.388 489.9 207L485 198Z" fill="black"/>
<path opacity="0.1" d="M491 195C491 195 498.407 200.755 496.761 203L491 195Z" fill="black"/>
<path d="M447.551 121C447.551 121 473.085 122.979 471.964 143.392C470.843 163.804 451.786 169 451.786 169L427 161.948C427 161.948 438.085 122.361 447.551 121Z" fill="#FFC1C7"/>
<path opacity="0.1" d="M370.981 211.759C386.518 216.746 413.427 225.317 427 229.188C426.11 229.658 425.136 229.931 424.139 229.989C423.142 230.046 422.145 229.887 421.211 229.521L370.004 211.974L368 211C369.007 211.19 370.003 211.444 370.981 211.759Z" fill="black"/>
<path opacity="0.1" d="M457.9 161.624C455.462 164.858 453.315 168.34 453.395 170.519C453.435 172.086 452.394 176.081 451.003 180.812C447.418 192.695 442.552 204.158 436.488 215C434.881 209.528 432.098 203.105 427.479 200.035C423.645 197.493 420.597 191.887 419 185.369C420.216 180.653 421.372 176.688 421.848 175.743C423.099 173.256 425.351 159.077 425.351 159.077C425.563 155.484 426.037 151.911 426.768 148.386C428.585 139.765 431.673 133.959 434.511 130.228C437.934 125.691 441.017 124.128 441.017 124.128L448.4 123.009C456.909 122.725 461.013 129.158 462.99 136.207C465.412 144.968 463.385 154.341 457.9 161.624Z" fill="black"/>
<path d="M439.963 122.099C439.963 122.099 426.049 129.186 424.294 157.039C424.294 157.039 422.038 171.213 420.784 173.7C419.531 176.187 413.514 199.688 414.266 202.548C414.266 202.548 413.013 205.407 408.375 204.164C403.737 202.921 378.666 199.066 373.026 195.336L357.482 188C357.482 188 327.147 166.737 320.754 185.015C314.361 203.294 350.713 202.557 350.713 202.557L367.886 210.515L419.907 227.54C419.907 227.54 426.801 230.649 431.439 220.701C432.597 218.215 433.836 215.852 435.044 213.703C441.302 202.647 446.314 190.942 449.991 178.798C451.41 174.068 452.428 170.074 452.388 168.508C452.333 166.329 454.489 162.843 456.901 159.615C462.416 152.333 464.422 142.963 461.965 134.199C459.984 127.152 455.853 120.721 447.349 121.009L439.963 122.099Z" fill="#FFC1C7"/>
<path opacity="0.1" d="M266.375 83.0877C264.523 83.9962 263.673 86.8006 263.331 90C263.004 90 262.677 90 262.35 90C255.585 90.0125 249.053 87.5799 244 83.1667C244.312 79.8192 244.403 77 244.403 77C244.403 77 271.407 80.6191 266.375 83.0877Z" fill="black"/>
<path d="M290 61.5C290 66.939 288.387 72.2558 285.365 76.7782C282.344 81.3005 278.049 84.8253 273.024 86.9067C267.999 88.9881 262.469 89.5327 257.135 88.4716C251.801 87.4105 246.901 84.7914 243.055 80.9454C239.209 77.0995 236.59 72.1995 235.528 66.865C234.467 61.5305 235.012 56.0012 237.093 50.9762C239.175 45.9512 242.699 41.6563 247.222 38.6346C251.744 35.6128 257.061 34 262.5 34C269.789 34.0159 276.774 36.9182 281.928 42.0721C287.082 47.2259 289.984 54.2114 290 61.5Z" fill="#FFC1C8"/>
<path opacity="0.1" d="M299 168.811C299 168.811 284.651 174.517 280.159 176.502C275.667 178.487 249.964 173.897 249.964 173.897C249.964 173.897 236.613 167.198 237.736 160.499C238.859 153.8 227.006 131.852 227.006 131.852C227.006 131.852 226.632 112.375 231.872 108.653C237.112 104.931 235.116 97.1157 235.116 97.1157C235.116 97.1157 235.141 96.8577 235.221 96.4359C235.545 94.7785 236.718 90.5605 240.606 89.1761C241.393 88.9656 242.219 88.9435 243.017 89.1116C246.745 89.6723 252.869 92.4313 257.935 94.977C262.127 97.0859 265.596 99.046 266.389 99.5025L266.559 99.5968C266.559 99.5968 268.431 103.939 270.676 102.574C272.922 101.21 284.152 107.536 286.273 110.39C288.394 113.243 286.897 126.641 286.523 129.991C286.148 133.34 288.644 143.265 291.389 148.961C294.134 154.658 299 168.811 299 168.811Z" fill="black"/>
<path d="M299 167.717C299 167.717 284.651 173.489 280.159 175.496C275.667 177.504 249.964 172.862 249.964 172.862C249.964 172.862 236.613 166.086 237.736 159.311C238.859 152.536 227.006 130.339 227.006 130.339C227.006 130.339 226.632 110.64 231.872 106.876C237.112 103.112 235.116 95.2079 235.116 95.2079C235.116 95.2079 235.141 94.947 235.221 94.5204C235.545 92.8441 236.718 88.5783 240.606 87.1781C241.393 86.9652 242.219 86.9428 243.017 87.1128C246.745 87.6799 252.869 90.4703 257.935 93.0449C262.127 95.1778 265.596 97.1602 266.389 97.6219L266.559 97.7172C266.559 97.7172 268.431 102.109 270.676 100.728C272.922 99.3483 284.152 105.747 286.273 108.633C288.394 111.519 286.897 125.069 286.523 128.457C286.148 131.844 288.644 141.881 291.389 147.643C294.134 153.404 299 167.717 299 167.717Z" fill="#DCE6F2"/>
<path d="M253.28 148.247C253.28 148.247 240.992 168.011 239 169.083L239.747 176C239.747 176 257.264 172.373 258.345 167.517C259.426 162.66 258.843 148 258.843 148L253.28 148.247Z" fill="#575988"/>
<path opacity="0.2" d="M253.28 148.247C253.28 148.247 240.992 168.011 239 169.083L239.747 176C239.747 176 257.264 172.373 258.345 167.517C259.426 162.66 258.843 148 258.843 148L253.28 148.247Z" fill="black"/>
<path opacity="0.1" d="M270 123C270 123 272.388 131.657 276.148 134.606C279.908 137.554 270 123 270 123Z" fill="black"/>
<path d="M249 145.304C249.314 145.861 259.829 160.041 270.907 165.279C281.985 170.517 306.696 176.688 306.696 176.688C306.696 176.688 326.736 180.387 330.156 181.802C333.577 183.218 337.939 176.87 316.464 167.81C294.99 158.749 290.823 154.739 290.823 154.739C290.823 154.739 272.152 145.728 269.165 141.289C266.177 136.85 249 145.304 249 145.304Z" fill="#FFC1C8"/>
<path opacity="0.1" d="M257 215C257.355 214.742 265.864 204.799 266.927 209.06C267.991 213.321 257 215 257 215Z" fill="black"/>
<path opacity="0.1" d="M262 196C261.875 196.367 260.625 206.776 257 208L262 196Z" fill="black"/>
<path opacity="0.1" d="M266 199C266 199 262.475 210.267 258 211L266 199Z" fill="black"/>
<path opacity="0.1" d="M249 232.999C249 232.999 254.28 233.147 255 229L249 232.999Z" fill="black"/>
<path opacity="0.1" d="M257 255C257.751 255.135 269.514 263.225 266.51 264.843C263.507 266.462 257 255 257 255Z" fill="black"/>
<path opacity="0.1" d="M258 319V320.138C257.938 321.871 257.912 323.028 257.912 323.028L238.088 332L238 320.142C238 320.142 238 320.088 238 319.985V319.182L245.936 319.423L258 319Z" fill="black"/>
<path d="M261 336.065L245.126 342L238 337.884L238.075 332.25L238.239 320.156L245.858 320.394L257.44 320V328.47L261 336.065Z" fill="#FF6584"/>
<path opacity="0.1" d="M261 335.816L245.126 342L238 337.712L238.075 331.842C239.109 333.221 240.43 334.35 241.943 335.148C243.457 335.945 245.125 336.392 246.829 336.455C246.829 336.455 252.415 329.358 255.816 327.3C256.058 327.153 256.326 327.057 256.606 327.019C256.885 326.981 257.168 327 257.44 327.077V327.904L261 335.816Z" fill="black"/>
<path d="M247.411 337.381C247.411 337.381 240.952 337.467 237.713 331.249C237.713 331.249 233.108 335.748 233.024 345.232C232.939 354.717 233.108 355.044 233.108 355.044C233.108 355.044 251.693 354.31 255.17 355.617C258.648 356.923 287.819 354.471 287.819 354.471C287.819 354.471 289.757 349.319 280.949 347.519C272.141 345.72 264.868 336.235 264.624 335.828C264.381 335.421 259.776 326.278 256.383 328.288C252.989 330.299 247.411 337.381 247.411 337.381Z" fill="#5D618C"/>
<path opacity="0.1" d="M290 61.4911C290.001 63.6258 289.754 65.7534 289.265 67.8312C288.848 67.7234 288.449 67.5548 288.08 67.3308C287.545 66.9855 287.011 66.5102 286.381 66.5652C286.011 66.6233 285.665 66.7827 285.381 67.0256C282.421 69.1923 280.222 72.7552 276.622 73.4457C276.983 72.3911 277.032 71.2547 276.762 70.1731C275.999 70.9415 275.063 71.5152 274.032 71.8461C273.001 72.177 271.906 72.2553 270.838 72.0746C271.099 71.4499 271.129 70.753 270.923 70.1081C268.389 71.529 265.75 72.7551 263.03 73.776C262.935 73.2756 262.845 72.8152 262.75 72.3348C258.921 74.2063 259.221 80.5564 255.391 82.4279C253.112 83.5438 249.892 82.7432 248.318 84.7548C248.258 84.8349 248.203 84.9149 248.148 85C244.056 82.4946 240.69 78.9613 238.385 74.7511C236.079 70.5408 234.914 65.8001 235.005 60.9997C235.096 56.1993 236.44 51.5062 238.904 47.3866C241.367 43.267 244.864 39.8641 249.048 37.516C253.232 35.1679 257.957 33.9562 262.753 34.0012C267.549 34.0463 272.25 35.3465 276.389 37.7728C280.528 40.1991 283.961 43.6671 286.347 47.8322C288.733 51.9974 289.989 56.7149 289.99 61.5161L290 61.4911Z" fill="black"/>
<path d="M264.255 30.2623C261.982 29.3134 259.674 28.3595 257.228 28.0763C254.783 27.7931 252.145 28.275 250.3 29.9195C248.824 31.2311 247.667 33.3377 245.699 33.3973C244.739 33.4321 243.853 32.9452 242.992 32.5229C240.532 31.3305 237.456 30.6548 235.237 32.2347C233.466 33.5016 232.801 35.8268 232.511 37.9979C232.221 40.169 232.152 42.4693 231.128 44.3821C230.493 45.5745 229.529 46.5483 228.732 47.6363C226.705 50.4009 225.753 53.8193 226.055 57.2449C226.26 58.9389 226.619 60.6103 227.127 62.238L229.135 69.3973C230.154 73.0341 231.192 76.7205 233.131 79.9549C235.07 83.1892 238.052 85.9715 241.693 86.8061C243.888 87.3029 246.545 86.8955 247.775 84.9927C248.09 84.4959 248.292 83.9643 248.637 83.5022C250.162 81.5149 253.356 82.3049 255.6 81.1969C259.369 79.3388 259.074 73.0341 262.843 71.176L263.124 72.6018C265.798 71.5869 268.394 70.3713 270.889 68.9651C271.09 69.6051 271.062 70.2962 270.81 70.9176C271.86 71.0945 272.936 71.0155 273.95 70.6871C274.963 70.3587 275.884 69.7904 276.636 69.0297C276.901 70.1035 276.853 71.2318 276.498 72.2789C280.041 71.5883 282.207 68.0509 285.12 65.8997C285.401 65.662 285.741 65.5058 286.104 65.4475C286.729 65.3929 287.25 65.8649 287.777 66.2027C288.689 66.7618 289.762 66.9919 290.82 66.8557C291.878 66.7194 292.86 66.2247 293.603 65.4525C295.153 63.7534 295.222 61.1401 294.725 58.8845C294.228 56.6289 293.249 54.4776 293.037 52.1773C292.727 49.0423 293.81 45.7682 292.816 42.7873C291.974 40.2584 289.77 38.4252 287.403 37.2228C285.036 36.0205 282.482 35.32 280.066 34.2419C277.773 33.2035 275.637 31.8124 273.256 30.9926C269.811 29.8052 266.066 29.8996 262.43 29.999" fill="#794F6A"/>
<path d="M264.856 123C264.856 123 268.885 96.7494 234.379 98.0465L217 100.285C217 100.285 233.578 103.172 237.568 103.596L237.991 103.655C241.683 104.308 254.448 103.494 264.856 123Z" fill="#B5EBE1"/>
<path opacity="0.1" d="M243 230V229.725C256.5 218.936 243 230 243 230Z" fill="black"/>
<path d="M213 230.866C210.993 231.045 208.973 231.045 206.966 230.866L165 169.935C165.773 167.915 167.623 166.711 169.394 166L213 230.866Z" fill="#575988"/>
<path d="M186 165.667L183.944 168C183.944 168 168.351 143.251 165 130.68C165.637 129.251 166.598 128.946 166.598 128.946C166.598 128.946 168.222 127.802 170.838 126C171.81 131.912 175.125 146.369 186 165.667Z" fill="#575988"/>
<path d="M197 157.794L192.938 160C181.849 147.469 180.905 126.418 181.007 118.03L183.931 116C184.327 127.016 197 157.794 197 157.794Z" fill="#575988"/>
<path opacity="0.1" d="M207.603 156C207.483 157.617 203.02 174.041 209.533 176.778C216.046 179.516 207.603 156 207.603 156Z" fill="black"/>
<path opacity="0.1" d="M222 183.652C222.242 184.53 224.42 213.131 229.139 210.873C233.858 208.615 231.317 176 231.317 176L222 183.652Z" fill="black"/>
<path opacity="0.1" d="M453 72.0963C453.01 80.1186 449.913 87.8312 444.363 93.607C442.103 94.0874 439.771 94.1278 437.495 93.7259C436.332 93.5781 435.226 93.1326 434.284 92.4323C433.376 91.5927 432.666 90.5618 432.203 89.4139C430.4 85.5231 429.476 81.0277 426.946 77.697C424.417 74.3663 419.283 72.9042 416.842 76.3191C415.513 78.1728 415.291 81.0227 413.517 82.3064C411.387 83.8528 408.576 82.0338 406.921 79.8283C402.029 73.385 403.704 60.7165 394.376 58.9371L394 58.8727C396.991 52.4743 402.068 47.2904 408.393 44.1769C414.718 41.0634 421.912 40.2065 428.787 41.7475C435.663 43.2885 441.809 47.1354 446.211 52.653C450.613 58.1707 453.008 65.0292 453 72.0963Z" fill="black"/>
<path d="M394.756 58.2818C393.224 57.9838 391.447 58.0242 390.421 56.691C389.815 55.9031 389.64 54.8123 389.495 53.777C388.879 49.3026 388.544 44.4999 390.311 40.4446C393.209 33.7935 400.669 31.5715 407.152 32.0664C413.634 32.5613 419.997 35.0005 426.48 34.5915C431.246 34.2783 435.947 32.4199 440.697 32.9502C444.457 33.3744 447.961 35.2581 451.34 37.1822C454.504 38.98 457.738 40.9143 459.981 44.0353C463.275 48.6057 463.896 54.9184 463.986 60.8422C464.096 67.7963 463.61 75.018 460.717 81.1388C456.522 90.022 447.165 95.3096 438.445 93.7188C437.266 93.5681 436.145 93.1142 435.191 92.4007C434.275 91.5436 433.557 90.4936 433.088 89.3251C431.256 85.3557 430.32 80.7802 427.757 77.3815C425.194 73.9827 419.992 72.503 417.519 75.9826C416.173 77.8663 415.947 80.7752 414.15 82.0832C411.992 83.6538 409.144 81.8004 407.467 79.5581C402.511 72.9878 404.208 60.0897 394.756 58.2818Z" fill="#945B79"/>
<path d="M470.758 44.0896C475.548 46.361 478.871 50.7841 481.992 55.0424C484.591 58.5818 487.28 62.3658 487.621 66.729C487.757 68.5162 487.491 70.3333 487.833 72.0905C489.034 78.2958 496.88 81.0764 499.172 86.9871C500.238 89.7727 499.901 92.8728 499.434 95.8182C498.761 100.079 497.857 104.3 496.724 108.463C496.046 110.959 495.277 113.555 495.794 116.091C496.191 118.058 497.302 119.785 498.187 121.583C500.494 126.43 500.891 131.926 501.067 137.283C501.243 142.639 501.238 148.091 502.851 153.203C504.465 158.315 508.024 163.147 513.156 164.8C511.432 165.967 509.434 166.672 507.355 166.846C507.048 168.519 508.009 170.221 509.366 171.279C510.723 172.338 512.382 172.887 514 173.411C512.895 174.185 511.625 174.694 510.289 174.899C508.953 175.103 507.587 174.997 506.3 174.589C504.153 173.89 502.379 172.393 500.665 170.925L491.029 162.693C489.742 161.658 488.553 160.508 487.476 159.258C481.243 151.565 484.963 139.909 481.484 130.668C478.649 123.155 471.029 117.055 471.728 109.062C471.919 106.826 472.784 104.709 473.507 102.573C476.075 94.8207 476.881 86.6003 475.868 78.5021C474.856 70.4039 472.05 62.6291 467.652 55.7363C466.551 54.039 465.274 52.3316 463.44 51.458C460.65 50.1351 456.664 50.7042 455.081 48.0634C454.241 46.6706 454.075 44.2194 454 42.6569C459.117 41.4937 465.973 41.8182 470.758 44.0896Z" fill="#945B79"/>
<path opacity="0.1" d="M227.439 128.33C229.798 113.117 249.185 107.622 259.476 119.25C262.45 122.623 265.087 126.317 266.58 130.012C271.622 142.501 272 143.613 272 143.613C272 143.613 240.866 149.549 241.118 154L227 131.867C227 131.867 227.106 130.482 227.439 128.33Z" fill="black"/>
<path d="M227.439 126.704C229.798 111.12 249.185 105.491 259.476 117.402C262.45 120.858 265.087 124.642 266.58 128.427C271.622 141.22 272 142.36 272 142.36C272 142.36 240.866 148.44 241.118 153L227 130.327C227 130.327 227.106 128.908 227.439 126.704Z" fill="#DCE6F2"/>
<path opacity="0.1" d="M236 107C236.388 107.614 251.669 125.291 259.698 127.81C267.727 130.329 236 107 236 107Z" fill="black"/>
<path opacity="0.1" d="M173 165C173 165 212 211.267 217 230L173 165Z" fill="black"/>
<path opacity="0.1" d="M175 123C175 123 183.427 166.804 199.786 185.222C216.145 203.64 233 235 233 235" stroke="black" stroke-width="2" stroke-miterlimit="10"/>
<g opacity="0.1">
<path opacity="0.1" d="M294.933 58.989C294.967 60.4465 294.463 61.8654 293.517 62.9756C292.763 63.7501 291.769 64.2463 290.697 64.383C289.625 64.5196 288.538 64.2888 287.614 63.728C287.08 63.3892 286.552 62.9158 285.919 62.9706C285.551 63.029 285.207 63.1857 284.921 63.4241C282.114 65.4771 279.99 68.786 276.695 69.6979C276.811 70.5783 276.723 71.4737 276.436 72.3141C280.025 71.6214 282.219 68.0734 285.171 65.9157C285.456 65.6773 285.801 65.5206 286.168 65.4622C286.801 65.4074 287.33 65.8808 287.863 66.2196C288.787 66.7804 289.874 67.0112 290.946 66.8746C292.019 66.7379 293.013 66.2417 293.766 65.4672C295.307 63.7729 295.402 61.2215 294.933 58.989Z" fill="black"/>
<path opacity="0.1" d="M292.944 49.6405C292.984 50.0491 293.053 50.4528 293.133 50.8564C293.133 48.3648 293.727 45.7735 293.133 43.3816C293.143 45.4147 292.734 47.5675 292.944 49.6405Z" fill="black"/>
<path opacity="0.1" d="M276.336 66.5435C275.574 67.3065 274.641 67.8765 273.614 68.2059C272.587 68.5353 271.496 68.6146 270.433 68.4372C270.688 67.8138 270.716 67.1207 270.512 66.4787C267.985 67.8892 265.355 69.1085 262.645 70.1264L262.36 68.6963C258.541 70.56 258.84 76.8837 255.021 78.7474C252.748 79.8587 249.537 79.0564 247.966 81.0596C247.617 81.5131 247.413 82.0562 247.094 82.5546C245.847 84.4631 243.155 84.8767 240.931 84.3734C237.232 83.5363 234.215 80.7457 232.256 77.5016C230.297 74.2575 229.24 70.56 228.207 66.9123L226.173 59.7315C225.839 58.5355 225.5 57.3395 225.281 56.1187C225.281 56.4874 225.281 56.8512 225.336 57.215C225.544 58.9141 225.908 60.5905 226.423 62.2231L228.457 69.4039C229.489 73.0516 230.541 76.7491 232.505 79.9932C234.47 83.2373 237.491 86.0279 241.181 86.865C243.404 87.3634 246.097 86.9547 247.343 85.0462C247.662 84.5479 247.867 84.0147 248.216 83.5512C249.761 81.5579 252.997 82.3503 255.271 81.239C259.09 79.3753 258.791 73.0516 262.61 71.1879L262.894 72.6181C265.599 71.5994 268.224 70.3801 270.747 68.9703C270.95 69.6123 270.922 70.3054 270.667 70.9288C271.679 71.0961 272.715 71.0314 273.698 70.7396C274.681 70.4478 275.585 69.9365 276.341 69.2444C276.553 68.3565 276.552 67.4307 276.336 66.5435Z" fill="black"/>
</g>
<path opacity="0.1" d="M267 99.5406C264.328 101.084 258.119 104.521 256.862 103.933C255.521 103.311 240.888 98.176 236 96.4628C236.323 94.7994 237.49 90.5662 241.36 89.1767C242.143 88.9655 242.965 88.9433 243.759 89.112L258.601 94.9986C262.758 97.1152 266.21 99.0824 267 99.5406Z" fill="black"/>
<path d="M267 97.5406C264.328 99.0844 258.119 102.521 256.862 101.933C255.521 101.311 240.888 96.176 236 94.4628C236.323 92.7994 237.49 88.5662 241.36 87.1767C242.143 86.9655 242.965 86.9433 243.759 87.112L258.601 92.9986C262.758 95.1152 266.21 97.0824 267 97.5406Z" fill="#DCE6F2"/>
<path opacity="0.1" d="M463.976 60.574C463.831 66.2086 463.065 71.8432 460.716 76.7678C456.52 85.5622 447.161 90.7968 438.438 89.2219C437.259 89.0728 436.138 88.6234 435.183 87.917C434.266 87.0685 433.548 86.029 433.08 84.8722C431.247 80.9425 430.311 76.4128 427.747 73.0481C425.183 69.6833 419.98 68.2184 417.506 71.6632C416.159 73.528 415.934 76.4078 414.136 77.7027C411.978 79.2576 409.129 77.4228 407.451 75.2029C402.494 68.7034 404.191 55.9193 394.737 54.1294C393.205 53.8344 391.427 53.8744 390.401 52.5545C389.795 51.7746 389.62 50.6947 389.474 49.6697C389.304 48.4648 389.159 47.2349 389.074 46C388.9 48.7295 389.034 51.4699 389.474 54.1694C389.62 55.1943 389.795 56.2743 390.401 57.0542C391.427 58.3741 393.205 58.3341 394.737 58.6291C404.191 60.419 402.494 73.1881 407.451 79.7026C409.124 81.8974 411.958 83.7323 414.136 82.2024C415.934 80.9075 416.139 78.0277 417.506 76.1628C419.98 72.7181 425.183 74.188 427.747 77.5477C430.311 80.9075 431.252 85.4422 433.08 89.3719C433.548 90.5287 434.266 91.5682 435.183 92.4167C436.138 93.1231 437.259 93.5725 438.438 93.7216C447.161 95.2965 456.52 90.0619 460.716 81.2675C463.61 75.2079 464.096 68.0584 463.986 61.1739C463.976 60.9539 463.976 60.7539 463.976 60.574Z" fill="black"/>
<g opacity="0.1">
<path opacity="0.1" d="M496.301 84.2837C497.358 87.0643 497.024 90.1589 496.561 93.099C495.894 97.3486 494.997 101.559 493.873 105.712C493.2 108.203 492.437 110.794 492.951 113.326C493.345 115.289 494.447 117.013 495.324 118.807C497.613 123.646 498.007 129.133 498.181 134.48C498.356 139.827 498.351 145.268 499.951 150.371C500.988 153.849 502.969 156.971 505.675 159.391C504.245 157.477 503.153 155.333 502.444 153.052C500.843 147.949 500.843 142.508 500.674 137.161C500.504 131.814 500.106 126.327 497.817 121.493C496.959 119.684 495.823 117.96 495.444 116.012C494.945 113.48 495.693 110.884 496.366 108.392C497.491 104.229 498.388 100.006 499.054 95.7451C499.517 92.805 499.851 89.7054 498.794 86.9248C497.942 84.6973 496.301 82.9382 494.521 81.229C495.267 82.1507 495.867 83.1809 496.301 84.2837Z" fill="black"/>
<path opacity="0.1" d="M512.665 164.638C511.332 164.197 510.079 163.544 508.955 162.704C507.545 163.438 506.003 163.885 504.418 164.02C504.114 165.689 505.066 167.389 506.413 168.445C506.68 168.66 506.963 168.855 507.26 169.028C506.913 168.298 506.797 167.479 506.926 166.681C508.982 166.5 510.957 165.796 512.665 164.638Z" fill="black"/>
<path opacity="0.1" d="M460.842 48.8481C458.942 47.9411 456.484 47.9212 454.62 47.1488C454.725 47.4951 454.867 47.8292 455.043 48.1454C456.614 50.7766 460.568 50.2085 463.335 51.534C463.684 51.7093 464.018 51.9144 464.332 52.147C463.467 50.7694 462.266 49.6343 460.842 48.8481Z" fill="black"/>
<path opacity="0.1" d="M509.384 171.49C507.474 172.304 505.335 172.404 503.356 171.774C501.227 171.076 499.467 169.581 497.767 168.116L488.209 159.899C487.756 159.51 487.307 159.116 486.868 158.718C486.968 158.852 487.068 158.992 487.177 159.126C488.244 160.375 489.424 161.523 490.702 162.555L500.26 170.777C501.96 172.237 503.72 173.737 505.849 174.435C507.127 174.841 508.482 174.946 509.807 174.741C511.133 174.537 512.392 174.027 513.488 173.254C512.045 172.859 510.664 172.265 509.384 171.49Z" fill="black"/>
<path opacity="0.1" d="M479.26 52.3912C481.837 55.9243 484.505 59.7016 484.844 64.0569C484.978 65.8409 484.714 67.6547 485.053 69.4088C485.592 72.2144 487.491 74.3223 489.615 76.3305C488.589 75.0998 487.879 73.6372 487.546 72.0699C487.207 70.3108 487.471 68.4969 487.337 66.7129C486.998 62.3576 484.345 58.5803 481.753 55.0522C479.878 52.4759 477.923 49.8448 475.625 47.6621C476.906 49.177 478.098 50.7916 479.26 52.3912Z" fill="black"/>
</g>
<path opacity="0.1" d="M457.473 42C457.473 42 454.71 46.91 462.539 51L463 49.689L457.473 42Z" fill="black"/>
<path d="M456.552 42C456.552 42 453.328 46.91 462.463 51L463 49.689L456.552 42Z" fill="#FF6584"/>
<path d="M574.709 324C574.709 324 577.513 327.533 573.42 332.845C569.326 338.157 565.952 342.673 567.303 346C567.303 346 573.481 336.098 578.517 335.961C583.553 335.823 580.24 329.956 574.709 324Z" fill="#B5EBE1"/>
<path opacity="0.1" d="M575.085 324C575.315 324.341 575.497 324.713 575.626 325.105C580.231 330.659 582.683 335.84 578.254 335.967C574.132 336.09 569.187 343.653 568 345.563C568.038 345.71 568.086 345.853 568.139 346C568.139 346 573.941 336.105 578.671 335.967C583.401 335.83 580.279 329.952 575.085 324Z" fill="black"/>
<path d="M580 328.79C580 330.011 579.772 331 579.496 331C579.22 331 579 330.035 579 328.79C579 327.545 579.276 328.144 579.551 328.144C579.827 328.144 580 327.57 580 328.79Z" fill="#FFD037"/>
<path d="M581.523 330.011C580.742 330.714 580.06 331.139 580.004 330.959C579.948 330.778 580.528 330.063 581.308 329.36C582.089 328.656 581.783 329.168 581.843 329.36C581.903 329.552 582.307 329.307 581.523 330.011Z" fill="#FFD037"/>
<path d="M560.289 324C560.289 324 557.485 327.533 561.579 332.845C565.673 338.157 569.048 342.673 567.697 346C567.697 346 561.523 336.098 556.481 335.961C551.439 335.823 554.778 329.956 560.289 324Z" fill="#B5EBE1"/>
<path opacity="0.1" d="M560.371 324C560.123 324.341 559.927 324.713 559.788 325.105C554.829 330.659 552.189 335.84 556.958 335.967C561.396 336.09 566.722 343.653 568 345.563C567.958 345.711 567.906 345.857 567.845 346C567.845 346 561.603 336.105 556.504 335.967C551.406 335.83 554.798 329.952 560.371 324Z" fill="black"/>
<path d="M555 328.79C555 330.011 555.228 331 555.504 331C555.78 331 556 330.035 556 328.79C556 327.545 555.724 328.144 555.449 328.144C555.173 328.144 555 327.57 555 328.79Z" fill="#FFD037"/>
<path d="M553.714 330.011C554.886 330.714 555.904 331.139 555.994 330.959C556.083 330.778 555.207 330.063 554.036 329.36C552.865 328.656 553.324 329.168 553.234 329.36C553.144 329.552 552.543 329.307 553.714 330.011Z" fill="#FFD037"/>
<path d="M556 346.018C556 346.018 563.792 345.786 566.146 344.196C568.499 342.607 578.133 340.699 578.716 343.23C579.299 345.762 590.424 355.93 581.628 355.998C572.832 356.065 561.189 354.693 558.846 353.336C556.502 351.979 556 346.018 556 346.018Z" fill="#A8A8A8"/>
<path opacity="0.2" d="M581.786 355.115C572.988 355.182 561.343 353.812 558.999 352.456C557.213 351.419 556.502 347.708 556.264 346H556C556 346 556.507 351.978 558.841 353.339C561.176 354.7 572.831 356.065 581.629 355.998C584.166 355.998 585.044 355.119 584.998 353.846C584.633 354.632 583.674 355.115 581.786 355.115Z" fill="black"/>
<path d="M213.977 336.988C214.914 336.264 215.598 335.286 215.937 334.184C216.187 333.069 215.687 331.73 214.569 331.323C213.314 330.867 211.971 331.696 210.956 332.53C209.94 333.365 208.771 334.32 207.439 334.141C208.125 333.551 208.637 332.803 208.927 331.969C209.217 331.135 209.274 330.244 209.093 329.382C209.035 329.026 208.876 328.69 208.634 328.412C207.94 327.704 206.674 328.01 205.837 328.568C203.183 330.338 202.443 333.767 202.433 336.847C202.162 335.736 202.387 334.577 202.382 333.452C202.377 332.327 202.045 331.027 201.035 330.435C200.41 330.107 199.707 329.939 198.993 329.95C197.799 329.906 196.472 330.023 195.655 330.852C194.635 331.88 194.905 333.612 195.788 334.732C196.671 335.853 198.008 336.58 199.238 337.361C200.228 337.921 201.072 338.685 201.708 339.597C201.783 339.726 201.844 339.861 201.892 340H209.338C211.021 339.2 212.581 338.187 213.977 336.988Z" fill="#B5EBE1"/>
<path d="M155.818 345C155.818 345 148.659 321.194 157.163 303.666C160.789 296.338 161.883 288.061 160.283 280.075C159.488 276.289 158.341 272.582 156.856 269" stroke="#535461" stroke-width="2" stroke-miterlimit="10"/>
<path d="M162 258.075C162 260.873 157 269 157 269C157 269 152 260.854 152 258.075C152 256.729 152.527 255.438 153.464 254.486C154.402 253.535 155.674 253 157 253C158.326 253 159.598 253.535 160.536 254.486C161.473 255.438 162 256.729 162 258.075Z" fill="#B5EBE1"/>
<path d="M171.173 274.2C169.504 276.693 160 281 160 281C160 281 160.168 270.843 161.838 268.359C162.654 267.196 163.908 266.387 165.333 266.108C166.758 265.828 168.239 266.099 169.459 266.862C170.68 267.626 171.543 268.821 171.863 270.193C172.184 271.564 171.936 273.003 171.173 274.2Z" fill="#B5EBE1"/>
<path d="M170.103 302.274C167.589 303.615 158 302.687 158 302.687C158 302.687 162.999 293.975 165.513 292.628C166.113 292.292 166.769 292.086 167.445 292.022C168.121 291.957 168.802 292.037 169.448 292.255C170.095 292.473 170.694 292.826 171.21 293.292C171.726 293.758 172.149 294.329 172.454 294.971C172.76 295.612 172.941 296.312 172.988 297.029C173.035 297.746 172.946 298.466 172.727 299.146C172.508 299.826 172.163 300.453 171.712 300.99C171.262 301.527 170.714 301.964 170.103 302.274Z" fill="#B5EBE1"/>
<path d="M165.608 322.548C163.202 324.255 153 325 153 325C153 325 156.757 315.883 159.143 314.177C159.711 313.731 160.367 313.4 161.072 313.205C161.778 313.009 162.517 312.953 163.246 313.039C163.975 313.126 164.678 313.354 165.312 313.708C165.946 314.063 166.498 314.537 166.935 315.103C167.372 315.668 167.685 316.312 167.854 316.997C168.023 317.682 168.046 318.392 167.92 319.085C167.793 319.778 167.522 320.439 167.121 321.029C166.72 321.618 166.198 322.123 165.587 322.514L165.608 322.548Z" fill="#B5EBE1"/>
<path d="M148.768 281.644C150.928 283.785 161 286 161 286C161 286 158.531 275.812 156.361 273.671C155.851 273.141 155.242 272.72 154.571 272.433C153.899 272.146 153.177 271.999 152.449 272C151.72 272.001 150.999 272.151 150.328 272.441C149.657 272.73 149.05 273.154 148.543 273.686C148.035 274.218 147.637 274.849 147.373 275.54C147.108 276.231 146.982 276.969 147.002 277.711C147.022 278.453 147.188 279.183 147.489 279.858C147.791 280.534 148.222 281.141 148.757 281.644H148.768Z" fill="#B5EBE1"/>
<path d="M143.82 306.268C146.35 307.617 156 306.689 156 306.689C156 306.689 150.974 297.929 148.439 296.581C147.838 296.26 147.182 296.068 146.51 296.015C145.839 295.962 145.164 296.05 144.524 296.273C143.884 296.496 143.292 296.85 142.782 297.315C142.271 297.78 141.853 298.346 141.549 298.982C141.246 299.618 141.064 300.311 141.014 301.022C140.964 301.732 141.047 302.446 141.258 303.123C141.469 303.799 141.803 304.425 142.243 304.965C142.683 305.505 143.219 305.948 143.82 306.268Z" fill="#B5EBE1"/>
<path d="M141.887 330.485C144.198 332.231 154 333 154 333C154 333 150.39 323.645 148.098 321.895C146.986 321.137 145.631 320.844 144.314 321.079C142.997 321.314 141.819 322.058 141.023 323.156C140.227 324.255 139.875 325.625 140.04 326.981C140.204 328.338 140.873 329.578 141.907 330.445L141.887 330.485Z" fill="#B5EBE1"/>
<path d="M162 258.075C162 260.873 157 269 157 269C157 269 152 260.854 152 258.075C152 256.729 152.527 255.438 153.464 254.486C154.402 253.535 155.674 253 157 253C158.326 253 159.598 253.535 160.536 254.486C161.473 255.438 162 256.729 162 258.075Z" fill="#B5EBE1"/>
<path d="M171.173 274.2C169.504 276.693 160 281 160 281C160 281 160.168 270.843 161.838 268.359C162.654 267.196 163.908 266.387 165.333 266.108C166.758 265.828 168.239 266.099 169.459 266.862C170.68 267.626 171.543 268.821 171.863 270.193C172.184 271.564 171.936 273.003 171.173 274.2Z" fill="#B5EBE1"/>
<path d="M170.103 302.274C167.589 303.615 158 302.687 158 302.687C158 302.687 162.999 293.975 165.513 292.628C166.113 292.292 166.769 292.086 167.445 292.022C168.121 291.957 168.802 292.037 169.448 292.255C170.095 292.473 170.694 292.826 171.21 293.292C171.726 293.758 172.149 294.329 172.454 294.971C172.76 295.612 172.941 296.312 172.988 297.029C173.035 297.746 172.946 298.466 172.727 299.146C172.508 299.826 172.163 300.453 171.712 300.99C171.262 301.527 170.714 301.964 170.103 302.274Z" fill="#B5EBE1"/>
<path d="M165.608 322.548C163.202 324.255 153 325 153 325C153 325 156.757 315.883 159.143 314.177C159.711 313.731 160.367 313.4 161.072 313.205C161.778 313.009 162.517 312.953 163.246 313.039C163.975 313.126 164.678 313.354 165.312 313.708C165.946 314.063 166.498 314.537 166.935 315.103C167.372 315.668 167.685 316.312 167.854 316.997C168.023 317.682 168.046 318.392 167.92 319.085C167.793 319.778 167.522 320.439 167.121 321.029C166.72 321.618 166.198 322.123 165.587 322.514L165.608 322.548Z" fill="#B5EBE1"/>
<path d="M148.768 281.644C150.928 283.785 161 286 161 286C161 286 158.531 275.812 156.361 273.671C155.851 273.141 155.242 272.72 154.571 272.433C153.899 272.146 153.177 271.999 152.449 272C151.72 272.001 150.999 272.151 150.328 272.441C149.657 272.73 149.05 273.154 148.543 273.686C148.035 274.218 147.637 274.849 147.373 275.54C147.108 276.231 146.982 276.969 147.002 277.711C147.022 278.453 147.188 279.183 147.489 279.858C147.791 280.534 148.222 281.141 148.757 281.644H148.768Z" fill="#B5EBE1"/>
<path d="M143.82 306.268C146.35 307.617 156 306.689 156 306.689C156 306.689 150.974 297.929 148.439 296.581C147.838 296.26 147.182 296.068 146.51 296.015C145.839 295.962 145.164 296.05 144.524 296.273C143.884 296.496 143.292 296.85 142.782 297.315C142.271 297.78 141.853 298.346 141.549 298.982C141.246 299.618 141.064 300.311 141.014 301.022C140.964 301.732 141.047 302.446 141.258 303.123C141.469 303.799 141.803 304.425 142.243 304.965C142.683 305.505 143.219 305.948 143.82 306.268Z" fill="#B5EBE1"/>
<path d="M141.887 330.485C144.198 332.231 154 333 154 333C154 333 150.39 323.645 148.098 321.895C146.986 321.137 145.631 320.844 144.314 321.079C142.997 321.314 141.819 322.058 141.023 323.156C140.227 324.255 139.875 325.625 140.04 326.981C140.204 328.338 140.873 329.578 141.907 330.445L141.887 330.485Z" fill="#B5EBE1"/>
<path d="M139 343.414C139 343.414 147.66 341.701 149.968 339.417C152.275 337.134 162.671 333.136 163.825 335.989C164.979 338.842 179.413 348.551 169.6 350.265C159.786 351.978 146.506 352.548 143.616 351.404C140.726 350.26 139 343.414 139 343.414Z" fill="#A8A8A8"/>
<path opacity="0.2" d="M169.604 349.088C159.784 350.873 146.507 351.466 143.616 350.279C141.42 349.372 139.891 345.031 139.289 343L139 343.063C139 343.063 140.731 350.195 143.616 351.382C146.502 352.568 159.784 351.98 169.604 350.195C172.434 349.671 173.244 348.469 172.94 346.942C172.687 347.939 171.71 348.7 169.604 349.088Z" fill="black"/>
</svg>
