<svg width="436" height="300" viewBox="0 0 436 300" fill="none" xmlns="http://www.w3.org/2000/svg">
<path d="M59.8016 66.7109C60.1038 67.1474 60.4731 67.5503 61.0103 67.6846C61.8496 67.9196 62.7561 67.2817 63.0919 66.4759C63.4276 65.6702 63.394 64.7637 63.3604 63.8908C64.7034 65.1666 66.5499 66.1738 68.3629 65.7373C70.1759 65.3008 71.2838 62.7157 69.9409 61.4734C71.2503 61.8092 72.6604 62.1449 73.9026 61.6749C75.1784 61.2049 76.0513 59.5597 75.2791 58.4518C74.8762 57.9146 74.2048 57.646 73.5669 57.4446C70.6795 56.4374 67.7586 55.4302 64.8713 54.4565C64.1326 54.188 63.3604 53.9194 62.5547 53.9865C56.6121 54.4565 57.3172 63.085 59.8016 66.7109Z" fill="#F7EDE1"/>
<path d="M135.611 27.2618C134.436 27.6311 129.668 13.2615 125.035 19.4391C120.872 24.9452 131.918 28.4368 135.611 27.2618Z" fill="#FFD037"/>
<path d="M35.0578 98.6732C38.2473 99.244 41.5039 98.9082 44.6934 98.3039C41.4368 97.2296 38.5159 95.3494 35.4271 93.9058C33.6141 93.0664 27.1344 90.1119 27.2687 94.2415C27.3022 96.6252 33.3119 98.3711 35.0578 98.6732Z" fill="#F7EDE1"/>
<path d="M95.8934 22.6958C96.1955 22.5615 96.4977 22.4272 96.632 22.1586C97.1356 21.2857 95.7255 20.5807 94.7183 20.5807C92.5696 20.5471 81.6245 19.4391 83.404 23.233C85.0826 26.9261 93.3418 23.7702 95.8934 22.6958Z" fill="#FFD037"/>
<path d="M353.831 12.7349C354.134 13.1713 354.503 13.5742 355.04 13.7085C355.879 13.9435 356.786 13.3056 357.122 12.4999C357.457 11.6941 357.424 10.7876 357.39 9.91469C358.733 11.1905 360.58 12.1977 362.393 11.7612C364.206 11.3248 365.314 8.7396 363.971 7.49738C365.28 7.83311 366.69 8.16885 367.932 7.69882C369.175 7.22879 370.081 5.58367 369.309 4.47574C368.906 3.93856 368.235 3.66997 367.597 3.46853C364.709 2.46132 361.788 1.45411 358.901 0.480468C358.162 0.211878 357.39 -0.0567116 356.584 0.0104359C350.642 0.480468 351.347 9.07534 353.831 12.7349Z" fill="#FFD037"/>
<path d="M222.5 300C332.129 300 421 292.837 421 284C421 275.163 332.129 268 222.5 268C112.871 268 24 275.163 24 284C24 292.837 112.871 300 222.5 300Z" fill="#F7EDE1"/>
<path d="M295.473 232.581C298.025 229.391 302.389 227.511 306.082 225.161C309.775 222.811 313.066 219.353 312.226 215.458C310.85 209.012 299.368 205.688 298.159 199.242C296.782 191.856 309.373 188.566 312.327 181.75C314.006 177.856 312.193 173.29 309.205 169.596C306.217 165.937 302.154 162.848 298.662 159.457C294.399 155.361 290.873 150.56 290.235 145.423C289.598 140.32 292.485 134.915 298.26 133.001C301.516 131.927 305.277 132.027 308.802 131.557C312.327 131.087 316.02 129.677 316.96 126.991C317.43 125.648 317.162 124.171 317.027 122.761C315.987 110.876 326.864 99.7295 341.435 97.7151C340.562 100.502 345.296 103.087 348.855 102.483C352.414 101.878 354.731 99.3602 356.745 97.0101C358.726 94.6599 360.942 92.1419 364.467 91.3697C367.287 90.7654 370.376 91.4033 373.297 92.0747C375.546 92.6119 378.165 93.4177 378.904 95.1971C379.206 95.9357 379.105 96.7079 378.971 97.4465C377.829 104.161 374.64 110.473 373.095 117.121C371.551 123.768 371.752 131.255 376.755 137.164C379.777 140.723 384.343 143.51 386.391 147.438C389.58 153.649 385.283 160.162 380.885 165.433C376.486 170.704 371.618 176.748 373.8 183.194C375.983 189.674 408.583 185.712 400.659 225.631C398.746 235.3 384.947 224.993 386.491 234.797C387.129 238.926 377.729 235.233 376.822 239.228C376.52 240.504 382.731 246.782 382.227 247.991C380.482 252.221 375.143 252.289 379.307 255.713C381.455 257.492 384.376 259.037 385.148 261.353C386.525 265.584 380.079 268.236 374.707 268.404C370.208 268.538 369.268 255.646 365.541 257.761C361.143 260.246 356.51 270.049 334.989 267.296C326.092 266.155 322.567 243.761 315.886 247.555C300.61 256.284 282.279 249.032 295.473 232.581Z" fill="#F7EDE1"/>
<rect x="336.699" y="271.334" width="129.46" height="1.24223" transform="rotate(-88.0145 336.699 271.334)" fill="#D2C9BF"/>
<path d="M337.675 206.158L336.97 205.117C338.917 203.774 356.107 191.889 359.397 191.688L359.464 192.93C357.215 193.098 345.195 200.92 337.675 206.158Z" fill="#D2C9BF"/>
<path d="M337.742 182.086C329.382 170.67 315.482 151.198 316.355 149.116C316.456 148.848 316.691 148.68 316.993 148.613L317.195 149.855C317.43 149.821 317.564 149.586 317.564 149.485C317.53 151.533 330.557 170.1 338.783 181.347L337.742 182.086Z" fill="#D2C9BF"/>
<path d="M340.931 159.188L340.092 158.248C340.73 157.677 355.637 144.214 357.215 143.073L357.953 144.08C356.442 145.221 341.066 159.054 340.931 159.188Z" fill="#D2C9BF"/>
<path d="M360.572 194.172C361.344 192.191 362.251 190.11 364.5 189.002C367.387 187.625 371.517 188.196 374.807 189.539C378.064 190.916 380.851 192.997 384.04 194.642C384.879 195.079 385.887 195.515 386.827 195.347C387.767 195.179 388.371 194.441 388.808 193.769C393.743 185.779 392.131 176.042 393.911 167.347C394.347 164.963 395.187 162.411 397.235 160.733C402.64 156.032 403.714 159.356 408.885 154.018C412.477 150.291 414.659 142.368 419.964 140.521C430.909 136.66 426.377 158.148 426.108 163.217C425.571 172.853 438.664 174.934 433.964 185.812C431.916 190.513 427.854 193.904 424.832 197.899C421.844 201.928 419.997 207.535 423.59 211.798C425.94 214.551 430.573 216.801 430.305 220.091C430.137 222.038 428.156 223.213 426.309 224.154C421.643 226.47 416.842 228.518 411.873 230.331C410.63 230.801 409.287 231.271 408.683 232.278C407.844 233.621 408.65 235.434 409.187 237.113C411.1 243.291 408.616 249.166 403.748 252.926C398.913 256.686 391.997 258.634 384.98 260.044C375.915 261.89 366.515 263.065 356.812 263.502C328.576 263.603 342.106 244.667 344.759 237.382C349.828 222.743 355.099 208.34 360.572 194.172Z" fill="#01AF7C"/>
<path d="M365.407 256.921C365.306 256.921 365.172 256.888 365.071 256.821C364.769 256.619 364.702 256.25 364.869 255.948L412.343 180.541C412.544 180.239 412.913 180.172 413.216 180.34C413.518 180.541 413.585 180.91 413.417 181.213L365.944 256.619C365.81 256.821 365.608 256.921 365.407 256.921Z" fill="#D2C9BF"/>
<path d="M392.4 214.014C392.131 214.014 391.896 213.846 391.796 213.578L388.237 202.633C388.136 202.297 388.304 201.961 388.64 201.827C388.975 201.726 389.311 201.894 389.445 202.23L393.004 213.175C393.105 213.511 392.937 213.846 392.601 213.981C392.534 214.014 392.467 214.014 392.4 214.014Z" fill="#D2C9BF"/>
<path d="M399.215 203.405C398.947 203.405 398.678 203.203 398.611 202.935C398.544 202.599 398.745 202.263 399.081 202.163L410.261 199.477C410.597 199.41 410.933 199.611 411.033 199.947C411.1 200.282 410.899 200.618 410.563 200.719L399.383 203.405C399.316 203.405 399.282 203.405 399.215 203.405Z" fill="#D2C9BF"/>
<path d="M300.24 256.854C299.602 255.108 299.3 253.094 300.106 251.415C301.684 248.159 306.485 248.125 309.708 249.804C312.931 251.449 315.516 254.269 318.941 255.444C322.365 256.619 327.233 254.974 327.3 251.348C327.334 249.535 326.159 247.924 325.152 246.413C322.298 242.015 320.653 236.844 320.418 231.607C320.351 229.626 321.022 227.007 323.003 226.907C324.178 226.839 325.152 227.746 325.957 228.585C329.348 232.043 332.739 235.501 336.097 238.926C336.835 229.122 338.078 218.245 345.531 211.798C346.907 210.59 349.09 209.65 350.466 210.858C351.071 211.395 351.306 212.235 351.473 213.041C352.682 219.319 350.634 225.966 352.38 232.144C352.649 233.051 353.018 233.991 353.723 234.595C357.114 237.382 361.478 230.365 365.709 231.473C368.462 232.178 369.167 236.005 368.025 238.657C366.917 241.276 364.668 243.29 363.359 245.809C362.049 248.327 361.982 252.053 364.5 253.463C365.675 254.101 367.085 254.068 368.395 254.001C372.524 253.833 376.687 253.631 380.817 253.463C378.601 256.686 376.385 259.909 374.169 263.166C373.599 264.005 372.994 265.013 373.229 266.02C373.8 268.101 377.09 267.631 378.668 269.142C380.414 270.821 378.903 274.01 376.654 274.883C374.404 275.756 371.886 275.219 369.435 275.085C355.838 274.447 346.202 283.411 332.538 278.106C321.492 273.708 304.806 269.512 300.24 256.854Z" fill="#D2C9BF"/>
<path d="M342.039 280.188C341.737 280.188 341.569 279.953 341.569 279.684C342.308 266.658 343.785 244.734 345.262 244.029C345.497 243.928 345.766 244.029 345.9 244.264C346.001 244.466 345.934 244.701 345.766 244.835C344.759 246.346 343.248 266.994 342.543 279.752C342.509 280.02 342.274 280.188 342.039 280.188Z" fill="#F7EDE1"/>
<path d="M342.845 267.866C342.644 267.866 342.442 267.732 342.375 267.497C342.308 267.228 342.476 266.993 342.711 266.926L359.498 262.965C359.733 262.897 360.001 263.065 360.068 263.3C360.136 263.569 359.968 263.804 359.733 263.871L342.946 267.833C342.912 267.866 342.879 267.866 342.845 267.866Z" fill="#F7EDE1"/>
<path d="M342.241 276.764C342.174 276.764 342.073 276.73 342.006 276.696L320.586 263.737C320.351 263.603 320.284 263.301 320.418 263.099C320.552 262.864 320.854 262.797 321.056 262.931L342.476 275.891C342.711 276.025 342.778 276.327 342.644 276.529C342.576 276.696 342.409 276.764 342.241 276.764Z" fill="#F7EDE1"/>
<path d="M343.349 260.917C343.214 260.917 343.047 260.85 342.979 260.715L334.955 249.535C334.787 249.334 334.855 249.032 335.056 248.864C335.257 248.729 335.56 248.763 335.727 248.965L343.752 260.145C343.919 260.346 343.852 260.648 343.651 260.816C343.55 260.883 343.449 260.917 343.349 260.917Z" fill="#F7EDE1"/>
<path d="M399.297 281.41C400.875 278.422 402.084 275.501 404.333 272.883C405.106 272.01 406.046 271.137 407.187 271.103C407.422 271.103 407.657 271.137 407.791 271.305C407.926 271.439 407.959 271.674 407.959 271.875C409.034 284.533 392.549 283.794 389.259 273.151C389.057 272.48 388.889 271.775 389.091 271.137C389.46 269.962 390.937 269.458 392.113 269.827C393.288 270.197 394.161 271.238 394.832 272.312C396.578 275.166 397.115 278.557 397.619 281.847C396.813 277.549 397.316 273.017 399.096 269.089C399.364 268.485 399.868 267.813 400.472 268.048C400.775 268.149 400.942 268.451 401.11 268.72C402.218 270.7 402.285 273.118 401.782 275.3C401.345 277.449 400.338 279.463 399.297 281.41Z" fill="#88B0A9"/>
<path d="M72.2161 235.948C66.4637 233.591 60.7855 231.174 57.0332 226.302C55.0847 223.756 54.21 219.438 56.982 217.886C58.3866 217.095 60.1035 217.453 61.72 217.496C67.9082 217.74 65.0783 211.854 62.2401 209.413C57.2128 205.076 50.9329 201.377 48.8924 195.072C48.7661 194.686 48.647 194.234 48.7913 193.845C48.9911 193.259 49.6359 192.925 50.1956 192.75C54.2248 191.438 60.5115 194.462 63.6343 190.956C71.2614 182.441 52.4645 164.526 48.5478 158.081C47.8053 156.851 47.0405 155.517 47.0987 154.071C47.2373 151.283 50.5247 149.652 53.3055 149.858C57.5584 150.192 61.2943 153.07 65.6431 152.84C69.0725 152.678 71.6617 149.721 72.7753 146.669C76.153 137.482 72.778 126.74 74.335 117.218C75.6005 109.42 82.6891 95.0695 92.8296 99.9036C97.4843 102.106 98.2975 108.208 99.2581 113.279C100.159 117.972 101.598 123.299 104.089 127.357C105.919 130.362 108.817 132.877 112.266 133.46C118.999 134.575 128.473 130.148 127.365 141.105C127.031 144.445 125.472 147.55 124.737 150.847C123.968 154.14 124.246 158.055 126.81 160.229C131.469 164.222 147.4 158.818 145.474 169.55C145.009 172.234 143.271 174.509 141.742 176.738C134.324 187.641 146.063 188.395 148.032 197.496C148.75 200.784 147.659 204.244 145.863 207.052C142.964 211.596 138.402 214.977 134.917 219.017C127.823 227.287 122.629 237.017 118.132 246.856C114.835 254.093 111.12 268.477 100.627 267.455C94.1415 266.841 93.1583 256.768 91.4751 252.124C88.183 243.08 80.6833 239.415 72.2161 235.948Z" fill="#FF6633"/>
<path d="M106.655 271.599C106.354 271.566 106.109 271.336 106.109 271.032L95.3963 152.575C95.3664 152.234 95.6368 151.926 95.9779 151.896C96.3189 151.866 96.6306 152.103 96.6568 152.478L107.37 270.935C107.4 271.276 107.163 271.587 106.788 271.613C106.721 271.606 106.688 271.602 106.655 271.599Z" fill="#D84E32"/>
<path d="M99.8822 189.381C99.782 189.37 99.719 189.329 99.6225 189.285C99.3369 189.118 99.2106 188.733 99.4142 188.417L111.84 167.326C112.007 167.04 112.392 166.914 112.708 167.118C112.993 167.284 113.12 167.67 112.916 167.985L100.49 189.076C100.364 189.299 100.116 189.407 99.8822 189.381Z" fill="#D84E32"/>
<path d="M104.199 232.315C104.098 232.304 104.035 232.263 103.939 232.219C103.653 232.052 103.527 231.667 103.731 231.351L116.157 210.26C116.323 209.974 116.709 209.848 117.024 210.052C117.31 210.218 117.436 210.604 117.232 210.919L104.806 232.01C104.684 232.2 104.432 232.341 104.199 232.315Z" fill="#D84E32"/>
<path d="M99.9264 212.253C99.8263 212.242 99.7632 212.201 99.6668 212.157L79.2019 199.564C78.9163 199.397 78.827 198.982 78.9936 198.696C79.1602 198.411 79.5754 198.321 79.861 198.488L100.326 211.081C100.612 211.248 100.701 211.663 100.534 211.948C100.408 212.171 100.16 212.279 99.9264 212.253Z" fill="#D84E32"/>
<path d="M12.6142 237.011C13.3177 236.52 14.0984 236.158 14.9561 235.925C18.4231 235.022 22.0285 236.837 24.8559 239.047C27.6833 241.257 30.2139 243.994 33.5186 245.394C35.05 246.052 37.432 245.939 37.7119 244.302C37.8235 243.552 37.3969 242.81 36.9445 242.171C32.4559 235.811 26.4024 231.017 20.8775 225.644C19.3883 224.208 17.7889 222.208 18.5868 220.296C19.4415 218.245 22.4337 218.186 24.3637 219.219C26.2963 220.284 27.8135 222.089 29.8313 222.946C30.3537 223.176 30.9381 223.333 31.5356 223.221C32.5968 223.006 33.2856 221.876 33.3358 220.761C33.668 214.036 25.1991 209.357 22.2748 204.091C19.7796 199.6 19.7705 194.146 20.2244 189.027C20.5612 185.029 21.215 180.77 23.8835 177.774C24.4714 177.089 25.2317 176.459 26.1356 176.391C29.5839 176.13 30.257 184.126 32.3352 186.224C34.2282 188.101 36.8147 189.353 38.1381 191.71C39.775 194.65 38.8412 198.324 39.3292 201.654C40.1032 206.982 44.992 207.959 46.705 211.903C46.742 208.836 46.779 205.77 46.7825 202.705C46.7759 201.729 46.8622 200.645 47.553 199.987C49.128 198.555 51.5176 200.764 51.9787 202.85C52.5575 205.601 52.0315 208.436 52.0772 211.26C52.1229 214.085 52.9639 217.186 55.3621 218.621C58.0409 220.202 61.3897 219.073 64.3519 218.175C67.3142 217.278 71.0125 216.762 73.0698 219.03C73.8799 219.945 74.306 221.125 74.5312 222.32C76.474 232.408 66.9685 242.489 69.9029 252.334C72.527 261.192 78.2684 266.313 69.1265 273.638C65.3816 276.649 61.2162 278.11 56.4177 276.992C52.7519 276.159 49.4066 274.223 46.074 272.456C39.1953 268.768 31.467 267.199 24.2165 264.381C19.1512 262.408 14.2233 259.583 11.0921 255.14C7.96089 250.697 7.04628 244.403 9.96642 239.838C10.6527 238.675 11.5576 237.731 12.6142 237.011Z" fill="#B5EBE1"/>
<path d="M63.2462 277.35C62.9784 277.37 62.7314 277.221 62.6106 276.96L31.4275 200.906C31.3017 200.578 31.4437 200.231 31.7683 200.072C32.0955 199.946 32.443 200.088 32.6022 200.413L63.7854 276.467C63.9112 276.794 63.7692 277.142 63.4446 277.301C63.3467 277.342 63.3132 277.345 63.2462 277.35Z" fill="#FFF3E5"/>
<path d="M57.0116 262.166C56.9447 262.171 56.8777 262.176 56.8417 262.145L25.7976 255.474C25.4552 255.398 25.229 255.079 25.304 254.737C25.3791 254.394 25.6987 254.168 26.0411 254.243L57.0852 260.914C57.4276 260.99 57.6538 261.309 57.5787 261.651C57.5346 261.958 57.2795 262.146 57.0116 262.166Z" fill="#FFF3E5"/>
<path d="M45.3204 233.624C45.2199 233.632 45.1504 233.603 45.0475 233.577L33.0426 229.335C32.7312 229.224 32.5359 228.869 32.6444 228.524C32.7555 228.212 33.1111 228.017 33.456 228.126L45.4609 232.368C45.7723 232.479 45.9676 232.834 45.8591 233.179C45.7789 233.455 45.5547 233.606 45.3204 233.624Z" fill="#FFF3E5"/>
<path d="M130.665 261C130.766 261 130.9 261 131.034 261.034C131.437 261.168 131.639 261.604 131.806 262.007C133.183 265.633 133.049 264.693 133.418 269.696C133.754 266.506 133.519 267.077 134.66 264.055C134.895 263.484 135.13 262.847 135.6 262.444C138.689 259.791 136.842 269.595 136.44 270.77C134.929 275.067 130.9 276.712 126.636 275.873C122.876 275.168 119.048 272.952 117.202 269.528C117.034 269.226 116.9 268.823 117.101 268.554C117.235 268.353 117.504 268.285 117.739 268.252C119.888 267.916 122.07 268.688 123.917 269.796C125.763 270.904 127.408 272.381 129.188 273.624C130.463 274.497 132.847 274.06 134.392 273.993C137.01 273.892 137.85 272.751 139.864 271.072C140.301 270.703 140.804 270.367 141.341 270.266C141.912 270.199 142.55 270.434 142.751 270.971C142.852 271.307 142.819 271.643 142.718 271.979C141.509 276.108 136.473 276.377 133.787 273.657C131.236 271.072 129.121 266.405 129.557 262.712C129.591 262.007 130.027 261.067 130.665 261Z" fill="#D2C9BF"/>
<path d="M86.9012 272.24C88.3783 269.897 89.6541 267.214 89.9562 264.191C90.0233 263.478 90.0569 262.663 89.7212 262.052C89.4526 261.543 88.9491 261.305 88.479 261.169C85.1555 260.218 82.0669 263.444 79.6833 266.671C75.4533 272.342 71.6932 278.59 68.4704 285.314C70.4175 281.307 71.4247 273.598 70.9547 268.844C70.9211 268.674 70.9211 268.47 70.7868 268.335C70.6861 268.199 70.5182 268.233 70.384 268.267C69.3768 268.538 68.7389 269.863 68.2354 271.085C66.7246 274.855 65.4154 279.236 64.5425 283.481C65.0796 280.798 63.4682 277.606 61.9911 276.009C59.3389 273.157 59.9096 277.13 60.4803 279.473C61.051 281.749 64.7775 290.714 67.4297 288.71C67.9332 288.337 68.0339 286.333 68.4368 285.722C69.1418 284.601 70.1154 284.228 71.1225 283.82C73.8083 282.699 76.5947 282.258 79.1461 280.492C82.1004 278.421 84.7526 275.602 86.9012 272.24Z" fill="#88B0A9"/>
<path fill-rule="evenodd" clip-rule="evenodd" d="M153.135 120.733C153.135 82.3579 184.257 51.2351 222.632 51.2351C261.007 51.2351 292.13 82.3244 292.13 120.733C292.13 159.107 243.716 246.836 222.632 246.836C203.462 246.836 153.135 159.107 153.135 120.733ZM175.327 122.21C175.327 148.33 196.512 169.515 222.632 169.515C248.752 169.515 269.937 148.33 269.937 122.21C269.937 96.0894 248.752 74.9044 222.632 74.9044C196.512 74.9044 175.327 96.0894 175.327 122.21Z" fill="#FF6584"/>
<path d="M222.632 290.347C250.112 290.347 272.388 287.341 272.388 283.632C272.388 279.924 250.112 276.917 222.632 276.917C195.152 276.917 172.876 279.924 172.876 283.632C172.876 287.341 195.152 290.347 222.632 290.347Z" fill="#FF6584"/>
<path d="M284.849 24.6525C289.348 26.3648 294.518 26.1633 298.849 24.1153C297.003 24.9882 289.65 21.8659 287.669 21.2951C284.916 20.4894 280.753 18.072 278 19.3814C279.007 21.8323 282.331 23.6789 284.849 24.6525Z" fill="#F7EDE1"/>
<path d="M411 83.5708C412.377 85.9881 413.753 88.4054 415.13 90.8227C415.801 92.0313 416.506 93.24 417.547 94.1465C418.588 95.053 419.998 95.6237 421.341 95.288C421.878 95.1537 422.415 94.7844 422.516 94.2472C422.583 93.8443 422.381 93.4414 422.18 93.1057C419.931 89.0433 416.674 85.5516 412.813 83" fill="#FFD037"/>
<path d="M394.821 59.0519C395.291 59.119 395.795 58.9512 396.231 58.7833C399.354 57.5411 402.274 55.8288 404.86 53.7137C402.711 53.6801 391.262 51.6657 390.054 52.8743C388.073 54.8552 392.505 58.7161 394.821 59.0519Z" fill="#F7EDE1"/>
</svg>
