<svg width="122" height="112" viewBox="0 0 122 112" fill="none" xmlns="http://www.w3.org/2000/svg">
<path d="M65.4555 98.6749C65.4555 98.6749 83.6839 38.9143 62.5747 14.9957C46.8022 -2.90372 28.8978 -0.765295 20.8819 1.45233C18.8086 2.00008 16.8792 2.99216 15.2277 4.35978C13.5761 5.7274 12.2419 7.43782 11.3176 9.3724C8.51598 15.4205 9.02012 25.2126 28.8042 36.6895C61.9337 55.8632 64.0007 82.1723 64.0007 82.1723L65.4555 98.6749Z" fill="#B5EBE1"/>
<path d="M23.7627 9.92676C23.7627 9.92676 77.5046 26.7245 65.4555 98.6748" stroke="#F7EDE1" stroke-miterlimit="10"/>
<path d="M55.1489 15.946C55.1489 15.946 47.7524 20.9357 50.1075 28.4238" stroke="#F7EDE1" stroke-miterlimit="10"/>
<path d="M29.1714 20.3597C29.1714 20.3597 33.6943 15.7589 39.1966 18.3005" stroke="#F7EDE1" stroke-miterlimit="10"/>
<path d="M50.396 43.5223C50.396 43.5223 58.3183 39.4903 60.3925 44.5375" stroke="#F7EDE1" stroke-miterlimit="10"/>
<path d="M70.0504 51.9247C70.0504 51.9247 64.087 51.4495 63.979 54.3008" stroke="#F7EDE1" stroke-miterlimit="10"/>
<path d="M66.1899 99.1501C66.1899 99.1501 44.843 55.7265 38.9733 56.6697C36.1933 57.1233 34.9041 59.8593 34.328 62.617C33.6078 66.1751 34.013 69.8691 35.4875 73.1866C38.534 80.1203 46.6579 93.3396 66.1899 99.1501Z" fill="#B5EBE1"/>
<path d="M39.1318 64.9209C39.1318 64.9209 61.5807 97.4004 65.9019 98.8404" stroke="#F7EDE1" stroke-miterlimit="10"/>
<path d="M37.0723 69.9897H42.301" stroke="#F7EDE1" stroke-miterlimit="10"/>
<path d="M43.3379 81.8771L51.541 82.2299" stroke="#F7EDE1" stroke-miterlimit="10"/>
<path d="M48.3291 72.366L47.436 76.6356" stroke="#F7EDE1" stroke-miterlimit="10"/>
<path d="M57.0505 85.3619L56.8921 89.2428" stroke="#F7EDE1" stroke-miterlimit="10"/>
<path d="M65.5562 99.1501C65.5562 99.1501 86.9103 55.7265 92.78 56.6697C95.56 57.1233 96.8492 59.8593 97.4253 62.617C98.1455 66.1751 97.7403 69.8691 96.2658 73.1866C93.2697 80.1203 85.0954 93.3396 65.5562 99.1501Z" fill="#B5EBE1"/>
<path d="M92.6143 64.9209C92.6143 64.9209 70.2231 97.4004 65.9019 98.8404" stroke="#F7EDE1" stroke-miterlimit="10"/>
<path d="M94.6745 69.9897H89.4458" stroke="#F7EDE1" stroke-miterlimit="10"/>
<path d="M88.4084 81.8771L80.2124 82.2299" stroke="#F7EDE1" stroke-miterlimit="10"/>
<path d="M83.4248 72.366L84.3107 76.6356" stroke="#F7EDE1" stroke-miterlimit="10"/>
<path d="M74.7026 85.3619L74.8611 89.2428" stroke="#F7EDE1" stroke-miterlimit="10"/>
<path d="M28.8974 109.295C28.3161 108.819 27.8919 108.179 27.6803 107.459C27.5852 107.098 27.6179 106.715 27.7728 106.375C27.9276 106.035 28.1952 105.759 28.5301 105.594C29.3079 105.292 30.1434 105.832 30.7772 106.379C31.411 106.926 32.1312 107.545 32.9378 107.43C32.5128 107.044 32.1947 106.555 32.0142 106.01C31.8338 105.465 31.7972 104.883 31.9079 104.32C31.9466 104.089 32.046 103.873 32.196 103.693C32.6281 103.225 33.4131 103.427 33.9317 103.794C35.5809 104.953 36.0419 107.193 36.0491 109.201C36.132 108.462 36.132 107.716 36.0491 106.976C36.0171 106.604 36.0772 106.229 36.2241 105.885C36.371 105.541 36.6003 105.238 36.8917 105.004C37.282 104.791 37.7222 104.687 38.1665 104.701C38.5343 104.648 38.9091 104.674 39.2665 104.775C39.6239 104.877 39.9559 105.053 40.2407 105.292C40.5128 105.664 40.6528 106.116 40.6384 106.576C40.6241 107.037 40.4562 107.479 40.1615 107.833C39.5456 108.527 38.8147 109.109 38.0008 109.554C37.3877 109.913 36.8634 110.405 36.4668 110.994C36.4168 111.075 36.3781 111.162 36.3516 111.253H31.7062C30.6887 110.726 29.7444 110.067 28.8974 109.295Z" fill="#B5EBE1"/>
<path d="M110.26 91.806C109.678 91.3304 109.254 90.6905 109.043 89.97C108.948 89.6088 108.98 89.226 109.135 88.8862C109.29 88.5464 109.557 88.2705 109.892 88.1052C110.67 87.8028 111.506 88.3428 112.139 88.89C112.773 89.4372 113.493 90.0564 114.3 89.9412C113.874 89.5561 113.555 89.0671 113.374 88.5219C113.194 87.9767 113.158 87.394 113.27 86.8308C113.309 86.6001 113.408 86.3839 113.558 86.2044C113.99 85.7364 114.775 85.938 115.294 86.3052C116.943 87.4644 117.404 89.7035 117.411 91.7124C117.494 90.9731 117.494 90.2269 117.411 89.4876C117.379 89.1156 117.438 88.7413 117.584 88.3975C117.73 88.0536 117.957 87.7506 118.247 87.5148C118.64 87.3018 119.082 87.1974 119.529 87.2123C119.897 87.1599 120.271 87.1854 120.629 87.2871C120.986 87.3888 121.318 87.5645 121.603 87.8027C121.875 88.1749 122.015 88.6277 121.999 89.0885C121.983 89.5493 121.813 89.9916 121.517 90.3444C120.903 91.04 120.171 91.6225 119.356 92.0652C118.743 92.422 118.221 92.9147 117.829 93.5052C117.779 93.586 117.74 93.6732 117.714 93.7644H113.069C112.05 93.2386 111.105 92.5801 110.26 91.806Z" fill="#B5EBE1"/>
<path d="M83.144 109.295C82.5627 108.819 82.1384 108.179 81.9269 107.459C81.8318 107.098 81.8645 106.715 82.0194 106.375C82.1742 106.035 82.4418 105.759 82.7767 105.594C83.5545 105.292 84.39 105.832 85.0237 106.379C85.6575 106.926 86.3777 107.545 87.1844 107.43C86.7582 107.045 86.4393 106.556 86.2588 106.011C86.0783 105.466 86.0423 104.883 86.1545 104.32C86.1932 104.089 86.2926 103.873 86.4426 103.693C86.8747 103.225 87.6597 103.427 88.1783 103.794C89.8275 104.953 90.2885 107.193 90.2957 109.201C90.3786 108.462 90.3786 107.716 90.2957 106.976C90.2634 106.604 90.3227 106.23 90.4684 105.886C90.614 105.543 90.8415 105.239 91.1311 105.004C91.5239 104.791 91.9665 104.686 92.4131 104.701C92.7809 104.649 93.1556 104.674 93.513 104.776C93.8703 104.878 94.2023 105.053 94.4873 105.292C94.7596 105.664 94.8991 106.117 94.8834 106.577C94.8677 107.038 94.6978 107.48 94.4009 107.833C93.787 108.529 93.0557 109.111 92.2402 109.554C91.6277 109.911 91.1054 110.404 90.7134 110.994C90.6635 111.075 90.6247 111.162 90.5982 111.253H85.9528C84.934 110.728 83.9895 110.069 83.144 109.295Z" fill="#B5EBE1"/>
<path d="M6.23977 73.9426C6.23977 73.9426 4.49687 76.2178 7.0464 79.6523C9.59593 83.0867 11.6917 85.9955 10.8419 88.134C10.8419 88.134 7.00318 81.7547 3.87028 81.6539C0.737381 81.5531 2.80438 77.7803 6.23977 73.9426Z" fill="#B5EBE1"/>
<path opacity="0.1" d="M6.23976 73.9426C6.08685 74.1637 5.9679 74.4064 5.88687 74.6626C2.8332 78.2627 1.21272 81.5891 4.14396 81.6683C6.87354 81.7475 10.1505 86.6292 10.9355 87.8676C10.9355 87.9612 10.8779 88.0548 10.8419 88.1412C10.8059 88.2276 7.00317 81.7619 3.87028 81.6611C0.737384 81.5603 2.80438 77.7803 6.23976 73.9426Z" fill="black"/>
<path d="M3.00635 76.8443C3.00635 77.6435 3.09276 78.2843 3.20079 78.2843C3.30882 78.2843 3.40244 77.6363 3.40244 76.8443C3.40244 76.0523 3.29441 76.4194 3.17918 76.4194C3.06396 76.4194 3.00635 76.0379 3.00635 76.8443Z" fill="#FFD037"/>
<path d="M1.89004 77.8019C2.61025 78.1835 3.20802 78.4139 3.26564 78.3131C3.32326 78.2123 2.79032 77.8306 2.08451 77.449C1.37871 77.0674 1.65958 77.341 1.60196 77.449C1.54435 77.557 1.19144 77.4131 1.89004 77.8019Z" fill="#FFD037"/>
<path d="M15.4442 73.9426C15.4442 73.9426 17.1799 76.2178 14.6376 79.6523C12.0953 83.0867 9.99226 85.9955 10.8421 88.134C10.8421 88.134 14.6808 81.7547 17.8065 81.6539C20.9322 81.5531 18.8796 77.7803 15.4442 73.9426Z" fill="#B5EBE1"/>
<path opacity="0.1" d="M15.4443 73.9426C15.5937 74.1657 15.7124 74.4079 15.7972 74.6626C18.8436 78.2627 20.4713 81.5891 17.5401 81.6683C14.8105 81.7475 11.5336 86.6292 10.7485 87.8676C10.7485 87.9612 10.8061 88.0548 10.8421 88.1412C10.8782 88.2276 14.6809 81.7619 17.8065 81.6611C20.9322 81.5603 18.8797 77.7803 15.4443 73.9426Z" fill="black"/>
<path d="M18.6777 76.8443C18.6777 77.6435 18.5913 78.2843 18.4761 78.2843C18.3608 78.2843 18.2744 77.6363 18.2744 76.8443C18.2744 76.0523 18.3896 76.4194 18.4977 76.4194C18.6057 76.4194 18.6777 76.0379 18.6777 76.8443Z" fill="#FFD037"/>
<path d="M19.8088 77.8019C19.0885 78.1835 18.4908 78.4139 18.4404 78.3131C18.3899 78.2123 18.9157 77.8306 19.6215 77.449C20.3273 77.0674 20.0464 77.341 20.0968 77.449C20.1473 77.557 20.529 77.4131 19.8088 77.8019Z" fill="#FFD037"/>
<path d="M18.1236 87.8388C18.1236 87.8388 13.255 87.6876 11.7858 86.6436C10.3165 85.5996 4.2956 84.354 3.9355 86.0316C3.57539 87.7092 -3.38901 94.3621 2.11337 94.4053C7.61576 94.4485 14.8899 93.5485 16.3519 92.6557C17.8139 91.7629 18.1236 87.8388 18.1236 87.8388Z" fill="#F7EDE1"/>
<path opacity="0.2" d="M2.01243 93.8004C7.51481 93.8436 14.7889 92.9436 16.2509 92.0508C17.3672 91.374 17.8138 88.9331 17.965 87.8099H18.1235C18.1235 87.8099 17.8138 91.734 16.3518 92.6268C14.8897 93.5196 7.60843 94.4196 2.11325 94.3764C0.521595 94.3764 -0.0473635 93.8004 0.00305099 92.9364C0.226315 93.498 0.831295 93.8004 2.01243 93.8004Z" fill="black"/>
</svg>
