<svg width="585" height="366" fill="none" xmlns="http://www.w3.org/2000/svg"><path d="M5.915 206.099c8.661 35.566 26.99 66.306 55.959 81.201 60.201 30.971 195.969 14.998 297.299-3.34 52.401-9.467 98.477-35.631 131.945-72.478L5.915 206.099zM537.282 38.693h-55.604a4.621 4.621 0 110-9.236h9.607a4.623 4.623 0 01-4.772-4.617 4.632 4.632 0 011.407-3.32 4.63 4.63 0 013.365-1.298h-6.863a4.623 4.623 0 01-4.772-4.618 4.632 4.632 0 011.407-3.32 4.63 4.63 0 013.365-1.297h29.019c-6.444-2.877-13.948-4.926-22.663-5.994-79.09-9.773-107.341-3.31-117.308 3.339-12.317 8.196-26.013 14.225-40.666 17.13-48.824 9.68-140.123 21.323-222.869-3.728-41.124-12.451-71.7 8.59-90.023 43.753H546.94c-.69-10.22-2.75-19.662-6.533-27.917a4.928 4.928 0 01-3.124 1.123zM339.11 150.865l-.724-.045-7.568-.428-72.503-4.074-7.833-.443-115.455-6.482-32.36-1.827-5.118-.286-4.548-.256L1.2 131.867a225.95 225.95 0 002.158 62.061l77.247 2.714 6.124.221 1.084.035 36.67 1.276 1.971.064 4.227.147 36.951 1.301 5.065.182 17.648.621h.335l2.597.093 8.843.31 7.76.271 14.78.517h.311l1.315.05 1.399.049h.306l23.56.827 6.602.237h.276l3.178.108.591.025h.236l2.794.098 8.528.301 3.202.113 4.114.143h.153l5.646.202 16.328.576 4.493.153h.493l21.766.763 12.643.444 15.731.556 2.522.089 4.075.143 14.81.517 111.715 3.94a219.952 219.952 0 0033.912-49.707L339.11 150.865zm-210.05 34.478a4.903 4.903 0 01-3.202-1.182 4.683 4.683 0 01-1.015-1.227 4.49 4.49 0 01-.586-2.206 4.4 4.4 0 01.793-2.522 4.887 4.887 0 014.01-2.074h9.608a4.628 4.628 0 01-4.467-2.801 4.625 4.625 0 014.467-6.439h-6.863a4.613 4.613 0 01-4.831-4.829 4.613 4.613 0 014.831-4.382h55.594a4.637 4.637 0 013.405 1.274 4.63 4.63 0 011.43 3.342 4.62 4.62 0 01-4.835 4.615h6.863a4.628 4.628 0 014.467 2.801 4.622 4.622 0 01-2.632 6.15c-.586.22-1.21.318-1.835.289h-9.607a4.621 4.621 0 014.462 6.432 4.612 4.612 0 01-1.058 1.524 4.604 4.604 0 01-3.404 1.274l-55.595-.039zM546.958 65.812l-383.484 8.96-42.149.984-107.291 2.507c-6.489 16.018-10.785 34.124-12.76 52.9H537.62a211.89 211.89 0 007.74-33.715c1.597-11.038 2.242-21.701 1.597-31.636zm-437.502 40.817h-9.607a4.727 4.727 0 014.804 4.615v.281a4.598 4.598 0 01-2.134 3.561 4.918 4.918 0 01-2.66.778H44.265a4.608 4.608 0 01-3.365-1.297 4.623 4.623 0 01-1.041-5.123 4.623 4.623 0 014.406-2.815h9.612a4.626 4.626 0 01-4.406-2.815 4.615 4.615 0 011.041-5.122 4.62 4.62 0 013.365-1.298h-6.863a4.624 4.624 0 01-4.772-4.618 4.618 4.618 0 014.772-4.617h55.594a4.62 4.62 0 110 9.235h6.863a4.867 4.867 0 012.281.561 4.596 4.596 0 012.523 4.053 4.732 4.732 0 01-4.804 4.621h-.015zM367.5 366c95.821 0 173.5-4.253 173.5-9.5s-77.679-9.5-173.5-9.5-173.5 4.253-173.5 9.5 77.679 9.5 173.5 9.5z" fill="#FFF3E5"/><path d="M466 319.715l-1.5 2.189-9.278 13.733-7.877 2.363-5.876-5.722.285-3.776 1.465-19.609s-36.359-21.281-39.609-25.261c-3.251-3.981-15.754-7.588-15.754-7.588s-19.13-8.832-26.257-24.256C354.472 236.363 373.477 234 373.477 234l71.393 67.927L466 319.715z" fill="#FFC1C7"/><path d="M475 327.701l-22.684 20.939s-13.033 2.478-24.688.744c-7.449-1.11-6.016-5.15-4.056-7.93l.035-.05a8.251 8.251 0 014.833-3.142c9.645-2.299 12.973-9.203 12.973-9.203l7.018 5.947L460.588 321l8.988 4.173 5.424 2.528z" fill="#575988"/><path opacity=".1" d="M469.577 325.101l-5.338-2.487.501-.756 1.504-2.188-21.191-17.781L373.506 234s-19.046 2.352-11.903 17.771c7.142 15.418 26.313 24.246 26.313 24.246s12.53 3.605 15.788 7.584c3.258 3.979 39.72 25.241 39.72 25.241l-1.468 19.601-.071.935-.466-.393s-3.328 6.928-12.971 9.236a8.24 8.24 0 00-4.831 3.153l-.036.05c-2.004 2.785-3.393 6.838 4.055 7.958 11.653 1.74 24.685-.746 24.685-.746L475 327.622l-5.423-2.521z" fill="#000"/><g opacity=".1"><path opacity=".1" d="M480.531 202.979s14.06-34.634 40.316-47.48a56.624 56.624 0 0025.711-24.956 95.226 95.226 0 006.447-16.181" stroke="#535461" stroke-width="2" stroke-miterlimit="10"/><path opacity=".1" d="M569.504 106.17c-2.738 3.438-16.902 8.471-16.902 8.471s1.705-14.924 4.442-18.363a7.979 7.979 0 0114.484 3.912 7.98 7.98 0 01-2.019 5.995l-.005-.015zm-4.862 27.233c-4.168 1.4-18.787-2.083-18.787-2.083s9.548-11.601 13.717-13.001a7.991 7.991 0 018.953 2.042 7.97 7.97 0 01-.986 11.594 7.972 7.972 0 01-2.897 1.448zM538.287 165.6c-4.303-.897-15.167-11.277-15.167-11.277s14.105-5.198 18.408-4.306a7.976 7.976 0 015.706 9.313 7.977 7.977 0 01-8.947 6.27zm-25.428 19.868c-4.392-.15-16.857-8.552-16.857-8.552s13.023-7.504 17.416-7.35a7.98 7.98 0 017.674 5.055 7.96 7.96 0 01-.223 6.342 7.97 7.97 0 01-4.785 4.171 7.984 7.984 0 01-3.225.334zm19.385-63.88c.558 4.36 10.081 15.981 10.081 15.981s6.273-13.654 5.709-18.009a7.973 7.973 0 00-8.845-6.373 7.975 7.975 0 00-6.945 8.401zm-29.446 23.615c1.84 3.987 14.409 12.234 14.409 12.234s1.89-14.9.05-18.891a7.976 7.976 0 00-10.346-3.432 7.974 7.974 0 00-4.113 10.089zm-25.468 26.88c1.142 4.246 12.131 14.491 12.131 14.491s4.387-14.367 3.25-18.612a7.97 7.97 0 00-3.79-4.49 7.98 7.98 0 00-10.556 2.828 7.97 7.97 0 00-1.035 5.783z" fill="#B5EBE1"/><path opacity=".25" d="M569.504 106.17c-2.738 3.438-16.902 8.471-16.902 8.471s1.705-14.924 4.442-18.363a7.979 7.979 0 0114.484 3.912 7.98 7.98 0 01-2.019 5.995l-.005-.015zm-4.862 27.233c-4.168 1.4-18.787-2.083-18.787-2.083s9.548-11.601 13.717-13.001a7.991 7.991 0 018.953 2.042 7.97 7.97 0 01-.986 11.594 7.972 7.972 0 01-2.897 1.448zM538.287 165.6c-4.303-.897-15.167-11.277-15.167-11.277s14.105-5.198 18.408-4.306a7.976 7.976 0 015.706 9.313 7.977 7.977 0 01-8.947 6.27zm-25.428 19.868c-4.392-.15-16.857-8.552-16.857-8.552s13.023-7.504 17.416-7.35a7.98 7.98 0 017.674 5.055 7.96 7.96 0 01-.223 6.342 7.97 7.97 0 01-4.785 4.171 7.984 7.984 0 01-3.225.334zm19.385-63.88c.558 4.36 10.081 15.981 10.081 15.981s6.273-13.654 5.709-18.009a7.973 7.973 0 00-8.845-6.373 7.975 7.975 0 00-6.945 8.401zm-29.446 23.615c1.84 3.987 14.409 12.234 14.409 12.234s1.89-14.9.05-18.891a7.976 7.976 0 00-10.346-3.432 7.974 7.974 0 00-4.113 10.089zm-25.468 26.88c1.142 4.246 12.131 14.491 12.131 14.491s4.387-14.367 3.25-18.612a7.97 7.97 0 00-3.79-4.49 7.98 7.98 0 00-10.556 2.828 7.97 7.97 0 00-1.035 5.783z" fill="#000"/></g><g opacity=".1"><path opacity=".1" d="M458.145 147.57s1.774-37.334 22.281-58.158a56.617 56.617 0 0015.98-32.063 95.303 95.303 0 00.698-17.416" stroke="#535461" stroke-width="2" stroke-miterlimit="10"/><path opacity=".1" d="M509.962 26.728c-1.441 4.156-13.137 13.584-13.137 13.584s-3.341-14.646-1.905-18.797a7.976 7.976 0 019.964-4.435 7.966 7.966 0 015.078 9.648zm4.453 27.308c-3.49 2.7-18.418 4.265-18.418 4.265s5.16-14.112 8.626-16.813a7.98 7.98 0 0110.781 1.686 7.967 7.967 0 01-.989 10.862zm-14.18 39.108c-4.357.583-18.054-5.611-18.054-5.611s11.583-9.578 15.955-10.161a7.973 7.973 0 012.114 15.772h-.015zm-17.401 27.173c-4.193 1.316-18.736-2.491-18.736-2.491s9.792-11.392 13.99-12.702a7.967 7.967 0 016.356.239 7.986 7.986 0 014.161 4.809 7.98 7.98 0 01-.681 6.322 7.968 7.968 0 01-5.09 3.813v.01zm-2.906-66.69c1.994 3.927 14.818 11.735 14.818 11.735s1.381-14.95-.594-18.88a7.976 7.976 0 00-10.46-3.085 7.975 7.975 0 00-3.764 10.23zm-19.944 32.042c3.062 3.154 17.65 6.767 17.65 6.767s-3.156-14.69-6.217-17.845a7.98 7.98 0 00-10.92.174 7.97 7.97 0 00-.513 10.904zm-15.107 33.796c2.493 3.628 16.254 9.653 16.254 9.653s-.633-15.01-3.111-18.637a7.976 7.976 0 00-10.751-1.633 7.968 7.968 0 00-2.392 10.602v.015z" fill="#B5EBE1"/></g><path opacity=".1" d="M297.761.014s-12.077-.657-10.643 7.015c-.073.39-.009.79.184 1.144.193.354.505.643.891.827 0 0 0-.57 1.236-.377.433.069.874.089 1.313.06a2.895 2.895 0 001.606-.602s3.396-1.272 4.713-6.303c0 0 .978-1.098.938-1.378l-2.027.79s.694 1.332.147 2.44c0 0-.066-2.394-.456-2.339-.082 0-1.06.46-1.06.46s1.201 2.324.294 4.01c0 0 .345-2.862-.669-3.84l-1.434.758s1.399 2.398.451 4.355c0 0 .243-3-.75-4.172l-1.302.92s1.317 2.365.507 3.987c0 0-.102-3.496-.796-3.758a7.52 7.52 0 00-1.308 1.282s.897 1.718.34 2.623c0 0-.34-2.33-.623-2.339 0 0-1.136 1.544-1.252 2.6a5.26 5.26 0 01.978-2.756 3.565 3.565 0 00-1.738.813s.177-1.088 2.027-1.185c0 0 .937-1.171 1.186-1.24 0 0-1.83-.143-2.935.308 0 0 .974-1.03 3.269-.566l1.287-.946s-2.407-.299-3.43.028c0 0 1.175-.92 3.775-.244l1.399-.758a13.799 13.799 0 00-3.279-.257s1.292-.63 3.689.05l1.014-.404s-1.521-.266-1.946-.312c-.426-.046-.461-.152-.461-.152a5.706 5.706 0 012.822.285s2.083-.703 2.043-.827zm-30.789 40.084s-4.015 11.625 4.276 12.687c.381.196.811.26 1.229.184.418-.076.803-.29 1.099-.609 0 0-.582-.202-.045-1.33a5.77 5.77 0 00.405-1.27 2.935 2.935 0 00-.173-1.765s-.37-3.733-5.183-6.633c0 0-.864-1.31-1.164-1.362l.251 2.247s1.564-.253 2.555.637c0 0-2.466-.699-2.535-.3 0 .083.182 1.186.182 1.186s2.723-.43 4.212.994c0 0-2.85-1.248-4.138-.575l.385 1.652s2.856-.606 4.606.953c0 0-3.023-1.202-4.502-.601l.587 1.553s2.796-.517 4.246.772c0 0-3.625-1.036-4.089-.42a8.09 8.09 0 00.962 1.694s2.012-.332 2.792.517c0 0-2.491-.408-2.58-.134 0 0 1.273 1.605 2.328 2.071a6.004 6.004 0 01-2.555-1.833 3.64 3.64 0 00.36 1.937s-1.07-.518-.661-2.351c0 0-.947-1.295-.951-1.554 0 0-.647 1.75-.494 2.978 0 0-.789-1.284.326-3.387l-.622-1.553s-.986 2.263-.917 3.366c0 0-.611-1.44.789-3.775l-.394-1.61a13.418 13.418 0 00-1.169 3.106s-.291-1.47 1.075-3.593l-.143-1.113s-.691 1.387-.858 1.807c-.168.419-.286.404-.286.404a5.497 5.497 0 011.075-2.678s-.143-2.293-.281-2.299zm79-9.002S341.96 41.82 350.239 42.8a2.06 2.06 0 001.223.172c.417-.07.8-.265 1.095-.559 0 0-.576-.186-.045-1.233a5.03 5.03 0 00.424-1.17 2.477 2.477 0 00-.177-1.626s-.37-3.446-5.173-6.127c0 0-.857-1.21-1.157-1.257l.246 2.079s1.565-.239 2.55.583c0 0-2.461-.645-2.525-.272 0 .071.182 1.094.182 1.094s2.717-.401 4.198.918c0 0-2.84-1.157-4.129-.53l.384 1.52s2.849-.56 4.602.878c0 0-3.017-1.108-4.494-.55l.586 1.435s2.79-.478 4.237.712c0 0-3.617-.956-4.08-.392.252.556.573 1.081.955 1.563 0 0 2.013-.306 2.791.478 0 0-2.491-.378-2.574-.13 0 0 1.269 1.482 2.323 1.912a6.037 6.037 0 01-2.555-1.696 3.13 3.13 0 00.36 1.811s-1.073-.478-.665-2.174c0 0-.94-1.19-.945-1.434 0 0-.649 1.61-.492 2.748 0 0-.787-1.19.33-3.126l-.625-1.434s-.985 2.089-.911 3.112c0 0-.61-1.334.788-3.49l-.394-1.486a11.703 11.703 0 00-1.166 2.868s-.296-1.353 1.068-3.317l-.143-1.023s-.689 1.281-.852 1.664c-.162.382-.285.377-.285.377a4.82 4.82 0 011.073-2.47s-.163-2.132-.295-2.132zm-129-14.006s-4.012 10.733 4.268 11.708a2.04 2.04 0 002.318-.387s-.576-.187-.044-1.229c.187-.373.329-.766.423-1.17a2.511 2.511 0 00-.177-1.631s-.369-3.447-5.174-6.128c0 0-.856-1.205-1.156-1.253l.246 2.075s1.56-.235 2.55.588c0 0-2.462-.65-2.526-.278 0 .077.182 1.095.182 1.095s2.718-.397 4.2.918c0 0-2.846-1.157-4.131-.53l.384 1.524s2.851-.559 4.598.88c0 0-3.013-1.11-4.489-.555l.585 1.434s2.792-.477 4.239.713c0 0-3.623-.956-4.081-.392.252.558.573 1.085.955 1.568 0 0 2.013-.31 2.786.478 0 0-2.486-.378-2.574-.125 0 0 1.275 1.478 2.328 1.913a5.991 5.991 0 01-2.555-1.697 3.13 3.13 0 00.36 1.811s-1.074-.478-.665-2.17c0 0-.945-1.195-.945-1.434 0 0-.65 1.616-.492 2.749 0 0-.788-1.186.324-3.127l-.62-1.434s-.984 2.094-.915 3.112c0 0-.611-1.329.787-3.485l-.389-1.491a11.71 11.71 0 00-1.166 2.868s-.296-1.353 1.068-3.317l-.143-1.023s-.689 1.28-.852 1.668c-.162.387-.285.373-.285.373a4.838 4.838 0 011.068-2.472s-.138-2.141-.29-2.146zM342 92.389s3.07 11.867 10.351 7.739c.413-.07.796-.276 1.092-.589.296-.313.491-.717.557-1.155 0 0-.576.18-.761-1.063a5.845 5.845 0 00-.347-1.284 2.757 2.757 0 00-1.098-1.331s-2.328-2.812-7.808-2.276c0 0-1.405-.547-1.679-.407l1.425 1.682s1.123-1.15 2.406-1.032c0 0-2.386.923-2.205 1.28.034.072.79.856.79.856s1.952-1.992 3.943-1.729c0 0-2.982.702-3.66 2.028l1.21 1.114s1.982-2.218 4.241-2.007c0 0-3.094.847-3.962 2.23l1.327.923s1.952-2.12 3.85-1.935c0 0-3.479 1.362-3.533 2.12a7.51 7.51 0 001.698.805s1.464-1.486 2.528-1.274c0 0-2.235 1.166-2.157 1.445 0 0 1.899.516 3.001.268-1 .3-2.056.315-3.064.046.313.59.783 1.071 1.352 1.383 0 0-1.152.222-1.816-1.517 0 0-1.464-.48-1.615-.696 0 0 .424 1.81 1.22 2.719 0 0-1.337-.568-1.576-2.951l-1.342-.883s.439 2.43 1.088 3.297c0 0-1.279-.805-1.415-3.55l-1.196-1.073c.119 1.114.373 2.206.756 3.25 0 0-1.034-1.031-1.083-3.575l-.722-.815s.195 1.548.293 1.986c.097.439 0 .516 0 .516a5.557 5.557 0 01-.591-2.827s-1.386-1.8-1.498-1.718z" fill="#B5EBE1"/><path d="M281 272.611s-.368 6.234-2.696 8.229c0 0-4.778 28.18-9.189 33.292l-.736 2.868L250 314.88l3.676-24.937L257.107 267 281 272.611z" fill="#FFC1C8"/><path opacity=".03" d="M281 272.611s-.368 6.234-2.696 8.229c0 0-4.778 28.18-9.189 33.292l-.736 2.868L250 314.88l3.676-24.937L257.107 267 281 272.611z" fill="#000"/><path d="M260.809 314.014l8.191-.365-.436 13.087-6.27 4.264L251 328.49l4.121-17.49 5.688 3.014z" fill="#FF748F"/><path opacity=".03" d="M260.809 314.014l8.191-.365-.436 13.087-6.27 4.264L251 328.49l4.121-17.49 5.688 3.014z" fill="#FF6584"/><path d="M262.888 325.691s6.335-1.886 9.34.575 10.313 9.021 11.776 9.843c1.463.822 22.554 4.841 15.59 10.005-6.964 5.164-24.845 3.692-24.845 3.692s-11.696-3.45-12.021-3.611c-.324-.161-7.488-3.691-7.712-3.938-.225-.248 2.026-16.642 2.026-16.642l5.846.076z" fill="#5D618C"/><path opacity=".03" d="M262.888 325.691s6.335-1.886 9.34.575 10.313 9.021 11.776 9.843c1.463.822 22.554 4.841 15.59 10.005-6.964 5.164-24.845 3.692-24.845 3.692s-11.696-3.45-12.021-3.611c-.324-.161-7.488-3.691-7.712-3.938-.225-.248 2.026-16.642 2.026-16.642l5.846.076z" fill="#000"/><path d="M244 157.528l-.375 23.148-.85 49.379-.501.433c-14.88 12.824-25.384-.747-25.384-.747-.791.931-2.501 1.374-4.342 1.564a34.17 34.17 0 01-6.052 0l-.5-.045s-39.275-48.094-41.651-56.56a6.868 6.868 0 01.035-4.402c.775-2.022 2.631-3.228 4.406-3.94a15.66 15.66 0 014.062-.996s-1.125-8.84-6.252-21.913c-2.882-7.345-2.601-11.075-1.806-12.948.62-1.449 1.555-1.758 1.555-1.758s1.581-1.16 4.127-2.988c2.116-1.539 4.902-3.551 8.003-5.777l2.876-2.052c10.609-7.58 23.394-16.504 26.01-17.43.163-.06.33-.108.5-.145 5.367-1.29 23.379 1.39 23.379 1.39L244 157.528z" fill="#B5EBE1"/><path opacity=".1" d="M244 157.043L243.632 180c-17.47-5.181-33.711-39.512-35.853-42.219-1.832-2.351.049-28.533.742-37.433 5.27-1.279 22.955 1.378 22.955 1.378L244 157.043z" fill="#000"/><path d="M447.345 112.128s-13.842 7.085-15.588 34.93c0 0-2.245 14.171-3.492 16.657-1.247 2.486-7.233 25.981-6.485 28.84 0 0-1.247 2.859-5.861 1.616-4.614-1.244-29.555-5.097-35.167-8.826l-15.463-7.334s-30.179-21.257-36.539-2.984c-6.36 18.273 29.805 17.538 29.805 17.538l17.084 7.955 51.753 17.02s6.859 3.108 11.473-6.837a116.627 116.627 0 0110.475-17.9s10.475-29.336 10.351-34.309c-.125-4.972 11.223-16.781 11.223-16.781s2.245-31.325-16.212-30.704l-7.357 1.119z" fill="#FFC1C7"/><path opacity=".03" d="M447.345 112.128s-13.842 7.085-15.588 34.93c0 0-2.245 14.171-3.492 16.657-1.247 2.486-7.233 25.981-6.485 28.84 0 0-1.247 2.859-5.861 1.616-4.614-1.244-29.555-5.097-35.167-8.826l-15.463-7.334s-30.179-21.257-36.539-2.984c-6.36 18.273 29.805 17.538 29.805 17.538l17.084 7.955 51.753 17.02s6.859 3.108 11.473-6.837a116.627 116.627 0 0110.475-17.9s10.475-29.336 10.351-34.309c-.125-4.972 11.223-16.781 11.223-16.781s2.245-31.325-16.212-30.704l-7.357 1.119z" fill="#000"/><path d="M301.319 136c.754.878 4.274 2.689 4.274 2.689s11.565 13.73 16.216 17.242c4.651 3.512 19.861 16.931 16.783 22.013-3.077 5.082-6.536 3.948-6.536 3.948l-27.217-18.812s-9.554-6.833-11.5-10.094c-1.946-3.261-4.339-10.088-4.339-10.088L301.319 136z" fill="#FFC1C8"/><path opacity=".03" d="M301.319 136c.754.878 4.274 2.689 4.274 2.689s11.565 13.73 16.216 17.242c4.651 3.512 19.861 16.931 16.783 22.013-3.077 5.082-6.536 3.948-6.536 3.948l-27.217-18.812s-9.554-6.833-11.5-10.094c-1.946-3.261-4.339-10.088-4.339-10.088L301.319 136z" fill="#000"/><path d="M286.369 113L306 139.159 288.323 146 281 124.102 286.369 113z" fill="#DCE6F2"/><path opacity=".03" d="M286.369 113L306 139.159 288.323 146 281 124.102 286.369 113z" fill="#000"/><path d="M291.303 179l3.601 5.101 3.087 76.386s.257 7.216-1.929 9.331c-2.187 2.115-20.062.747-20.062.747s.643-77.88.9-79.373c.257-1.493 14.403-12.192 14.403-12.192z" fill="#575988"/><path opacity=".1" d="M291.303 179l3.601 5.101 3.087 76.386s.257 7.216-1.929 9.331c-2.187 2.115-20.062.747-20.062.747s.643-77.88.9-79.373c.257-1.493 14.403-12.192 14.403-12.192z" fill="#000"/><path d="M268.057 276.247a63.167 63.167 0 01-4.011 8.104s-3.259 18.508-4.648 20.214c-1.003 1.248-1.464 10.559-1.629 15.414a242.639 242.639 0 00-.086 2.929L238.52 332l-.086-12.016v-.159c-.12-2.65-1.504-33.338 1.399-35.125 1.705-1.053 3.33-5.489 4.428-9.127a86.468 86.468 0 001.364-5.159s21.289-1.377 23.064.893c.652.808.201 2.774-.632 4.94z" fill="#FFC1C8"/><path opacity=".1" d="M268.057 276c-8.718-.172-19.642-.52-24.057-.668.845-2.688 1.377-4.936 1.377-4.936s21.496-1.318 23.288.854c.688.798.233 2.678-.608 4.75z" fill="#000"/><path d="M242.886 162.589s-5.866 31.262-4.743 51.395c1.123 20.132-.874 35.003 1.623 40.89 2.496 5.888 2.496 19.258 2.496 19.258s33.951 1.25 37.446.75c3.495-.5 3.371-3.126 3.371-3.126s-2.372-20.768-.125-27.271c2.247-6.502 1.872-26.385 1.872-26.385l9.486-32.012s2.871-14.38-3.12-20.257c-5.991-5.878-48.306-3.242-48.306-3.242z" fill="#575988"/><path d="M444 327.539l-1.5 2.21-9.278 13.865-7.877 2.386-5.876-5.777.285-3.813 1.465-19.797s-36.359-21.485-39.609-25.504c-3.251-4.019-15.754-7.661-15.754-7.661s-19.13-8.917-26.257-24.489C332.472 243.386 351.477 241 351.477 241l71.393 68.58L444 327.539z" fill="#FFC1C7"/><path opacity=".1" d="M443 329.044l-9.265 14.466-7.866 2.49-5.869-6.028.285-3.978 6.458 5.813L438.855 327l4.145 2.044z" fill="#000"/><path d="M453 334.932l-22.684 21.661s-13.033 2.564-24.688.769c-7.449-1.148-6.016-5.327-4.056-8.203l.035-.051a8.234 8.234 0 014.833-3.251c9.645-2.379 12.973-9.52 12.973-9.52l7.018 6.152L438.588 328l8.988 4.317 5.424 2.615z" fill="#575988"/><path d="M453 335.531l-22.548 21.1s-12.957 2.495-24.542.748c-7.405-1.118-6.478-5.186-4.53-7.986a15.438 15.438 0 007.769 3.239c6.353.624 15.946 0 15.946 0L447.608 333l5.392 2.531z" fill="#fff"/><path d="M266.375 83.064c-1.853.908-2.704 3.71-3.046 6.907-.579 5.457.357 12.029.357 12.029s-25.174-6.745-22.485-8.062c1.546-.755 2.366-6.251 2.784-10.776.312-3.345.403-6.162.403-6.162s27.021 3.597 21.987 6.064z" fill="#FFC1C8"/><path d="M465 113.166s-30.329 28.64-29.33 20.317c.14-1.159-.26-2.762-1.049-4.656-2.805-6.754-10.559-17.239-16.622-24.908-4.45-5.625-7.999-9.736-7.999-9.736s37.668-31.637 34.669-13.653a21.57 21.57 0 001.644 12.08c3.755 8.831 12.073 15.78 16.227 18.848a45.562 45.562 0 002.46 1.708z" fill="#FFC1C7"/><path opacity=".1" d="M440.644 85.954c-.547.67-2.577 3.025-3.18 3.645-5.727 5.895-6.49 14.401-15.407 14.401a31.762 31.762 0 01-4.019-.253c-4.471-5.592-8.038-9.679-8.038-9.679s37.843-31.448 34.829-13.571c-.713 4.24-5.777 1.743-4.185 5.457z" fill="#000"/><path d="M453 71.995A31 31 0 11422.005 41 30.877 30.877 0 01453 71.995z" fill="#FFC1C7"/><path opacity=".1" d="M465 113.026s-29.951 28.823-28.963 20.447c.138-1.166-.257-2.78-1.037-4.685l4.329-10.397c5.305-4.733 12.108-7.357 19.16-7.391a27.492 27.492 0 013.835.266l.247.041a44.997 44.997 0 002.429 1.719z" fill="#000"/><path d="M500.825 322.151s-21.533 34.19-21.533 36.849c0 0-24.372-9.461-33.05-11.453-8.679-1.992-16.861-20.082-16.861-20.082s-23.035-21.582-32.049-24.569c-7.647-2.535-44.393-54.078-55.339-69.629a10.907 10.907 0 01.26-12.922l.205-.264a25.582 25.582 0 0111.096-8.01 25.723 25.723 0 0113.662-1.162 25.67 25.67 0 013.005.737c15.764 4.845 43.065 13.17 56.836 16.93 4.607 1.26 7.687 1.992 8.313 1.947 1.502-.154 2.328-1.494 2.784-2.963.348-1.195.535-2.431.556-3.675v-.224a62.84 62.84 0 00-1.983-9.361c-1.607-5.478-4.392-11.906-9.014-14.979-3.836-2.544-6.885-8.156-8.483-14.679-2.148-8.809-1.652-19.291 3.14-26.153l4.632-10.865 7.747-18.176 4.317-10.128A29.804 29.804 0 01458.5 112a28.44 28.44 0 013.891.264c3.32.458 6.19 1.449 7.386 3.401 3.671 5.975 12.019 16.93 13.686 27.885 1.668 10.955-.33 28.882 5.343 35.524 5.674 6.643 9.014 22.573 15.023 25.894 6.01 3.321-9.679 10.288-9.679 10.288l.06 1.05.27 4.596s.11.125.311.374c3.495 4.302 35.078 45.608 6.034 100.875z" fill="#FF6584"/><path d="M495 221.706c-6.625 1.3-21.114 4.133-27.577 5.377l-1.135.218c-.378.071-.801.137-1.26.199-6.494.837-20.58.425-27.028.179.35-1.135.538-2.309.56-3.49v-.213c4.905-.298 16.531-1.168 26.493-3.089.812-.156 1.613-.321 2.395-.473a82.639 82.639 0 003.277-.78c8.933-2.365 18.366-2.677 23.695-2.63l.272 4.366s.081.099.308.336z" fill="#575988"/><path d="M467 220v7.531l-.947.245c-.316.08-.67.155-1.053.224v-7.425c.678-.197 1.347-.383 2-.575z" fill="#FF6584"/><path opacity=".1" d="M473.549 234s-13.288 30.314-21.36 33.284C444.118 270.253 424 280.77 424 280.77s11.549 10.146 23.595-.99c12.045-11.135 29.431-40.831 25.954-45.78zm14.18-4s.782 11.67-.312 13.803c-1.095 2.134.312-13.803.312-13.803zm7.72 7s6.674 70.626-26.449 71c0 .01 31.022-31.07 26.449-71zm8.316 17s8.87 36.789-2.765 41c0 .01 6.106-19.066 2.765-41zM444 245c-.617 0-25.658 4.096-20.23 7.374C429.197 255.651 444 245 444 245zm17-50s21.637 18.037 17.466 20L461 195zm-1 6s11.179 14.16 9.898 15L460 201zm25-3s5.827 7.388 4.9 9l-4.9-9zm6-3s7.407 5.755 5.761 8L491 195z" fill="#000"/><path d="M447.551 121s25.534 1.979 24.413 22.392C470.843 163.804 451.786 169 451.786 169L427 161.948s11.085-39.587 20.551-40.948z" fill="#FFC1C7"/><path opacity=".1" d="M370.981 211.759c15.537 4.987 42.446 13.558 56.019 17.429a6.933 6.933 0 01-5.789.333l-51.207-17.547L368 211a24.61 24.61 0 012.981.759zm86.919-50.135c-2.438 3.234-4.585 6.716-4.505 8.895.04 1.567-1.001 5.562-2.392 10.293A171.53 171.53 0 01436.488 215c-1.607-5.472-4.39-11.895-9.009-14.965-3.834-2.542-6.882-8.148-8.479-14.666 1.216-4.716 2.372-8.681 2.848-9.626 1.251-2.487 3.503-16.666 3.503-16.666a74.164 74.164 0 011.417-10.691c1.817-8.621 4.905-14.427 7.743-18.158 3.423-4.537 6.506-6.1 6.506-6.1l7.383-1.119c8.509-.284 12.613 6.149 14.59 13.198 2.422 8.761.395 18.134-5.09 25.417z" fill="#000"/><path d="M439.963 122.099s-13.914 7.087-15.669 34.94c0 0-2.256 14.174-3.51 16.661-1.253 2.487-7.27 25.988-6.518 28.848 0 0-1.253 2.859-5.891 1.616-4.638-1.243-29.709-5.098-35.349-8.828L357.482 188s-30.335-21.263-36.728-2.985c-6.393 18.279 29.959 17.542 29.959 17.542l17.173 7.958 52.021 17.025s6.894 3.109 11.532-6.839a103.88 103.88 0 013.605-6.998 172.11 172.11 0 0014.947-34.905c1.419-4.73 2.437-8.724 2.397-10.29-.055-2.179 2.101-5.665 4.513-8.893 5.515-7.282 7.521-16.652 5.064-25.416-1.981-7.047-6.112-13.478-14.616-13.19l-7.386 1.09z" fill="#FFC1C7"/><path opacity=".1" d="M266.375 83.088c-1.852.908-2.702 3.713-3.044 6.912h-.981c-6.765.013-13.297-2.42-18.35-6.833.312-3.348.403-6.167.403-6.167s27.004 3.62 21.972 6.088z" fill="#000"/><path d="M290 61.5a27.498 27.498 0 01-46.945 19.445 27.504 27.504 0 014.167-42.31A27.498 27.498 0 01262.5 34 27.56 27.56 0 01290 61.5z" fill="#FFC1C8"/><path opacity=".1" d="M299 168.811s-14.349 5.706-18.841 7.691c-4.492 1.985-30.195-2.605-30.195-2.605s-13.351-6.699-12.228-13.398c1.123-6.699-10.73-28.647-10.73-28.647s-.374-19.477 4.866-23.199c5.24-3.722 3.244-11.537 3.244-11.537s.025-.258.105-.68c.324-1.658 1.497-5.876 5.385-7.26a5.19 5.19 0 012.411-.064c3.728.56 9.852 3.32 14.918 5.865a189.916 189.916 0 018.454 4.525l.17.095s1.872 4.342 4.117 2.977c2.246-1.364 13.476 4.962 15.597 7.816 2.121 2.853.624 16.251.25 19.601-.375 3.349 2.121 13.274 4.866 18.97 2.745 5.697 7.611 19.85 7.611 19.85z" fill="#000"/><path d="M299 167.717s-14.349 5.772-18.841 7.779c-4.492 2.008-30.195-2.634-30.195-2.634s-13.351-6.776-12.228-13.551c1.123-6.775-10.73-28.972-10.73-28.972s-.374-19.699 4.866-23.463c5.24-3.764 3.244-11.668 3.244-11.668s.025-.261.105-.688c.324-1.676 1.497-5.942 5.385-7.342a5.134 5.134 0 012.411-.065c3.728.567 9.852 3.357 14.918 5.932a189.226 189.226 0 018.454 4.577l.17.095s1.872 4.392 4.117 3.011c2.246-1.38 13.476 5.019 15.597 7.905 2.121 2.886.624 16.436.25 19.824-.375 3.387 2.121 13.424 4.866 19.186 2.745 5.761 7.611 20.074 7.611 20.074z" fill="#DCE6F2"/><path d="M253.28 148.247s-12.288 19.764-14.28 20.836l.747 6.917s17.517-3.627 18.598-8.483c1.081-4.857.498-19.517.498-19.517l-5.563.247z" fill="#575988"/><path opacity=".2" d="M253.28 148.247s-12.288 19.764-14.28 20.836l.747 6.917s17.517-3.627 18.598-8.483c1.081-4.857.498-19.517.498-19.517l-5.563.247z" fill="#000"/><path opacity=".1" d="M270 123s2.388 8.657 6.148 11.606C279.908 137.554 270 123 270 123z" fill="#000"/><path d="M249 145.304c.314.557 10.829 14.737 21.907 19.975 11.078 5.238 35.789 11.409 35.789 11.409s20.04 3.699 23.46 5.114c3.421 1.416 7.783-4.932-13.692-13.992-21.474-9.061-25.641-13.071-25.641-13.071s-18.671-9.011-21.658-13.45c-2.988-4.439-20.165 4.015-20.165 4.015z" fill="#FFC1C8"/><path opacity=".1" d="M257 215c.355-.258 8.864-10.201 9.927-5.94C267.991 213.321 257 215 257 215zm5-19c-.125.367-1.375 10.776-5 12l5-12zm4 3s-3.525 11.267-8 12l8-12zm-17 33.999s5.28.148 6-3.999l-6 3.999zM257 255c.751.135 12.514 8.225 9.51 9.843C263.507 266.462 257 255 257 255zm1 64v1.138c-.062 1.733-.088 2.89-.088 2.89L238.088 332 238 320.142v-.96l7.936.241L258 319z" fill="#000"/><path d="M261 336.065L245.126 342 238 337.884l.075-5.634.164-12.094 7.619.238L257.44 320v8.47l3.56 7.595z" fill="#FF6584"/><path opacity=".1" d="M261 335.816L245.126 342 238 337.712l.075-5.87a11.604 11.604 0 003.868 3.306 11.39 11.39 0 004.886 1.307s5.586-7.097 8.987-9.155a2.052 2.052 0 011.624-.223v.827l3.56 7.912z" fill="#000"/><path d="M247.411 337.381s-6.459.086-9.698-6.132c0 0-4.605 4.499-4.689 13.983-.085 9.485.084 9.812.084 9.812s18.585-.734 22.062.573c3.478 1.306 32.649-1.146 32.649-1.146s1.938-5.152-6.87-6.952c-8.808-1.799-16.081-11.284-16.325-11.691-.243-.407-4.848-9.55-8.241-7.54-3.394 2.011-8.972 9.093-8.972 9.093z" fill="#5D618C"/><path opacity=".1" d="M290 61.491a27.62 27.62 0 01-.735 6.34 4.41 4.41 0 01-1.185-.5c-.535-.346-1.069-.82-1.699-.766a2.02 2.02 0 00-1 .46c-2.96 2.167-5.159 5.73-8.759 6.42a5.781 5.781 0 00.14-3.272 6.757 6.757 0 01-5.924 1.902 2.85 2.85 0 00.085-1.967 57.324 57.324 0 01-7.893 3.668c-.095-.5-.185-.96-.28-1.441-3.829 1.871-3.529 8.221-7.359 10.093-2.279 1.116-5.499.315-7.073 2.327-.06.08-.115.16-.17.245a27.504 27.504 0 01-9.763-10.249 27.54 27.54 0 0110.663-37.235 27.477 27.477 0 0137.299 10.316 27.542 27.542 0 013.643 13.684l.01-.025z" fill="#000"/><path d="M264.255 30.262c-2.273-.949-4.581-1.902-7.027-2.186-2.445-.283-5.083.199-6.928 1.843-1.476 1.312-2.633 3.419-4.601 3.478-.96.035-1.846-.452-2.707-.874-2.46-1.193-5.536-1.868-7.755-.288-1.771 1.267-2.436 3.592-2.726 5.763-.29 2.171-.359 4.471-1.383 6.384-.635 1.193-1.599 2.166-2.396 3.254a14.153 14.153 0 00-2.677 9.609 28.086 28.086 0 001.072 4.993l2.008 7.16c1.019 3.636 2.057 7.323 3.996 10.557s4.921 6.017 8.562 6.851c2.195.497 4.852.09 6.082-1.813.315-.497.517-1.029.862-1.49 1.525-1.988 4.719-1.198 6.963-2.306 3.769-1.858 3.474-8.163 7.243-10.021l.281 1.426a57.036 57.036 0 007.765-3.637c.201.64.173 1.331-.079 1.953a6.618 6.618 0 003.14-.23 6.67 6.67 0 002.686-1.658 5.797 5.797 0 01-.138 3.249c3.543-.69 5.709-4.228 8.622-6.38a2.02 2.02 0 01.984-.451c.625-.055 1.146.417 1.673.755a4.678 4.678 0 005.826-.75c1.55-1.7 1.619-4.313 1.122-6.569-.497-2.255-1.476-4.406-1.688-6.707-.31-3.135.773-6.409-.221-9.39-.842-2.529-3.046-4.362-5.413-5.564-2.367-1.203-4.921-1.903-7.337-2.981-2.293-1.038-4.429-2.43-6.81-3.25-3.445-1.187-7.19-1.092-10.826-.993" fill="#794F6A"/><path d="M264.856 123s4.029-26.25-30.477-24.954L217 100.285s16.578 2.887 20.568 3.311l.423.059c3.692.653 16.457-.161 26.865 19.345z" fill="#B5EBE1"/><path opacity=".1" d="M243 230v-.275c13.5-10.789 0 .275 0 .275z" fill="#000"/><path d="M213 230.866a33.968 33.968 0 01-6.034 0L165 169.935c.773-2.02 2.623-3.224 4.394-3.935L213 230.866zm-27-65.199L183.944 168S168.351 143.251 165 130.68c.637-1.429 1.598-1.734 1.598-1.734s1.624-1.144 4.24-2.946c.972 5.912 4.287 20.369 15.162 39.667zm11-7.873L192.938 160c-11.089-12.531-12.033-33.582-11.931-41.97l2.924-2.03c.396 11.016 13.069 41.794 13.069 41.794z" fill="#575988"/><path opacity=".1" d="M207.603 156c-.12 1.617-4.583 18.041 1.93 20.778 6.513 2.738-1.93-20.778-1.93-20.778zM222 183.652c.242.878 2.42 29.479 7.139 27.221 4.719-2.258 2.178-34.873 2.178-34.873L222 183.652zM453 72.096a30.991 30.991 0 01-8.637 21.511c-2.26.48-4.592.52-6.868.119a6.825 6.825 0 01-3.211-1.294 8.378 8.378 0 01-2.081-3.018c-1.803-3.89-2.727-8.386-5.257-11.717-2.529-3.33-7.663-4.793-10.104-1.378-1.329 1.854-1.551 4.704-3.325 5.987-2.13 1.547-4.941-.272-6.596-2.478-4.892-6.443-3.217-19.111-12.545-20.89l-.376-.065a31.012 31.012 0 0114.393-14.696 30.879 30.879 0 0120.394-2.43 30.951 30.951 0 0117.424 10.906A31.122 31.122 0 01453 72.096z" fill="#000"/><path d="M394.756 58.282c-1.532-.298-3.309-.258-4.335-1.591-.606-.788-.781-1.879-.926-2.914-.616-4.474-.951-9.277.816-13.332 2.898-6.651 10.358-8.873 16.841-8.379 6.482.495 12.845 2.934 19.328 2.526 4.766-.314 9.467-2.172 14.217-1.642 3.76.424 7.264 2.308 10.643 4.232 3.164 1.798 6.398 3.732 8.641 6.853 3.294 4.57 3.915 10.883 4.005 16.807.11 6.954-.376 14.176-3.269 20.297-4.195 8.883-13.552 14.17-22.272 12.58a6.892 6.892 0 01-3.254-1.318 8.596 8.596 0 01-2.103-3.076c-1.832-3.97-2.768-8.545-5.331-11.944-2.563-3.398-7.765-4.878-10.238-1.398-1.346 1.883-1.572 4.792-3.369 6.1-2.158 1.57-5.006-.283-6.683-2.525-4.956-6.57-3.259-19.468-12.711-21.276z" fill="#945B79"/><path d="M470.758 44.09c4.79 2.271 8.113 6.694 11.234 10.952 2.599 3.54 5.288 7.324 5.629 11.687.136 1.787-.13 3.604.212 5.362 1.201 6.205 9.047 8.985 11.339 14.896 1.066 2.786.729 5.886.262 8.831a118.624 118.624 0 01-2.71 12.645c-.678 2.496-1.447 5.092-.93 7.628.397 1.967 1.508 3.694 2.393 5.492 2.307 4.847 2.704 10.343 2.88 15.7.176 5.356.171 10.808 1.784 15.92 1.614 5.112 5.173 9.944 10.305 11.597a12.158 12.158 0 01-5.801 2.046c-.307 1.673.654 3.375 2.011 4.433 1.357 1.059 3.016 1.608 4.634 2.132a8.792 8.792 0 01-7.7 1.178c-2.147-.699-3.921-2.196-5.635-3.664l-9.636-8.232a27.145 27.145 0 01-3.553-3.435c-6.233-7.693-2.513-19.349-5.992-28.59-2.835-7.513-10.455-13.613-9.756-21.606.191-2.236 1.056-4.353 1.779-6.489a54.875 54.875 0 002.361-24.07 55.002 55.002 0 00-8.216-22.767c-1.101-1.697-2.378-3.404-4.212-4.278-2.79-1.323-6.776-.754-8.359-3.395-.84-1.392-1.006-3.844-1.081-5.406 5.117-1.163 11.973-.839 16.758 1.433z" fill="#945B79"/><path opacity=".1" d="M227.439 128.33c2.359-15.213 21.746-20.708 32.037-9.08 2.974 3.373 5.611 7.067 7.104 10.762 5.042 12.489 5.42 13.601 5.42 13.601s-31.134 5.936-30.882 10.387L227 131.867s.106-1.385.439-3.537z" fill="#000"/><path d="M227.439 126.704c2.359-15.584 21.746-21.213 32.037-9.302 2.974 3.456 5.611 7.24 7.104 11.025 5.042 12.793 5.42 13.933 5.42 13.933s-31.134 6.08-30.882 10.64L227 130.327s.106-1.419.439-3.623z" fill="#DCE6F2"/><path opacity=".1" d="M236 107c.388.614 15.669 18.291 23.698 20.81C267.727 130.329 236 107 236 107zm-63 58s39 46.267 44 65l-44-65z" fill="#000"/><path opacity=".1" d="M175 123s8.427 43.804 24.786 62.222S233 235 233 235" stroke="#000" stroke-width="2" stroke-miterlimit="10"/><path opacity=".1" d="M294.933 58.989a5.933 5.933 0 01-1.416 3.987 4.78 4.78 0 01-5.903.752c-.534-.339-1.062-.812-1.695-.757a2.062 2.062 0 00-.998.453c-2.807 2.053-4.931 5.362-8.226 6.274.116.88.028 1.776-.259 2.616 3.589-.693 5.783-4.24 8.735-6.398a2.06 2.06 0 01.997-.454c.633-.055 1.162.419 1.695.758a4.778 4.778 0 005.903-.753c1.541-1.694 1.636-4.245 1.167-6.478zm-1.989-9.349c.04.41.109.813.189 1.216 0-2.491.594-5.083 0-7.474.01 2.033-.399 4.186-.189 6.259zm-16.608 16.903a6.768 6.768 0 01-5.903 1.894 2.874 2.874 0 00.079-1.958 57.948 57.948 0 01-7.867 3.647l-.285-1.43c-3.819 1.864-3.52 8.188-7.339 10.051-2.273 1.112-5.484.31-7.055 2.313-.349.453-.553.996-.872 1.495-1.247 1.908-3.939 2.322-6.163 1.818-3.699-.837-6.716-3.627-8.675-6.871-1.959-3.245-3.016-6.942-4.049-10.59l-2.034-7.18c-.334-1.197-.673-2.392-.892-3.613 0 .368 0 .732.055 1.096.208 1.7.572 3.375 1.087 5.008l2.034 7.18c1.032 3.649 2.084 7.346 4.048 10.59 1.965 3.244 4.986 6.035 8.676 6.872 2.223.498 4.916.09 6.162-1.819.319-.498.524-1.031.873-1.495 1.545-1.993 4.781-1.2 7.055-2.312 3.819-1.864 3.52-8.187 7.339-10.051l.284 1.43a58.017 58.017 0 007.853-3.648 2.88 2.88 0 01-.08 1.959 6.77 6.77 0 005.674-1.685 5.762 5.762 0 00-.005-2.7zM267 99.54c-2.672 1.544-8.881 4.981-10.138 4.393-1.341-.622-15.974-5.757-20.862-7.47.323-1.664 1.49-5.897 5.36-7.286a5.123 5.123 0 012.399-.065l14.842 5.887A194.314 194.314 0 01267 99.54z" fill="#000"/><path d="M267 97.54c-2.672 1.544-8.881 4.981-10.138 4.393-1.341-.622-15.974-5.757-20.862-7.47.323-1.664 1.49-5.897 5.36-7.286a5.123 5.123 0 012.399-.065l14.842 5.887A194.314 194.314 0 01267 97.54z" fill="#DCE6F2"/><path opacity=".1" d="M463.976 60.574c-.145 5.635-.911 11.27-3.26 16.194-4.196 8.794-13.555 14.029-22.278 12.454a6.938 6.938 0 01-3.255-1.305 8.483 8.483 0 01-2.103-3.045c-1.833-3.93-2.769-8.46-5.333-11.824-2.564-3.365-7.767-4.83-10.241-1.385-1.347 1.865-1.572 4.745-3.37 6.04-2.158 1.555-5.007-.28-6.685-2.5-4.957-6.5-3.26-19.284-12.714-21.074-1.532-.295-3.31-.255-4.336-1.575-.606-.78-.781-1.86-.927-2.884a51.779 51.779 0 01-.4-3.67 36.39 36.39 0 00.4 8.17c.146 1.024.321 2.104.927 2.884 1.026 1.32 2.804 1.28 4.336 1.575 9.454 1.79 7.757 14.56 12.714 21.074 1.673 2.194 4.507 4.03 6.685 2.5 1.798-1.296 2.003-4.175 3.37-6.04 2.474-3.445 7.677-1.975 10.241 1.385 2.564 3.36 3.505 7.894 5.333 11.824a8.483 8.483 0 002.103 3.045 6.938 6.938 0 003.255 1.305c8.723 1.575 18.082-3.66 22.278-12.454 2.894-6.06 3.38-13.21 3.27-20.094-.01-.22-.01-.42-.01-.6zm32.325 23.71c1.057 2.78.723 5.875.26 8.815-.667 4.25-1.564 8.46-2.688 12.613-.673 2.491-1.436 5.082-.922 7.614.394 1.963 1.496 3.687 2.373 5.481 2.289 4.839 2.683 10.326 2.857 15.673.175 5.347.17 10.788 1.77 15.891a19.621 19.621 0 005.724 9.02 21.009 21.009 0 01-3.231-6.339c-1.601-5.103-1.601-10.544-1.77-15.891-.17-5.347-.568-10.834-2.857-15.668-.858-1.809-1.994-3.533-2.373-5.481-.499-2.532.249-5.128.922-7.62a118.819 118.819 0 002.688-12.647c.463-2.94.797-6.04-.26-8.82-.852-2.228-2.493-3.987-4.273-5.696a11.617 11.617 0 011.78 3.055zm16.364 80.354a13.039 13.039 0 01-3.71-1.934 12.037 12.037 0 01-4.537 1.316c-.304 1.669.648 3.369 1.995 4.425.267.215.55.41.847.583a3.986 3.986 0 01-.334-2.347 12.122 12.122 0 005.739-2.043zm-51.823-115.79c-1.9-.907-4.358-.927-6.222-1.7.105.347.247.681.423.997 1.571 2.632 5.525 2.063 8.292 3.389.349.175.683.38.997.613a9.6 9.6 0 00-3.49-3.299zm48.542 122.642a8.668 8.668 0 01-6.028.284c-2.129-.698-3.889-2.193-5.589-3.658l-9.558-8.217a66.495 66.495 0 01-1.341-1.181c.1.134.2.274.309.408a26.69 26.69 0 003.525 3.429l9.558 8.222c1.7 1.46 3.46 2.96 5.589 3.658a8.687 8.687 0 007.639-1.181 16.164 16.164 0 01-4.104-1.764zM479.26 52.391c2.577 3.533 5.245 7.31 5.584 11.666.134 1.784-.13 3.598.209 5.352.539 2.805 2.438 4.913 4.562 6.921a9.85 9.85 0 01-2.069-4.26c-.339-1.76-.075-3.573-.209-5.357-.339-4.355-2.992-8.133-5.584-11.66-1.875-2.577-3.83-5.208-6.128-7.39 1.281 1.514 2.473 3.129 3.635 4.728z" fill="#000"/><path opacity=".1" d="M457.473 42s-2.763 4.91 5.066 9l.461-1.311L457.473 42z" fill="#000"/><path d="M456.552 42s-3.224 4.91 5.911 9l.537-1.311L456.552 42z" fill="#FF6584"/><path d="M574.709 324s2.804 3.533-1.289 8.845c-4.094 5.312-7.468 9.828-6.117 13.155 0 0 6.178-9.902 11.214-10.039 5.036-.138 1.723-6.005-3.808-11.961z" fill="#B5EBE1"/><path opacity=".1" d="M575.085 324c.23.341.412.713.541 1.105 4.605 5.554 7.057 10.735 2.628 10.862-4.122.123-9.067 7.686-10.254 9.596.038.147.086.29.139.437 0 0 5.802-9.895 10.532-10.033 4.73-.137 1.608-6.015-3.586-11.967z" fill="#000"/><path d="M580 328.79c0 1.221-.228 2.21-.504 2.21s-.496-.965-.496-2.21.276-.646.551-.646c.276 0 .449-.574.449.646zm1.523 1.221c-.781.703-1.463 1.128-1.519.948-.056-.181.524-.896 1.304-1.599.781-.704.475-.192.535 0 .06.192.464-.053-.32.651z" fill="#FFD037"/><path d="M560.289 324s-2.804 3.533 1.29 8.845c4.094 5.312 7.469 9.828 6.118 13.155 0 0-6.174-9.902-11.216-10.039-5.042-.138-1.703-6.005 3.808-11.961z" fill="#B5EBE1"/><path opacity=".1" d="M560.371 324a4.351 4.351 0 00-.583 1.105c-4.959 5.554-7.599 10.735-2.83 10.862 4.438.123 9.764 7.686 11.042 9.596a3.664 3.664 0 01-.155.437s-6.242-9.895-11.341-10.033c-5.098-.137-1.706-6.015 3.867-11.967z" fill="#000"/><path d="M555 328.79c0 1.221.228 2.21.504 2.21s.496-.965.496-2.21-.276-.646-.551-.646c-.276 0-.449-.574-.449.646z" fill="#FFD037"/><path d="M553.714 330.011c1.172.703 2.19 1.128 2.28.948.089-.181-.787-.896-1.958-1.599-1.171-.704-.712-.192-.802 0-.09.192-.691-.053.48.651z" fill="#FFD037"/><path d="M556 346.018s7.792-.232 10.146-1.822c2.353-1.589 11.987-3.497 12.57-.966.583 2.532 11.708 12.7 2.912 12.768-8.796.067-20.439-1.305-22.782-2.662-2.344-1.357-2.846-7.318-2.846-7.318z" fill="#A8A8A8"/><path opacity=".2" d="M581.786 355.115c-8.798.067-20.443-1.303-22.787-2.659-1.786-1.037-2.497-4.748-2.735-6.456H556s.507 5.978 2.841 7.339c2.335 1.361 13.99 2.726 22.788 2.659 2.537 0 3.415-.879 3.369-2.152-.365.786-1.324 1.269-3.212 1.269z" fill="#000"/><path d="M213.977 336.988a5.653 5.653 0 001.96-2.804c.25-1.115-.25-2.454-1.368-2.861-1.255-.456-2.598.373-3.613 1.207-1.016.835-2.185 1.79-3.517 1.611a5.06 5.06 0 001.488-2.172c.29-.834.347-1.725.166-2.587a1.96 1.96 0 00-.459-.97c-.694-.708-1.96-.402-2.797.156-2.654 1.77-3.394 5.199-3.404 8.279-.271-1.111-.046-2.27-.051-3.395-.005-1.125-.337-2.425-1.347-3.017a4.256 4.256 0 00-2.042-.485c-1.194-.044-2.521.073-3.338.902-1.02 1.028-.75 2.76.133 3.88.883 1.121 2.22 1.848 3.45 2.629a7.515 7.515 0 012.47 2.236c.075.129.136.264.184.403h7.446a20.863 20.863 0 004.639-3.012z" fill="#B5EBE1"/><path d="M155.818 345s-7.159-23.806 1.345-41.334a36.824 36.824 0 003.12-23.591A62.403 62.403 0 00156.856 269" stroke="#535461" stroke-width="2" stroke-miterlimit="10"/><path d="M162 258.075c0 2.798-5 10.925-5 10.925s-5-8.146-5-10.925c0-1.346.527-2.637 1.464-3.589A4.967 4.967 0 01157 253c1.326 0 2.598.535 3.536 1.486a5.118 5.118 0 011.464 3.589zm9.173 16.125C169.504 276.693 160 281 160 281s.168-10.157 1.838-12.641a5.57 5.57 0 013.495-2.251 5.717 5.717 0 014.126.754 5.381 5.381 0 012.404 3.331 5.226 5.226 0 01-.69 4.007zm-1.07 28.074c-2.514 1.341-12.103.413-12.103.413s4.999-8.712 7.513-10.059a4.894 4.894 0 011.932-.606 4.816 4.816 0 012.003.233 5.025 5.025 0 011.762 1.037 5.357 5.357 0 011.244 1.679 5.698 5.698 0 01.273 4.175 5.477 5.477 0 01-1.015 1.844c-.45.537-.998.974-1.609 1.284zm-4.495 20.274C163.202 324.255 153 325 153 325s3.757-9.117 6.143-10.823a5.495 5.495 0 011.929-.972 5.654 5.654 0 012.174-.166 5.602 5.602 0 012.066.669 5.347 5.347 0 011.623 1.395c.437.565.75 1.209.919 1.894.169.685.192 1.395.066 2.088a5.088 5.088 0 01-.799 1.944 5.324 5.324 0 01-1.534 1.485l.021.034zm-16.84-40.904C150.928 283.785 161 286 161 286s-2.469-10.188-4.639-12.329a5.472 5.472 0 00-1.79-1.238 5.363 5.363 0 00-4.243.008 5.44 5.44 0 00-1.785 1.245 5.556 5.556 0 00-1.17 1.854 5.64 5.64 0 001.384 6.104h.011zm-4.948 24.624c2.53 1.349 12.18.421 12.18.421s-5.026-8.76-7.561-10.108a4.866 4.866 0 00-3.915-.308 5.056 5.056 0 00-1.742 1.042 5.395 5.395 0 00-1.233 1.667 5.718 5.718 0 00-.291 4.141c.211.676.545 1.302.985 1.842.44.54.976.983 1.577 1.303zm-1.933 24.217C144.198 332.231 154 333 154 333s-3.61-9.355-5.902-11.105a5.116 5.116 0 00-3.784-.816 5.198 5.198 0 00-3.291 2.077 5.413 5.413 0 00-.983 3.825 5.357 5.357 0 001.867 3.464l-.02.04z" fill="#B5EBE1"/><path d="M162 258.075c0 2.798-5 10.925-5 10.925s-5-8.146-5-10.925c0-1.346.527-2.637 1.464-3.589A4.967 4.967 0 01157 253c1.326 0 2.598.535 3.536 1.486a5.118 5.118 0 011.464 3.589zm9.173 16.125C169.504 276.693 160 281 160 281s.168-10.157 1.838-12.641a5.57 5.57 0 013.495-2.251 5.717 5.717 0 014.126.754 5.381 5.381 0 012.404 3.331 5.226 5.226 0 01-.69 4.007zm-1.07 28.074c-2.514 1.341-12.103.413-12.103.413s4.999-8.712 7.513-10.059a4.894 4.894 0 011.932-.606 4.816 4.816 0 012.003.233 5.025 5.025 0 011.762 1.037 5.357 5.357 0 011.244 1.679 5.698 5.698 0 01.273 4.175 5.477 5.477 0 01-1.015 1.844c-.45.537-.998.974-1.609 1.284zm-4.495 20.274C163.202 324.255 153 325 153 325s3.757-9.117 6.143-10.823a5.495 5.495 0 011.929-.972 5.654 5.654 0 012.174-.166 5.602 5.602 0 012.066.669 5.347 5.347 0 011.623 1.395c.437.565.75 1.209.919 1.894.169.685.192 1.395.066 2.088a5.088 5.088 0 01-.799 1.944 5.324 5.324 0 01-1.534 1.485l.021.034zm-16.84-40.904C150.928 283.785 161 286 161 286s-2.469-10.188-4.639-12.329a5.472 5.472 0 00-1.79-1.238 5.363 5.363 0 00-4.243.008 5.44 5.44 0 00-1.785 1.245 5.556 5.556 0 00-1.17 1.854 5.64 5.64 0 001.384 6.104h.011zm-4.948 24.624c2.53 1.349 12.18.421 12.18.421s-5.026-8.76-7.561-10.108a4.866 4.866 0 00-3.915-.308 5.056 5.056 0 00-1.742 1.042 5.395 5.395 0 00-1.233 1.667 5.718 5.718 0 00-.291 4.141c.211.676.545 1.302.985 1.842.44.54.976.983 1.577 1.303zm-1.933 24.217C144.198 332.231 154 333 154 333s-3.61-9.355-5.902-11.105a5.116 5.116 0 00-3.784-.816 5.198 5.198 0 00-3.291 2.077 5.413 5.413 0 00-.983 3.825 5.357 5.357 0 001.867 3.464l-.02.04z" fill="#B5EBE1"/><path d="M139 343.414s8.66-1.713 10.968-3.997c2.307-2.283 12.703-6.281 13.857-3.428 1.154 2.853 15.588 12.562 5.775 14.276-9.814 1.713-23.094 2.283-25.984 1.139-2.89-1.144-4.616-7.99-4.616-7.99z" fill="#A8A8A8"/><path opacity=".2" d="M169.604 349.088c-9.82 1.785-23.097 2.378-25.988 1.191-2.196-.907-3.725-5.248-4.327-7.279l-.289.063s1.731 7.132 4.616 8.319c2.886 1.186 16.168.598 25.988-1.187 2.83-.524 3.64-1.726 3.336-3.253-.253.997-1.23 1.758-3.336 2.146z" fill="#000"/></svg>