<svg width="192" height="190" fill="none" xmlns="http://www.w3.org/2000/svg"><path d="M55.796 126.366c-2.968-5.076-4.646-10.542-4.568-15.735.078-4.802 1.99-12.26 2.694-17.023.351-2.343.937-8.316 2.85-10.034 2.303-2.07 3.475 2.225 3.904 3.943 1.445 5.818-.937 11.752-.976 17.57-.039 2.303-.468 4.724-.234 7.028.312 3.045 1.718 6.13 3.28 8.746 1.874 3.123 3.943 6.169 6.09 9.097 1.289 1.757 2.617 3.553 3.514 5.544.625 1.367 2.304 3.709 1.836 5.232-1.757-.312-3.358-1.796-4.92-2.616-4.763-2.538-10.737-7.067-13.47-11.752z" fill="#EAAF9B"/><path d="M66.494 128.864c-2.42-4.178-3.826-8.668-3.748-12.962.078-3.944 1.679-10.113 2.225-14.017.274-1.952.781-6.833 2.343-8.239 1.913-1.678 2.89 1.836 3.202 3.241 1.17 4.803-.742 9.683-.82 14.485 0 1.914-.39 3.905-.196 5.779.274 2.499 1.406 5.037 2.694 7.184 1.523 2.577 3.241 5.076 5.037 7.496 1.093 1.445 2.148 2.929 2.89 4.569.507 1.132 1.913 3.045 1.522 4.294-1.445-.273-2.772-1.483-4.06-2.147-3.905-2.069-8.825-5.818-11.089-9.683z" fill="#E2A08F"/><path d="M47.48 122.851c-3.631-4.607-6.091-9.761-6.755-14.953-.586-4.764.234-12.416.234-17.258 0-2.108.274-3.982.508-6.052.156-1.288-.04-3.201.898-4.255 1.991-2.343 3.748 1.678 4.412 3.318 2.264 5.584.78 11.792 1.562 17.57.312 2.304.195 4.724.78 6.989.742 2.967 2.577 5.818 4.452 8.199 2.303 2.85 4.763 5.544 7.3 8.121 1.523 1.562 3.085 3.124 4.256 4.998.82 1.249 2.812 3.358 2.577 4.919-1.796-.078-3.553-1.288-5.231-1.874-5.076-1.796-11.636-5.427-14.993-9.722z" fill="#F4BFA8"/><path d="M136.578 126.366c2.967-5.076 4.646-10.542 4.568-15.735-.078-4.802-1.992-12.26-2.694-17.023-.352-2.343-.937-8.316-2.851-10.034-2.303-2.07-3.474 2.225-3.904 3.943-1.445 5.818.937 11.752.976 17.57.039 2.303.469 4.724.234 7.028-.312 3.045-1.717 6.13-3.279 8.746-1.874 3.123-3.944 6.169-6.091 9.097-1.289 1.757-2.616 3.553-3.514 5.544-.625 1.367-2.304 3.709-1.835 5.232 1.757-.312 3.358-1.796 4.919-2.616 4.764-2.538 10.738-7.067 13.471-11.752z" fill="#EAAF9B"/><path d="M125.88 128.864c2.42-4.178 3.826-8.668 3.748-12.962-.078-3.944-1.679-10.113-2.226-14.017-.273-1.952-.78-6.833-2.342-8.239-1.913-1.678-2.889 1.836-3.202 3.241-1.171 4.803.742 9.683.82 14.485 0 1.914.391 3.905.195 5.779-.273 2.499-1.405 5.037-2.694 7.184-1.522 2.577-3.24 5.076-5.036 7.496-1.094 1.445-2.148 2.929-2.89 4.569-.507 1.132-1.913 3.045-1.522 4.294 1.444-.273 2.772-1.483 4.06-2.147 3.905-2.069 8.824-5.818 11.089-9.683z" fill="#E2A08F"/><path d="M144.894 122.851c3.631-4.607 6.091-9.761 6.755-14.953.585-4.764-.234-12.416-.234-17.258 0-2.108-.274-3.982-.508-6.052-.156-1.288.039-3.201-.898-4.255-1.991-2.343-3.748 1.678-4.412 3.318-2.226 5.545-.742 11.752-1.523 17.531-.312 2.304-.195 4.724-.781 6.989-.741 2.967-2.577 5.817-4.451 8.199-2.303 2.85-4.763 5.544-7.301 8.121-1.523 1.562-3.084 3.124-4.256 4.998-.82 1.249-2.811 3.358-2.577 4.919 1.796-.078 3.553-1.288 5.232-1.874 5.037-1.757 11.596-5.388 14.954-9.683z" fill="#F4BFA8"/><path d="M129.592 119.337c18.34-18.339 18.34-48.073 0-66.412-18.339-18.34-48.073-18.34-66.412 0-18.34 18.339-18.34 48.073 0 66.412 18.34 18.339 48.073 18.339 66.412 0z" fill="#8280CE"/><path d="M121.368 46.444c-3.766-2.339-7.817-4.222-12.211-5.477-.285.057-.514.114-.799.114-.913 0-1.769-.171-2.739-.057-1.883.17-3.366-.114-5.249-.57-1.77-.4-3.424-.97-5.25-.686-.742.114-1.54.343-2.282.514-.856.228-1.655.228-2.568.342-.742.114-1.313.286-1.997.514-.514.171-1.427.57-1.883.513.114-.456.741-1.027 1.14-1.312-1.255.171-2.168 1.141-3.252 1.312-.684.114-1.255.057-1.94.286-.856.228-1.654.913-2.453 1.027.684-.343 1.312-.856 1.654-1.484a48.608 48.608 0 00-19 12.097c.684-.114 2.167-1.141 2.567-1.655 1.027.457-.285 1.94-.457 2.568-.17.514-.057.799-.4 1.198-.227.286-.627.172-.912.457.171-.114.285.171.628.057.4-.114.513-.285.913-.456.57-.229.913-.229 1.37.17.284-.684.056-1.483.513-1.996.684-.8 2.453-.8 2.853-1.655-.286.799-1.085 1.54-1.598 2.225-.685.913-.628 1.712-.913 2.74-.285.97-1.084 1.54-1.655 2.453-1.597-.628-.513-1.94 0-3.025-.513 0-1.084.343-1.483.571 0-.171-.115-.342-.115-.57-.57.114-1.426.342-1.426-.571-.913-.171-3.252 1.997-3.024 2.91.228 0 .4.228.627.228.229.628-.513 1.255-.855 1.655-.172.228-.4.4-.571.628-.171.285-.285.913-.457 1.198-.798 1.141-1.255.285-1.255-.628.057-.799.114-.856-.114-1.084-4.68 7.19-7.36 15.863-7.36 25.164 0 11.127 3.88 21.398 10.384 29.443a32.417 32.417 0 00-.513-1.312c-.571-1.141-1.028-2.225-1.77-3.252-.57-.742-1.255-1.883-1.597-2.682-.342-.799-.114-2.169-.856-2.796.57-.685.285-.742.171-1.313-.057-.228-.228-.342-.228-.684-.057-.4.285-.514.285-.799.057-1.313-.856-3.024-1.37-4.223-.284-.799-.855-1.54-1.026-2.396-.171-.97 0-2.112.171-3.025a33.201 33.201 0 012.282-7.703c.514-1.198.571-2.225.97-3.424.286-.855.97-1.369.97-2.282-1.027-.228-1.768 1.54-2.738 1.027-.685-.4-.229-1.826-.286-2.51-.114-.913-.285-1.826-.4-2.682-.056-.742.4-1.199.457-1.883.057-.628-.057-1.028.172-1.712.399-1.313.513-2.283.57-3.652.057-.97.343-1.826 1.027-2.51-.4 1.083-.114 2.624-.342 3.822-.285 1.313-.114 2.74-.457 4.109-.456 1.769-.4 3.366-.57 5.078 1.312-.456 2.111-1.312 3.195-2.168.286-.228.57-.285.856-.628.171-.228.228-.742.4-.913.285-.285 1.198-.4 1.597-.57.685-.229 1.313-.571 1.712-1.313.228-.4.171-.856.4-1.255.285-.57.912-.628 1.027-1.37 0-.114-.229-.57-.343-.799-.228-.285-.742-.114-.913-.342-.456-.57.171-1.312.285-1.883-.399.514-1.426 1.655-2.168 1.484-.171-.742-.342-.8-.228-1.598-1.084-.456.057-3.081.4-3.766.741.856.056 2.282.741 3.081.913 1.027 1.484.057 2.111-.4.057.286 0 1.2.229 1.37.228.229 1.198.286 1.54.4.514.17 1.199.57 1.712.513.57-.057.913-.799 1.484-.684.057.17.17.228.228.342 1.084.628.228 1.084.4 1.997.342 0 .684 0 1.026.114-.056.285-.285.57-.456.742.742 0 1.198.742 1.598 1.255.57.742.513 1.427.57 2.454.229 2.453 1.085 4.679 1.598 7.018.228.97.342 1.712 1.141 2.454.457-.342.628-.97 1.141-1.141-.057-.457.628-1.77.8-2.34.285-.97.456-1.597.456-2.681 0-1.884 1.597-2.511 3.081-3.367 1.084-.628 1.712-1.198 2.397-2.169.4-.57.684-.741 1.312-.97.856-.285 3.024.229 3.538-.456-.057.4 1.027.57 1.312.856.514.57.457 1.084.685 1.769.171.513.628.913.742 1.483.171.742-.228 1.256-.343 1.883.913.114 1.884-.627 2.625-.399.913.342 1.084 1.37 1.142 2.225.056.913.228 1.826.228 2.682 0 .97-.343 1.712-.4 2.568.685.742 1.256.799 1.712 1.712.457.913.4 1.769.742 2.682.342.913 1.198 1.027 1.883 1.654.4.343.685.628 1.084.913.285.229.628.229.856.571.399-.685-.685-1.37-.856-1.997-.228-.856.114-1.598-.4-2.34-.627-.913-1.94-1.37-2.681-2.168-.628-.685-.8-1.141-.742-2.054-.171 0-.342-.171-.514-.114-.114-.856-.057-3.823.913-4.052.571-.17 1.028.514 1.085 1.028 1.14 0 .798.057 1.426.912.457.628.628.8.856 1.655.4-.114.685-.57 1.027-.114.342.4-.228.913 0 1.256.4.57 1.541-1.256 1.997-1.598 1.084-.8 1.94-.913 1.997-2.454 0-.57.172-1.426 0-1.997-.171-.799-.684-.856-1.312-1.37-1.255-1.026-1.94-1.711-2.111-3.252-.114-.913 1.712-2.054 2.682-1.883 2.225.342.228 1.769.285 2.739.628.171.856-.4 1.369-.456.457-.97-.342-1.884.97-2.454.571-.228 1.199-.114 1.712-.343.571-.228.97-.798 1.427-1.14.57-.4 1.198-.571 1.712-1.142.741-.742 1.084-1.655 1.54-2.568.628-1.312.742-2.453.286-3.88-.172-.57-.229-1.712-.799-2.111-.457-.285-1.084.171-1.313-.57-.057-.058-.171-.229-.057-.571.571-.057.97-.4.799-.97-.513 0-1.084-.114-1.483.17-.286-.513-1.028-.912-.856-1.54.114-.513.913-.513.856-1.37.513.343.228.914.684 1.085.685.285.799-.4 1.427-.457.799-.114.856.343 1.141.856.399.856.342.514.97.97.571.4.571.229.571 1.142 0 .57-.229 1.312.399 1.483.742.228 1.655-1.027 1.712-1.598.057-1.027-.799-.798-1.541-1.312-.399-.285-.399-.057-.57-.57.057.114-.057-1.256-.114-1.085.228-.741.97-.799.684-1.769 1.484-.342 2.226-.513 2.169-2.168 0-.285 0-1.141-.058-1.426-.171-.571-.798-.856-.855-1.598.342.4.856.456 1.198.799.228.228.171.456.342.742.4.513.685.97 1.37 1.312-.171-.4-.685-.742-.97-1.198-.229-.4-.114-1.028-.4-1.427-.228-.342-2.339-1.712-2.796-1.712-.742-.057-.856.57-1.655.286-.798-.229-1.597-1.027-1.027-1.883.457-.685 2.397-.172 3.31-.229-.057-.342-.342-.627-.514-.913 1.142.229 2.796 1.484 3.424 2.454.514.799.571 1.198 1.484 1.598.57.228 1.255.285 1.597.798-.456-.57-1.255-1.084-1.712-1.711-.285-.4-.285-.856-.57-1.256.685.229 1.426.343 1.997.171zm-1.255 6.334c-.115-.057-.172-.057-.229 0 .171.228.343.457.457.742.114.342 0 .228-.057.4-.171.285-.286.57.171.684.057-.114.057-.285.057-.4.285.058.456-.17.742-.113.171.057.285.285.513.17.114-.056.171-.399.171-.513-.057-.456-.741-.456-1.084-.627-.342-.058-.456-.229-.741-.343zm.97 2.512c-.4.284.399 1.14.513 1.426.057.228.114.57.057.798-.057.514-.114.172-.399.115-.228 0-.457.285-.514.513-.057.228.172.457.057.628-.057.114-.228.057-.285.114-.057.057-.171.228-.228.285-.228.114-.514-.057-.742-.057-.57 0-1.483.514-1.541 1.141.571-.114 1.37.057 1.769-.342.172-.171.514-.57.856-.4.229.115.343.571.571.742.228-.228-.171-.4-.114-.627.057-.228.342-.286.513-.228.229.114.114.285.457.285.399 0 .342-.285.456-.514.171-.342.114-.057.4-.171.342-.171.228-.456.057-.628-.171-.285-.4-.4-.4-.741 0-.286.114-.571.057-.856-.285-.685-.741-1.37-1.54-1.484zm-2.625 5.705c-.285-.057-.285.4-.285.628 0 .057.114.228.171.285.057.114-.057.285.057.4.285.342.571-.115.628-.4.057-.171 0-.342 0-.456 0-.172.171-.229.114-.457-.114-.057-.457-.114-.685 0zm-5.078 7.018c-.571.286-.799 1.142-.628 1.712.057.115.057.286.171.4.057.114.228.171.285.228.114.171.114.285.172.514 0-.286.114-.628.285-.913.171-.4.114-.286 0-.685-.171-.285.57-1.313-.285-1.256zm.855 5.764c-.856.057.057 1.712-.114 2.111-.114.343-.342.514-.399.913-.057.4-.057.856.285 1.141.285-.342.514.343.571.57.057.4-.057.8.513.8v-.685c0-.171 0-.228.057-.4.057-.056.171-.114.171-.228.114-.342-.114-.228-.285-.456-.057-.114-.114-.514-.057-.628.057-.228.285-.456.399-.684.115-.343.172-.8.057-1.142-.114-.456-.513-1.198-1.198-1.312zm-2.852 11.641c-.571-.115-.799 1.14-1.085 1.483-.171.228-.342.228-.627.285-.286.057-.457.229-.685.4-.399.285-.399.4-.514.799-.114.342-.285.456-.57.627-.514.286-.97.057-1.427.286-.57.228-.114.57-.171.913-.057.285-.456.17-.685.228-.342.057-.399 0-.684-.114-.514-.172-.856.285-.742.799.057.228.228.456.228.684 0 .228-.114.514-.114.8 0 .399.114 1.026.571 1.197.057.057.342 0 .399 0 .171.172 0 .457.057.685.057.4.171.628.514.799.228.171.114.114.399.114.171 0 .228-.171.457-.114.114 0 .228.171.342.228.628.343 1.141.057 1.826.057.571 0 .685.4 1.141.457.4.057.856 0 .799-.457.228.057.514.343.685.057.171-.285-.229-.684-.229-.913 0-.228.172-.513.229-.684.057-.229 0-.457-.057-.685.342-.171.913-.057 1.084-.457.114-.285-.057-.798-.057-1.14 0-.229 0-.514.228-.628.228-.115.742.114.799-.229.057-.285-.628-.4-.742-.684-.114-.229 0-.457.057-.742.057-.57-.513-.913-.114-1.484.171-.228.856-.114.799-.456-.057-.228-.457-.057-.4-.4.343-.057.685-.228 1.085-.285-.115-.514-1.028-.285-1.37-.57-.228-.172-.285-.514-.571-.685-.342-.057-.513-.057-.855-.171z" fill="#B5EBE1"/><path d="M101.168 97.8c-.228-.115.286-1.427.343-1.712 0-.171.057-.171-.057-.343-.057-.114-.228-.17-.286-.285-.057-.171.058-.4 0-.57-.114-.4-.741-.343-1.027-.571-.228-.171-.4-.514-.627-.742-.171-.171-.457-.4-.514-.57-.171-.514.457-.8-.228-1.142-.228-.114-.343-.057-.57-.228-.172-.114-.343-.285-.514-.457-.4-.285-.856-.684-1.37-.856-.17-.056-.456-.056-.627-.114-.172-.057-.229-.285-.343-.399-.228-.228-.513-.342-.742-.57a9.521 9.521 0 00-.912-.685c-.514-.343-.343-1.028-.913-1.37-.8-.57-1.827.114-2.682-.228.342.228.4.856.741 1.141.229.171.571.114.856.4.286.342.286.741.685 1.027.342.228.4.456.628.799.228.342.513.114.799.342.228.114.285.4.342.628.057.285.228.456.342.798.229.628.343 1.085.97 1.427.742.456.628 1.084 1.084 1.769.286.4.571.799.913 1.141.343.342.856.57 1.256.856.342.228.57.4.799.742.17.17.342.456.627.4v-.8c.457-.114.685.171 1.027.171zm.4.684c-.342 0-.742 0-.628.457-.171 0-.342.114-.513.17.228.172.684.229.913.172.114 0 .285-.228.342.057 0 .114-.171.285-.228.342.171 0 .342.057.513.057.343.115.514.057.856 0 .286 0 .514.057.799.115.343.057.742.342 1.084.342.229 0 .457-.114.742-.114s.628.057.913.057c.342 0 .685-.057 1.027 0 .286.057.571.171.856.228.457.114 1.313.228 1.826.114-.171-.342-.571-.285-.856-.513-.228-.172-.057-.343-.456-.286-.229 0-.742.229-.856-.114-.171-.4.456-.285.456-.57-.228-.115-.456 0-.684-.057-.286-.058-.4-.229-.742-.286-.685-.057-1.313-.285-1.997-.057-.799.228-1.598.285-2.397-.114-.228-.114-.456-.228-.685-.228-.057.057-.171.171-.285.228zm12.325-1.199c-.057-.456.457-2.225-.342-2.168-.057.285-.228.343-.4.171-.228-.285.058-.513.172-.741.285-.4.57-.8.627-1.256.057-.228 0-.513 0-.742 0-.342.114-.741.229-1.14.114-.628.513-.8 1.027-.743.342 0 .684-.057.97-.057.342 0 .627.172.97.115.742-.115 1.54-.115 1.826-.913.114.855-.856 1.825-1.598 1.883-.685.057-2.111-.628-2.625.114-.285.4-.171 1.14.228 1.37.571.341.799-.286 1.313-.514.171-.058 1.312-.4 1.312-.115-.057.229-.799.514-.97.571-.228.114-.513.228-.627.457-.229.285-.115.228 0 .513.114.285.114.514.228.799.114.228.228.4.285.628.057.285 0 .57-.114.856-.342-.115-.399.057-.685.114 0-.343-.114-.856-.228-1.199-.114-.228-.399-1.027-.742-.913-.171.571 0 1.199-.057 1.826-.057.4-.114.913-.057 1.256-.228.17-.571.114-.742-.171zm-2.511 2.797c-.228.457.514.685.799.457-.171-.115-.742-.514-.856-.343m1.997.742c.286.114.571.171.799.342.171.114.285.457.571.4.057-.457-1.141-.97-1.37-.742zm.856-.799c.343.228.913.285 1.313.285.399 0 .856.115 1.255.058.457-.058.628-.457 1.027-.628.285-.171.457-.171.571-.514-.4.057-.799.286-1.256.343-.456.057-.856.285-1.312.228-.342 0-.742-.171-1.084-.171-.228 0-.742.17-.514.399zm2.91 1.141c.286 0 .4-.285.571-.399.285-.286.571-.571.913-.799.399-.285.856-.285 1.255-.57-.171.456-.856.798-1.198 1.083-.228.172-.399.514-.628.685-.171.114-.399.114-.627.285-.229.115-.4.457-.628.514-.171-.399.057-.571.342-.799zm17.975-2.282c-.514-.457-.742-.97-.913-1.598-.114-.4-.97-.799-.742-1.198.171-.343.799-.114.399-.628-.171-.285-.456-.343-.57-.628l-.172-.513c-.057-.286-.057-.514-.285-.742-.342-.343-1.027-.457-1.483-.628-1.028-.342-1.998-.97-3.139-.742-.57.115-.685.628-1.027.97-.114.115-.799.8-.97.8-.171 0-.228-.628-.285-.8-.114-.285-.114-.627-.057-.97.057-.228.228-.342.057-.513-.114-.114-.457-.171-.571-.171-.285-.057-.685-.114-.856 0-.228.17-.114.342-.456.456-.286.114-.457.057-.742-.057.057.685.628.285.856.742.057.114-.057.342.057.456.057.058.399.172.456.172.229 0 .286-.172.457-.229.228-.057.399 0 .342.229-.171.399-.741.114-1.027.228-.685.285.514.513.571.742.057.17-.285.57-.114.741.342.286.684-.456.684-.627.4.057.685.456 1.028.57.741.229 1.198.171 1.768.742.457.457.4 1.141 0 1.598-.228.285-.285.57-.513.913-.057.114-.514.4-.057.456.171.057.685-.342.913-.4.228-.056.399-.17.627-.17.742.057.172 1.084 1.028.799.627-.229 1.369-.514 1.54-1.199.114-.513.228-.856.856-.513.171.114.571.456.685.684.171.229.057.685.285.913.285.172.97.115 1.37.115zm-11.869-4.28c-.4-.114-.799-.457-1.313-.514-.456-.057-1.141.058-.456.4.456.228.97.114 1.369.285.115.057.457.285.514.285.285 0 .057-.285-.114-.456zm-1.484-5.592c-.399-.057-.799.628-.742.913 0 .114.172.286.172.4.057.228 0 .342-.058.57 0 .172-.114.856 0 .913.4.286.286-.513.343-.627.114-.685.399.057.742.114-.057-.285-.514-.514-.514-.799 0-.4.457-.342.457-.742-.286-.057-.742.514-.799.057-.057-.285.285-.57.513-.627 0-.058 0-.172-.114-.172zm6.277 17.062c-.228.057-.628-.229-.799-.343-.399-.285-.742-.456-1.084-.627-.171-.115-.513-.343-.685-.514-.228-.342 0-.628.229-.913.114-.171.228-.228.342-.342.114-.172.171-.343.342-.514.114-.171.628-.513.571-.799-.114-.627-1.427.057-1.655 0-.399-.114-1.54-1.084-1.826-.342-.114.228.057.342-.171.513-.114.115-.285.057-.399.057-.286.115-.343.286-.514.514-.285.399-.571.799-.799 1.255-.171.229-.228.4-.456.571-.571.342-.799-.228-1.313-.342-.342-.115-.399-.057-.684.285-.4.399-.856.742-1.256 1.198-.285.285-.456.571-.513.97-.057.171-.057.286-.229.343-.228.114-.456-.115-.684.171-.114.171-.114.456-.114.627-.4-.114-.4-.684-.97-.399-.457.228-.514.97-.685 1.427-.228.684-.571.913-1.313 1.084-.57.171-1.027.57-1.597.799-.514.228-.913.171-1.427.228-.685.057-1.712.456-2.168.97-.457.513-.685 1.312-.913 1.94-.057.171-.171.456-.171.628 0 .114.114.228.114.342.057.399-.285.685-.285 1.084.057.4.627.913.798 1.255.229.343.457.742.628 1.142.057.228.171.741.057.97-.057.171-.228.114-.228.342 0 .342-.057 1.141-.685 1.141.114.514.342.457.799.457.228 0 .399.057.628.057.285 0 .57.114.856.114.285 0 .285-.057.513-.171.228-.114.571-.228.856-.286.514-.114.742-.513 1.312-.57.4-.057.799-.114 1.199-.057.399.057.856.171 1.255.114.571-.114.799-.856 1.255-1.141.628-.4 1.256-.913 1.94-1.199.514-.228 1.484-.399 1.998-.114.684.343.684 1.027 1.198 1.484.114-.285.571-.97.913-.913 0 .399-.4.628 0 .913.114.114.342.114.399.285.057.114-.057.4-.114.571-.057.342-.228.685.171.799.571.171 1.085-.4 1.541-.685.228-.114.399-.342.628-.4.399-.171.741 0 1.027-.285.228-.228.399-.513.627-.742.4-.342.856-.684 1.199-1.027.799-.799 1.198-1.997 1.997-2.853.456-.513 1.027-1.027 1.369-1.655.172-.285.229-.627.343-.97.228-.627.684-1.198.799-1.94.057-.399 0-.798-.058-1.198-.057-.513-.057-.799-.342-1.255-.114-.171-.228-.286-.114-.514-.514-.057-.285-.97-.228-1.312l-.343-.171c-.057-.514.286-.97.343-1.484.057-.514 0-.913 0-1.369-.628-.058-.628-.172-.628-.856 0-.685-.228-1.37-.285-2.055-.514.457-.457 1.484-.742 2.055-.228.456-.457.913-.514 1.426 0 .228.057.4 0 .628-.057.456-.399.913-.627 1.312 0 0-.286.571-.628.286zm-4.28 15.234c-.57.229-1.198.457-1.483 1.027-.285.457-.171.628.285.229.286-.286.4-.229.742-.171.285 0 .171 0 .399-.172.286-.342.4-.513.057-.913zm-6.048-42.225c-.228.457.171.628.457.856.285.285.171.514 0 .799-.114.228-.286.456-.057.742.228.285.513.285.399.742-.057.17-.114.228-.171.4 0 .17 0 .456.057.627-.285 0-.685.057-.97-.057.114.456-.628.114-.856.285-.628.342-.171 1.084-.456 1.54.171.229.513-.056.627-.228.114-.114.228-.342.4-.4.171-.056.114.058.228.058.399 0 .513 0 .513.456 0 .229-.114.514-.057.685.114.285.685.4.97.343.799 0 .115-.514.229-.97.114-.457.97-.4.913-1.028 0-.228-.286-.513-.4-.741-.057-.171-.057-.343-.114-.457-.057-.171-.114-.285-.171-.456-.057-.229-.228-.4-.228-.628-.057-.228-.057-.514-.114-.742-.172-.513-.058-.856-.514-1.255-.228-.228-.571-.4-.685-.57zm-1.484 1.028c-.228.228-.456.513-.456.799 0 .056.114.399.228.399.171 0 .228-.285.342-.343.114.172.057.457 0 .685.286-.228.343-.684.343-1.027-.171 0-.114-.228-.457-.513z" fill="#B5EBE1"/><path d="M77.518 166.72c1.83 2.69 9.38-1.364 11.171-3.107 4.32-4.168 4.087-10.875 4.204-16.331.156-6.366-.35-13.148-3.192-19.059-3.114-6.518-9.03-11.481-14.868-15.611-4.671-3.335-8.33-7.806-12.417-11.709-2.413-2.31-5.488-5.04-8.835-6.024-1.48-.417-6.189-.644-5.488 2.046.311 1.175 2.14 2.425 2.92 3.258 1.323 1.365 2.607 2.804 3.891 4.168 4.048 4.32 8.33 8.602 11.093 13.831.545 1.023 5.177 11.443.857 8.563-7.59-5.077-16.309-10.534-22.147-17.771-2.764-3.41-3.854-7.692-5.644-11.595-2.024-4.47-4.476-9.093-9.848-9.927-.467 3.865 1.713 7.692 2.92 11.292 1.4 4.205 2.452 8.487 4.554 12.466 1.284 2.425 2.958 5.039 4.67 7.161 2.53 3.183 6.072 5.873 8.991 8.677 7.474 7.161 16.581 13.451 22.81 21.749 2.88 3.865 3.658 7.882 4.047 12.504.117 1.895-.39 3.6.311 5.419zm38.087-.001c-1.829 2.693-9.38-1.365-11.171-3.11-4.32-4.172-4.086-10.885-4.203-16.346-.156-6.372.35-13.161 3.191-19.078 3.114-6.523 9.03-11.491 14.869-15.625 4.671-3.338 8.329-7.813 12.416-11.72 2.413-2.313 5.488-5.044 8.836-6.03 1.479-.417 6.188-.645 5.488 2.048-.312 1.176-2.141 2.427-2.919 3.262-1.324 1.365-2.608 2.806-3.893 4.172-4.048 4.323-8.329 8.609-11.093 13.843-.545 1.024-5.176 11.454-.856 8.571 7.59-5.082 16.309-10.543 22.147-17.787 2.763-3.414 3.853-7.699 5.644-11.606 1.985-4.4 4.476-9.026 9.847-9.86.467 3.906-1.712 7.736-2.919 11.301-1.401 4.21-2.452 8.496-4.554 12.478-1.284 2.427-2.958 5.044-4.671 7.168-2.53 3.186-6.072 5.879-8.991 8.686-7.473 7.168-16.581 13.464-22.808 21.769-2.881 3.869-3.659 7.889-4.048 12.516-.117 1.821.389 3.527-.312 5.348z" fill="#F7C8AF"/><path d="M75.169 178.36s-.148 0-.296-.148c-.149 0-.445-.149-.594-.149-.148 0-.444-.148-.593-.148-.148 0-.296-.148-.444-.148-.149 0-.297 0-.297.148s-.148.445-.296 1.038c-.149.445-.297 1.038-.445 1.631-.148.593-.297 1.334-.593 1.927-.149.741-.297 1.335-.593 1.928-.297.593-.297 1.186-.445 1.63-.148.445-.297.89-.297 1.038 0 .149-.148.297-.148.445 0 .148 0 .297-.148.593 0 .148-.148.148-.297.148-.296 0-.593-.148-.741-.148-.148-.148-.445-.148-.741-.148-.149 0-.297-.148-.149-.297 0-.148.149-.444.297-1.037.148-.594.296-1.187.445-1.928.148-.741.445-1.483.593-2.224.148-.741.445-1.631.593-2.224a15.41 15.41 0 01.445-1.779c.148-.445.148-.741.296-.89 0-.148 0-.296-.148-.296s-.297 0-.445-.148c-.148 0-.296-.149-.445-.149-.148 0-.296-.148-.296-.444 0-.297.148-.742.296-1.038.148-.297.148-.741.297-1.038v-.297c0-.148 0-.148.148-.296l.148-.148h.297c.148 0 .445.148.741.148.297 0 .445.148.593.148.297.148.297.297.297.593l-.148.445c0 .148 0 .297.148.297s.445.148.741.148c.297.148.593.148 1.038.296.445.149.741.149 1.186.297.445.148.741.148 1.186.296.445.149.593.149.89.297.296 0 .296.148.444.148-.148 0 0 .148 0 .297v.444s0 .297-.148.594c-.148.296-.148.741-.296 1.334l-.445 1.779c-.148.593-.445 1.334-.593 2.076-.148.741-.445 1.334-.593 2.075a15.382 15.382 0 01-.445 1.78c-.296.593-.445 1.037-.445 1.334-.148.296-.148.593-.148.593a.319.319 0 01-.297.296h-.444c-.149 0-.445-.148-.593-.148-.297 0-.445-.148-.594-.148 0 0-.148 0-.148-.148l-.148-.149v-.148l2.669-9.637c0-.148.148-.296.148-.445v-.296zm-12.454 5.337c.148 0 .148-.148.148-.148.148-.296.148-.445.297-.741.148-.297.148-.445.296-.741v-.149c0-.148 0-.148-.148-.148-.148-.148-.445-.148-.593-.296-.149-.149-.445-.149-.593-.297-.149 0-.445-.148-.593-.148-.149 0-.297-.149-.445-.149-.297-.148-.297-.148-.445-.296v-.445c0-.148.148-.296.148-.445 0-.148.148-.296.148-.444.297-.149.445-.149.89-.149a7.13 7.13 0 001.038.445c.297.148.741.297 1.038.445h.296s.149-.148.149-.297c0-.296.148-.593.296-1.037.148-.445.297-.742.445-1.187.148-.444.296-.741.445-1.037.148-.297.296-.445.296-.593v-.149s0-.148-.148-.148c-.297-.148-.593-.296-1.038-.445-.445-.148-.741-.296-1.186-.445l-1.334-.593c-.149 0-.149-.148-.297-.148s-.148-.148-.148-.296c0 0 0-.149.148-.297 0-.148.148-.296.148-.445 0-.148.149-.296.149-.444 0-.149.148-.297.148-.297 0-.148.148-.148.148-.297h.297c.148 0 .296.149.593.149.296.148.593.296 1.038.445.444.148.74.296 1.186.444.445.149.89.297 1.186.445.296.148.741.297.89.445.296.148.444.148.444.148.148 0 .148.148.297.297.148.148 0 .296 0 .444 0 .149-.149.594-.445 1.187-.297.593-.445 1.334-.89 2.075-.296.742-.593 1.631-1.037 2.521-.297.889-.742 1.779-1.038 2.52-.297.741-.593 1.483-.742 2.076-.148.593-.296.889-.445 1.038-.148.296-.296.296-.444.296-.148 0-.445-.148-.89-.296-.445-.149-.89-.297-1.483-.593-.593-.149-1.037-.445-1.482-.593-.445-.149-.89-.297-1.186-.445-.593-.148-.593-.593-.445-1.038 0-.148.148-.148.148-.297.445-.148.445-.296.445-.296a.32.32 0 01.297-.297h.444s.149 0 .297.149c.148 0 .445.148.593.296.297.148.445.148.741.297.297.148.593.148.742.296h.74c.297.148.297.148.446.148zm-3.41-13.047s.148 0 .296.149c.149 0 .297.148.445.148.148.148.297.148.445.296.148 0 .296.149.296.149.149.148.297.296.149.296 0 .148-.149.297-.149.445 0 .148-.148.296-.296.593-.148.296-.445.741-.593 1.186-.297.445-.593 1.038-.89 1.631-.296.593-.593 1.186-1.038 1.779-.296.593-.593 1.186-1.037 1.779-.445.593-.593 1.186-.89 1.631-.148.593-.297 1.038-.593 1.334l-.297.594v.148s0 .148-.148.148c0 0-.148 0-.296-.148-.149-.148-.297-.148-.593-.297-.149-.148-.445-.148-.593-.296-.149-.149-.149-.149-.297-.149v-.296c.148-.148.148-.445.445-.89a7.34 7.34 0 00.445-1.037c.148-.445.444-.742.593-1.187.148-.296.296-.593.444-.741.149-.148.149-.296 0-.296-.296-.149-.74-.297-1.037-.593-.297-.149-.593-.297-1.038-.593h-.149c0 .148-.148.296-.296.593-.148.296-.445.741-.593 1.037-.148.445-.445.742-.593 1.186-.148.445-.445.742-.445.89-.297.445-.445.445-.593.297-.297-.149-.593-.297-.741-.445l-.89-.445c-.148 0-.148-.148-.148-.148v-.297c.148-.148.296-.445.445-.741.296-.297.444-.741.741-1.334.296-.593.593-1.038.89-1.78.296-.593.593-1.186 1.037-1.927.297-.593.742-1.186 1.038-1.779.297-.593.593-1.186.89-1.631.296-.445.445-.89.593-1.186.148-.297.296-.445.296-.593.149-.148.149-.297.297-.297h.445c.148.149.444.149.741.297s.445.296.593.296c.148 0 .148.149.148.297s0 .296-.148.445c-.148.148-.297.444-.445.889-.148.445-.445.89-.741 1.335a6.901 6.901 0 00-.741 1.482c-.297.445-.445.89-.593 1.038v.148s0 .149.148.149c.296.148.593.296 1.038.444.296.149.593.297.89.593.148.149.296 0 .296-.148.296-.593.741-1.334 1.038-1.927.296-.593.74-1.335 1.037-1.928 0-.148.149-.148.149-.296s.148-.297.148-.445c0-.148.148-.148.148-.297 0-.148.297.297.297.445zm-13.047 7.709s-.296-.148-.445-.296c-.296-.148-.593-.445-1.037-.593-.445-.148-.742-.593-1.187-.89-.444-.296-.89-.593-1.186-.889-.296-.297-.741-.445-1.038-.742-.296-.296-.444-.296-.444-.296l-.297-.297c-.148-.148 0-.148.148-.296.149-.149.149-.297.297-.445.148-.148.148-.297.296-.445.297-.296.594-.296.89 0 .297.148.445.297.741.445.297.148.445.296.742.445.148.148.296 0 .296-.149.148-.148.297-.444.593-.889.297-.445.742-1.038 1.038-1.631.445-.593.89-1.334 1.334-1.927.445-.593.89-1.335 1.335-1.928.445-.593.741-1.186 1.038-1.482.296-.445.444-.742.444-.742.149-.148.149-.148.297 0 .148.149.445.297.593.445.148-.148.297 0 .445 0 .296.148.296.297.148.593-.148.297-.445.741-.741 1.186-.297.445-.742 1.038-1.186 1.779-.445.593-.89 1.186-1.335 1.928-.444.593-.89 1.186-1.186 1.779-.296.593-.741 1.186-1.186 1.779 0 .148-.148.148-.148.297 0 .148 0 .148-.148.148v.148s.148.148.296.148c.148.149.297.149.445.297.148.148.445.296.593.445.148.148.296.296.445.296v.297c0 .148-.149.148-.149.296-.148.149-.148.297-.296.445-.148.148-.148.297-.297.445-.148.148 0 .296-.148.296zm-10.527-13.787c.297-.297.445-.593.89-.742.445-.148.741-.444 1.038-.444.444-.149.741-.149 1.186-.149.445 0 .89 0 1.186.149.296.148.445.148.741.444.297.297.593.445.89.593.148 0 .148.149.296.149 0 0 .149 0 .149-.149.296-.444.74-.889 1.037-1.334.445-.445.742-.89 1.038-1.334.297-.297.593-.297.89 0 .148.148.296.296.445.296.148.148.296.148.444.297.297.296.297.444.149.741-.149.297-.445.593-.89 1.186s-.89 1.186-1.483 1.779c-.593.742-1.186 1.335-1.779 2.076-.593.741-1.186 1.334-1.63 2.076-.445.593-.89 1.186-1.335 1.631a5.44 5.44 0 01-.593.741c-.148.148-.297.148-.445.148-.148 0-.445-.148-.741-.445-.297-.148-.593-.445-.89-.741-.296-.297-.593-.445-.741-.741-.297-.149-.445-.297-.445-.445-.296-.297-.445-.593-.741-.89-.297-.296-.297-.741-.445-1.038v-1.186c0-.444.148-.741.445-1.037.148-.149.296-.445.593-.742.296-.296.593-.593.741-.889zm4.596 2.075s0-.148 0 0v-.296l-.296-.297-.445-.445c-.148-.148-.445-.148-.741-.296h-.742l-.89.445c-.296.148-.444.445-.74.741-.149.148-.149.297-.149.445 0 .148-.148.445-.148.593 0 .148 0 .445.148.593.149.148.149.296.297.445l.445.445c.148.148.296.296.444.296.149.148.297.148.445 0 .148-.148.297-.445.593-.741.297-.297.445-.593.742-.89.296-.296.444-.593.593-.741.296-.148.444-.297.444-.297zm-14.233-8.599c-.148.148-.148.297 0 .445.148.148.445.445.593.741.148.297.445.445.593.742h.296c.149 0 .297-.297.742-.594.445-.296.89-.741 1.482-1.186.593-.444 1.187-1.037 1.78-1.482.593-.593 1.186-1.038 1.779-1.483a12.095 12.095 0 001.334-1.186c.445-.296.593-.445.593-.593h.297c.445.297.89.593 1.186 1.038.148.296.148.445-.148.593 0 0-.297.296-.742.593-.444.296-.89.741-1.482 1.334-.593.593-1.186 1.038-1.928 1.631-.741.593-1.334 1.186-1.927 1.779s-1.186 1.038-1.631 1.483l-.89.89-.148.148s-.148.148-.297.148c-.148 0-.148.148-.296.148s-.148 0-.297-.148l-.444-.445c-.149-.296-.445-.445-.742-.889-.296-.297-.593-.742-.89-1.038-.296-.297-.592-.741-.889-1.038-.296-.297-.593-.593-.741-.89-.148-.296-.297-.444-.445-.444v-.297l.148-.148s.297-.148.593-.445c.297-.296.593-.593 1.038-.89.445-.296.89-.741 1.335-1.186.444-.444 1.037-.889 1.482-1.334.593-.445 1.038-.89 1.483-1.334.445-.445 1.038-.89 1.482-1.186.445-.445.742-.742 1.187-1.038.296-.297.593-.445.593-.593.148-.149.296-.297.444-.297.149 0 .297.148.445.297l.445.444c.148.149.297.297.297.445.148.149.148.297.148.445 0 .148-.148.148-.297.297l-.593.593c-.296.296-.741.741-1.334 1.186-.445.445-1.038.889-1.631 1.482s-1.186 1.038-1.63 1.483c-.594.445-1.039.89-1.483 1.334-.445.149-.742.297-.89.445zm-1.186-10.971c-.148 0-.148.148-.297.148 0 0-.148.148-.296.148h-.149s-.148 0-.148-.148c-.148-.148-.296-.445-.445-.593a2.036 2.036 0 00-.444-.593v-.297c.148-.296.444-.444.741-.593.296-.148.445-.296.741-.593.149-.148.593-.296.89-.445.296-.148.89-.296 1.334-.296.445 0 1.038 0 1.483.148.445.148.89.445 1.334 1.038.297.297.445.741.593 1.186.149.445.149.89.149 1.334 0 .445-.297.89-.593 1.335-.297.445-.742.889-1.335 1.334l-5.337 3.855c-.149.148-.445.297-.89.445-.445.148-.741.296-1.186.445-.445 0-.89 0-1.483-.149-.593-.148-1.037-.593-1.482-1.186a6.938 6.938 0 01-.742-1.482c-.148-.445-.148-.89 0-1.187.149-.296.297-.741.445-.889.148-.297.445-.593.593-.741.149-.149.445-.297.593-.445.149-.148.297-.148.297-.148s.148-.149.296-.149c.149 0 .297 0 .445.297 0 .148.148.148.297.445.148.148.296.296.296.444.148.149.148.297.148.445 0 .148-.148.148-.148.297l-.296.296-.445.445c-.148.148-.297.445-.297.593 0 .148 0 .445.149.593.148.297.444.445.593.445h.741c.296 0 .445-.148.593-.148.148-.149.297-.149.445-.297.148-.148.296-.148.593-.445.296-.148.593-.444.89-.593.296-.296.74-.445 1.037-.741.445-.297.742-.593 1.038-.741.297-.297.593-.445.89-.593.296-.149.444-.297.444-.297.594-.445 1.038-.89 1.187-1.186.148-.297 0-.741-.149-1.038a.817.817 0 00-.741-.445c-.297 0-.593 0-.89.149l-.89.444c-.296-.148-.444 0-.592.149zm-4.893-4.893c-.148 0-.445 0-.89.148-.444 0-.889.148-1.482.148s-1.186.148-1.78.297c-.592.148-1.185.148-1.63.296-.445.148-.89.148-1.335.148-.296 0-.592.149-.592.149s-.149 0-.149-.149c-.148-.148-.148-.296-.296-.444-.149-.149-.149-.297-.297-.593-.148-.149-.148-.297-.148-.297 0-.148-.148-.148-.148-.296 0 0 0-.149.148-.149l.593-.296c.296-.149.741-.445 1.334-.742.593-.296 1.038-.593 1.78-1.037a13.573 13.573 0 001.927-1.187c.741-.444 1.334-.741 1.927-1.186.593-.296 1.186-.741 1.78-1.037.592-.297.889-.594 1.185-.742.297-.148.445-.296.445-.296s.149 0 .149.148.148.296.296.445c.148.148.148.296.297.445a.458.458 0 01.148.296c.148.148.148.297 0 .445-.148 0-.297.148-.593.296-.445.149-.89.445-1.335.742-.444.296-1.037.593-1.482.889-.593.297-1.038.593-1.483.89-.445.296-.89.593-1.334.741l-.148.148v.149h.444c.149 0 .445 0 .742-.149.296-.148.89-.148 1.482-.148.593 0 1.186-.148 1.78-.148.592 0 1.186-.148 1.779-.148s1.037-.149 1.334-.149h.593s.148.149.148.297c.149.148.149.296.297.445.148.148.148.296.148.444 0 .149.148.149.148.297s0 .445-.148.445-.296.148-.593.296c-.297.149-.741.445-1.186.742-.445.296-1.038.593-1.63.889-.594.297-1.187.742-1.928 1.038-.593.297-1.187.741-1.78 1.038-.593.296-1.186.593-1.63.889-.445.297-.89.445-1.187.593-.296.149-.444.297-.592.297-.149 0-.297.148-.445 0l-.297-.297c-.148-.148-.148-.296-.296-.593-.149-.148-.149-.444-.297-.593v-.148l.148-.148.593-.297c.297-.148.742-.444 1.038-.593.445-.296.89-.444 1.335-.741a6.89 6.89 0 011.482-.741c.445-.297.89-.445 1.186-.593.297-.149.593-.297.593-.445 0 0 .149 0 .297-.148.148 0 .148-.149.148-.149h-.445c.149.149 0 .149-.148.149zm-10.971-5.041s0-.148.297-.445c.148-.296.444-.593.74-1.038.297-.444.594-.741.89-1.186.297-.445.594-.741.89-1.186H8.154c-.296 0-.444-.148-.444-.148 0-.148-.149-.297 0-.297v-1.334c0-.148 0-.296.148-.296 0 0 .148-.149.296-.149.149 0 .445 0 .89.149.445 0 .89.148 1.483.148.444 0 1.038.148 1.482.148.445 0 .89.148 1.038.148h.297c.148 0 .148-.148.296-.148.148-.148.148-.296.445-.593.296-.297.445-.593.741-.89.297-.296.593-.741.89-1.037.296-.297.593-.742.741-1.038.297-.297.445-.742.89-1.038.148-.148.296-.297.296-.445.148-.148.148-.148.297-.148h.296c.149 0 .297.148.445.296.148.149.148.149.297.149.148 0 .296.148.296.148.148.148.148.148.148.296 0 .149 0 .297-.148.297-.148.148-.148.296-.296.445-.149.148-.297.445-.593.741-.297.297-.445.593-.594.89-.296.296-.444.593-.74.889-.15.297-.446.593-.594.742-.148.296-.296.444-.445.444v.297c.149 0 .445 0 .89.148.445 0 .89 0 1.483.148.593 0 1.037.149 1.63.149s1.038.148 1.335.148c.148 0 .296 0 .445.148.148.148.148.297.148.593v1.038c0 .148-.148.297-.148.297-.149 0-.297.148-.445 0h-.593c-.297 0-.742 0-1.186-.149-.445 0-.89 0-1.335-.148-.445-.148-.89-.148-1.334-.148-.445 0-.89-.149-1.186-.149h-1.038s-.148.149-.296.149c-.149.296-.445.593-.742 1.038-.296.444-.593.889-.89 1.186-.296.296-.592.741-.889 1.186a2.55 2.55 0 00-.445.593c-.148.148-.148.148-.296.148-.149 0-.297 0-.297-.148-.148 0-.148-.148-.296-.148-.149-.149-.297-.149-.445-.297-.148 0-.297-.148-.297-.148-.593-.297-.741-.297-.741-.445zm-.741-9.934H7.265c-.445 0-.89-.148-1.334-.297a2.302 2.302 0 01-1.186-.889c-.445-.445-.742-1.038-.89-1.779-.148-.593-.148-1.186 0-1.631.148-.445.445-.89.741-1.186.297-.297.593-.593.89-.742.296-.148.593-.296.741-.296.148 0 .445-.148.741-.297a2.797 2.797 0 011.187-.296c.444-.148.89-.297 1.482-.445a18.254 18.254 0 001.483-.445c.445-.148.89-.296 1.186-.296.296-.149.593-.149.741-.149.297 0 .593-.148 1.038-.148.445 0 .89.148 1.334.297.445.148.89.445 1.335.741.445.297.741.89.89 1.483.148.593.296 1.038.148 1.482-.149.445-.149.89-.297 1.186-.148.297-.445.593-.741.89-.297.297-.593.445-.89.593-.296.148-.593.297-.741.297-.297.148-.445.148-.445.148-.148 0-.296.148-.593.148a2.798 2.798 0 01-1.186.297c-.445.148-.89.296-1.483.444l-1.334.445c-.445.148-.741.297-1.186.297-.445.148-.593.148-.593.148zm-1.038-4.893c-.148.149-.445.149-.593.297l-.445.445c-.148.148-.148.296-.148.593 0 .296 0 .296.148.444 0 .149.148.297.297.445.148.149.296.149.444.297.445.148.742.148 1.187 0 .148 0 .296 0 .593-.148.296 0 .593-.149.89-.297.444-.148.74-.297 1.185-.297l1.335-.444c.444-.149.89-.297 1.186-.297.445-.148.741-.148.89-.296.444-.149.74-.297.889-.445.148-.297.148-.593.148-.89 0-.148 0-.296-.148-.445-.148-.148-.148-.296-.297-.444-.148-.149-.296-.149-.444-.297h-.445c-.148 0-.445.148-.742.148-.296 0-.74.149-1.186.297a19.1 19.1 0 01-1.482.445c-.593.148-1.038.296-1.335.445-.444.148-.74.296-1.037.296-.593.148-.742.148-.89.148zm.296-8.006h.742c.296 0 .741 0 1.186.149.445.148.89 0 1.482.148.445 0 1.038 0 1.483.148.445 0 .89 0 1.334.148h1.335c.148 0 .148 0 .296.149 0 0 .149.148.149.296s0 .297.148.445v.445c0 .148 0 .296-.148.444-.149.297-.297.297-.593.297-.149 0-.445 0-1.038-.148-.593 0-1.335-.149-2.224-.149-.89 0-1.78-.148-2.817-.148-1.038 0-1.928-.148-2.817-.148-.89 0-1.631-.148-2.224-.148-.593 0-.89-.149-1.038-.149 0 0-.148 0-.297-.148-.148 0-.148-.148-.148-.148s0-.148-.148-.297c-.148-.148 0-.296-.148-.444 0-.149 0-.297-.149-.445v-.445s0-.148.149-.148c.148 0 .296-.149.741-.297s.741-.445 1.334-.593c.445-.296 1.038-.445 1.78-.741a24.129 24.129 0 011.927-.89c.593-.296 1.334-.593 1.927-.889.593-.297 1.186-.593 1.631-.742.445-.296.89-.444 1.186-.593l.593-.296c.149 0 .149-.148.297-.148s.296 0 .296-.149h.149s.148 0 .148.149c.148.148.148.296.296.444.149.149.149.297.297.445.148.297.148.445 0 .593l-.445.445c-.148 0-.296.148-.741.297-.297.148-.741.296-1.038.444-.445.149-.89.445-1.334.593-.445.149-.89.445-1.335.593a4.476 4.476 0 00-1.186.593c-.296.149-.593.297-.741.297-.148.148-.297.148-.593.296-.148.149-.445.149-.593.297-.148 0-.148.148-.148.148H7.56zm-3.706-5.93c-.297 0-.594-.148-1.038-.148-.445-.149-.742-.297-1.186-.445a3.468 3.468 0 01-1.038-1.038c-.297-.445-.445-1.186-.593-1.927 0-.742 0-1.187.296-1.631.297-.445.593-.742.89-1.038.296-.297.741-.445 1.038-.593.444-.148.593-.148.89-.148h.74c.297 0 .742 0 1.335-.149.445 0 1.038-.148 1.483-.148.444 0 1.037-.148 1.482-.148.445 0 .89 0 1.335-.149h.74c.297 0 .594 0 1.039.149.444.148.89.296 1.186.593.445.296.741.593 1.186 1.038.296.444.445 1.037.593 1.631 0 .593 0 1.186-.148 1.482-.149.445-.297.741-.593 1.038-.297.297-.594.445-.89.593-.296.148-.593.297-.89.297-.296.148-.593.148-.89.148H9.786c-.296 0-.741 0-1.186.148-.445 0-.89.148-1.483.148-.593 0-1.038.149-1.482.149-.445 0-.89 0-1.186.148h-.593zm.148-5.041c-.297 0-.445.148-.742.148-.148 0-.444.148-.593.445-.148.148-.296.297-.296.445v.593c0 .148.148.296.148.445.148.148.297.296.445.296.296.148.741.297 1.038.297h1.631c.444 0 .741 0 1.334-.149.593-.148.89 0 1.334-.148.445-.148.89 0 1.187-.148h1.037c.445 0 .742-.148.89-.297.148-.148.296-.444.445-.889v-.445c0-.148-.149-.297-.297-.445-.148-.148-.148-.296-.296-.296-.149 0-.297-.149-.445-.149H8.747c-.445 0-1.038 0-1.482.149-.593 0-1.038 0-1.483.148-.445 0-.89 0-1.186.148-.445-.148-.593-.148-.593-.148zm-3.41-4.893c-.148 0-.296 0-.296-.148-.149 0-.149-.148-.149-.297v-4.596c0-.148 0-.296.149-.444 0-.149.148-.149.148-.149h.89c.296 0 .592.149.889.149 0 0 .148.148 0 .148v3.113h10.675c.296 0 .445 0 .593.149.148 0 .148.296.148.444v.594c0 .148 0 .444-.148.592-.148.149-.148.149-.297.149H1.483c-.593.296-.742.296-.89.296zM3.41 90.44c-.297-.148-.593-.148-.89-.444-.445-.148-.741-.445-1.038-.742a3.228 3.228 0 01-.74-1.186c-.15-.593-.297-1.186-.15-1.927.15-.741.297-1.186.594-1.63.296-.446.741-.742 1.038-.89.444-.149.741-.297 1.186-.297h.89c.148 0 .444 0 .74.148.445 0 .742.149 1.335.149.445 0 1.038.148 1.483.148.593 0 1.038.148 1.482.148.445 0 .89.148 1.335.148.444 0 .593.149.741.149.296 0 .593.148.89.296.444.148.74.445 1.186.741.444.297.593.742.89 1.187.296.444.296 1.037.296 1.63 0 .594-.149 1.038-.445 1.483a1.518 1.518 0 01-.741.89c-.297.296-.593.444-1.038.444-.297.149-.593.149-1.038.149H9.489c-.297 0-.742-.149-1.187-.149-.444 0-.89-.148-1.482-.148-.445 0-1.038-.148-1.483-.148-.445 0-.89-.148-1.186-.148-.445.148-.741.148-.741 0zm1.038-4.744h-.742c-.296 0-.444.148-.593.297l-.445.445c-.148.148-.148.296-.148.444 0 .149 0 .297.148.445.149.148.149.297.297.445.297.296.593.445 1.038.445.148 0 .296 0 .593.148.296 0 .593.148 1.038.148.445 0 .741.148 1.186.148.445 0 .89.149 1.334.149.445 0 .89.148 1.186.148.445 0 .742.148 1.038.148.445 0 .741 0 .89-.148.148-.148.444-.445.593-.741v-.445c0-.148 0-.297-.149-.445 0-.148-.148-.296-.296-.445-.148-.148-.297-.148-.445-.148-.148 0-.445-.148-.741-.148-.445 0-.741-.148-1.335-.148-.593 0-1.037-.149-1.482-.149-.593 0-1.038-.148-1.483-.148-.445 0-.741-.148-1.186-.148-.148-.297-.296-.297-.296-.297zm2.668-4.745l.742-3.707v-.148l.148-.148h.297c.148 0 .444.148.593.148.296 0 .444.148.593.148.296.149.296.297.296.594-.148.593-.296 1.186-.296 1.779l-.445 1.779c0 .296-.148.445-.445.296-.296 0-.445-.148-.741-.148-.297 0-.445-.148-.593-.148-.149 0-.297-.148-.297-.148.148 0 .148-.149.148-.297zm0-11.416c-.148 0-.296 0-.444.149 0 .296-.149.593-.297.89-.148.296-.148.592-.296.889v.148l.148.148c.148 0 .445.149.89.297.444.148 1.037.296 1.779.593.74.148 1.482.445 2.223.741.742.297 1.483.445 2.225.742.74.148 1.334.444 1.779.593.444.148.741.296.741.296l.148.148s0 .149.148.149c0 .444-.148 1.038-.296 1.482-.148.297-.297.297-.593.148-.148 0-.445-.148-.89-.296-.444-.148-1.186-.296-1.927-.593-.741-.297-1.483-.445-2.372-.741-.89-.297-1.78-.593-2.52-.742-.742-.296-1.483-.444-2.076-.593-.593-.148-1.038-.296-1.187-.445h-.148c-.148 0-.148 0-.296-.148-.149-.148-.149-.148-.297-.148v-.297s0-.296.148-.593c.149-.296.149-.593.297-1.038l.445-1.334.445-1.334c.148-.445.296-.742.296-1.038.148-.297.148-.445.148-.593 0-.148.149-.148.297-.148h.296c.149 0 .297.148.593.148.297 0 .742.296 1.335.445.445.148 1.038.296 1.779.593.593.148 1.334.445 1.927.593.742.148 1.335.445 1.928.593.593.148 1.186.445 1.779.593a18.14 18.14 0 011.482.445c.445.148.742.148.89.296.297 0 .445.149.445.297s0 .296-.148.444c0 .149-.149.297-.149.594 0 .148-.148.296-.148.593-.148.148-.148.296-.296.296h-.445c-.149 0-.297-.148-.89-.296a7.227 7.227 0 01-1.63-.593c-.594-.149-1.335-.445-2.076-.594-.742-.296-1.483-.444-2.224-.74-.742-.297-1.335-.446-1.78-.594-.444-.148-1.037-.445-1.186-.445zm2.076-6.968c0 .148.149.296.149.296.296.148.444.148.741.297.296.148.445.148.741.296h.149c.148 0 .148 0 .148-.148.148-.148.148-.445.296-.593.149-.148.149-.445.297-.593.148-.148.148-.445.296-.593 0-.148.149-.297.149-.445.148-.296.148-.296.296-.445h.445c.148 0 .296.149.445.149.148 0 .296.148.445.148.296.148.296.445.148.741-.148.297-.297.593-.445 1.038-.148.296-.297.741-.445 1.038v.296s.148.149.297.149c.296.148.593.296 1.038.444.444.149.74.297 1.186.445.444.148.741.297 1.037.445.297.148.445.148.594.148h.148s.148 0 .148-.148c.148-.296.297-.593.445-1.038.148-.445.296-.741.445-1.186l.593-1.334c0-.149.148-.149.148-.297s.148-.148.296-.148c0 0 .149 0 .297.148s.297.148.445.148c.148 0 .296.149.445.149.148 0 .296.148.296.148.148 0 .148.148.297.148.148 0 0 .148 0 .297 0 .148-.149.296-.297.593a7.307 7.307 0 00-.445 1.038c-.148.444-.296.74-.444 1.186-.149.445-.297.89-.445 1.186-.149.296-.297.741-.445.89-.148.296-.148.444-.148.444 0 .148-.149.148-.297.297-.148.148-.296 0-.445 0-.148 0-.593-.148-1.186-.445-.593-.297-1.334-.593-2.075-.89-.742-.296-1.631-.741-2.52-1.037-.89-.445-1.78-.742-2.521-1.038-.742-.297-1.483-.593-1.928-.89-.593-.296-.89-.296-1.038-.445-.296-.148-.296-.296-.148-.445 0-.148.148-.444.445-.89.297-.444.445-.889.593-1.482.148-.593.445-1.038.593-1.482.148-.445.297-.89.445-1.186.148-.593.593-.593 1.038-.297.148 0 .148.148.296.148.149 0 .149.149.297.149s.296.148.296.296v.445s0 .148-.148.296c0 .149-.148.445-.296.593-.149.297-.149.445-.297.742-.148.296-.297.593-.297.741-.148.297-.148.445-.296.593-.297.742-.297.89-.297.89z" fill="#16295B"/><path d="M13.492 49.223s.148 0 0 0h.296c.148.148.445.297.89.593.444.297 1.037.593 1.63.89.594.296 1.187.741 1.928 1.038.593.444 1.334.741 1.927 1.038.593.296 1.038.593 1.483.89.445.296.741.444.89.444a.459.459 0 00.296.148s.148-.148.148-.296c0-.149.149-.297.149-.297l.148-.296c0-.149.148-.149.148-.149h.297c.148.149.444.297.741.445.296.148.445.297.741.445.148.148.148.148.148.296 0 .149 0 .149-.148.297l-.296.593c-.149.297-.445.741-.742 1.186-.296.445-.593 1.038-.89 1.631-.296.593-.592 1.038-.889 1.63-.296.446-.593.89-.741 1.335-.148.445-.297.593-.445.742 0 .148-.148.148-.296.296-.149 0-.297 0-.445-.148-.148-.148-.297-.297-.593-.297-.148-.148-.445-.148-.593-.296-.149-.148-.149-.297-.149-.445 0-.148.149-.297.149-.297 0-.148.148-.296.148-.296.148-.148 0-.297-.148-.297a8.386 8.386 0 01-1.038-.593c-.445-.296-1.038-.593-1.63-.89-.594-.296-1.187-.74-1.928-1.037a18.91 18.91 0 01-1.78-1.038c-.444-.296-1.037-.593-1.482-.89-.445-.296-.742-.444-.89-.444-.148-.149-.296-.149-.296-.297s0-.296.148-.445c0 0 .148-.148.297-.444l.444-.89c.149-.297.445-.741.593-1.038.149-.445.445-.741.593-1.038l.445-.89c.593-.74.742-.889.742-.889zm1.037 2.817c-.148-.148-.296 0-.296.148-.148.149-.297.445-.297.593-.148.149-.296.445-.444.594-.149.148 0 .296.148.296s.148 0 .296.148c.149 0 .149.149.297.149.148.148.445.296.741.444.445.149.742.445 1.334.742.445.296 1.038.593 1.483.89.593.296 1.038.592 1.483.889.445.296.89.445 1.186.593l.593.296h.296c.149-.296.297-.444.445-.74.148-.297.297-.446.297-.742.148-.148 0-.297-.149-.297-.148 0-.296-.148-.593-.296-.296-.148-.74-.445-1.186-.593-.444-.149-1.038-.593-1.482-.89-.593-.296-1.038-.593-1.631-.89-.445-.296-.89-.593-1.335-.74-.74-.297-1.037-.446-1.186-.594zm2.669-8.599l.296-.297c.149-.148.297-.296.445-.593l.445-.444c.148-.149.148-.149.297-.149.148 0 .296.149.74.297.297.148.742.296 1.335.593.445.148 1.038.445 1.631.741.593.297 1.186.593 1.928.742.593.296 1.334.593 1.927.74.593.297 1.186.446 1.63.742.446.148.89.445 1.335.593.445.148.593.297.593.297.297.148.445.148.445.296v.593c-.148.297-.148.593-.296.89a.319.319 0 01-.297.297h-.445a7.216 7.216 0 00-1.038-.445 7.214 7.214 0 00-1.037-.445c-.149 0-.297 0-.297.148-.148.297-.445.593-.593.89-.297.296-.445.593-.741.89v.296l.296.296c.148.149.297.297.297.445.148.148.296.297.296.445l.149.148c.148.297.296.445.148.593 0 .148-.148.297-.297.593l-.296.297-.297.296c-.148.297-.445.297-.593 0l-.445-.444c-.296-.297-.593-.593-.89-1.038-.296-.445-.74-.89-1.185-1.483-.445-.593-.89-1.038-1.335-1.63-.444-.594-.89-1.187-1.334-1.632-.445-.445-.89-1.038-1.334-1.482-.445-.445-.742-.89-1.038-1.186-.149-.594-.297-.742-.445-.89zm4.003 1.78c.148.147.297.444.593.74l.741.742c.297.296.445.593.742.741.296.297.445.445.593.741.148.149.148.149.296 0 .149-.148.297-.296.297-.593.148-.148.296-.444.296-.593.149-.148.149-.296.149-.296s-.149-.149-.297-.149-.296-.148-.593-.296c-.296-.148-.445-.297-.741-.297-.297-.148-.445-.296-.742-.296-.296-.148-.444-.148-.593-.297-.296-.148-.593-.296-.74-.296h-.297v.148h.296zm.445-7.561c-.148-.149-.148-.149-.148-.297v-.297l.296-.296.593-.593c.148-.297.445-.445.742-.742.296-.296.444-.593.74-.741.15-.297.446-.445.594-.593l.296-.297.297-.296h.148c.297.148.445.296.741.593.297.296.445.445.594.741v.148l-.149.149a2.048 2.048 0 00-.445.593c-.148.296-.444.445-.593.741-.148.297-.444.445-.593.593l-.296.297.741.741c.445.297.89.741 1.483 1.334.593.445 1.186 1.038 1.779 1.483.593.445 1.186 1.038 1.78 1.483.592.444 1.037.89 1.482 1.186.445.296.741.593.741.741.148.148.297.297.297.445 0 .148 0 .296-.149.445-.148.148-.296.296-.296.444-.148.149-.297.297-.593.297h-.297c-.148-.148-.296-.297-.741-.593-.297-.297-.741-.593-1.186-1.038-.445-.445-.89-.89-1.483-1.334-.593-.445-1.038-.89-1.63-1.483-.594-.445-1.038-.89-1.631-1.334a12.119 12.119 0 01-1.335-1.186c-.445-.297-.741-.593-1.038-.89-.593-.297-.741-.445-.741-.445zm7.117-4.449c-.148-.148-.296-.445-.445-.89a2.794 2.794 0 01-.296-1.186c0-.445 0-.89.148-1.482.148-.593.593-1.038 1.186-1.631.445-.445 1.038-.741 1.483-.89.445-.148 1.038 0 1.334 0 .445.148.741.297 1.186.445.297.296.593.445.742.593l.593.593.89.89 1.037 1.038 1.038 1.037.89.89.593.593c.148.148.296.445.444.89.149.444.297.89.297 1.334 0 .445 0 1.038-.148 1.482-.149.594-.445 1.038-.89 1.483-.445.445-.89.742-1.334.89-.445.148-.742.148-1.187.148-.444 0-.74-.148-1.037-.297l-.89-.444a1.158 1.158 0 01-.593-.593c-.148-.149-.297-.297-.297-.445 0 0-.148-.297-.444-.445l-.89-.89-1.038-1.037c-.296-.445-.741-.742-1.038-1.038-.296-.297-.593-.593-.74-.89-.15-.296-.446 0-.594-.148zm4.003-2.965a2.019 2.019 0 00-.593-.445c-.148-.148-.445-.148-.741-.297h-.593c-.148 0-.297.149-.445.297-.148.148-.148.296-.296.445v.593c.148.445.296.741.444 1.038 0 .148.148.296.297.444l.741.742.89.89c.296.296.593.592.89 1.037l.889.89c.296.296.445.593.741.741.297.296.593.445.89.445.296 0 .593 0 .89-.297.148-.148.296-.148.296-.296.148-.148.148-.297.148-.445v-.445c0-.148-.148-.296-.148-.445-.148-.148-.297-.296-.445-.593-.297-.296-.593-.593-.89-1.038-.296-.444-.593-.74-1.037-1.186-.297-.444-.742-.74-1.038-1.037-.297-.297-.593-.593-.742-.89l-.148-.148zm1.779-5.634c-.148-.148-.148-.148-.148-.296 0-.149 0-.149.148-.297l.297-.297c.148-.148.444-.296.593-.444.296-.149.593-.445.74-.593.15-.149.594-.445.742-.593.297-.149.445-.297.742-.445.148-.148.296-.297.444-.297.149-.148.297-.148.445-.148h.148c.149.148.445.445.593.741.149.297.297.593.445.742v.148l-.148.148a2.047 2.047 0 01-.593.445c-.297.148-.445.445-.741.593-.297.148-.445.297-.593.445l-.297.296c.148.148.297.445.593.89.297.445.741.89 1.186 1.483.445.593.89 1.186 1.483 1.927.445.593 1.038 1.334 1.482 1.779.445.593.89 1.038 1.187 1.483.296.444.593.741.593.89.148.147.296.444.296.444 0 .148-.148.297-.296.445l-.445.445c-.148.148-.297.148-.593.148-.148 0-.297 0-.297-.148-.148-.149-.296-.297-.593-.742-.296-.296-.593-.741-.89-1.186a41.128 41.128 0 00-1.185-1.63l-1.335-1.78c-.445-.593-.89-1.186-1.334-1.63-.445-.445-.742-1.039-1.186-1.483-.297-.445-.593-.742-.742-1.038-.148-.297-.74-.445-.74-.445zm12.305-.742c0-.148 0-.445-.147-.89 0-.444-.149-.889-.297-1.482s-.148-1.186-.297-1.78c-.148-.592-.148-1.185-.296-1.63-.148-.445-.148-.89-.297-1.334 0-.297-.148-.593-.148-.593s0-.149.148-.149c.149-.148.297-.148.445-.296.148-.148.297-.148.445-.297.148-.148.297-.148.297-.296.148 0 .148-.148.296-.148s.148 0 .148.148l.297.593c.148.296.445.741.741 1.334.297.593.741 1.038 1.038 1.78.445.592.741 1.334 1.186 1.927.445.593.741 1.334 1.186 1.927.445.593.742 1.186 1.038 1.631.297.445.593.89.741 1.186.149.297.297.445.297.445s0 .148-.148.148c-.149.148-.297.148-.445.297-.148.148-.297.148-.445.296-.148.148-.297.148-.297.148-.148.149-.296.149-.444 0 0-.148-.149-.296-.445-.593-.297-.444-.445-.74-.741-1.334-.297-.593-.593-1.038-.89-1.483-.297-.444-.593-1.037-.89-1.482-.296-.445-.593-.89-.74-1.335l-.15-.148c-.147-.148 0 0-.147 0v.445c0 .148 0 .445.148.741 0 .445.148.89.296 1.483.149.593.149 1.186.297 1.78.148.592.148 1.185.296 1.778.149.593.149 1.038.149 1.335v.593s-.149.148-.297.148c-.148.148-.296.148-.445.296-.148.149-.296.149-.444.149-.149 0-.149.148-.297.148s-.445 0-.445-.148c0-.149-.148-.297-.444-.593-.149-.297-.445-.742-.742-1.186-.296-.445-.593-1.038-1.038-1.631-.444-.593-.74-1.186-1.186-1.78-.445-.593-.741-1.186-1.186-1.779-.445-.593-.741-1.038-1.038-1.63-.296-.594-.593-.89-.741-1.187-.148-.296-.297-.444-.297-.593-.148-.148-.148-.296 0-.445 0-.148.149-.296.297-.296.148-.148.297-.297.445-.297.148-.148.296-.148.593-.296h.148c.148 0 .148.148.148.148l.297.593c.148.297.445.593.593 1.038l.89 1.334.89 1.335c.296.445.444.89.74 1.186.149.296.297.593.445.593 0 0 0 .148.148.296 0 .149.149.149.149.149v-.445c.741.445.593.296.593.148zm14.827-1.334s0 .148-.148.148c-.149.149-.297.149-.445.297-.148.148-.445.148-.593.296-.148.149-.297.149-.445.149-.148 0-.148 0-.297-.148 0-.149-.148-.297-.148-.445-.148-.148-.148-.445-.296-.742-.148-.296-.297-.74-.445-1.037-.148-.297-.297-.742-.445-1.038l-.296-.593h-.297c-.296.148-.593.148-.89.296-.296.148-.593.148-.889.297-.297 0-.741.148-1.038.148-.296 0-.593-.148-1.038-.297-.296-.148-.593-.444-.741-.593-.297-.296-.445-.444-.593-.74 0-.15-.148-.446-.445-.742-.296-.297-.445-.89-.593-1.335-.148-.444-.445-.89-.593-1.334-.148-.445-.297-.741-.297-.741-.148-.297 0-.445.297-.593.148-.149.297-.149.445-.297.148 0 .296-.148.445-.148h.296c.148 0 .297.148.297.296l.89 1.78.889 1.779c.148.296.296.444.445.593.148.148.444.296.74.445h.742c.297 0 .445-.149.741-.297 0 0 0-.148-.148-.445a7.216 7.216 0 01-.444-1.038c-.149-.444-.445-.89-.594-1.334-.148-.445-.444-.89-.593-1.334a7.226 7.226 0 00-.444-1.038c-.149-.297-.149-.445-.149-.445l.297-.296c.148-.149.445-.149.593-.297.148-.148.445-.148.593-.296.148-.149.297-.149.297 0 0 0 .148.148.296.593.148.444.296.74.593 1.334l.89 1.78c.296.74.593 1.333 1.038 2.075.296.741.74 1.334 1.037 2.075.297.742.593 1.335.89 1.78.296.593.445 1.037.741 1.334-.296-.148-.148 0-.148.148zm-.148-11.861c0 .148-.149.148 0 0-.149.148-.149.296-.149.296.149.297.149.445.297.742.148.296.148.445.297.741h.296c.148 0 .445-.148.593-.296.148-.149.445-.149.593-.297.148-.148.445-.148.593-.148.148 0 .297-.148.445-.148.297-.149.445-.149.593 0 .148 0 .148.148.297.296 0 .148.148.296.148.445 0 .148.148.296.148.445 0 .296-.148.444-.445.593a7.232 7.232 0 01-1.037.444c-.297.149-.742.297-1.038.445-.149 0-.297.149-.297.149v.296c.148.296.297.593.445 1.038.148.445.297.89.445 1.186.148.445.296.741.445 1.038.148.296.148.444.148.593l.148.148h.148c.297-.148.593-.148 1.038-.297.445-.148.741-.296 1.186-.444l1.335-.445c.148 0 .148 0 .296-.148.148 0 .148 0 .297.148 0 0 .148.148.148.296 0 .149.148.297.148.445 0 .148.148.297.148.445 0 .148.149.297.149.297v.296c0 .148-.149.148-.297.297-.148 0-.296.148-.593.148-.296 0-.593.296-1.038.445-.445.148-.741.296-1.186.444-.445.149-.89.297-1.186.445-.296.148-.741.297-.89.297-.296.148-.444.148-.444.148h-.445c-.148 0-.148-.148-.297-.297 0-.148-.148-.593-.444-1.186-.149-.593-.445-1.334-.742-2.075-.296-.742-.593-1.631-.89-2.52-.296-.89-.592-1.78-.889-2.521-.296-.741-.593-1.483-.741-2.076-.148-.593-.297-.89-.445-1.038-.148-.296 0-.444.148-.444.149 0 .445-.149.89-.297s.89-.297 1.482-.593a10.225 10.225 0 011.483-.593c.445-.148.89-.297 1.186-.445.593-.148.89 0 .89.445 0 .148 0 .296.148.296 0 .149.148.149.148.297v.445c0 .148-.148.148-.296.296 0 0-.148 0-.297.149-.148 0-.444.148-.593.296-.296.148-.445.148-.741.297-.297.148-.593.148-.741.296-.297.148-.445.148-.593.297-.297.148-.445.148-.445.148zm12.751 2.668c0-.148 0-.148-.149-.296v-.445l.148-.148c.149-.149.445-.149.742-.297.296-.148.593-.148.741-.148h.148s.148 0 .148.148c.149.297.297.593.297.89 0 .296.148.593.296.89 0 .296.149.593.149 1.037 0 .445 0 .89-.148 1.483-.149.593-.445.89-.742 1.334-.296.445-.89.742-1.482.89-.445.148-.89.148-1.335.148-.445 0-.89-.148-1.186-.445a3.463 3.463 0 01-1.038-1.038 4.95 4.95 0 01-.741-1.779l-1.63-6.375c0-.296-.15-.593-.15-1.038 0-.445 0-.89.15-1.334.147-.445.296-.89.74-1.335.297-.444.89-.74 1.631-.89.593-.147 1.186-.147 1.631-.147.445.148.742.296 1.186.444.297.149.593.445.742.742l.444.89c.149.296.149.444.149.74v.594c0 .148-.149.148-.445.296-.148 0-.297 0-.445.148-.148 0-.296.149-.445.149h-.445s-.148-.149-.148-.297c0 0-.148-.148-.148-.445 0-.148-.148-.444-.297-.593-.148-.148-.296-.444-.444-.593-.149-.148-.297-.148-.593-.148-.297.148-.593.148-.742.445-.148.296-.296.445-.296.593v.593c0 .148 0 .296.148.445 0 .148.148.296.148.741s.149.741.297 1.038c.148.445.148.89.296 1.334.149.445.149.89.297 1.335.148.444.148.74.296 1.037.149.297.149.445.149.594.148.74.445 1.334.741 1.482.297.297.593.297 1.038.148.296-.148.593-.296.593-.593.148-.296.148-.593.148-.89 0-.296 0-.74-.148-1.037-.148.148-.148-.148-.297-.297zm5.781-5.337s.297-.296.593-.444l1.038-1.038 1.187-1.186 1.186-1.186c.444-.297.74-.742.89-.89l.444-.445.148-.148h.148c.149.148.297.296.445.296l.445.445c.148.149.297.297.445.297l.148.148-.296.297-.594.593c-.296.296-.593.444-.89.74-.296.297-.592.594-.889.742-.296.149-.444.445-.741.593-.296.149-.296.297-.296.297v.296c0 .149.296.297.444.742l.89 1.334c.296.445.741 1.038 1.038 1.63.445.594.741 1.039 1.038 1.484.296.444.593.89.89 1.186.296.296.296.444.296.593.148.148.148.444-.149.444 0 0-.148.149-.296.149-.148.148-.297.148-.445.296-.148.148-.296.148-.445.297-.148 0-.148.148-.148.148s-.148 0-.148-.148c0 0 0-.149-.148-.149-.742-1.037-1.483-1.927-2.076-2.816a4.51 4.51 0 01-.741-1.038 4.504 4.504 0 00-.742-1.038c-.148-.297-.445-.593-.593-.741-.148-.149-.296-.445-.296-.445-.149-.148-.149-.297-.297-.445 0-.148-.148-.148-.148-.148s-.148 0-.148.148-.149.148-.297.297l-.445.444-.445.445c-.148 0-.148.148-.148.297 0 .296.148.74.148 1.334 0 .593.149 1.186.149 1.78 0 .592.148 1.185.148 1.63 0 .445.148.89.148 1.038v.296c0 .149-.148.149-.148.149h-.297c-.148 0-.296 0-.444.148h-.742v-.297c0-.296-.148-.74-.148-1.482-.148-.742-.148-1.483-.296-2.372-.149-.89-.297-1.928-.297-2.817 0-.89-.296-1.928-.296-2.67-.149-.889-.149-1.482-.297-2.075 0-.593-.148-.89-.148-.89 0-.296 0-.444.296-.444.297 0 .445 0 .742-.148.296 0 .444-.149.74-.149.15 0 .297 0 .297.297 0 .148 0 .593.149.89 0 .444.148.889.148 1.334 0 .445.148.89.148 1.186.148.445.148.741.148.89zm9.341-2.669c0-.296.148-.593.297-1.038.148-.444.296-.74.593-1.186.296-.444.593-.74 1.186-1.037.445-.297 1.186-.445 1.927-.445.742 0 1.186.148 1.631.445.445.296.741.593 1.038 1.037.297.297.445.742.445 1.186.148.445.148.594.148.89v7.117c0 .296 0 .593-.148 1.038-.148.444-.297.89-.593 1.186-.297.296-.593.74-1.038 1.037-.445.297-1.038.445-1.631.445s-1.186 0-1.483-.296c-.445-.149-.741-.445-1.037-.593-.297-.297-.445-.593-.594-.89-.148-.296-.296-.593-.296-.89 0-.296-.148-.593-.148-.89V6.079c-.297-.445-.297-.742-.297-.742zm4.893.297c0-.297-.148-.445-.148-.741 0-.149-.149-.445-.297-.594-.148-.148-.296-.296-.445-.296-.148 0-.296-.148-.593 0-.148 0-.296.148-.445.148-.148.148-.296.297-.296.445-.148.297-.297.741-.297 1.038v6.523c0 .445.149.742.297.89.148.148.445.296.89.445h.444c.148 0 .297-.149.445-.149.148-.148.297-.148.297-.296s.148-.297.148-.445V5.634zm10.675 3.41s-.148.148-.297.593c-.148.445-.444.741-.741 1.186-.297.445-.593.89-1.038 1.483-.296.593-.741 1.038-1.038 1.483-.296.444-.593.89-.741 1.186-.148.296-.297.444-.445.593-.148.148-.296.148-.445.148h-1.779c-.148 0-.148 0-.148-.148v-.149c0-.148 0-.444.148-.89 0-.444.149-.889.149-1.482s.148-1.334.148-2.075c0-.742.148-1.483.148-2.224 0-.742.148-1.483.148-2.224 0-.742.149-1.335.149-1.928s.148-1.038.148-1.334v-.593s0-.148.148-.148l.148-.149h.89c.296 0 .593 0 .89.149 0 0 .148 0 .148.148s.148.148.148.148v.593c0 .445-.148.89-.148 1.483 0 .593-.148 1.186-.148 1.779s-.149 1.334-.149 1.927-.148 1.038-.148 1.483c0 .445 0 .741-.148.89v.296l.296-.296c.149-.149.297-.445.593-.89.297-.445.445-.741.742-1.186l.889-1.335.89-1.334c.296-.445.593-.89.741-1.186.148-.297.445-.741.741-1.186.149-.148.149-.297.297-.297h1.631c.148 0 .296 0 .445.149 0 0 .148.148.148.444 0 .297 0 .742-.148 1.038-.149.297-.149.742-.149 1.038 0 .148 0 .445-.148 1.038 0 .593-.148 1.186-.148 1.927-.148.742-.148 1.631-.297 2.373-.148.89-.148 1.63-.296 2.372 0 .741-.148 1.334-.148 1.779 0 .445-.149.741-.149.741s-.148.148-.296.148h-.742c-.296 0-.593-.148-.741-.148-.296 0-.296-.148-.296-.296 0-.297 0-.742.148-1.186 0-.445.148-.89.148-1.335 0-.445.148-1.038.148-1.482 0-.445.149-.89.149-1.335 0-.445 0-.741.148-1.038.148-.296-.445-.74-.593-.74.148 0 .148 0 0 0 .148-.15.148-.15 0 0 .148-.15.148 0 0 0zm0-7.413c0 .296 0 .445-.148.445h-2.076V.593c0-.148 0-.296.148-.445l.148-.148h.742c.148 0 .445 0 .593.148.148.149.296.149.296.445v.593c0 .297.297.148.297.445zm1.631 15.864c0-.148.148-.148.296-.148.149 0 .297 0 .297-.148l.445-.445c.148-.148.148-.445.296-.741.148-.297.148-.445.148-.742 0-.148.149-.296.149-.444 0-.297.148-.445.296-.445.297 0 .593.148.89.148.296 0 .593.149.889.149.149 0 .149.148.149.148 0 .444 0 .89-.149 1.186 0 .445-.148.741-.444 1.186-.297.445-.594.741-1.187.593-.296 0-.444-.148-.741-.148-.296 0-.593-.148-.741-.148h-.148c-.445.148-.445.148-.445 0zm15.122-11.416v6.523s.149 0 .149-.148c0 0 .148-.296.444-.593.297-.297.593-.741.89-1.334.296-.593.741-1.038 1.186-1.483.445-.593.741-1.038 1.038-1.483 0 0 .148-.148.296-.148h.149l1.631.593.148.148v.297c0 .148-.148.593-.148 1.038-.149.445-.297 1.038-.297 1.63 0 .594-.297 1.335-.445 2.076l-.445 2.224a48.262 48.262 0 01-.444 2.076 15.695 15.695 0 01-.445 1.78c-.148.592-.148.889-.297 1.333-.148.297-.148.445-.148.445h-.593c-.148 0-.296 0-.445-.148-.148 0-.296 0-.445-.148-.296 0-.444-.149-.444-.297v-.593c0-.148.148-.445.148-.741 0-.297.148-.742.296-1.186.149-.445.149-.89.297-1.483.148-.445.148-1.038.297-1.482.148-.445.148-.89.296-1.335 0-.445.148-.741.148-.89v-.148s-.148 0-.148.149c-.148.296-.445.593-.741 1.037l-.89 1.335c-.296.445-.593.741-.741 1.186-.297.296-.297.593-.445.593 0 0-.148 0-.148.148h-.148c-.297 0-.445 0-.594-.148-.148 0-.296-.148-.593-.297-.148 0-.148-.148-.296-.296v-5.041s0 .148-.148.296c0 .149-.149.297-.297.742-.148.296-.296.741-.445 1.186-.148.445-.296.89-.593 1.334-.148.445-.445.89-.593 1.335-.148.444-.296.89-.445 1.186-.148.296-.296.593-.296.741-.148.148-.148.148-.297.148-.148 0-.444-.148-.593-.148-.148 0-.444-.148-.593-.148-.148-.149-.296-.149-.445-.297-.148-.148 0-.296.149-.593 0-.148.148-.445.445-.89.296-.592.444-1.185.889-1.927.445-.741.741-1.63 1.038-2.52.445-.89.741-1.78 1.038-2.52.296-.742.593-1.483.889-2.076.297-.594.445-.89.445-1.187 0-.148.148-.296.297-.148.148 0 .296.148.444.148.149 0 .297.149.594.149.296 0 .296.148.444.148.149 0 0-.148 0-.148zm10.972 6.375s-.148 0 0 0c-.148 0-.296.148-.296.148-.149.297-.149.445-.297.742-.148.296-.148.444-.297.741v.148s0 .149.149.149c.148.148.445.148.593.296.148.148.445.148.593.296.148.149.445.149.593.297.148.148.296.148.445.148.296.149.296.149.444.297v.445c0 .148-.148.296-.148.444 0 .149-.148.297-.148.445-.148.297-.445.297-.741.148-.297-.148-.593-.296-1.038-.444a7.13 7.13 0 00-1.038-.445h-.297s-.148.148-.148.296c-.148.297-.296.593-.445 1.038-.148.445-.444.742-.593 1.186a7.201 7.201 0 01-.444 1.038c-.149.297-.149.445-.297.593v.148s0 .149.148.149l.89.445c.445.148.741.296 1.186.444l1.038.297c.148 0 .148.148.296.148.149 0 .149.148.149.297 0 0 0 .148-.149.296 0 .148-.148.297-.148.445 0 .148-.148.296-.148.445 0 .148-.148.296-.148.296 0 .149-.149.149-.297.149h-.297c-.148 0-.296-.149-.593-.297a7.238 7.238 0 00-1.037-.445 4.422 4.422 0 01-1.187-.593c-.444-.148-.741-.445-1.186-.593l-.889-.445c-.297-.148-.445-.148-.445-.148-.148 0-.148-.148-.296-.296-.149-.149 0-.297 0-.445 0-.149.296-.593.444-1.038.297-.593.593-1.186.89-2.076.296-.741.741-1.63 1.186-2.52.445-.89.741-1.631 1.186-2.52.445-.89.593-1.483.89-1.928.296-.593.444-.89.444-1.038.149-.296.297-.296.445-.148.148 0 .445.148.89.445.445.296.889.444 1.482.593.593.148 1.038.445 1.483.741.445.296.89.445 1.186.593.593.148.593.593.297 1.038 0 .148-.149.148-.149.296 0 .149-.148.149-.148.297a.319.319 0 01-.296.296h-.445s-.148 0-.297-.148c-.148 0-.444-.148-.593-.296-.296-.149-.445-.297-.741-.297-.297 0-.593-.296-.741-.296-.297-.149-.445-.149-.593-.297h-.297zm13.195 4.893v.296c-.148.149-.296.445-.593.89-.296.445-.593.89-.889 1.483-.297.593-.742 1.186-1.187 1.779-.444.593-.741 1.186-1.037 1.779-.297.593-.593 1.038-.89 1.483-.297.444-.445.74-.445.89-.148.148-.148.296-.148.296l.296.296c.149 0 .297.148.297.148s.148.149.297.149c.148 0 .148.148.148.148v.297c-.148.148-.297.444-.445.74a2.043 2.043 0 01-.445.594c-.148.148-.148.148-.296.148-.149 0-.149 0-.297-.148 0 0-.296-.148-.593-.445-.296-.148-.741-.445-1.186-.741-.445-.297-1.038-.593-1.483-.89-.593-.296-1.037-.593-1.631-1.038-.444-.296-.889-.593-1.334-.74-.445-.297-.593-.446-.741-.446-.148 0-.148-.148-.148-.296s0-.297.148-.445c.148-.148.296-.297.296-.593 0-.297.149-.445.297-.593.148-.148.296-.148.445-.148.148 0 .296.148.296.148.148 0 .297.148.297.148.148.148.296 0 .296-.148.148-.297.297-.593.593-1.038.297-.445.593-1.038.89-1.63.296-.594.741-1.187 1.186-1.78.445-.593.741-1.186 1.038-1.78.296-.592.593-1.037.889-1.482.297-.445.445-.741.445-.89.148-.148.148-.296.297-.296.148 0 .296 0 .444.148 0 0 .149.149.445.297.297.148.593.296.89.593.296.148.741.445 1.038.593.444.297.741.445 1.038.593.296.148.593.445.889.593.297.89.445.89.593 1.038zm-2.965.89c.148-.149 0-.297 0-.297-.148-.148-.445-.297-.593-.445-.148-.148-.445-.296-.593-.445-.148-.148-.297 0-.297.149 0 .148-.148.148-.148.296s-.148.148-.148.297c-.149.148-.297.444-.445.741-.148.297-.445.741-.741 1.186-.297.445-.593 1.038-.89 1.483-.296.593-.593 1.038-.89 1.482-.296.445-.444.89-.741 1.186-.148.297-.296.445-.296.594v.296c.296.148.444.297.593.445.148.148.444.296.741.445.148.148.297 0 .297-.149 0-.148.148-.296.296-.593.148-.296.445-.741.741-1.186.297-.445.593-.89.89-1.482.296-.593.593-1.038.89-1.483.296-.445.593-.89.741-1.334.296-.742.593-1.038.593-1.186zm4.3 8.303c.148 0 .296-.15.741-.446.296-.148.741-.445 1.334-.741.593-.297 1.038-.593 1.483-.89.445-.296 1.038-.593 1.483-.89.444-.296.741-.444 1.186-.74.296-.149.444-.297.444-.297s.149 0 .297.148.297.148.445.297l.445.444c.148.149.296.149.296.297.148 0 .148.148.148.148s0 .149-.148.297c0 0-.148.148-.445.593-.296.445-.593.741-.889 1.186-.445.445-.742 1.038-1.186 1.63l-1.335 1.78-1.334 1.78c-.445.592-.89 1.037-1.186 1.63-.297.445-.593.89-.89 1.186-.296.297-.296.445-.296.445h-.297c-.148 0-.296-.148-.445-.297-.148-.148-.296-.296-.444-.296-.149-.148-.149-.148-.297-.148-.148-.149-.296-.297-.148-.297 0-.148.148-.296.296-.593.297-.296.593-.741.89-1.186.296-.445.741-.89 1.038-1.334.296-.445.741-.89 1.038-1.335.296-.445.593-.89.889-1.186v-.296h-.148c-.148 0-.148.148-.297.148-.148 0-.296.148-.741.445-.296.148-.741.445-1.334.741-.445.296-1.038.593-1.631.89-.593.296-1.038.593-1.483.89-.445.296-.889.444-1.186.592-.296.148-.445.297-.593.297 0 0-.148 0-.296-.148-.149-.149-.297-.149-.445-.297-.149-.148-.297-.148-.297-.297l-.148-.148c-.148-.148-.148-.296 0-.593 0-.148.148-.296.445-.593.296-.297.593-.741.889-1.186.297-.445.742-.89 1.186-1.483.445-.593.89-1.186 1.335-1.63.445-.594.889-1.187 1.334-1.631.445-.593.741-1.038 1.186-1.483.297-.445.593-.741.89-1.038.296-.296.296-.445.445-.445.148-.148.296-.148.444-.148.149 0 .297 0 .445.148.148.149.297.297.445.297l.445.445v.148s0 .148-.149.148l-.444.445c-.149.296-.445.593-.742 1.038-.296.444-.593.741-1.037 1.186-.297.445-.742.89-1.038 1.334-.297.445-.593.741-.89 1.038-.296.297-.445.445-.445.593l-.148.148-.148.149s.148 0 .296-.149c.297-.444.593-.593.742-.74zm4.744 9.043a1423.3 1423.3 0 001.186 1.187l.297.296c.148.148.296.148.444 0 .149-.148.297-.445.742-.741l1.186-1.186 1.482-1.483 1.483-1.483a1440.575 1440.575 0 001.927-1.927c.149-.148.297-.297.297-.445.148-.148.296-.296.296-.445.149-.148.297-.148.297 0 .148.149.445.297.593.593.148.149.445.297.593.593.148.149.148.297 0 .297-.148.148-.296.445-.741.741-.445.445-.89.89-1.335 1.483-.444.593-1.037 1.038-1.63 1.78l-1.631 1.63c-.445.445-.89 1.038-1.335 1.334-.296.445-.593.593-.593.742-.148.148-.148.296 0 .444.149.149.297.149.297.297.148.148.148.297.296.297.149.148.149.296 0 .444-.296.297-.444.593-.741.742-.297.148-.593.593-.741.89l-.149.147-.148.149c-.148 0-.148.148-.296.148-.149 0-.149 0-.297-.148l-.593-.593c-.148-.149-.445-.297-.445-.445-.148-.148-.148-.445 0-.742l.297-.296c.148-.148.148-.297 0-.297a2.048 2.048 0 00-.593-.444c-.297-.149-.445-.445-.742-.742l-.889-.89-.89-.889-.593-.593-.296-.296c-.149-.149-.149-.297 0-.445 0-.148.148-.297.148-.445l.445-.445 1.038-1.038 1.334-1.334 1.483-1.482a2071.203 2071.203 0 012.817-2.817c.444-.445.741-.742.889-1.038.148-.297.593-.297.593-.297.148-.148.148-.148.297-.148.148 0 .296 0 .296.148l.445.445.445.445.148.148v.296l-6.968 7.117-.297.297c0 .148-.148.296-.148.444zm9.933 4.745c.149 0 .445-.149.742-.297l1.334-.445a7.226 7.226 0 001.631-.593c.593-.148 1.186-.296 1.631-.445.445-.148.889-.296 1.186-.444.296-.149.593-.149.593-.149s.148 0 .148.149c.149.148.149.296.297.444.148.149.296.297.296.445.149.148.149.297.297.297l.148.148s0 .148-.148.148c0 0-.148.148-.593.445-.297.297-.742.593-1.186.89-.445.444-1.038.741-1.631 1.334-.593.445-1.186.89-1.779 1.483-.593.444-1.186.89-1.78 1.482-.593.445-1.037.89-1.482 1.186-.445.297-.89.593-1.038.89-.297.297-.445.297-.445.445 0 0-.148 0-.148-.148l-.297-.297c-.148-.148-.296-.297-.296-.445 0-.148-.148-.296-.148-.296-.149-.149-.149-.297-.149-.445 0-.148.297-.297.445-.445.297-.297.741-.593 1.186-1.038.445-.445.89-.741 1.335-1.186.444-.445.889-.741 1.334-1.186.445-.297.89-.741 1.186-1.038l.148-.148v-.148h-.148c-.148 0-.296 0-.296.148-.149 0-.297.148-.742.296a18.26 18.26 0 01-1.482.445l-1.78.445c-.593.148-1.186.296-1.63.445-.445.148-.89.296-1.335.296-.296.149-.593.149-.593.149s-.148-.149-.296-.149c-.149-.148-.149-.296-.297-.445-.148-.148-.148-.296-.296-.444-.149-.148-.149-.148-.149-.297-.148-.148 0-.445.149-.593.148 0 .296-.148.593-.445.296-.296.593-.593 1.037-.89.445-.296.89-.74 1.483-1.185.593-.445 1.038-.89 1.631-1.335.593-.444 1.186-.89 1.631-1.334.593-.445 1.038-.89 1.483-1.186.444-.297.741-.593 1.037-.89.297-.148.445-.296.445-.444.148-.149.297-.149.445-.149.148 0 .296.148.445.297l.445.445c.148.148.296.296.296.444v.149l-.148.148-.445.445c-.297.148-.593.444-1.038.741-.445.297-.741.593-1.186 1.038-.445.296-.89.741-1.334 1.038-.445.296-.742.593-1.038.89-.297.296-.445.444-.593.444l-.148.148-.149.148h.445c.297.742.445.594.741.594zm.594 10.526s0-.148-.149-.148c0-.148-.148-.148-.296-.297-.148-.148-.148-.296-.297-.444-.148-.149-.148-.297-.148-.445-.148-.148-.148-.297 0-.445l.297-.296c.148 0 .296-.149.593-.445.296-.297.741-.445 1.186-.741.444-.297 1.038-.594 1.482-1.038.593-.297 1.186-.742 1.779-1.186.594-.445 1.187-.742 1.78-1.187.593-.444 1.037-.74 1.631-1.037.444-.297.889-.593 1.186-.742.296-.148.444-.296.593-.444 0 0 .148 0 .148-.149h.148s.148.149.148.297c.149.148.149.296.297.445.148.148.296.296.296.593a.458.458 0 01.149.296v.297c-.149.148-.445.296-.742.444-.296.297-.741.445-1.037.742-.445.296-.742.445-1.038.741-.297.148-.593.297-.742.445-.148 0-.148.148-.148.297.297.296.445.593.593.889.149.297.445.593.593.89l.149.148c.148 0 .296-.148.593-.445.296-.148.741-.445 1.037-.593.445-.297.742-.445 1.187-.741.444-.297.741-.445.889-.593.148-.149.297 0 .445.148.148.297.296.445.445.741.148.297.296.593.444.742 0 .148.149.148.149.296 0 0 0 .148-.149.148-.148.149-.444.297-.741.445-.445.297-.889.445-1.334.89-.445.296-1.038.593-1.631 1.038-.593.444-1.186.74-1.779 1.186-.593.444-1.186.741-1.779 1.038-.593.296-1.038.74-1.483 1.037-.445.297-.89.593-1.186.742a1.827 1.827 0 00-.445.296c-.148.148-.296.148-.445.148-.148 0-.148-.148-.296-.296s-.297-.297-.445-.593c-.148-.297-.297-.445-.445-.593-.148-.148-.148-.297 0-.445a.32.32 0 01.297-.297c.148-.148.445-.296.889-.444l1.335-.89c.444-.296.889-.593 1.482-.89.445-.296.89-.444 1.038-.593l.148-.148v-.148c-.148-.297-.444-.593-.593-.89-.148-.296-.444-.593-.593-.89-.148-.147-.148-.147-.296 0-.593.446-1.335.742-1.928 1.187-.593.445-1.334.741-1.927 1.186-.148 0-.148.148-.297.148-.148.148-.296.149-.296.297-.148 0-.297.148-.297.148-.296.297-.296.297-.444.148zm9.933 8.154c.148 0 .148-.148.297-.148.148 0 .148-.148.296-.148h.149s.148 0 .148.148c.148.148.296.445.445.741.148.297.296.445.296.742v.148s0 .148-.148.148c-.297.148-.445.297-.741.445-.297.148-.594.297-.742.445-.296.148-.593.296-1.038.296-.444.149-.889.149-1.482.149a2.861 2.861 0 01-1.483-.445c-.445-.297-.889-.593-1.186-1.186-.148-.445-.297-.742-.445-1.186 0-.445 0-.89.148-1.335.149-.445.445-.89.742-1.334.296-.445.889-.741 1.482-1.038l5.931-2.965c.296-.148.593-.297.889-.297.445-.148.89-.148 1.335-.148.445 0 .889.148 1.334.445.445.296.89.741 1.186 1.334.297.593.445 1.038.445 1.483 0 .445 0 .89-.148 1.186-.148.296-.297.593-.593.89-.297.296-.445.444-.742.593-.296.148-.444.296-.593.296-.148.148-.296.148-.296.148s-.148 0-.297.149c-.148.148-.296-.149-.296-.297s-.148-.297-.148-.445c-.149-.296-.149-.296-.149-.445-.148-.296-.148-.444-.148-.444l.297-.297.296-.296c.148-.149.445-.297.593-.445a2.05 2.05 0 00.445-.593.452.452 0 000-.593 1.158 1.158 0 00-.593-.593c-.297-.148-.445-.148-.741-.148-.297 0-.445 0-.593.148-.149 0-.297.148-.445.148-.149 0-.297.148-.593.296a7.13 7.13 0 01-1.038.445c-.445.149-.741.445-1.186.593-.445.149-.742.445-1.186.593-.297.149-.742.297-.89.445-.296.148-.445.297-.593.297-.741.296-1.186.741-1.334 1.038-.149.296-.149.593 0 1.037.148.297.444.445.741.593h.89c.296 0 .593-.148.889-.296.297 0 .445-.148.593-.297zm6.524 4.597c.148 0 .296.148.593.445.296.148.741.445 1.186.741.445.297.889.593 1.482.89.445.296 1.038.593 1.483.89.445.296.741.592 1.038.74.296.149.445.297.445.297l.148.148c.148.148 0 .148 0 .148-.148.149-.148.297-.297.445-.148.149-.148.445-.296.593-.148.149-.148.297-.297.445l-.148.148s-.148 0-.296-.148c-.149-.148-.445-.296-.742-.445-.296-.148-.593-.444-.889-.593-.297-.148-.593-.445-.89-.593-.296-.148-.593-.445-.741-.593-.148-.148-.297-.296-.445-.296h-.297l-.593.593c-.593.445-.889.741-1.334 1.186-.445.445-.89.89-1.334 1.483-.445.593-.89.889-1.335 1.334l-1.038 1.038-.444.444c-.149.149-.297.149-.593 0l-.297-.296-.296-.297-.297-.296-.148-.148v-.149l.148-.148c.89-.89 1.631-1.78 2.372-2.669.297-.296.593-.741.89-1.037l.889-.89c.297-.297.445-.593.742-.741l.445-.445.296-.297.148-.148-.148-.148c-.148 0-.148-.148-.296-.148-.149-.149-.445-.149-.594-.297-.148-.148-.444-.296-.593-.445h-.296c-.297.148-.741.297-1.186.445-.445.148-1.038.445-1.631.593-.593.148-1.038.297-1.483.593-.445.148-.741.297-.889.297h-.297c-.148 0-.148-.149-.148-.149 0-.148-.148-.148-.148-.296s-.149-.297-.149-.445c0-.148-.148-.296-.148-.445v-.444h.148c.297-.149.742-.297 1.483-.445.741-.297 1.483-.445 2.372-.89l2.669-.89c.89-.296 1.779-.593 2.52-.889.742-.297 1.483-.445 1.928-.741.593-.149.741-.297.889-.297.297-.148.445 0 .445.148.148.149.148.445.297.742 0 0 0 .296.148.445 0 .148 0 .296-.148.444-.149 0-.445.148-.89.297-.445.148-.889.296-1.186.445-.296.148-.89.296-1.186.444-.445.149-.741.149-.741.297zm4.596 8.599h1.038c.445 0 .889.148 1.186.297a2.3 2.3 0 011.186.89c.296.444.593 1.037.89 1.778.148.593.148 1.187 0 1.631-.149.445-.445.89-.742 1.186-.296.297-.593.593-1.038.742-.296.148-.593.296-.741.296-.148 0-.445.148-.741.148-.297.149-.742.149-1.186.297-.445.148-.89.148-1.483.297-.593.148-1.038.296-1.483.296-.444.148-.889.148-1.186.297-.296.148-.593.148-.741.148h-1.038c-.445 0-.889-.148-1.334-.297a2.302 2.302 0 01-1.186-.89c-.445-.444-.593-.889-.742-1.482-.148-.593-.148-1.038-.148-1.482.148-.445.297-.742.445-1.187.148-.444.445-.593.741-.74.297-.15.593-.446.89-.446.296-.148.593-.148.741-.296.297 0 .445-.148.445-.148.148 0 .296 0 .593-.149.296-.148.741-.148 1.186-.296.445-.149.89-.297 1.483-.297.444-.148 1.037-.296 1.482-.296.445 0 .593-.149.89-.297h.593zm.593 4.893c.296-.148.445-.148.593-.297.148-.148.445-.296.593-.444.148-.149.148-.297.297-.594v-.593c0-.296-.149-.296-.297-.444-.148-.149-.296-.149-.445-.297-.445-.148-.741-.148-1.186-.148-.148 0-.296 0-.593.148-.296.148-.593.148-1.038.148-.445.149-.741.149-1.186.297-.445.296-.889.296-1.334.445-.445.148-.89.148-1.186.296-.297.148-.742.148-.89.148-.445.149-.741.297-.889.445-.149.149-.297.593-.297.89 0 .148 0 .296.148.445.149.148.149.296.297.444.148.149.296.149.445.297.148 0 .296.148.444 0 .149 0 .445 0 .742-.148.445 0 .741-.149 1.334-.297.445-.148 1.038-.148 1.483-.296.444-.149 1.038-.149 1.482-.297.445-.148.742-.148 1.038-.297.297.149.445.149.445.149zm6.227 9.488h-.445s-.148-.148-.148-.445v-1.482s.148-.148.296-.148h1.631s.148 0 .148.148v.148c0 .148 0 .445.149.593v.593c0 .297-.149.297-.297.445h-.593c-.296.148-.593.148-.741.148zm-7.265 1.631l-.593-.296c-.297-.149-.741-.297-1.334-.445-.593-.148-1.038-.445-1.631-.593-.593-.297-1.186-.445-1.631-.593-.445-.149-.89-.445-1.335-.593l-.593-.297c-.148-.148-.148-.296-.296-.296 0-.149-.148-.297-.148-.445v-1.483h.148c.148 0 .445 0 .889-.148.445 0 .89-.148 1.483-.148.593 0 1.334-.149 1.927-.297.742-.148 1.483-.148 2.224-.296.742-.149 1.483-.149 2.224-.297.742-.148 1.335-.148 1.928-.148s1.038-.148 1.482-.297h.593s.149 0 .149.148c0 .149.148.149.148.149 0 .296.148.593.148.89 0 .296 0 .592.149.889v.148l-.149.148s-.296 0-.593.149c-.296.148-.889.148-1.482.148s-1.187.148-1.78.148-1.334.148-1.927.148-1.038.149-1.483.149c-.444 0-.741.148-.889.148h-.148s-.149 0-.149.148c0 0 .149 0 .297.149.148.148.593.148.889.296.445 0 .89.148 1.335.297.445.148 1.038.296 1.482.593.593.148 1.038.296 1.483.593.741 0 1.186.148 1.483.296.296.148.889.297 1.334.445.297 0 .297.148.445.148 0 0 0 .148.148.445v.593c0 .148 0 .297.148.593v.445c0 .148-.148.148-.296.148-.297 0-.742.148-1.038.148h-1.186c-.148 0-.445 0-1.038.149-.593 0-1.186.148-1.927.148-.742.148-1.631.148-2.373.297-.889.148-1.631.148-2.372.296-.741.148-1.334.148-1.779.148-.445 0-.741.149-.741.149s-.149-.149-.149-.297c0-.296-.148-.445-.148-.741v-.742c0-.296.148-.296.148-.444.297 0 .742-.149 1.187-.149.444 0 .889-.148 1.334-.148.445 0 1.038-.148 1.483-.148.444 0 .889-.148 1.334-.148.445 0 .741-.149 1.038-.149 0 0 .148 0 .148-.148 0 .148.148 0 0 0 .148 0 .148 0 0 0 .148 0 .148 0 0 0zm-.593 11.713c.148 0 .445.148.741.296.445.149.89.445 1.335.594.444.296 1.038.444 1.631.741.593.296 1.037.445 1.482.741.445.148.89.445 1.186.593.297.148.445.297.593.297v2.224c0 .148-.148.148-.296 0h-.741c-.445 0-.89 0-1.483-.149-.593 0-1.334-.148-2.076-.148-.741 0-1.482-.148-2.224-.148-.741 0-1.482-.148-2.224-.148-.741 0-1.334-.149-1.927-.149s-1.038 0-1.483-.148h-.593l-.148-.148v-1.335c0-.148.148-.296.148-.296h.593c.445 0 .89 0 1.483.148.593 0 1.186 0 1.779.148.593 0 1.186 0 1.779.149.593 0 1.038 0 1.483.148h.296l-.148-.148c-.148 0-.148-.149-.296-.149-.149 0-.297-.148-.742-.296-.148-.741-.593-.89-1.186-1.186a5.466 5.466 0 00-1.631-.741c-.593-.297-1.038-.594-1.631-.742-.444-.296-.889-.445-1.186-.593-.296-.148-.444-.296-.444-.296v-1.483c0-.148.148-.296.444-.296h.742c.444 0 .889 0 1.482.148.593 0 1.186 0 1.928.148.741 0 1.482 0 2.075.148.742 0 1.483.149 2.076.149.741 0 1.334 0 1.927.148.593 0 1.038 0 1.335.148.296.148.593 0 .593 0 .148 0 .296.148.445.148 0 .149.148.297.148.445v.593c0 .148 0 .445-.148.593 0 0 0 .148-.149.148h-.889c-.297 0-.742 0-1.335-.148s-1.037 0-1.63-.148c-.594-.148-1.187 0-1.631-.148-.445 0-1.038 0-1.335-.149h-1.186l.297.297c.148.148.593 0 .741 0zm-3.41 16.457h.297c.148 0 .148 0 .296.149 0 0 .148 0 .148.148v.148c0 .297 0 .445-.148.741 0 .297-.148.593-.148.742 0 0 0 .148-.148.148h-.149c-.296 0-.593 0-.889-.148-.297-.149-.593-.149-.89-.149-.296 0-.593-.148-1.038-.444-.444-.297-.741-.445-1.186-.89-.296-.296-.593-.741-.889-1.334-.149-.445-.297-1.038-.149-1.631.149-.445.297-.89.445-1.186.297-.445.593-.742.89-.89.445-.296.889-.445 1.334-.445.593-.148 1.186 0 1.928.149l6.375 1.482c.296 0 .593.149.889.297.593.148 1.038.296 1.335.593.296.296.593.741.889 1.186.149.445.149 1.038 0 1.779-.148.593-.296 1.038-.593 1.483-.296.296-.593.593-.889.741-.297.148-.593.297-1.038.297h-.89c-.296 0-.593 0-.741-.149-.148 0-.297-.148-.297-.148-.148 0-.148 0-.296-.148s-.148-.148 0-.445c0-.148 0-.297.148-.445 0-.148 0-.296.148-.445 0-.296.149-.444.149-.444h1.482c.297 0 .445 0 .742-.149l.444-.444v-.742c0-.148-.296-.445-.444-.593-.149-.148-.445-.296-.593-.296-.149 0-.297-.149-.445-.149-.148 0-.297-.148-.741-.148-.445 0-.742-.148-1.038-.296-.445-.149-.89-.149-1.335-.297-.444-.148-.889-.148-1.334-.296-.741.148-1.038.148-1.334 0-.297-.149-.445-.149-.593-.149-.742-.148-1.335-.148-1.78 0-.296.149-.593.445-.593.742 0 .296 0 .593.149.889.148.297.444.445.741.593.296.149.593.297.889.297.297 0 .742.148.89.296zm4.448 5.634c.148.148.444.296.889.593l.89.89c.296.444.445.889.593 1.334.148.593 0 1.186-.297 1.927-.148.593-.593 1.186-.889 1.483-.445.296-.89.445-1.186.593-.445.148-.89.148-1.186.148-.445 0-.742-.148-.89-.148-.148 0-.445-.148-.741-.297-.297-.148-.742-.296-1.186-.444-.445-.149-.89-.297-1.483-.445-.593-.148-1.038-.297-1.483-.445-.444-.148-.889-.296-1.186-.445-.296-.148-.593-.148-.741-.296-.297-.148-.445-.297-.89-.445-.296-.296-.593-.593-.889-1.038-.297-.445-.445-.889-.593-1.334-.149-.593-.149-1.038.148-1.779a2.874 2.874 0 01.741-1.335c.297-.296.593-.593.89-.741.296-.148.741-.297 1.038-.297h1.038c.296 0 .593.149.889.149.297 0 .445.148.445.148.148 0 .296.148.593.148.296.149.741.297 1.186.445.445.148.89.297 1.483.445l1.334.445c.445.148.741.296 1.186.444 0 .149.148.297.297.297zm-2.076 4.596c.296 0 .445.148.741.148.297 0 .445 0 .742-.148.148-.148.296-.148.444-.296.149-.149.149-.445.149-.593v-.445c0-.149-.149-.297-.297-.445-.296-.445-.593-.593-.889-.741-.149 0-.297-.149-.594-.149-.296-.148-.593-.148-.889-.296-.297-.148-.741-.297-1.186-.445l-1.335-.445c-.444-.148-.889-.296-1.186-.445-.296-.148-.741-.296-.889-.296-.445-.148-.742-.148-1.038 0-.297.148-.445.296-.741.741-.149.149-.149.297-.149.445v.445c0 .148.149.296.149.445.148.148.148.296.296.296s.445.148.741.297c.297.148.742.296 1.187.444.444.149.889.297 1.482.445l1.335.445c.444.148.741.297 1.037.297.593.148.89.148.89.296zm-9.489 3.558s0 .149-.148.297-.148.297-.297.593c-.148.148-.148.445-.296.593-.148.148-.148.297-.148.445-.149.148 0 .296.148.445.148 0 .445.148.89.444.444.149.889.445 1.482.742l1.779.889c.593.297 1.335.593 1.779.89.445.296 1.038.445 1.483.741.445.297.741.297.89.445.148.148.296.148.444.148.149 0 .297.149.445.149.149 0 .149.148.149.296-.149.297-.149.445-.297.741-.148.297-.148.445-.297.742 0 .148-.148.296-.296.148-.148 0-.445-.148-1.038-.445-.445-.148-1.038-.445-1.779-.741-.741-.297-1.334-.593-2.224-1.038-.741-.296-1.483-.593-2.076-1.038-.593-.445-1.186-.593-1.631-.741-.444-.148-.741-.297-.889-.445-.148-.148-.297 0-.445.148 0 .149-.148.297-.148.445-.148.148-.148.297-.148.445-.149.148-.297.296-.445.148-.297-.148-.742-.296-1.038-.445-.297-.148-.741-.296-1.038-.444 0 0-.148 0-.148-.149 0-.148-.148-.148-.297-.148-.148 0-.148-.148-.148-.148v-.297c.148-.148.148-.444.297-.741.148-.297.148-.445.296-.593.148-.148.445-.297.741-.148l.593.148c.149 0 .297 0 .297-.148 0-.149.148-.445.297-.742.148-.296.296-.593.444-1.037.149-.297.297-.742.445-1.187.148-.444.297-.741.445-1.037.148-.297.296-.593.445-.742.148-.148.148-.296.148-.444.148-.149.148-.149.296-.149h.445l.593.297c.297.148.742.296 1.335.593.444.296 1.037.445 1.779.741.593.297 1.334.593 1.927.89.593.296 1.335.593 1.928.889.593.297 1.186.593 1.631.742.444.296.889.444 1.186.593.296.148.444.296.593.296.148 0 .148.148.296.297v.296c-.148.148-.148.297-.296.593-.149.297-.149.445-.149.593 0 0 0 .149-.148.149h-.296l-9.044-4.152c-.149.148-.297.148-.445.148 0 0-.148-.148-.297 0 0-.148 0-.148 0 0zm-1.186 10.823c.148.149.297.297.445.742.296.296.593.741.889 1.186.297.445.742.889 1.038 1.334.297.445.742.89 1.038 1.335.297.444.593.741.741 1.037.149.297.297.445.297.445v.297c0 .148-.148.296-.297.444-.148.149-.148.297-.296.445-.148.149-.148.297-.148.297 0 .148-.149.148-.149.148h-.296l-.593-.296c-.297-.149-.741-.445-1.335-.742-.444-.296-1.037-.741-1.779-1.038-.593-.444-1.334-.741-1.927-1.186-.593-.445-1.334-.741-1.927-1.186-.594-.445-1.187-.741-1.631-1.038-.445-.296-.89-.593-1.186-.741a1.81 1.81 0 01-.445-.297v-.296c0-.148.148-.297.296-.445.149-.148.149-.296.297-.445.148-.148.148-.296.148-.296.148-.148.297-.297.297-.148 0 .148.296.148.593.296.444.297.741.445 1.334.741.593.297 1.038.593 1.483.89.444.297 1.037.593 1.482.89.445.296.89.593 1.335.741h.296s0-.148-.148-.148-.148-.149-.148-.297-.297-.296-.445-.593c-.297-.296-.593-.741-.89-1.186-.296-.445-.741-.89-1.038-1.483-.296-.444-.741-1.038-1.037-1.482-.297-.445-.593-.89-.742-1.186-.148-.297-.296-.445-.296-.593 0 0 0-.149.148-.297 0-.148.148-.296.297-.445.148-.148.148-.296.296-.445v.149c.148-.149.297-.149.593 0 .148 0 .297.148.593.445.297.148.741.444 1.186.741.445.296 1.038.593 1.631 1.038.593.296 1.186.741 1.779 1.186.593.445 1.186.741 1.779 1.038.593.296 1.187.741 1.631 1.037.445.297.89.593 1.186.742.297.148.445.296.593.296l.297.297c0 .148 0 .296-.148.445-.149.148-.149.296-.297.593-.148.148-.296.296-.296.444h-.149c-.148 0-.148 0-.296-.148l-.593-.296c-.297-.149-.593-.445-1.038-.742l-1.334-.889-1.335-.89c-.445-.296-.889-.445-1.186-.741-.296-.148-.593-.297-.593-.445 0 0-.148 0-.296-.148-.149 0-.149-.148-.149 0s0 .148.149.296c0 .297.148.445.296.593zm0 12.603l-.296.296c-.148.149-.297.297-.445.593a93.35 93.35 0 01-.445.445c-.148.149-.148.149-.296.149-.149 0-.297-.149-.742-.297-.296-.148-.741-.297-1.334-.593-.593-.297-1.038-.445-1.631-.741a24.158 24.158 0 00-1.927-.89c-.593-.296-1.186-.593-1.928-.89-.593-.296-1.186-.593-1.631-.741-.444-.296-.889-.445-1.186-.593l-.593-.296a1.872 1.872 0 01-.445-.297v-.593c.149-.297.149-.593.297-.89.148-.148.148-.296.297-.296.148 0 .148 0 .444.148.297.148.593.297 1.038.445.297.148.593.296 1.038.445.148 0 .297 0 .445-.149.148-.296.445-.593.741-.889.297-.297.445-.593.741-.89v-.296s-.148-.148-.148-.297c-.148-.148-.148-.296-.296-.444-.149-.149-.297-.297-.297-.445-.148-.149-.148-.149-.148-.297-.148-.296-.148-.445-.148-.593 0-.148.148-.296.444-.445l.297-.296.296-.297c.297-.296.445-.148.593 0l.445.445c.149.297.445.593.89 1.038.296.445.741.89 1.186 1.483l1.334 1.779 1.335 1.779c.444.593.889 1.038 1.186 1.631.296.445.741.889.889 1.186-.296.296-.148.445 0 .593zm-4.003-2.076c-.148-.148-.296-.445-.593-.741a1.782 1.782 0 00-.741-.741c-.297-.297-.445-.593-.741-.742-.297-.296-.445-.445-.593-.741-.149-.148-.149-.148-.297 0l-.445.445a2.054 2.054 0 00-.445.593c-.148.148-.148.296-.148.296s.148.149.297.149c.148 0 .296.148.593.296.148.148.445.297.741.445.297.148.445.296.741.445.149.148.445.148.593.296.297.148.593.297.742.297h.296v-.297zm-6.672 6.228c0-.149-.148-.297-.444-.593-.149-.297-.445-.593-.593-1.038-.297-.445-.445-.742-.742-1.186-.296-.445-.593-.89-.741-1.186-.297-.445-.445-.742-.593-1.038-.148-.297-.297-.593-.445-.742-.148-.148-.148-.296-.296-.444-.149-.149 0-.149 0-.297s0-.148.148-.296c0-.149.148-.149.296-.297.149-.148.297-.148.297-.296 0-.149.296-.149.445-.149.296 0 .444 0 .593.297 0 .148.296.445.593.889.296.593.741 1.187 1.186 1.928.445.741.889 1.631 1.483 2.372.593.89 1.037 1.631 1.482 2.372.445.742.89 1.335 1.186 1.928.297.444.445.741.593.889v.593c0 .149-.148.149-.148.297-.148.148-.148.296-.297.296-.148.149-.148.297-.296.297l-.148.148h-.297c-.148 0-.296-.148-.741-.296-.297-.149-.741-.445-1.334-.742-.445-.296-1.038-.593-1.631-.889-.593-.297-1.186-.742-1.78-1.038-.593-.297-1.186-.741-1.779-1.038-.593-.297-1.186-.593-1.631-.89-.444-.296-.889-.444-1.186-.741-.296-.148-.444-.296-.593-.296-.148 0-.148-.149-.296-.149-.149-.148-.149-.148-.297-.148v-.296c0-.149.148-.297.148-.445 0-.149.149-.297.297-.445.148-.297.297-.445.445-.445.148 0 .445 0 .741.148.148 0 .297.149.593.297.297.148.593.445 1.038.593.445.148.741.445 1.186.741.445.297.89.445 1.186.742.445.296.742.444 1.038.593.297.148.593.296.741.444.149.149.297.149.593.297.149.148.297.148.593.297.149.148.149.148.149 0 0-.149 0-.149-.149-.297 0-.148-.148-.297-.296-.297s-.148-.296-.297-.444zm-5.189 6.819c-.148 0-.148.149-.296.149s-.148.148-.297.148c-.148 0-.148.148-.296.148-.297.297-.593.445-.741.445-.297.148-.594.148-.742.148-.296 0-.593 0-.741-.148-.148-.148-.445-.148-.741-.297-.445-.296-1.038-.741-1.483-1.186l-.741-.889c-.445-.593-.742-1.186-.89-1.779 0-.297-.148-.593-.148-.742 0-.296 0-.593.148-.889.148-.297.148-.593.445-.89.148-.296.445-.593.741-.889.297-.297.593-.593.89-.742l.296-.296c.149-.148.297-.148.445 0 .148.148.297.148.297.296l.444.445c.297.297.593.593.89 1.038.296.445.741.89 1.186 1.483.445.593.89 1.037 1.483 1.63.444.593.889 1.038 1.482 1.631.445.593.89 1.038 1.335 1.483.444.445.741.741.889 1.186.148.445.445.445.445.593.148.148.148.297 0 .445l-.148.148-.297.297-.296.296-.149.148s-.148.149-.296 0h-.148l-2.966-3.41zm-4.299-5.189s-.148 0-.148.149c-.149 0-.149.148-.149.148s-.148.148-.148.296c-.148.149-.148.297-.148.593 0 .297 0 .445.148.89s.297.741.593 1.038c.297.296.593.593.89.741.296.148.444.297.741.297h.593c.148 0 .297-.149.297-.149s.148 0 .148-.148.148-.148.148-.148c.148-.148.148-.148 0-.297l-.296-.296c-.149-.149-.297-.445-.594-.593-.148-.297-.444-.445-.593-.742-.296-.296-.444-.593-.593-.741-.148-.148-.296-.445-.444-.593l-.445-.445zm-6.82 3.114l.148-.148.296-.297c.149-.148.297-.148.445-.296.149-.148.297-.148.297-.297.148-.148.296-.148.445 0l.296.297c0 .148.148.296.445.593.148.297.445.741.741 1.186.297.445.593.89 1.038 1.483.445.593.741 1.186 1.186 1.631.445.444.741 1.186 1.186 1.63.445.594.742 1.038 1.038 1.483.297.445.593.89.741 1.186.149.297.297.445.445.593l.148.149v.148s-.148.148-.296.148c-.148.148-.297.297-.445.297-.148 0-.296.296-.593.296-.148.148-.296.148-.296.297h-.297c-.148-.149-.296-.445-.593-.742-.297-.296-.445-.741-.741-1.038-.297-.296-.445-.741-.742-1.037-.296-.297-.444-.593-.444-.742-.149-.148-.149-.148-.297-.148-.296.297-.593.445-.89.593-.296.148-.593.445-.889.593l-.148.148c0 .149.148.297.444.593.149.297.445.594.742 1.038.296.445.445.742.741 1.186.297.445.445.742.593.89.148.148.148.297-.148.445-.148.148-.445.296-.741.593-.297.296-.297.741-.594.889-.148.149-.148.149-.296.149 0 0-.148 0-.148-.149-.149-.148-.297-.444-.445-.741-.297-.296-.593-.741-.89-1.334-.296-.593-.741-1.038-1.038-1.631-.444-.593-.741-1.186-1.186-1.779-.444-.593-.741-1.186-1.186-1.779-.445-.594-.741-1.038-1.038-1.483-.296-.445-.593-.741-.741-1.038a1.854 1.854 0 00-.296-.445c-.149-.148-.149-.296-.149-.444 0-.149.149-.149.297-.297s.296-.297.593-.445c.148-.148.445-.296.593-.445.148-.148.296-.148.445 0 .148.149.296.149.296.297.149.148.297.445.593.741l.89 1.335.889 1.334c.297.445.594.741.742 1.038l.148.148h.148c.297-.148.593-.445.89-.593.296-.148.593-.445.889-.593.149-.148.149-.148 0-.297-.444-.593-.889-1.186-1.186-1.779-.296-.593-.889-1.186-1.186-1.779 0-.148-.148-.148-.296-.296-.149-.149-.149-.297-.297-.297 0-.148-.148-.296-.148-.296-.148-.593-.148-.593-.148-.742zm-.742 12.899c0 .296.148.593.297 1.037.148.445.148.89 0 1.335 0 .445-.297.889-.593 1.334-.297.445-.742.89-1.483 1.335-.593.296-1.186.444-1.631.444-.445 0-.889-.148-1.334-.444a1.523 1.523 0 01-.89-.742c-.445-.445-.593-.593-.593-.889 0-.149-.148-.297-.445-.742-.148-.296-.444-.741-.593-1.186-.148-.445-.444-.889-.741-1.334-.296-.445-.445-.89-.741-1.334a4.422 4.422 0 01-.593-1.187c-.149-.444-.297-.593-.445-.741-.148-.148-.148-.593-.297-.889-.148-.297-.148-.89 0-1.335 0-.445.297-1.038.445-1.482.297-.445.741-.89 1.186-1.187.593-.296 1.038-.444 1.483-.444.445 0 .889 0 1.186.148.297.148.741.296.89.445l.741.741c.296.297.296.445.445.741.148.149.148.297.296.445 0 .148.148.297.297.593.148.297.445.593.593 1.038.296.445.445.89.741 1.334.297.445.445.89.741 1.335.297.445.445.741.593 1.038.297.296.445.444.445.593zm-4.596 1.927c.148.148.297.445.445.593.148.148.296.297.593.445.148.148.445.148.593.148.148 0 .297-.148.445-.148.148 0 .296-.297.296-.445.149-.148.149-.296.149-.593 0-.445 0-.741-.149-1.186 0-.148-.148-.297-.296-.445l-.445-.889c-.148-.297-.445-.742-.593-1.038-.148-.445-.445-.742-.593-1.186-.148-.445-.445-.742-.593-1.038l-.445-.89a1.788 1.788 0 00-.741-.741c-.297-.148-.593-.148-1.038 0-.148 0-.297.148-.445.296-.148.149-.296.297-.296.445 0 .149-.149.297-.149.445v.445c0 .148.149.445.297.741.148.297.296.741.593 1.186.296.445.593.593.889 1.186.297.445.445.89.742 1.335.296.444.445.741.593 1.038 0 .148.148.296.148.296zm-10.971 2.076v-.593c0-.445.148-.89.148-1.334 0-.593.148-1.187.148-1.78s.148-1.186.148-1.779.149-1.038.149-1.334c0-.445 0-.593.148-.593a.32.32 0 01.297-.297c.148-.148.296-.148.444-.296.149-.148.297-.148.593-.148.149 0 .297-.149.445-.149.148 0 .297-.148.297-.148h.148s0 .148.148.148c0 .149.148.445.297.742.148.444.296.889.593 1.482.296.593.445 1.186.741 1.928.297.741.593 1.334.89 2.075.296.742.593 1.038.741 1.779.296.594.445 1.187.741 1.78.149.444.445.889.445 1.186.148.296.148.444.148.593v.148s0 .148-.148.148c-.296.149-.445.297-.741.297-.149.148-.445.296-.593.296h-.149c-.148 0-.148 0-.148-.148s-.148-.296-.296-.593c-.149-.297-.445-.741-.593-1.186-.149-.593-.445-1.038-.742-1.631-.296-.593-.444-1.186-.741-1.779s-.445-1.038-.593-1.483c-.148-.445-.297-.593-.297-.741v-.148s0-.149-.148 0v1.482c0 .445 0 .89-.148 1.483 0 .593 0 1.038-.148 1.631 0 .593 0 1.038-.149 1.631 0 .593 0 1.038-.148 1.482v1.779s-.148.149-.445.149c-.148 0-.296.148-.444.148-.149 0-.297.148-.445.297-.149.148-.297.148-.445.148-.148 0-.148-.148-.297-.297a7.201 7.201 0 01-.444-1.038c0-.444-.149-.741-.297-1.186 0-.148-.148-.444-.445-1.038-.148-.593-.444-1.186-.741-1.779l-.89-2.224-.889-2.224c-.297-.741-.445-1.186-.741-1.63-.149-.445-.297-.742-.297-.742s0-.148.297-.296c.148-.149.444-.297.741-.297.296-.148.445-.148.741-.296.297 0 .445 0 .445.148.148.296.296.593.445 1.038.148.445.296.889.593 1.334.148.445.445.89.593 1.335.148.444.296.889.445 1.186l.444.889c.149.297 0 .445.149.445-.149 0 0 .148 0 0 0 .148 0 .148 0 0 0 .148 0 0 0 0zm3.558 6.524c-.148-.297-.148-.445-.148-.445s.148-.149.445-.297c.148 0 .296-.148.444-.148.149 0 .297-.148.445-.148.148 0 .297-.149.297 0 0 0 .148.148.148.296s.148.297.296.593c.149.149.149.297.297.593v.593l-.148.149c-.149.148-.445.148-.593.296-.149.148-.445.148-.593.297-.149 0-.445 0-.445-.297 0-.148-.148-.296-.148-.445-.149-.741-.297-.889-.297-1.037z" fill="#16295B"/></svg>